<?xml version="1.0" encoding="utf-8"?>
<!-- Generator: Adobe Illustrator 16.0.0, SVG Export Plug-In . SVG Version: 6.00 Build 0)  -->
<!DOCTYPE svg PUBLIC "-//W3C//DTD SVG 1.1//EN" "http://www.w3.org/Graphics/SVG/1.1/DTD/svg11.dtd">
<svg version="1.1" id="Layer_1" xmlns="http://www.w3.org/2000/svg" xmlns:xlink="http://www.w3.org/1999/xlink" x="0px" y="0px"
	 width="52.667px" height="52.666px" viewBox="0 0 52.667 52.666" enable-background="new 0 0 52.667 52.666" xml:space="preserve">
<g>
	<path fill="#FFFFFF" d="M26.333,0C11.791,0,0,11.789,0,26.333s11.791,26.333,26.333,26.333s26.334-11.789,26.334-26.333
		S40.876,0,26.333,0z M26.333,47.809c-5.466,0-10.452-2.045-14.242-5.41l0.935-0.935l0.5-0.5h-2.155l-0.109-0.351
		c-0.283-0.903-0.34-1.359-0.325-2.563c0.003-0.272-0.031-0.57-0.082-0.877l-0.363,0.363L9.59,38.439l-0.37,0.37L9.009,39.02
		c-2.608-3.555-4.151-7.941-4.151-12.687c0-11.861,9.615-21.476,21.476-21.476c4.747,0,9.132,1.543,12.687,4.151l-9.897,9.897
		c2.323-0.08,4.686-0.169,6.012-0.482c0.22-0.051,0.468-0.175,0.73-0.305c0.255-0.127,0.544-0.271,0.867-0.376
		c-0.153-0.473-0.226-1.084,0.196-1.742l0.315-0.494l0.585,0.035c0.366,0.021,0.661,0.105,0.918,0.204l3.654-3.655
		c0.494,0.557,0.95,1.147,1.385,1.753c0.194,0.271,0.377,0.548,0.559,0.828c0.202,0.31,0.396,0.625,0.581,0.946
		c-0.003,0.066-0.007,0.132-0.013,0.201c-0.011,0.132-0.031,0.377-0.015,0.523l0.379-0.088c0.086,0.162,0.183,0.316,0.266,0.481
		c0.106,0.212,0.196,0.434,0.296,0.65c1.254,2.726,1.971,5.75,1.971,8.948C47.809,38.194,38.193,47.809,26.333,47.809z"/>
	<path fill="#FFFFFF" d="M44.994,16.839c-0.065,0.015-0.124,0.022-0.177,0.022c-0.733,0-0.258-1.402-0.425-1.528
		c-0.24,0.82-1.363,1.281-2.354,1.281c-0.23,0-0.454-0.025-0.657-0.076c-0.156-1.01,1.065-0.641,1.355-1.204
		c-0.169-0.023-0.326-0.034-0.472-0.034c-1.508,0-1.852,1.167-2.688,1.84c-0.632-0.109-1.004-0.48-1.652-0.572
		c-0.054-0.008-0.096-0.026-0.153-0.029c-0.068,0.106-0.106,0.209-0.129,0.311c-0.141,0.613,0.43,1.15,0.431,1.795
		c-0.147-0.039-0.289-0.056-0.426-0.056c-0.826,0-1.484,0.621-2.282,0.809c-0.101,0.023-0.224,0.042-0.333,0.062
		c-1.667,0.325-4.327,0.389-6.944,0.482c-0.488,0.017-0.974,0.036-1.45,0.057c-0.642,0.029-1.279,0.042-1.914,0.042
		c-3.44,0-6.764-0.361-9.804-0.361c-2.119,0-4.101,0.175-5.888,0.771c-1.005,1.878-0.162,5.195,0,8.427
		c0.11,2.196,0.15,4.052,0.15,6.169c0,0.975-0.451,2.585,0.752,3.01c0.582-3.877-0.625-8.343-0.301-12.941
		c0.807,0.641,1.038,1.817,1.354,2.86c0.316,1.042,0.967,2.281,0.903,3.311c-0.056,0.916-0.971,1.748-1.053,2.707
		c-0.062,0.73,0.251,1.753,0.449,2.751c0.09,0.453,0.158,0.9,0.152,1.312c-0.015,1.169,0.038,1.563,0.302,2.408
		c0.552,0,1.103,0,1.655,0c-0.417-1.259-1.288-2.093-1.204-3.461c0.033-0.544,0.201-1.076,0.426-1.591l1.766-1.766
		c-0.075,0.621-0.186,1.208-0.237,1.853c0.895,0.647,1.186,2.022,1.612,3.234c0.425,1.204,0.984,2.246,2.405,2.246
		c0.198,0,0.414-0.02,0.647-0.063c-0.332-0.938-1.631-1.841-2.114-3.122c-0.059-0.158-0.112-0.319-0.143-0.49
		c-0.296-1.623-0.056-3.386,0.602-4.665c1.301,0.138,2.705,0.359,4.152,0.543c1.377,0.175,2.793,0.318,4.204,0.318
		c0.679,0,1.357-0.033,2.027-0.11c1.123-0.129,2.166-0.644,3.241-0.644c0.173,0,0.346,0.013,0.521,0.043
		c-0.177,1.831,0.732,2.579,1.354,3.611c-0.514,1.737-0.035,4.045,1.555,4.045c0.214,0,0.448-0.042,0.702-0.132
		c-1.186-0.954-2.146-3.65-0.902-5.268c0.324,0.729,0.068,2.039,0.149,3.011c0.51,0.542,0.916,1.19,1.204,1.956
		c0.099-0.021,0.194-0.03,0.287-0.03c0.331,0,0.621,0.106,0.836,0.106c0.092,0,0.17-0.02,0.231-0.077
		c0.069-1.093-1.112-1.629-1.354-2.707c-0.226-1.008,0.143-2.166-0.15-3.463c0.473-1.4,1.866-1.799,2.558-3.913
		c0.758-2.312-0.048-5.811,1.806-6.771c0.368-0.191,0.776-0.217,1.212-0.217c0.162,0,0.328,0.004,0.497,0.004
		c0.322,0,0.656-0.013,0.998-0.089c0.434,0.439,1.052,0.666,1.65,0.666c0.806,0,1.576-0.411,1.812-1.267
		c-0.736-0.92-2.285-2.014-2.106-3.461C43.758,17.83,44.648,17.806,44.994,16.839z"/>
	<path fill="#FFFFFF" d="M17.455,33.176c-0.5,1.162-0.658,2.675-0.41,4.039c0.011,0.061,0.04,0.116,0.056,0.175l0.419-0.419
		l2.896-2.896l0.444-0.444c-0.431-0.057-0.86-0.116-1.285-0.175C18.848,33.354,18.138,33.255,17.455,33.176z"/>
	<path fill="#FFFFFF" d="M13.853,35.904l-0.228-0.165l0.022-0.28c0.033-0.408,0.09-0.791,0.147-1.174
		c0.002-0.011,0.003-0.021,0.005-0.032c-0.539,0.878-1.052,1.833-1.11,2.781c-0.046,0.745,0.252,1.317,0.597,1.979
		c0.208,0.398,0.422,0.81,0.582,1.293l0.078,0.237l0.396-0.396l0.643-0.643l0.387-0.387c-0.117-0.307-0.221-0.616-0.317-0.912
		C14.745,37.244,14.45,36.336,13.853,35.904z"/>
</g>
</svg>
