<?xml version="1.0" encoding="utf-8"?>
<!-- Generator: Adobe Illustrator 16.0.0, SVG Export Plug-In . SVG Version: 6.00 Build 0)  -->
<!DOCTYPE svg PUBLIC "-//W3C//DTD SVG 1.1//EN" "http://www.w3.org/Graphics/SVG/1.1/DTD/svg11.dtd">
<svg version="1.1" id="Layer_1" xmlns="http://www.w3.org/2000/svg" xmlns:xlink="http://www.w3.org/1999/xlink" x="0px" y="0px"
	 width="86.092px" height="98px" viewBox="0 0 86.092 98" enable-background="new 0 0 86.092 98" xml:space="preserve">
<g>
	<path fill="#FFFFFF" d="M48.417,10.629C43.61,1.297,32.235-1.736,22.761,0.926c2.474,9.451,10.408,17.161,20.668,17.189
		c-3.341,3.268-3.468,6.352-0.383,9.251c2.844-6.817,9.318-14.265,15.624-18.068c-1.302-1.671-2.604-3.341-3.906-5.012
		C52.413,6.205,50.321,8.303,48.417,10.629z"/>
</g>
<path fill="#FFFFFF" d="M60.889,21.874c-8.254,0-14.817,4.25-17.843,10.915c-3.025-6.666-9.589-10.915-17.843-10.915
	c-42.13,0-26.578,81.058,10.963,75.89c3.223-0.445,5.414-1.516,6.88-3.045c1.466,1.529,3.657,2.6,6.88,3.045
	C87.467,102.932,103.019,21.874,60.889,21.874z M22.279,36.432c-7.044,2.938-10.386,11.058-7.449,18.102
	c0.576,1.383-0.077,2.97-1.459,3.546c-0.341,0.142-0.695,0.209-1.042,0.209c-1.062,0-2.07-0.628-2.504-1.668
	c-4.088-9.804,0.563-21.106,10.367-25.193c1.384-0.577,2.97,0.076,3.546,1.459C24.314,34.27,23.661,35.855,22.279,36.432z"/>
</svg>
