<?xml version="1.0" encoding="utf-8"?>
<!-- Generator: Adobe Illustrator 16.0.0, SVG Export Plug-In . SVG Version: 6.00 Build 0)  -->
<!DOCTYPE svg PUBLIC "-//W3C//DTD SVG 1.1//EN" "http://www.w3.org/Graphics/SVG/1.1/DTD/svg11.dtd">
<svg version="1.1" id="Layer_1" xmlns="http://www.w3.org/2000/svg" xmlns:xlink="http://www.w3.org/1999/xlink" x="0px" y="0px"
	 width="93.641px" height="50.844px" viewBox="0 0 93.641 50.844" enable-background="new 0 0 93.641 50.844" xml:space="preserve">
<path fill="#FFFFFF" d="M90.131,21.581c-2.791-2.743-7.18-4.637-13.045-5.628c-0.463-0.101-0.947-0.177-1.478-0.229
	c-0.839-0.113-1.72-0.207-2.626-0.283c-6.441-0.836-7.78-2.106-9.188-4.086c-2.27-4.014-6.707-7.037-13.195-8.992
	C45.532,0.839,39.184,0,32.721,0h-0.004C17.624,0,0,4.603,0,17.571v8.152c0,4.354,2.233,12.194,17.178,15.844
	c9.027,2.396,32.494,6.869,33.49,7.06v-0.001l0.098,0.02c0.021,0.004,0.054,0.01,0.072,0.014c8.734,1.449,16.092,2.185,21.867,2.185
	c5.416,0,9.611-0.628,12.825-1.92c5.155-2.075,8.11-6.125,8.11-11.11v-8.152C93.643,27.548,93.034,24.435,90.131,21.581z
	 M74.778,21.519c0.057,0.005,0.102,0.014,0.155,0.02L44.274,32.254c-3.665-0.724-8.244-1.645-12.687-2.578l31.421-10.981
	c2.124,1.18,4.97,2.007,9.204,2.547C73.083,21.312,73.938,21.401,74.778,21.519z M42.96,6.555L6.407,19.331
	c-0.312-0.743-0.485-1.531-0.485-2.369C5.922,7.426,27.356,3.959,42.96,6.555z M9.682,23.086L49.07,9.318
	c0.505-0.176,0.901-0.515,1.171-0.932c3.832,1.386,6.737,3.31,7.991,5.772l0.004-0.002c0.25,0.362,0.506,0.704,0.766,1.037
	L23.618,27.562c-0.185,0.064-0.352,0.156-0.508,0.26c-1.803-0.415-3.415-0.806-4.704-1.149h0.002
	C14.916,25.827,11.886,24.63,9.682,23.086z M53.377,33.972l29.356-10.261c2.751,1.315,4.511,3.121,4.511,5.426
	C87.244,37.415,70.18,36.641,53.377,33.972z"/>
</svg>
