<?xml version="1.0" encoding="utf-8"?>
<!-- Generator: Adobe Illustrator 16.0.0, SVG Export Plug-In . SVG Version: 6.00 Build 0)  -->
<!DOCTYPE svg PUBLIC "-//W3C//DTD SVG 1.1//EN" "http://www.w3.org/Graphics/SVG/1.1/DTD/svg11.dtd">
<svg version="1.1" id="Layer_1" xmlns="http://www.w3.org/2000/svg" xmlns:xlink="http://www.w3.org/1999/xlink" x="0px" y="0px"
	 width="151.287px" height="76.911px" viewBox="0 0 151.287 76.911" enable-background="new 0 0 151.287 76.911"
	 xml:space="preserve">
<g>
	<path fill="#FFFFFF" d="M59.593,38.277c1.014-0.279,2.062-0.525,3.076-0.762c3.06-0.717,6.223-1.458,8.941-3.224
		c4.256-2.886,7.988-6.596,11.092-11.029c1.704-3.281,2.549-6.445,2.514-9.406c-0.175-2.861-1.104-5.705-2.684-8.226
		c-0.854-1.304-2.111-2.324-3.844-3.118c-1.479-0.678-3.108-1.106-4.786-1.521c-0.468-0.098-0.94-0.174-1.411-0.258
		c-0.123-0.021-0.245-0.046-0.368-0.067c-0.47-0.08-0.94-0.149-1.413-0.215c-0.185-0.025-0.37-0.048-0.555-0.072
		c-1.502-0.188-3.012-0.304-4.525-0.346c-0.179-0.005-0.358-0.011-0.538-0.014C64.839,0.016,64.585,0,64.332,0
		c-0.233,0-0.464,0.014-0.697,0.017c-0.103,0.001-0.206,0.005-0.309,0.008c-1.591,0.035-3.174,0.151-4.742,0.348
		c-0.116,0.015-0.232,0.028-0.348,0.043c-0.491,0.065-0.979,0.14-1.466,0.221c-0.123,0.021-0.246,0.043-0.369,0.065
		c-0.364,0.064-0.731,0.119-1.093,0.192c-1.179,0.238-2.338,0.537-3.483,0.868c-0.117,0.034-0.234,0.065-0.35,0.1
		c-0.457,0.136-0.909,0.282-1.359,0.432c-0.153,0.052-0.306,0.104-0.458,0.158c-0.459,0.16-0.916,0.323-1.367,0.497
		c-0.024,0.009-0.047,0.02-0.071,0.029c-0.521,0.203-1.041,0.405-1.55,0.627C44.45,5.04,41.623,7.021,39.44,9.616
		c-2.708,3.994-4.6,8.137-5.622,12.315c-0.541,1.693-2.343,2.362-4.143,2.902c-5.977,1.678-11.308,3.421-16.296,5.329
		c-1.899,0.665-3.424,1.981-4.899,3.254c-0.239,0.207-0.486,0.419-0.73,0.625c-3.379,2.773-5.878,6.767-7.037,11.248
		c-1.166,4.506-0.894,9.208,0.766,13.238c0.74,1.931,2.116,3.586,3.978,4.786c1.787,1.151,3.913,1.785,5.987,1.785
		c0.152,0,0.301-0.023,0.452-0.03c0.172-0.008,0.344-0.018,0.517-0.035c0.216-0.021,0.429-0.044,0.641-0.079
		c0.169-0.027,0.335-0.066,0.502-0.103c0.178-0.039,0.361-0.062,0.535-0.11c0.165-0.033,0.337-0.058,0.506-0.087
		c0.28-0.048,0.561-0.091,0.842-0.126c0.997-0.126,2.076-0.191,3.323-0.191c1.03,0,2.079,0.04,3.093,0.078
		c1.013,0.038,2.061,0.078,3.09,0.078c1.411,0,2.577-0.074,3.669-0.232c3.494-0.2,6.651-1.803,9.705-3.354
		c0.425-0.216,0.864-0.439,1.295-0.654c0.957-0.602,1.881-1.22,2.749-1.838c1.514-1.084,2.955-2.242,4.284-3.44
		c2.374-2.417,4.849-5.068,6.874-8.07c0.585-0.916,1.033-1.986,1.466-3.021C55.958,41.562,56.964,39.16,59.593,38.277z M40.579,33.9
		c0.125,0.025,0.25,0.062,0.376,0.078c-1.628,2.169-3.524,4.207-5.635,6.055c-0.724-0.483-1.49-0.931-2.231-1.364
		c-0.627-0.367-1.276-0.746-1.898-1.146c0.772-0.561,1.527-1.18,2.257-1.778c0.784-0.643,1.589-1.297,2.429-1.897
		c0.208-0.149,0.421-0.291,0.635-0.432c0.166-0.109,0.329-0.223,0.498-0.326h0.016c0.756,0,1.508,0.235,2.235,0.462
		c0.374,0.117,0.757,0.224,1.142,0.312C40.462,33.877,40.52,33.889,40.579,33.9z M56,28.496c-0.437-0.217-0.872-0.438-1.315-0.632
		c0.112-0.132,0.235-0.266,0.351-0.399c0.478-0.548,0.967-1.084,1.469-1.609c0.317-0.332,0.657-0.676,1.01-1.029
		c0.243-0.242,0.488-0.482,0.734-0.722c0.28-0.272,0.553-0.54,0.859-0.83c1.886,1.171,3.584,2.71,5.047,4.577
		c-0.288,0.209-0.583,0.419-0.867,0.623c-1.007,0.72-2.049,1.464-2.989,2.278c-0.643-0.329-1.291-0.679-1.918-1.019
		c-0.737-0.398-1.493-0.795-2.257-1.178C56.082,28.535,56.04,28.516,56,28.496z M49.467,44.094
		c-0.019-0.106-0.021-0.213-0.002-0.322c0.009-0.053,0.025-0.107,0.044-0.161c0.014-0.04,0.023-0.08,0.044-0.12
		c0.427-0.866,1.102-1.557,1.753-2.224c0.561-0.575,1.141-1.168,1.559-1.871c0.318,0.119,0.646,0.244,0.962,0.365
		c0.336,0.128,0.684,0.262,1.021,0.387c-0.17,0.277-0.339,0.556-0.508,0.834c-1.103,1.815-2.243,3.692-3.672,5.301
		c-0.041-0.366-0.309-0.717-0.591-1.089c-0.256-0.336-0.517-0.679-0.602-1.038C49.47,44.136,49.47,44.115,49.467,44.094z
		 M47.549,42.02c-0.303,0.409-0.606,0.817-0.916,1.212c-0.363-0.176-0.733-0.352-1.092-0.521c-1.214-0.576-2.469-1.172-3.638-1.864
		c0.997-1.128,2.018-2.276,3.07-3.403c0.548-0.587,1.106-1.164,1.674-1.73c0.169-0.169,0.334-0.342,0.506-0.508l0.491,0.477
		c0.866,0.842,1.762,1.713,2.633,2.593c-0.456,0.614-0.912,1.249-1.354,1.862c-0.331,0.46-0.668,0.927-1.008,1.392
		C47.794,41.695,47.671,41.856,47.549,42.02z M36.966,59.68c-0.198,0.115-0.401,0.225-0.606,0.329
		c-0.129,0.065-0.262,0.125-0.394,0.186c-0.397,0.183-0.807,0.346-1.226,0.487c-0.105,0.036-0.209,0.075-0.316,0.107
		c-0.24,0.074-0.483,0.137-0.728,0.197c-0.128,0.031-0.257,0.058-0.386,0.085c-0.793,0.167-1.608,0.26-2.432,0.275
		c-0.116,0.002-0.232,0.002-0.349,0.001c-0.507-0.005-1.011-0.037-1.509-0.1c-0.039-0.005-0.077-0.007-0.115-0.012
		c-0.551-0.075-1.095-0.184-1.626-0.33c0.567-0.6,1.248-1.258,2.153-1.525c0.936-0.409,1.896-0.812,2.825-1.202
		c1.68-0.706,3.416-1.436,5.087-2.227c0.299,0.362,0.596,0.735,0.884,1.096c0.275,0.346,0.56,0.703,0.846,1.051
		c-0.38,0.364-0.79,0.704-1.216,1.01c-0.144,0.103-0.296,0.195-0.445,0.291C37.266,59.495,37.119,59.591,36.966,59.68z
		 M6.416,50.328c-0.482-0.202-0.972-0.383-1.459-0.546c-1.046-0.351-2.127-0.714-3.01-1.413c0.02-0.483,0.915-2.497,1.793-4.242
		c0.825-1.64,1.939-3.644,2.379-3.922l4.024,4.592c-0.168,0.558-0.892,1.97-1.591,3.334c-0.566,1.104-1.101,2.148-1.267,2.601
		c-0.103-0.059-0.217-0.097-0.323-0.15C6.783,50.492,6.601,50.406,6.416,50.328z M8.201,52.568l0.011-0.016l3.502,2.978
		c-0.294,0.22-0.624,0.708-0.973,1.225c-0.321,0.475-0.653,0.966-0.955,1.231c-0.038,0.032-0.082,0.061-0.121,0.086l-0.004,0.003
		c-0.722-0.387-1.133-0.634-1.497-0.853c-0.528-0.318-0.946-0.569-2.058-1.08C6.681,54.904,7.454,53.717,8.201,52.568z M9.814,36.21
		c0.223-0.23,0.451-0.456,0.692-0.668c0.066-0.059,0.14-0.109,0.208-0.167c0.222-0.187,0.446-0.372,0.688-0.536
		c0.901,0.498,1.621,1.265,2.318,2.006c0.681,0.724,1.384,1.473,2.26,1.979c-1.375,1.5-2.691,2.715-4.021,3.713
		c-0.349-0.308-0.707-0.619-1.053-0.92c-0.506-0.44-1.021-0.89-1.531-1.347c-0.178-0.159-0.349-0.326-0.525-0.487
		c-0.396-0.363-0.793-0.726-1.173-1.102c0.207-0.243,0.414-0.493,0.615-0.735c0.448-0.541,0.905-1.09,1.396-1.608
		C9.729,36.294,9.772,36.253,9.814,36.21z M24.774,31.359c0.097,0.057,0.188,0.125,0.275,0.198c0.022,0.019,0.045,0.037,0.067,0.057
		c0.091,0.083,0.178,0.172,0.26,0.269c0.008,0.01,0.016,0.02,0.024,0.029c0.365,0.445,0.638,1.017,0.833,1.54
		c-1.708,1.169-3.474,2.319-5.182,3.431c-0.85,0.554-1.729,1.126-2.591,1.694c-0.534-0.784-1.066-1.58-1.581-2.35
		c-0.469-0.701-0.954-1.426-1.439-2.142c2-1.335,4.362-1.937,6.647-2.519c0.445-0.113,0.905-0.23,1.352-0.351
		c0.18-0.056,0.358-0.084,0.529-0.084c0.268,0,0.509,0.073,0.73,0.189C24.724,31.335,24.75,31.345,24.774,31.359z M25.894,29.928
		c0.304-0.292,0.6-0.601,0.887-0.916c0.988-1.083,2.01-2.204,3.483-2.204c0.144,0,0.291,0.011,0.441,0.032
		c0.111-0.011,0.225-0.017,0.338-0.017c0.952,0,1.841,0.402,2.701,0.792c0.12,0.054,0.24,0.108,0.358,0.161
		c-0.315,0.274-0.634,0.561-0.941,0.838c-0.722,0.649-1.468,1.321-2.253,1.902c-0.001,0.001-0.002,0.002-0.003,0.004
		c-0.184,0.135-0.339,0.245-0.483,0.342c-0.571,0.15-1.183,0.226-1.817,0.226c-1.042,0-2.168-0.203-3.348-0.602
		c0.057-0.042,0.109-0.1,0.165-0.145C25.582,30.213,25.74,30.076,25.894,29.928z M46.443,7.526c0.369-0.291,0.75-0.577,1.137-0.858
		c0.342-0.248,0.688-0.485,1.041-0.713c0.129-0.083,0.255-0.171,0.385-0.252c0.202,0.332,0.375,0.687,0.543,1.029
		c0.162,0.331,0.337,0.663,0.53,0.984c0.042,0.071,0.095,0.135,0.14,0.204c0.104,0.157,0.197,0.321,0.32,0.464
		c0.534,0.455,1.229,0.631,1.901,0.801c0.236,0.06,0.479,0.122,0.712,0.194c-0.908,0.864-1.797,1.715-2.701,2.613
		c-0.673-0.897-1.636-1.436-2.568-1.957c-0.854-0.478-1.738-0.972-2.398-1.742c0.234-0.192,0.475-0.386,0.717-0.579
		C46.283,7.651,46.363,7.588,46.443,7.526z M58.042,1.696c0.203-0.053,0.407-0.097,0.612-0.132c0.07-0.012,0.141-0.015,0.211-0.024
		c0.169-0.021,0.338-0.044,0.508-0.048c0.707,0.424,1.312,0.983,1.896,1.524c0.168,0.156,0.341,0.316,0.516,0.472
		c-0.308,0.195-0.605,0.459-0.892,0.715c-0.187,0.167-0.379,0.338-0.576,0.492c-0.374,0.29-0.704,0.46-1.03,0.537
		c-0.023,0.005-0.047,0.012-0.071,0.017c-0.093,0.018-0.186,0.026-0.28,0.028c-0.046,0.001-0.094-0.002-0.142-0.005
		c-0.065-0.004-0.13-0.006-0.194-0.017c-1.03-0.368-1.663-1.284-2.275-2.169c-0.157-0.227-0.319-0.462-0.483-0.68
		c0.284-0.088,0.574-0.188,0.854-0.285c0.423-0.146,0.853-0.294,1.289-0.41C58.003,1.706,58.022,1.701,58.042,1.696z M67.695,2.602
		c0.194-0.054,0.397-0.099,0.604-0.141c0.142-0.028,0.285-0.052,0.429-0.074c0.236-0.036,0.474-0.072,0.727-0.092
		c0.038-0.003,0.075-0.003,0.113-0.006c0.319-0.023,0.647-0.038,0.993-0.038c0.363,0,0.738,0.013,1.144,0.038l-0.038,1.359
		c-0.487,0.193-1.007,0.292-1.545,0.292c-0.005,0-0.01,0-0.015,0c-0.993-0.002-2.093-0.333-3.36-1.012
		c0.112-0.048,0.234-0.083,0.351-0.126C67.294,2.729,67.492,2.658,67.695,2.602z M69.832,3.938
		c-0.049-0.003-0.099-0.008-0.148-0.012C69.733,3.931,69.783,3.936,69.832,3.938z M69.151,3.854
		c-0.023-0.004-0.047-0.011-0.07-0.016C69.104,3.843,69.128,3.85,69.151,3.854z M67.987,3.512c-0.035-0.013-0.069-0.024-0.104-0.038
		C67.919,3.488,67.953,3.499,67.987,3.512z M67.327,3.232c-0.023-0.011-0.046-0.022-0.069-0.033
		C67.281,3.209,67.304,3.221,67.327,3.232z M70.545,3.921c-0.07,0.007-0.14,0.016-0.21,0.02C70.405,3.938,70.475,3.928,70.545,3.921
		z M71.055,3.846c-0.005,0.001-0.01,0.004-0.016,0.005C71.045,3.85,71.05,3.848,71.055,3.846z M71.755,11.007
		c0.097-0.118,0.198-0.233,0.308-0.338c0.101-0.097,0.219-0.178,0.334-0.261c0.082-0.059,0.153-0.127,0.243-0.177
		c2.044,0.434,3.869,0.875,5.497,1.869c-0.312,0.431-0.618,0.875-0.914,1.305c-0.748,1.085-1.521,2.208-2.435,3.194
		c-1.294-1.166-2.682-2.379-4.244-3.71c0.143-0.217,0.28-0.453,0.413-0.68c0.199-0.34,0.405-0.683,0.639-1
		C71.647,11.139,71.702,11.073,71.755,11.007z M79.745,15.187c-0.165-0.26-0.3-0.538-0.396-0.838
		c0.451-1.797,1.28-3.641,2.464-5.478c0.776,1.278,1.214,2.753,1.302,4.385c0.08,1.483-0.144,3.052-0.646,4.539
		c-0.23-0.202-0.471-0.397-0.725-0.604C81.002,16.586,80.241,15.967,79.745,15.187C79.745,15.187,79.745,15.187,79.745,15.187z
		 M47.805,14.259c-1.09,1.206-2.217,2.453-3.473,3.493c-0.379-0.839-0.785-1.676-1.177-2.485c-0.601-1.238-1.221-2.518-1.751-3.821
		c2.121,0.521,4.567,1.23,6.657,2.531L47.805,14.259z M59.871,8.853c-0.072-0.064-0.137-0.14-0.214-0.197l2.271-2.268
		c1.281,0.69,2.677,1.113,4.028,1.521c0.863,0.261,1.756,0.531,2.607,0.868c-0.061,0.091-0.122,0.182-0.184,0.274
		c-0.459,0.687-0.934,1.398-1.595,1.895c-0.115,0.087-0.225,0.161-0.331,0.225c-0.194,0.011-0.398,0.011-0.598,0.017
		c-0.326,0.009-0.651,0.014-0.976,0.01c-0.327-0.004-0.656-0.01-0.996-0.027c-0.171-0.009-0.341-0.023-0.511-0.035
		c-0.354-0.024-0.708-0.047-1.084-0.084c-0.712-0.209-1.187-0.796-1.646-1.363c-0.192-0.238-0.396-0.471-0.612-0.687
		C59.979,8.949,59.925,8.901,59.871,8.853z M63.606,6.046c-0.265-0.05-0.529-0.105-0.795-0.143c-0.026-0.105-0.055-0.3-0.08-0.472
		c-0.011-0.072-0.021-0.139-0.029-0.193c0.655-0.607,1.358-1.215,2.038-1.804l0.143-0.124c1.571,0.702,3.442,1.463,5.411,1.798
		c-0.061,0.187-0.093,0.406-0.126,0.639c-0.03,0.21-0.063,0.422-0.118,0.615c-0.005,0.019-0.009,0.038-0.015,0.056
		c-0.024,0.076-0.056,0.145-0.089,0.212c-0.035,0.07-0.081,0.129-0.13,0.186c-0.027,0.031-0.047,0.069-0.079,0.095
		c-0.113,0.091-0.25,0.148-0.407,0.169c-1.329-0.044-2.633-0.35-3.894-0.645c-0.59-0.138-1.196-0.27-1.805-0.384
		C63.622,6.048,63.614,6.047,63.606,6.046z M69.682,6.954c-0.078,0.053-0.171,0.092-0.28,0.116
		C69.505,7.047,69.6,7.009,69.682,6.954z M56.839,18.692c-0.74-0.069-1.552-0.226-2.499-0.485c-0.129-0.057-0.246-0.126-0.357-0.202
		c-0.016-0.011-0.035-0.019-0.051-0.03c-0.105-0.076-0.198-0.164-0.286-0.257c-0.019-0.02-0.04-0.039-0.058-0.06
		c-0.088-0.102-0.167-0.213-0.236-0.334c-0.005-0.009-0.01-0.017-0.015-0.026c-0.37-0.674-0.449-1.637-0.233-2.881
		c0.088-0.138,0.186-0.269,0.284-0.399c0.043-0.058,0.084-0.117,0.129-0.174c0.396-0.496,0.849-0.944,1.292-1.38
		c0.289-0.284,0.586-0.577,0.86-0.875c0.34,0.247,0.674,0.515,0.998,0.774c0.783,0.627,1.592,1.276,2.537,1.667
		c0.063,0.028,0.136,0.039,0.201,0.062c0.107,0.04,0.215,0.074,0.324,0.102c0.123,0.031,0.255,0.057,0.388,0.075
		c0.138,0.019,0.276,0.03,0.415,0.036c0.073,0.003,0.133,0.018,0.209,0.018c0.452,0,0.909-0.053,1.351-0.103
		c0.112-0.013,0.224-0.026,0.335-0.038c0.097,0.111,0.198,0.228,0.299,0.344c0.107,0.123,0.214,0.247,0.317,0.366
		c-0.653,0.504-1.266,1.077-1.858,1.632c-0.636,0.595-1.293,1.211-2.001,1.739c-0.186,0.14-0.382,0.278-0.598,0.419
		c-0.288,0.037-0.593,0.056-0.906,0.056c-0.196,0-0.4-0.012-0.606-0.026C56.997,18.705,56.918,18.699,56.839,18.692z M54.271,25.343
		c-0.249,0.276-0.496,0.548-0.738,0.81c-2.537-0.927-5.182-2.243-8.321-4.141c1.554-2.351,3.67-4.308,5.717-6.2l0.097-0.089
		c0.381,0.638,0.65,1.342,0.911,2.023c0.308,0.806,0.626,1.639,1.135,2.363c0.81,0.429,1.671,0.761,2.504,1.083
		c0.552,0.212,1.122,0.433,1.673,0.679c-0.941,1.145-1.816,2.17-2.655,3.113C54.485,25.104,54.378,25.224,54.271,25.343z
		 M52.979,15.48C52.979,15.48,52.979,15.48,52.979,15.48S52.979,15.48,52.979,15.48z M51.191,16.007
		c0.074,0.138,0.145,0.277,0.211,0.418C51.336,16.283,51.265,16.145,51.191,16.007z M56.211,21.428
		c0.003,0.001,0.006,0.002,0.009,0.004C56.217,21.43,56.214,21.429,56.211,21.428z M52.986,16.004
		c0.001,0.021,0.003,0.042,0.005,0.063C52.989,16.046,52.987,16.025,52.986,16.004z M53.055,16.535
		c0.005,0.028,0.013,0.054,0.019,0.081C53.068,16.589,53.061,16.562,53.055,16.535z M53.204,17.037
		c0.011,0.027,0.022,0.052,0.034,0.078C53.226,17.089,53.214,17.063,53.204,17.037z M53.45,17.497
		c0.013,0.019,0.026,0.037,0.04,0.055C53.476,17.534,53.463,17.516,53.45,17.497z M53.835,17.916
		c0.001,0.001,0.002,0.002,0.003,0.003C53.837,17.917,53.836,17.917,53.835,17.916z M64.607,25.331
		c-0.713-0.503-1.464-0.948-2.204-1.375c-0.688-0.396-1.398-0.807-2.067-1.266c1.006-0.829,2.045-1.652,3.05-2.447l0.078-0.062
		c0.2,0.218,0.38,0.477,0.555,0.728c0.241,0.346,0.495,0.688,0.804,0.956c0.022,0.02,0.044,0.039,0.067,0.057
		c0.078,0.063,0.159,0.12,0.246,0.17c0.039,0.022,0.082,0.039,0.123,0.058c0.079,0.038,0.15,0.086,0.236,0.112
		c0.338,0.121,0.688,0.226,1.025,0.327c0.406,0.122,0.817,0.248,1.219,0.402c0.045,0.017,0.09,0.035,0.135,0.053
		c0.175,0.071,0.347,0.149,0.516,0.236c0.108,0.056,0.212,0.125,0.317,0.188c0.113,0.069,0.229,0.131,0.336,0.211
		c-0.76,0.708-1.531,1.362-2.347,2.055c-0.258,0.218-0.517,0.438-0.775,0.66c-0.401-0.388-0.84-0.726-1.29-1.045
		C64.623,25.342,64.615,25.337,64.607,25.331z M71.638,21.412c-1.931-0.216-4.316-0.717-5.646-2.69
		c0.148-0.204,0.295-0.406,0.442-0.609c0.878-1.211,1.708-2.355,2.714-3.44c1.211,1.909,2.759,3.371,4.603,4.346
		c-0.115,0.142-0.229,0.286-0.342,0.43C72.866,20.133,72.306,20.842,71.638,21.412z M61.491,10.622
		c0.015,0.012,0.031,0.023,0.046,0.035C61.522,10.646,61.506,10.634,61.491,10.622z M61.869,10.885
		c0.005,0.003,0.011,0.005,0.017,0.008C61.88,10.89,61.874,10.888,61.869,10.885z M63.64,31.725
		c0.239-1.001,5.095-4.303,7.137-5.303c0.29,0.487,0.816,0.843,1.325,1.188c0.522,0.354,1.062,0.719,1.346,1.225l-7.579,5.787
		c-0.092-0.104-1.132-1.294-2.205-2.718C63.63,31.858,63.623,31.798,63.64,31.725z M72.375,20.699
		c-0.151,0.165-0.31,0.321-0.472,0.474C72.065,21.021,72.224,20.864,72.375,20.699z M71.337,13.595
		c0.974,0.836,1.882,1.631,2.744,2.399C73.175,15.186,72.261,14.388,71.337,13.595z M57.832,13.225
		c0.029,0.021,0.058,0.041,0.087,0.061C57.89,13.266,57.861,13.246,57.832,13.225z M58.461,13.629
		c0.111,0.065,0.228,0.12,0.342,0.178C58.689,13.749,58.572,13.694,58.461,13.629z M56.543,7.366
		c0.008-0.002,0.016-0.003,0.024-0.005C56.559,7.362,56.551,7.364,56.543,7.366z M53.909,7.455
		c-0.167-0.006-0.335-0.013-0.503-0.019c-0.593-0.96-1.181-1.963-1.732-2.908c0.434-0.279,1.276-0.789,1.688-1.02
		c0.389,0.769,0.739,1.583,1.078,2.371l0.016,0.038c0.001,0.003,0.004,0.005,0.007,0.006c1.026,0.298,2.086,0.607,3.085,1.122
		c-0.894,0.39-1.824,0.44-2.536,0.44C54.646,7.485,54.271,7.47,53.909,7.455z M74.316,8.495c-0.091-0.078-0.178-0.159-0.259-0.247
		c-0.036-0.039-0.066-0.083-0.1-0.124c-0.066-0.081-0.133-0.161-0.189-0.251c-0.1-0.064-0.175-0.138-0.247-0.213
		c-0.021-0.022-0.05-0.041-0.068-0.063c-0.062-0.075-0.104-0.156-0.145-0.238c-0.017-0.035-0.036-0.068-0.05-0.104
		c-0.033-0.089-0.056-0.181-0.069-0.276c-0.004-0.026-0.006-0.053-0.009-0.08c-0.053-0.591,0.211-1.277,0.444-1.875
		c0.085-0.218,0.166-0.425,0.225-0.612c1.502,0.478,2.051,0.541,2.535,0.597c0.409,0.047,0.796,0.092,1.686,0.372
		c0.284,0.343,0.568,0.685,0.85,1.023c0.267,0.321,0.532,0.64,0.792,0.953c-0.089,0.199-0.178,0.385-0.268,0.573
		c-0.057,0.12-0.115,0.239-0.174,0.357c-0.151,0.3-0.304,0.584-0.459,0.857c-0.132,0.231-0.269,0.459-0.413,0.685
		c-0.068,0.106-0.135,0.216-0.204,0.318c-0.404-0.174-0.847-0.316-1.315-0.466c-0.887-0.285-1.794-0.579-2.469-1.109
		C74.379,8.546,74.347,8.521,74.316,8.495z M77.345,17.872c0.324-0.387,0.66-0.788,0.984-1.183c0.859,0.731,1.676,1.529,2.467,2.302
		l0.099,0.097c-1.024,1.253-2.015,2.576-2.973,3.855c-0.994,1.326-2.021,2.697-3.091,4.001c-0.338-0.395-0.691-0.8-1.032-1.191
		c-0.359-0.411-0.729-0.835-1.09-1.258C73.856,22.04,75.63,19.921,77.345,17.872z M73.21,7.151
		c-0.001-0.004-0.002-0.008-0.003-0.012C73.208,7.144,73.208,7.147,73.21,7.151z M75.216,16.111c0.214-0.253,0.429-0.505,0.63-0.768
		C75.645,15.605,75.43,15.858,75.216,16.111z M57.036,4.072c-0.011-0.014-0.023-0.027-0.034-0.041
		C57.013,4.044,57.025,4.058,57.036,4.072z M57.762,4.795c-0.091-0.071-0.176-0.149-0.26-0.229
		C57.586,4.645,57.671,4.724,57.762,4.795z M58.412,5.179c-0.132-0.059-0.26-0.123-0.38-0.199
		C58.151,5.056,58.279,5.121,58.412,5.179z M57.064,7.235c0.005-0.001,0.011-0.004,0.017-0.006
		C57.075,7.231,57.069,7.233,57.064,7.235z M43.731,49.854c1.148-1.926,2.46-3.396,4.012-4.494c0.179,0.294,0.363,0.591,0.542,0.878
		c0.357,0.575,0.727,1.17,1.07,1.77c-1.76,3.03-4.186,5.848-7.21,8.377c-0.22-0.233-0.447-0.478-0.67-0.719l-0.26-0.28
		C41.847,53.676,42.641,51.684,43.731,49.854z M38.159,51.108c-0.205,0.156-0.409,0.312-0.633,0.478
		c-0.54,0.396-1.096,0.779-1.652,1.158c-0.09,0.061-0.178,0.125-0.268,0.186c-0.611,0.413-1.225,0.816-1.829,1.213
		c-0.423,0.278-0.86,0.565-1.289,0.851c-0.495-0.538-1.02-1.077-1.527-1.599c-0.278-0.286-0.561-0.579-0.842-0.873
		c-0.135-0.141-0.268-0.285-0.401-0.427c-0.253-0.27-0.508-0.541-0.752-0.815c1.491-1.151,3.034-2.34,4.607-3.482
		c0.957,0.475,1.945,0.915,2.902,1.341c0.872,0.389,1.774,0.791,2.643,1.214c-0.176,0.145-0.366,0.293-0.555,0.442
		C38.428,50.901,38.294,51.005,38.159,51.108z M18.094,60.58c0.012-0.014,0.024-0.028,0.037-0.042
		c0.445-0.506,0.878-0.983,1.311-1.448c0.367-0.395,0.742-0.785,1.124-1.169c0.149-0.15,0.296-0.303,0.448-0.451
		c0.226,0.31,0.46,0.62,0.688,0.92c0.63,0.831,1.281,1.69,1.779,2.619c-1.814,0.468-3.769,0.923-5.808,1.354
		c-0.074-0.077-0.191-0.212-0.305-0.343c-0.095-0.109-0.192-0.222-0.263-0.298C17.445,61.325,17.773,60.946,18.094,60.58z
		 M22.489,37.244c0.041-0.029,0.081-0.058,0.122-0.086c0.613-0.432,1.278-0.802,1.962-1.181c0.886-0.491,1.801-0.998,2.611-1.665
		c0.467,0.596,0.853,0.973,1.226,1.338c0.404,0.396,0.786,0.77,1.259,1.396c-0.425,0.335-0.858,0.672-1.278,0.998
		c-1.247,0.969-2.537,1.971-3.736,3.024c-1.04-0.621-2.409-1.431-3.801-2.201c0.061-0.087,0.128-0.166,0.193-0.249
		c0.089-0.113,0.179-0.226,0.273-0.331c0.097-0.108,0.194-0.215,0.297-0.315c0.137-0.133,0.278-0.26,0.424-0.381
		C22.187,37.47,22.336,37.355,22.489,37.244z M34.593,41.361c-0.121,0.264-0.257,0.519-0.405,0.766
		c-0.104,0.173-0.213,0.343-0.328,0.509c-0.125,0.18-0.256,0.357-0.392,0.529c-0.182,0.229-0.371,0.454-0.567,0.671
		c-0.078,0.086-0.156,0.171-0.236,0.255c-0.433,0.457-0.89,0.89-1.348,1.305c-0.022,0.024-0.045,0.049-0.071,0.067
		c-0.028,0.023-0.062,0.036-0.094,0.053c-0.042,0.022-0.083,0.044-0.127,0.056c-0.053,0.015-0.107,0.025-0.166,0.026
		c-0.012,0-0.024-0.001-0.037-0.002c-0.277-0.007-0.57-0.143-0.823-0.273c-0.136-0.068-0.275-0.144-0.412-0.216
		c-0.375-0.196-0.746-0.401-1.114-0.616c-0.329-0.192-0.666-0.396-1.015-0.617c-0.17-0.107-0.34-0.217-0.509-0.328
		c-0.239-0.156-0.476-0.31-0.727-0.48c0.797-0.669,1.632-1.335,2.438-1.981c0.426-0.34,0.867-0.693,1.295-1.04
		c0.873,0.25,1.77,0.443,2.638,0.629c0.689,0.148,1.402,0.301,2.098,0.482C34.661,41.228,34.625,41.293,34.593,41.361z
		 M30.554,45.564c0.043,0.012,0.085,0.019,0.128,0.026C30.639,45.583,30.597,45.576,30.554,45.564z M25.99,39.981
		c0.223-0.182,0.438-0.367,0.663-0.546C26.429,39.613,26.211,39.799,25.99,39.981z M22.609,41.531
		c-0.004-0.001-0.008-0.003-0.012-0.005C22.602,41.527,22.605,41.529,22.609,41.531z M24.088,46.222
		c-0.067-0.004-0.135-0.01-0.202-0.013C23.954,46.212,24.021,46.218,24.088,46.222z M22.708,46.531
		c-0.037,0.023-0.076,0.044-0.113,0.068C22.632,46.576,22.671,46.555,22.708,46.531z M22.051,46.994
		c-0.028,0.022-0.057,0.044-0.084,0.066C21.994,47.038,22.022,47.016,22.051,46.994z M22.179,52.617
		c-1.264-0.59-2.463-1.456-3.469-2.504c0.523-0.44,1.023-0.939,1.506-1.421c0.924-0.921,1.879-1.874,3.045-2.474
		c0.105-0.005,0.213-0.007,0.321-0.007c1.287,0,2.579,0.366,3.828,0.721c0.417,0.118,0.849,0.241,1.27,0.346
		C25.953,49.298,23.947,50.946,22.179,52.617z M33.475,40.857c0.033,0.007,0.066,0.015,0.1,0.023
		C33.542,40.873,33.509,40.865,33.475,40.857z M29.756,31.01c0.038-0.006,0.075-0.015,0.113-0.021
		C29.832,30.995,29.794,31.004,29.756,31.01z M29.013,31.084c0.063-0.003,0.126-0.007,0.189-0.012
		C29.139,31.077,29.076,31.081,29.013,31.084z M12.879,46.643c0-0.001-0.001-0.002-0.002-0.004c-0.136-0.247-0.23-0.518-0.265-0.818
		c0.089-0.21,0.189-0.413,0.297-0.61c0.007-0.014,0.013-0.028,0.021-0.041c0.105-0.191,0.221-0.375,0.342-0.556
		c0.017-0.026,0.035-0.052,0.052-0.078c0.793-1.152,1.866-2.095,2.915-3.014c0.442-0.388,0.9-0.789,1.325-1.196
		c0.989,0.472,2.121,0.65,3.12,0.808c1.29,0.204,2.404,0.379,3.016,1.078c-1.128,1.49-2.359,2.929-3.55,4.321
		c-0.708,0.828-1.44,1.684-2.144,2.542c-0.086,0.117-0.179,0.207-0.275,0.269c-0.157,0.104-0.341,0.157-0.546,0.157
		c-0.487,0-1.014-0.281-1.479-0.529c-0.103-0.054-0.199-0.106-0.29-0.151c-0.193-0.14-0.396-0.276-0.61-0.419
		C14.085,47.918,13.291,47.386,12.879,46.643z M22.886,51.991c-0.011,0.01-0.021,0.019-0.032,0.029
		C22.865,52.01,22.875,52,22.886,51.991z M23.409,54.981c0.673-0.566,1.206-1.015,2.168-1.759c0.208,0.197,0.419,0.401,0.623,0.598
		c0.491,0.475,0.997,0.948,1.523,1.396c0.014,0.012,0.028,0.024,0.042,0.036c0.171,0.145,0.345,0.284,0.523,0.42
		c0.218,0.167,0.441,0.327,0.672,0.475c0.134,0.086,0.273,0.163,0.412,0.242c0.201,0.115,0.408,0.219,0.621,0.316
		c0.095,0.043,0.18,0.102,0.278,0.142c-0.583,0.583-1.098,1.038-1.62,1.431c-0.734,0.554-1.446,0.967-2.432,1.54
		c-0.152,0.088-0.31,0.18-0.474,0.276c-0.355-0.418-0.705-0.824-1.042-1.216c-0.834-0.966-1.621-1.879-2.441-2.94
		C22.721,55.561,23.086,55.253,23.409,54.981z M33.846,39.141c0.267,0.159,0.529,0.322,0.794,0.487
		C34.377,39.464,34.114,39.3,33.846,39.141z M10.124,50.913c0.883-1.197,1.705-2.067,2.588-2.739l3.917,2.952
		c-0.374,0.342-0.815,0.86-1.243,1.36c-0.427,0.5-0.868,1.016-1.24,1.357c-2.13-0.79-2.172-0.806-3.197-1.993
		C10.732,51.601,10.465,51.292,10.124,50.913z M35.588,46.255c0.125,0.061,0.25,0.124,0.378,0.179
		C35.838,46.378,35.714,46.316,35.588,46.255z M36.245,44.786c0.642-0.781,1.305-1.589,2.184-2.072
		c2.054,0.252,4.576,0.794,5.874,2.764c-0.996,0.692-1.881,1.482-2.904,2.454c-0.534-0.14-1.087-0.266-1.623-0.388
		c-1.575-0.359-3.204-0.73-4.625-1.519C35.54,45.645,35.898,45.208,36.245,44.786z M37.474,43.405
		c0.014-0.013,0.029-0.026,0.043-0.039C37.503,43.379,37.488,43.392,37.474,43.405z M37.933,43.022
		c0.016-0.011,0.032-0.021,0.048-0.032C37.965,43.001,37.948,43.011,37.933,43.022z M44.017,45.715
		c-0.315,0.23-0.621,0.469-0.918,0.717C43.401,46.181,43.707,45.942,44.017,45.715z M42.214,47.202
		c-0.042,0.039-0.085,0.078-0.127,0.116C42.129,47.28,42.172,47.241,42.214,47.202z M43.216,41.581
		c-0.193-0.1-0.383-0.206-0.573-0.311C42.834,41.375,43.023,41.481,43.216,41.581z M61.877,29.523
		c-0.192,0.144-0.375,0.297-0.564,0.443C61.503,29.819,61.685,29.667,61.877,29.523z M71.944,10.77
		c0.008-0.008,0.016-0.018,0.023-0.026C71.959,10.752,71.952,10.761,71.944,10.77z M67.904,2.532
		c0.015-0.003,0.03-0.007,0.045-0.011C67.935,2.525,67.919,2.528,67.904,2.532z M59.69,1.694c0.162,0.11,0.323,0.223,0.476,0.343
		C60.013,1.917,59.852,1.805,59.69,1.694z M50.812,8.545c0.069,0.045,0.136,0.095,0.209,0.134
		C50.948,8.64,50.881,8.591,50.812,8.545z M51.412,8.856c0.03,0.011,0.06,0.022,0.089,0.034C51.471,8.879,51.441,8.868,51.412,8.856
		z M49.367,6.341c0.008,0.016,0.017,0.031,0.024,0.047C49.383,6.372,49.375,6.356,49.367,6.341z M31.589,26.855
		c0.005,0.001,0.011,0.001,0.017,0.002C31.6,26.856,31.594,26.856,31.589,26.855z M32.024,26.944
		c0.016,0.004,0.032,0.008,0.048,0.013C32.056,26.952,32.041,26.948,32.024,26.944z M29.412,26.928
		c0.006-0.002,0.013-0.003,0.019-0.005C29.424,26.925,29.418,26.926,29.412,26.928z M36.58,46.681
		c0.062,0.022,0.124,0.043,0.186,0.064C36.704,46.724,36.642,46.704,36.58,46.681z M58.447,38.808
		c-0.107,0.067-0.211,0.137-0.312,0.209C58.236,38.944,58.339,38.874,58.447,38.808z M57.792,39.274
		c-0.156,0.131-0.302,0.271-0.442,0.417C57.49,39.545,57.636,39.405,57.792,39.274z M59.208,38.423
		c-0.122,0.051-0.246,0.099-0.36,0.157C58.963,38.522,59.087,38.474,59.208,38.423z M61.607,37.756
		c-0.325,0.078-0.646,0.159-0.97,0.241C60.96,37.916,61.283,37.834,61.607,37.756z M70.864,34.71
		c-0.122,0.069-0.241,0.144-0.364,0.209C70.623,34.854,70.742,34.779,70.864,34.71z M69.638,35.346
		c-0.101,0.047-0.202,0.093-0.304,0.139C69.435,35.439,69.537,35.393,69.638,35.346z M45.589,4.345
		c0.12-0.081,0.24-0.163,0.357-0.241C45.827,4.184,45.708,4.265,45.589,4.345z M41.471,7.548c0.315-0.289,0.633-0.567,0.954-0.837
		C42.101,6.983,41.783,7.262,41.471,7.548z M43.366,5.952c0.296-0.23,0.591-0.453,0.884-0.667
		C43.952,5.503,43.658,5.726,43.366,5.952z M23.042,26.829c0.154-0.048,0.31-0.097,0.465-0.146
		C23.352,26.732,23.197,26.78,23.042,26.829z M14.77,29.663c0.383-0.143,0.77-0.284,1.158-0.425
		C15.541,29.378,15.155,29.52,14.77,29.663z M18.828,28.214c0.301-0.103,0.605-0.206,0.91-0.308
		C19.435,28.008,19.131,28.111,18.828,28.214z M3.081,61.201c-0.007-0.008-0.015-0.016-0.022-0.025
		C3.066,61.185,3.074,61.192,3.081,61.201z M2.651,60.643c-0.032-0.045-0.065-0.09-0.097-0.135
		C2.585,60.553,2.619,60.598,2.651,60.643z M2.196,59.953c-0.022-0.038-0.043-0.076-0.065-0.114
		C2.152,59.876,2.173,59.915,2.196,59.953z M26.13,64.452c-0.124,0.004-0.25,0.007-0.376,0.01
		C25.879,64.459,26.004,64.456,26.13,64.452z M28.165,64.296c-0.291,0.036-0.59,0.065-0.897,0.09
		C27.566,64.362,27.866,64.333,28.165,64.296z M32.451,63.487c-0.037,0.012-0.075,0.022-0.112,0.035
		C32.375,63.509,32.414,63.499,32.451,63.487z M31.196,63.844c-0.039,0.009-0.078,0.016-0.117,0.025
		C31.118,63.86,31.157,63.853,31.196,63.844z M41.754,58.811c-0.496,0.343-1.005,0.684-1.528,1.022
		C40.741,59.5,41.25,59.16,41.754,58.811z M56.514,40.749c-0.026,0.04-0.051,0.082-0.077,0.122
		C56.462,40.83,56.487,40.789,56.514,40.749z M57,40.091c-0.065,0.079-0.129,0.158-0.191,0.24C56.871,40.249,56.935,40.17,57,40.091
		z M40.733,8.256c-0.34,0.34-0.671,0.689-0.989,1.051C40.063,8.944,40.394,8.595,40.733,8.256z M12.784,64.988
		c0.002,0,0.004,0,0.007-0.001C12.788,64.988,12.786,64.988,12.784,64.988z"/>
	<path fill="#FFFFFF" d="M151.265,50.281c-0.106-1.555-0.704-3.06-1.826-4.6c-0.958-1.315-2.169-2.486-3.429-3.669
		c-7.123-6.223-16.01-10.147-25.028-11.05c-2.639,0.167-6.075,0.511-9.246,1.704c-4.316,2.158-7.994,4.845-10.931,7.987
		c-0.621,0.579-1.441,0.861-2.505,0.861c-0.857,0-1.754-0.184-2.528-0.356c-6.028-1.461-11.53-2.55-16.818-3.329
		c-0.514-0.091-1.04-0.135-1.606-0.135c-1.431,0-2.865,0.291-4.251,0.573c-0.312,0.063-0.635,0.128-0.951,0.189
		c-4.304,0.764-8.438,3.024-11.642,6.364c-3.222,3.359-5.285,7.593-5.811,11.92c-0.362,2.468,0.286,5.048,1.823,7.265
		c1.501,2.165,3.737,3.743,6.133,4.329c2.504,0.806,4.755,2.183,6.931,3.516c1.895,1.16,3.854,2.359,5.969,3.173
		c3.146,1.535,6.685,1.682,10.107,1.825c0.475,0.02,0.966,0.041,1.446,0.064l0,0l0,0c1.131-0.057,2.24-0.144,3.296-0.258
		c1.852-0.205,3.675-0.509,5.42-0.903c3.25-0.945,6.703-2.043,9.943-3.673c0.958-0.512,1.873-1.226,2.756-1.917
		c1.72-1.343,3.499-2.731,5.709-2.735c0.006,0,0.012,0,0.018,0c0.341,0,0.69,0.033,1.037,0.099c1.021,0.253,2.056,0.552,3.056,0.841
		c2.716,0.785,5.523,1.596,8.407,1.596c0.325,0,0.651-0.011,0.968-0.031c5.125-0.433,10.195-1.843,15.071-4.189
		c3.091-2.026,5.377-4.372,6.795-6.972C150.827,56.188,151.41,53.252,151.265,50.281z M114.804,52.594
		c-0.232-0.3-0.463-0.608-0.695-0.926c-0.186-0.256-0.368-0.514-0.548-0.774c-0.283-0.409-0.567-0.827-0.852-1.268
		c-0.033-0.05-0.064-0.101-0.097-0.151c-0.625-0.973-1.258-2.023-1.91-3.173c2.505-1.289,5.308-1.96,8.019-2.609l0.129-0.031
		c0.021,0.742-0.089,1.487-0.196,2.208c-0.126,0.854-0.256,1.737-0.167,2.618c0.497,0.771,1.086,1.484,1.656,2.173
		c0.376,0.455,0.765,0.924,1.123,1.406c-1.37,0.535-2.625,0.997-3.809,1.405c-0.168,0.058-0.337,0.116-0.506,0.173
		c-0.345,0.117-0.688,0.231-1.021,0.338c-0.121-0.14-0.24-0.288-0.359-0.432C115.311,53.238,115.054,52.918,114.804,52.594z
		 M140.053,55.729c-0.3,0.117-0.603,0.228-0.909,0.327c-0.56-1.654-1.176-3.392-1.884-5.312c0.231-0.12,0.466-0.258,0.694-0.392
		c0.755-0.443,1.535-0.901,2.433-0.901c1.569,1.378,2.945,2.655,3.879,4.32c-0.481,0.223-0.963,0.459-1.429,0.688
		c-0.886,0.435-1.794,0.88-2.732,1.25C140.088,55.716,140.071,55.722,140.053,55.729z M130.868,55.279
		c-0.027-0.058-0.052-0.115-0.075-0.172c-0.08-0.194-0.148-0.395-0.205-0.601c-0.014-0.051-0.029-0.104-0.04-0.154
		c-0.045-0.19-0.074-0.389-0.098-0.59c-0.005-0.054-0.012-0.108-0.016-0.161c0.236-0.107,0.471-0.216,0.705-0.324
		c1.351-0.623,2.627-1.21,4.029-1.662c0.121,2.258,0.756,4.291,1.887,6.042c-0.17,0.068-0.34,0.138-0.511,0.208
		c-0.808,0.332-1.643,0.674-2.503,0.844c-1.562-1.122-2.444-2.122-2.949-2.999C131.012,55.57,130.935,55.428,130.868,55.279z
		 M120.419,61.167c-0.28,0.046-0.563,0.082-0.839,0.138c-0.4-0.602-0.795-1.226-1.176-1.83c-0.448-0.709-0.914-1.426-1.394-2.134
		c-0.019-0.029-0.04-0.056-0.059-0.084c-0.279-0.41-0.556-0.823-0.853-1.216c1.72-0.638,3.603-1.205,6.103-1.837
		c1.073,1.945,1.8,4.119,2.161,6.461c-0.357,0.042-0.72,0.082-1.071,0.12c-0.786,0.086-1.584,0.186-2.379,0.303
		C120.748,61.111,120.584,61.14,120.419,61.167z M123.284,38.654c0.177,0.167,0.359,0.34,0.526,0.518
		c-1.151,0.293-2.378,0.608-3.633,0.957c-0.148-1.111-0.724-2.052-1.281-2.962c-0.512-0.835-1.041-1.698-1.24-2.694
		c1.384-0.244,2.867-0.477,4.338-0.536c0.014,0.388-0.009,0.783-0.03,1.164c-0.036,0.633-0.072,1.288,0.055,1.924
		C122.261,37.683,122.781,38.177,123.284,38.654z M121.943,43.244c0.587-0.239,1.203-0.409,1.805-0.572
		c0.39-0.106,0.793-0.215,1.178-0.342c0.176,0.382,0.336,0.78,0.491,1.164c0.375,0.93,0.763,1.892,1.396,2.695
		c0.6,0.812,1.527,1.202,2.424,1.579c0.104,0.044,0.208,0.087,0.311,0.131c0.043,0.208,0.089,0.429,0.133,0.646l0.056,0.275
		c-0.816,0.12-1.631,0.32-2.418,0.514c-0.846,0.208-1.721,0.423-2.596,0.538c-0.226,0.031-0.465,0.054-0.726,0.072
		c-1.437-0.579-2.67-1.7-3.473-2.492c-0.083-0.111-0.149-0.226-0.208-0.344c-0.01-0.02-0.024-0.04-0.034-0.059
		c-0.054-0.117-0.092-0.239-0.123-0.363c-0.007-0.027-0.015-0.054-0.021-0.081c-0.026-0.132-0.042-0.268-0.042-0.408
		c0-0.009,0-0.019,0-0.028c0.007-0.769,0.409-1.647,1.207-2.626c0.145-0.078,0.295-0.144,0.445-0.21
		C121.814,43.302,121.877,43.271,121.943,43.244z M124.926,35.853c-0.013-0.555-0.023-1.104-0.032-1.636
		c0.514-0.031,1.498-0.063,1.971-0.063c-0.038,0.874-0.133,1.77-0.225,2.636c0,0.003,0,0.006,0.003,0.008
		c0.748,0.762,1.521,1.55,2.141,2.489c-1.268-0.127-2.337-0.786-3.373-1.422c-0.143-0.088-0.286-0.176-0.43-0.263
		c-0.023-0.556-0.04-1.117-0.054-1.672C124.928,35.904,124.927,35.878,124.926,35.853z M126.57,45.797
		c-0.071-0.106-0.146-0.211-0.21-0.321C126.425,45.586,126.499,45.691,126.57,45.797z M126.054,44.91
		c-0.016-0.031-0.03-0.062-0.045-0.094C126.024,44.847,126.039,44.879,126.054,44.91z M127.212,38.868
		c0.142,0.061,0.286,0.116,0.433,0.167C127.498,38.984,127.354,38.929,127.212,38.868z M128.568,39.263
		c-0.163-0.024-0.322-0.056-0.479-0.095C128.246,39.208,128.406,39.238,128.568,39.263z M131.833,34.864
		c0.203,0.053,0.403,0.114,0.6,0.185c0.066,0.024,0.129,0.055,0.195,0.082c0.158,0.063,0.316,0.127,0.467,0.207
		c0.41,0.716,0.663,1.5,0.908,2.258c0.07,0.218,0.143,0.443,0.218,0.664c-0.364,0.019-0.753,0.104-1.129,0.187
		c-0.244,0.054-0.496,0.109-0.742,0.147c-0.208,0.031-0.391,0.046-0.559,0.046c-0.238,0-0.454-0.033-0.651-0.097
		c-0.007-0.002-0.014-0.003-0.02-0.006c-0.198-0.066-0.378-0.163-0.541-0.295c-0.719-0.825-0.822-1.935-0.922-3.007
		c-0.025-0.274-0.052-0.558-0.089-0.828c0.292,0.063,0.594,0.117,0.887,0.17c0.44,0.079,0.887,0.161,1.324,0.273
		C131.797,34.854,131.815,34.859,131.833,34.864z M135.665,39.898c0.374-0.079,0.749-0.157,1.118-0.233l0.227-0.046
		c1.026,1.38,2.284,2.959,3.838,4.216c-0.145,0.133-0.28,0.309-0.423,0.495c-0.278,0.362-0.566,0.737-0.945,0.805
		c-0.142,0.023-0.292,0.005-0.437-0.052c-0.117-0.071-0.226-0.152-0.339-0.227c-0.249-0.164-0.492-0.334-0.728-0.514
		c-0.708-0.541-1.37-1.138-2.013-1.727c-0.647-0.593-1.317-1.206-2.028-1.747c0.029-0.106,0.1-0.293,0.163-0.458
		c0.025-0.065,0.048-0.126,0.066-0.177c0.376-0.09,0.761-0.175,1.147-0.258C135.428,39.949,135.546,39.923,135.665,39.898z
		 M142.489,46.81c0.245-0.542,0.81-1.01,1.305-1.417c0.181-0.148,0.352-0.289,0.495-0.423c1.075,1.15,1.523,1.475,1.918,1.76
		c0.334,0.242,0.649,0.47,1.289,1.15c0.073,0.399,0.146,0.797,0.22,1.193c0.083,0.449,0.165,0.896,0.245,1.334
		c-0.171,0.127-0.338,0.245-0.505,0.362c-0.113,0.08-0.226,0.159-0.341,0.236c-0.275,0.186-0.545,0.357-0.812,0.518
		c-0.229,0.138-0.462,0.271-0.699,0.397c-0.11,0.06-0.222,0.122-0.332,0.177c-0.267-0.35-0.584-0.69-0.919-1.051
		c-0.635-0.683-1.282-1.383-1.61-2.176c-0.016-0.037-0.031-0.075-0.045-0.112c-0.042-0.112-0.077-0.227-0.104-0.343
		c-0.012-0.051-0.018-0.104-0.027-0.157c-0.018-0.103-0.037-0.205-0.042-0.311c-0.055-0.104-0.083-0.204-0.11-0.304
		c-0.008-0.03-0.024-0.062-0.03-0.091c-0.017-0.095-0.015-0.186-0.009-0.277c0.002-0.04,0.002-0.079,0.008-0.118
		c0.015-0.093,0.039-0.184,0.074-0.272C142.467,46.86,142.478,46.835,142.489,46.81z M142.187,57.868
		c0.391,1.054,0.712,2.148,1.022,3.207l0.042,0.141c-1.504,0.592-3.014,1.259-4.474,1.905c-1.517,0.671-3.085,1.364-4.659,1.979
		c-0.101-0.511-0.211-1.037-0.317-1.545c-0.111-0.533-0.227-1.084-0.334-1.628c2.203-1.581,4.789-2.562,7.29-3.51
		C141.226,58.237,141.712,58.053,142.187,57.868z M120.097,46.393c0.002,0.024,0.004,0.048,0.007,0.072
		C120.101,46.441,120.099,46.417,120.097,46.393z M120.107,45.872c-0.004,0.03-0.006,0.06-0.009,0.089
		C120.101,45.931,120.103,45.901,120.107,45.872z M120.227,46.946c0.001,0.002,0.001,0.005,0.002,0.008
		C120.229,46.952,120.228,46.949,120.227,46.946z M129.994,42.209c-0.02-0.072-0.045-0.142-0.069-0.212
		c-0.031-0.09-0.05-0.187-0.089-0.273l3.09-0.866c0.78,1.229,1.792,2.281,2.77,3.299c0.625,0.65,1.271,1.322,1.847,2.032
		c-0.097,0.049-0.194,0.098-0.292,0.148c-0.737,0.375-1.5,0.763-2.32,0.873c-0.143,0.02-0.274,0.03-0.397,0.033
		c-0.126-0.062-0.254-0.131-0.38-0.197c-0.365-0.187-0.724-0.384-1.078-0.589c-0.294-0.171-0.592-0.353-0.893-0.544
		c-0.227-0.144-0.452-0.292-0.674-0.441c-0.183-0.123-0.363-0.241-0.549-0.371c-0.519-0.531-0.645-1.274-0.768-1.994
		C130.14,42.805,130.075,42.503,129.994,42.209z M139.23,45.141c0.016,0.002,0.031,0.008,0.047,0.009
		C139.262,45.149,139.246,45.144,139.23,45.141z M133.186,41.192c0.186,0.27,0.378,0.534,0.581,0.788
		C133.563,41.725,133.371,41.461,133.186,41.192z M130.773,38.371c0.083,0.051,0.166,0.105,0.258,0.141
		C130.942,38.477,130.858,38.422,130.773,38.371z M131.293,38.586c0.101,0.023,0.206,0.039,0.316,0.047
		C131.502,38.626,131.396,38.61,131.293,38.586z M129.961,58.293c0.118,0.147,0.229,0.299,0.333,0.457
		c0.069,0.104,0.127,0.217,0.188,0.327c0.063,0.113,0.133,0.222,0.187,0.342c-1.006,0.245-1.996,0.438-3.043,0.641
		c-0.335,0.065-0.671,0.13-1.009,0.198c-0.16-0.537-0.378-1.048-0.616-1.548c-0.002-0.005-0.005-0.011-0.008-0.017
		c-0.375-0.789-0.813-1.545-1.25-2.281c-0.406-0.683-0.825-1.389-1.184-2.117c1.3-0.233,2.626-0.445,3.909-0.649l0.047-0.008
		c0.067,0.288,0.098,0.603,0.128,0.907c0.041,0.419,0.095,0.841,0.232,1.226c0.01,0.028,0.021,0.056,0.031,0.083
		c0.037,0.092,0.08,0.182,0.131,0.268c0.023,0.039,0.053,0.074,0.079,0.111c0.05,0.071,0.088,0.148,0.151,0.213
		c0.235,0.271,0.488,0.532,0.733,0.785c0.294,0.304,0.591,0.615,0.865,0.946C129.898,58.216,129.93,58.254,129.961,58.293z
		 M130.495,44.389c-0.007-0.018-0.016-0.034-0.022-0.052C130.479,44.354,130.488,44.371,130.495,44.389z M130.681,44.76
		c-0.002-0.003-0.005-0.006-0.007-0.009C130.676,44.754,130.679,44.757,130.681,44.76z M134.629,51.797
		c-0.348,0.123-0.693,0.251-1.031,0.388C133.937,52.048,134.282,51.92,134.629,51.797z M136.673,60.073
		c-0.413,0.193-0.821,0.397-1.222,0.612C135.852,60.47,136.26,60.266,136.673,60.073z M137.606,51.75
		c0.437,1.201,0.84,2.335,1.215,3.424C138.427,54.031,138.021,52.891,137.606,51.75z M137.896,59.531
		c-0.098,0.042-0.196,0.082-0.293,0.124C137.701,59.613,137.799,59.572,137.896,59.531z M139.556,49.567
		c-0.027,0.008-0.054,0.019-0.081,0.027C139.502,49.586,139.529,49.576,139.556,49.567z M140.127,49.462
		c-0.078,0.007-0.157,0.014-0.233,0.028C139.971,49.476,140.049,49.469,140.127,49.462z M142.391,47.045
		c0.001-0.004,0.002-0.007,0.003-0.011C142.393,47.038,142.392,47.042,142.391,47.045z M142.759,43.234
		c-0.364-0.049-0.713-0.145-1.051-0.287c-0.012-0.005-0.024-0.009-0.036-0.014c-0.161-0.069-0.318-0.15-0.474-0.241
		c-0.014-0.008-0.029-0.016-0.043-0.024c-0.831-0.497-1.594-1.308-2.334-2.47c1.42,0.147,2.894,0.741,4.637,1.869L142.759,43.234z
		 M120.199,45.446c0.008-0.028,0.016-0.056,0.024-0.084C120.214,45.39,120.207,45.417,120.199,45.446z M120.395,44.925
		c0.009-0.02,0.018-0.04,0.027-0.06C120.413,44.886,120.404,44.905,120.395,44.925z M121.995,34.676c0,0.014,0,0.028-0.001,0.042
		C121.995,34.704,121.995,34.69,121.995,34.676z M118.835,44.456c0.011-0.155,0.017-0.309,0.02-0.464
		C118.853,44.146,118.847,44.301,118.835,44.456z M122.011,63.798c0.578-0.661,5.254-1.159,8.004-1.159
		c0.312,0,0.588,0.007,0.823,0.02c0.014,0.566,0.299,1.134,0.574,1.684c0.283,0.563,0.575,1.146,0.575,1.727l-9.441,1.336
		c-0.029-0.136-0.354-1.682-0.593-3.449C121.946,63.905,121.965,63.851,122.011,63.798z M134.823,61.045
		c-0.339,0.198-0.672,0.409-0.998,0.629C134.151,61.454,134.484,61.243,134.823,61.045z M144.157,57.25
		c-0.017-0.308,0.001-0.616,0.065-0.925c1.273-1.347,2.898-2.548,4.83-3.57c0.051,1.494-0.289,2.995-1.011,4.46
		c-0.656,1.333-1.619,2.591-2.785,3.642c-0.102-0.289-0.216-0.576-0.336-0.88C144.568,59.087,144.208,58.174,144.157,57.25
		C144.157,57.251,144.157,57.251,144.157,57.25z M139.131,40.234c0.154,0.023,0.308,0.049,0.46,0.082
		C139.437,40.284,139.283,40.257,139.131,40.234z M140.235,40.484c0.167,0.051,0.334,0.104,0.499,0.165
		C140.565,40.587,140.399,40.534,140.235,40.484z M141.285,40.868c0.211,0.092,0.42,0.19,0.626,0.294
		C141.7,41.056,141.491,40.957,141.285,40.868z M142.585,41.526c0.174,0.099,0.345,0.2,0.514,0.305
		C142.926,41.724,142.754,41.622,142.585,41.526z M127.889,47.098c0.017,0.01,0.032,0.022,0.048,0.032
		C127.921,47.12,127.906,47.108,127.889,47.098z M122.176,37.298c0.039,0.074,0.073,0.15,0.118,0.22
		C122.249,37.448,122.215,37.372,122.176,37.298z M122.548,37.863c0.02,0.024,0.04,0.048,0.061,0.072
		C122.588,37.912,122.568,37.888,122.548,37.863z M121.97,36.486c0.004,0.06,0.013,0.119,0.02,0.178
		C121.982,36.605,121.974,36.546,121.97,36.486z M117.118,40.688l-0.342,0.115c-1.546,0.521-3.146,1.059-4.756,1.353
		c0.08-0.917,0.136-1.843,0.189-2.74c0.082-1.375,0.167-2.795,0.343-4.192C114.146,36.716,115.932,38.531,117.118,40.688z
		 M103.582,67.699c0.009-0.032,0.025-0.062,0.037-0.092c0.035-0.089,0.081-0.172,0.142-0.249c0.034-0.042,0.075-0.081,0.117-0.118
		c0.032-0.028,0.06-0.058,0.098-0.083c0.796-0.546,1.722-0.818,2.616-1.081c0.771-0.226,1.567-0.46,2.276-0.868
		c0.222,0.261,0.448,0.533,0.667,0.796c0.228,0.274,0.464,0.558,0.695,0.83c-0.281,0.157-0.562,0.315-0.842,0.474
		c-1.853,1.045-3.769,2.126-5.806,2.831c0.144-0.339,0.082-0.777,0.018-1.239C103.54,68.48,103.48,68.053,103.582,67.699z
		 M102.952,64.891c-0.465,0.208-0.932,0.417-1.396,0.61c-0.232-0.333-0.47-0.669-0.701-0.994c-0.775-1.095-1.577-2.227-2.256-3.401
		c2.38-0.83,4.842-1.688,7.339-2.35c0.07,0.238,0.141,0.475,0.21,0.711c0.338,1.141,0.687,2.319,1.011,3.495
		c-0.699,0.313-1.409,0.644-2.096,0.963c-0.513,0.239-1.035,0.481-1.559,0.719C103.32,64.729,103.136,64.809,102.952,64.891z
		 M90.293,68.225c-0.25,0.036-0.498,0.071-0.769,0.104c-0.641,0.079-1.288,0.138-1.935,0.194c-0.135,0.012-0.269,0.027-0.404,0.039
		c-0.725,0.06-1.448,0.111-2.16,0.161c-0.512,0.036-1.042,0.073-1.563,0.113c-0.169-0.714-0.363-1.443-0.551-2.148
		c-0.103-0.387-0.206-0.781-0.308-1.176c-0.047-0.183-0.091-0.367-0.136-0.55c-0.09-0.362-0.18-0.726-0.259-1.088
		c1.872-0.275,3.808-0.559,5.723-0.782c0.604,0.885,1.252,1.756,1.88,2.598c0.213,0.287,0.43,0.58,0.646,0.873
		c0.134,0.183,0.267,0.366,0.4,0.55c0.222,0.306,0.444,0.612,0.657,0.92c-0.218,0.04-0.452,0.076-0.686,0.112
		C90.652,68.173,90.472,68.2,90.293,68.225z M78.833,73.52c-0.305-0.168-0.605-0.343-0.895-0.535
		c-0.024-0.016-0.047-0.035-0.072-0.051c-0.661-0.444-1.28-0.944-1.836-1.494c0.598-0.186,1.24-0.357,1.881-0.357
		c0.259,0,0.501,0.026,0.742,0.081c1.02,0.102,2.059,0.221,3.064,0.335c1.806,0.206,3.673,0.418,5.514,0.546
		c0.082,0.458,0.158,0.925,0.232,1.375c0.072,0.441,0.146,0.896,0.226,1.344c-0.507,0.131-1.03,0.227-1.555,0.286
		c-0.409,0.044-0.828,0.067-1.244,0.067c-0.352,0-0.708-0.023-1.063-0.055c-0.059-0.006-0.119-0.006-0.178-0.013
		c-0.337-0.036-0.675-0.092-1.012-0.156c-0.083-0.016-0.165-0.028-0.247-0.046c-0.323-0.068-0.643-0.152-0.961-0.246
		c-0.096-0.028-0.193-0.057-0.289-0.087c-0.307-0.098-0.609-0.208-0.909-0.329c-0.101-0.041-0.2-0.084-0.3-0.127
		c-0.296-0.129-0.589-0.265-0.875-0.416C78.981,73.605,78.908,73.561,78.833,73.52z M63.011,52.004
		c-0.321-0.412-0.66-0.809-1.004-1.189c-0.74-0.818-1.505-1.664-1.933-2.705c0.254-0.412,2.02-1.729,3.64-2.821
		c1.522-1.026,3.475-2.229,3.995-2.256l1.262,5.974c-0.421,0.405-1.745,1.283-3.025,2.133c-1.031,0.685-2.006,1.332-2.373,1.644
		c-0.061-0.101-0.141-0.189-0.207-0.287C63.252,52.329,63.135,52.164,63.011,52.004z M63.489,54.825l1.597,4.311
		c-0.364,0.048-0.891,0.312-1.448,0.592c-0.512,0.257-1.042,0.523-1.435,0.606c-0.049,0.009-0.101,0.013-0.147,0.017l-0.006,0
		c-0.439-0.69-0.677-1.107-0.886-1.476c-0.305-0.536-0.547-0.959-1.267-1.951c1.099-0.794,2.345-1.447,3.551-2.078L63.489,54.825z
		 M72.891,41.355c0.306-0.091,0.614-0.175,0.926-0.243c0.083-0.018,0.17-0.025,0.254-0.042c0.288-0.054,0.576-0.106,0.87-0.132
		c0.541,0.875,0.794,1.895,1.039,2.882c0.239,0.965,0.486,1.963,1.003,2.833c-1.935,0.636-3.676,1.051-5.324,1.27
		c-0.154-0.441-0.315-0.889-0.47-1.322c-0.481-1.346-0.979-2.738-1.377-4.135c0.3-0.111,0.605-0.228,0.9-0.342
		c0.654-0.251,1.319-0.505,1.999-0.717C72.771,41.389,72.832,41.374,72.891,41.355z M71.217,50.697
		c0.186-0.115,0.377-0.219,0.571-0.317c0.027-0.014,0.055-0.028,0.082-0.041c1.255-0.617,2.652-0.914,4.015-1.202
		c0.577-0.122,1.173-0.248,1.745-0.396c0.631,0.896,1.531,1.605,2.326,2.232c0.615,0.485,1.176,0.931,1.571,1.406
		c0.083,0.1,0.158,0.201,0.225,0.303c0.052,0.081,0.097,0.164,0.138,0.248c0.054,0.108,0.096,0.219,0.129,0.333
		c0.012,0.042,0.03,0.083,0.039,0.126c-1.714,0.748-3.493,1.4-5.213,2.031c-1.022,0.375-2.079,0.763-3.112,1.167
		c-0.133,0.06-0.258,0.093-0.372,0.1c-0.023,0.001-0.045,0.002-0.068,0.002c-0.671,0-1.14-0.731-1.516-1.318
		c-0.062-0.098-0.122-0.19-0.178-0.274c-0.1-0.217-0.21-0.434-0.327-0.665c-0.393-0.775-0.826-1.628-0.82-2.478c0,0,0,0,0,0
		c0.002-0.283,0.053-0.566,0.17-0.846c0.18-0.14,0.367-0.266,0.557-0.385C71.191,50.715,71.204,50.705,71.217,50.697z M88.201,48.29
		c0.254-0.025,0.508-0.041,0.762-0.086c0.116,0.748,0.267,1.266,0.414,1.767c0.159,0.543,0.309,1.056,0.415,1.833
		c-0.538,0.084-1.083,0.167-1.612,0.246c-1.022,0.153-2.063,0.321-3.101,0.503c-0.07,0.012-0.14,0.026-0.21,0.039
		c-0.475,0.085-0.951,0.165-1.419,0.263c-0.604-1.053-1.403-2.433-2.236-3.779c1.343-0.647,2.771-0.702,4.119-0.702
		c0.359,0,0.719,0.004,1.081,0.004c0.489,0,1-0.02,1.514-0.059C88.019,48.313,88.11,48.299,88.201,48.29z M96.381,43.815
		c0.182,0.136,0.348,0.292,0.508,0.454c0.031,0.03,0.064,0.058,0.094,0.089c0.356,0.375,0.67,0.799,0.978,1.217
		c0.078,0.106,0.155,0.211,0.233,0.315c-0.408,0.084-0.824,0.178-1.226,0.269c-0.949,0.214-1.93,0.435-2.901,0.557
		c-0.002,0-0.003,0.001-0.005,0.002c-0.213,0.026-0.407,0.046-0.589,0.062c-1.518-0.396-2.972-1.357-4.32-2.856
		c0.666-0.081,1.37-0.314,2.051-0.54c0.873-0.289,1.774-0.587,2.634-0.587c0.705,0,1.31,0.201,1.851,0.615
		c0.223,0.096,0.423,0.221,0.614,0.357C96.328,43.786,96.357,43.797,96.381,43.815z M100.85,54.405
		c0.095,0.082,0.185,0.172,0.284,0.247c-2.48,1.095-5.131,1.944-7.878,2.523c-0.395-0.776-0.844-1.542-1.278-2.283
		c-0.367-0.626-0.747-1.274-1.094-1.927c0.949-0.111,1.912-0.282,2.843-0.447c0.998-0.176,2.019-0.353,3.044-0.465
		c0.25-0.027,0.502-0.046,0.753-0.064c0.201-0.015,0.403-0.034,0.604-0.042c0.666,0.37,1.21,0.946,1.736,1.504
		c0.268,0.284,0.549,0.564,0.841,0.829C100.753,54.323,100.801,54.364,100.85,54.405z M75.57,64.377
		c0.859-0.164,1.539-0.292,2.735-0.47c0.085,0.273,0.169,0.554,0.25,0.826c0.196,0.656,0.405,1.317,0.646,1.966
		c0.006,0.017,0.012,0.033,0.018,0.049c0.078,0.21,0.163,0.417,0.251,0.624c0.108,0.251,0.225,0.5,0.353,0.743
		c0.074,0.14,0.159,0.275,0.241,0.412c0.12,0.199,0.25,0.393,0.389,0.583c0.061,0.083,0.106,0.175,0.171,0.257
		c-0.793,0.223-1.465,0.368-2.113,0.456c-0.915,0.125-1.744,0.136-2.891,0.153c-0.17,0.002-0.348,0.005-0.533,0.008
		c-0.105-0.543-0.212-1.071-0.316-1.582c-0.253-1.247-0.492-2.424-0.688-3.748C74.677,64.547,75.151,64.457,75.57,64.377z
		 M75.85,57.333c1.178-0.329,2.396-0.67,3.625-0.67c0.082,0,0.163,0.001,0.238,0.003c1.248,0.623,2.274,1.653,3.266,2.65
		c0.307,0.308,0.625,0.627,0.94,0.925c-2.279,0.291-5.275,0.722-8.282,1.477c-0.813-1.134-1.436-2.477-1.799-3.882
		C74.511,57.707,75.192,57.517,75.85,57.333z M91.735,61.772c0.931-0.363,1.894-0.738,2.883-0.738h0.037
		c1.668,1.226,3.601,2.933,3.769,5.285c-1.207,0.116-2.366,0.372-3.733,0.718c-0.396-0.382-0.815-0.762-1.222-1.129
		c-1.199-1.085-2.439-2.206-3.293-3.591C90.701,62.176,91.227,61.971,91.735,61.772z M93.491,61.167
		c0.013-0.003,0.026-0.006,0.039-0.009C93.517,61.162,93.504,61.165,93.491,61.167z M94.062,61.062
		c0.028-0.003,0.056-0.004,0.083-0.007C94.118,61.058,94.09,61.058,94.062,61.062z M87.045,59.917
		c-0.018,0.003-0.036,0.003-0.054,0.005c-0.038,0.003-0.073-0.006-0.109-0.01c-0.082-0.009-0.163-0.024-0.235-0.063
		c-0.006-0.003-0.012-0.008-0.019-0.012c-0.269-0.151-0.476-0.461-0.602-0.653c-0.085-0.125-0.169-0.26-0.253-0.389
		c-0.233-0.357-0.458-0.721-0.676-1.091c-0.189-0.322-0.38-0.661-0.572-1.017c-0.1-0.185-0.198-0.371-0.295-0.558
		c-0.13-0.249-0.259-0.495-0.392-0.762c1.025-0.193,2.081-0.367,3.102-0.535c0.537-0.088,1.091-0.179,1.633-0.272
		c0.638,0.645,1.325,1.251,1.99,1.838c0.529,0.467,1.077,0.95,1.595,1.449c-1.446,1.123-3.265,1.647-5.016,2.046
		C87.109,59.903,87.076,59.913,87.045,59.917z M86.757,59.9c-0.018-0.005-0.036-0.007-0.052-0.014
		C86.722,59.893,86.74,59.894,86.757,59.9z M91.235,56.982c0.033,0.029,0.064,0.059,0.097,0.088
		C91.299,57.042,91.268,57.012,91.235,56.982z M91.405,53.925c0.032,0.057,0.063,0.113,0.096,0.169
		C91.468,54.039,91.437,53.982,91.405,53.925z M90.398,45.138c0.22,0.183,0.442,0.356,0.667,0.513
		C90.835,45.49,90.614,45.317,90.398,45.138z M91.472,45.912c0.229,0.141,0.458,0.272,0.691,0.386
		C91.926,46.182,91.696,46.051,91.472,45.912z M92.581,46.482c0.217,0.09,0.436,0.168,0.657,0.235
		C93.014,46.65,92.795,46.571,92.581,46.482z M81.599,49.749c0.495,0.815,0.968,1.619,1.382,2.336
		C82.524,51.295,82.064,50.516,81.599,49.749z M80.049,56.844c0.122,0.069,0.243,0.138,0.36,0.215
		C80.292,56.982,80.17,56.913,80.049,56.844z M80.853,57.365c0.05,0.038,0.099,0.077,0.148,0.116
		C80.951,57.442,80.903,57.403,80.853,57.365z M76.767,61.47c-0.001,0-0.002,0-0.003,0C76.765,61.47,76.766,61.47,76.767,61.47z
		 M91.237,63.742c-0.045-0.052-0.092-0.103-0.137-0.155C91.145,63.639,91.192,63.69,91.237,63.742z M90.689,63.075
		c-0.087-0.114-0.167-0.233-0.25-0.352C90.522,62.842,90.602,62.961,90.689,63.075z M99.047,61.855
		c0.111,0.177,0.22,0.355,0.334,0.53C99.267,62.21,99.158,62.032,99.047,61.855z M95.101,46.564c0.003,0,0.007-0.001,0.011-0.002
		C95.108,46.563,95.104,46.563,95.101,46.564z M89.951,44.746c-0.206-0.191-0.404-0.39-0.596-0.593
		C89.551,44.362,89.75,44.56,89.951,44.746z M83.044,48.508c0.012-0.002,0.024-0.005,0.036-0.007
		C83.069,48.502,83.057,48.506,83.044,48.508z M87.212,43.672c0.678,0.146,1.12,0.591,1.314,1.322
		c0.142,0.534,0.151,1.206,0.027,1.995c-2.073,0.186-4.187,0.325-6.231,0.459c-1.001,0.066-2.037,0.134-3.054,0.207
		c-0.082-0.943-0.156-1.895-0.228-2.815c-0.066-0.843-0.134-1.715-0.208-2.579c0.284-0.022,0.577-0.033,0.871-0.033
		c2.094,0,4.161,0.554,6.16,1.089C86.306,43.435,86.764,43.558,87.212,43.672z M70.241,43.9c-0.022-0.068-0.042-0.137-0.064-0.205
		C70.199,43.764,70.219,43.833,70.241,43.9z M72.247,65.378c0.044,0.381,0.098,0.767,0.149,1.14c0.143,1.033,0.29,2.101,0.27,3.153
		c-1.795-0.475-3.722-1.034-5.728-1.662c-0.027-0.104-0.063-0.279-0.098-0.448c-0.029-0.142-0.059-0.288-0.083-0.388
		C68.481,66.542,70.339,65.888,72.247,65.378z M69.774,58.278c-0.616,0.226-1.252,0.46-1.743,0.576
		c-1.471-1.732-1.5-1.767-1.813-3.304c-0.065-0.322-0.147-0.722-0.26-1.22c1.355-0.611,2.499-0.968,3.598-1.122l1.971,4.491
		C71.033,57.815,70.393,58.05,69.774,58.278z M78.906,56.678c0.045-0.003,0.09-0.006,0.135-0.008
		C78.996,56.672,78.951,56.674,78.906,56.678z M80.765,74.403c-0.058-0.021-0.116-0.042-0.174-0.063
		C80.649,74.362,80.707,74.382,80.765,74.403z M82.081,74.792c-0.062-0.015-0.125-0.032-0.187-0.048
		C81.956,74.76,82.018,74.777,82.081,74.792z M83.396,75.033c-0.032-0.004-0.062-0.01-0.094-0.014
		C83.333,75.023,83.364,75.029,83.396,75.033z M88.573,63.958c0.193,0.27,0.386,0.539,0.582,0.806
		C88.958,64.498,88.767,64.229,88.573,63.958z M90.979,73.849l-0.097-0.401c1.389-1.181,3.056-2.531,4.902-3.593
		c1.943-1.118,3.807-1.758,5.697-1.956c0.012,0.34,0.028,0.686,0.042,1.02c0.03,0.681,0.062,1.385,0.067,2.08
		c-3.021,1.781-6.515,3.051-10.387,3.775C91.13,74.473,91.054,74.159,90.979,73.849z M80.027,42.226
		c0.33,0.009,0.66,0.027,0.988,0.06C80.686,42.253,80.357,42.234,80.027,42.226z M81.829,42.391
		c0.141,0.021,0.281,0.043,0.421,0.068C82.109,42.434,81.969,42.412,81.829,42.391z M61.293,56.014
		c-0.374,0.22-0.739,0.452-1.093,0.694C60.555,56.465,60.92,56.234,61.293,56.014z M78.241,73.19
		c-0.027-0.017-0.055-0.032-0.082-0.049C78.186,73.158,78.213,73.173,78.241,73.19z M79.481,73.87
		c-0.047-0.022-0.093-0.043-0.14-0.066C79.388,73.826,79.435,73.847,79.481,73.87z M101.19,71.233
		c-0.498,0.282-1.003,0.548-1.515,0.798C100.192,71.779,100.698,71.513,101.19,71.233z M98.897,72.402
		c-0.571,0.259-1.151,0.497-1.737,0.719C97.752,72.896,98.333,72.658,98.897,72.402z M96.394,73.406
		c-0.624,0.219-1.255,0.416-1.891,0.597C95.145,73.819,95.778,73.623,96.394,73.406z M93.62,74.245
		c-0.64,0.165-1.285,0.31-1.933,0.44C92.342,74.553,92.988,74.408,93.62,74.245z M79.275,76.223
		c-0.038-0.007-0.075-0.016-0.112-0.024C79.2,76.207,79.237,76.215,79.275,76.223z M78.004,75.919
		c-0.035-0.01-0.069-0.021-0.104-0.032C77.935,75.898,77.97,75.91,78.004,75.919z M89.685,76.698
		c-0.597,0.057-1.206,0.104-1.826,0.143C88.468,76.803,89.077,76.755,89.685,76.698z M113.778,67.438
		c0.053-0.005,0.106-0.01,0.16-0.013C113.885,67.429,113.832,67.433,113.778,67.438z M113.147,67.528
		c0.025-0.005,0.05-0.012,0.075-0.017C113.197,67.516,113.173,67.523,113.147,67.528z M114.927,67.468
		c-0.158-0.02-0.315-0.039-0.471-0.045C114.61,67.429,114.768,67.449,114.927,67.468z M123.514,69.637
		c0.025,0.004,0.051,0.008,0.077,0.013C123.565,69.646,123.54,69.642,123.514,69.637z M125.362,69.874
		c0.125,0.01,0.249,0.024,0.374,0.032C125.611,69.898,125.487,69.884,125.362,69.874z M126.532,69.933
		c0.226,0.003,0.453,0,0.681-0.007c-0.156,0.005-0.31,0.015-0.467,0.015C126.674,69.94,126.604,69.934,126.532,69.933z"/>
</g>
</svg>
