<?xml version="1.0" encoding="utf-8"?>
<!-- Generator: Adobe Illustrator 16.0.0, SVG Export Plug-In . SVG Version: 6.00 Build 0)  -->
<!DOCTYPE svg PUBLIC "-//W3C//DTD SVG 1.1//EN" "http://www.w3.org/Graphics/SVG/1.1/DTD/svg11.dtd">
<svg version="1.1" id="Layer_1" xmlns="http://www.w3.org/2000/svg" xmlns:xlink="http://www.w3.org/1999/xlink" x="0px" y="0px"
	 width="76.18px" height="55.986px" viewBox="0 0 76.18 55.986" enable-background="new 0 0 76.18 55.986" xml:space="preserve">
<g>
	<g>
		<path fill="#FFFFFF" d="M29.633,22.676l27.52-5.971c-0.439-0.273-0.781-0.639-0.979-1.092c-0.787-1.791,0.906-4.264,3.781-5.524
			c1.113-0.489,2.242-0.724,3.252-0.724c1.594,0,2.891,0.586,3.373,1.683c0.52,1.185-0.051,2.665-1.322,3.899l10.922-2.371
			c0,0-9.072-11.857-32.16-12.576L14.734,19.363l-14.5,9.588l14.5-3.096L29.633,22.676z M45.559,4.818
			c0.682-0.467,1.422-0.703,2.057-0.703c0.582,0,1.076,0.199,1.352,0.602c0.574,0.839-0.02,2.244-1.324,3.14
			c-0.682,0.468-1.422,0.704-2.057,0.704c-0.582,0-1.076-0.199-1.352-0.6C43.66,7.121,44.252,5.715,45.559,4.818z M26.947,12.874
			c1.322-0.747,2.689-1.12,3.836-1.12c1.156,0,2.084,0.379,2.512,1.137c0.854,1.508-0.607,3.947-3.26,5.445
			c-1.32,0.747-2.689,1.121-3.836,1.121c-1.154,0-2.084-0.38-2.512-1.138C22.836,16.812,24.295,14.373,26.947,12.874z"/>
		<path fill="#FFFFFF" d="M14.734,26.932l-14.521,3.15C0.141,30.098,0.07,30.105,0,30.105v6.538c1.027-0.72,2.264-1.14,3.594-1.14
			c3.561,0,6.445,3.004,6.445,6.708c0,3.705-2.885,6.708-6.445,6.708c-1.33,0-2.566-0.42-3.594-1.139v5.439v2.766l31.236-2.247
			c-0.027-0.128-0.049-0.255-0.057-0.386c-0.172-2.477,3.141-4.721,7.398-5.016c0.309-0.021,0.615-0.031,0.918-0.031
			c3.842,0,6.939,1.687,7.098,3.982c0.008,0.115,0.006,0.23,0,0.346l29.586-2.129v-7.463c-0.088,0.004-0.18,0.006-0.27,0.006
			c-4.465,0-8.084-3.84-8.084-8.578s3.619-8.579,8.084-8.579c0.09,0,0.182,0.003,0.27,0.007V13.764l-46.436,9.911L14.734,26.932z
			 M20.07,51.557c-3.377,0-6.117-2.713-6.17-6.079c0-0.032-0.006-0.064-0.006-0.097c0-1.029,0.256-1.996,0.699-2.85
			c1.031-1.977,3.096-3.328,5.477-3.328c3.412,0,6.18,2.766,6.18,6.178C26.25,48.791,23.482,51.557,20.07,51.557z M44.016,24.006
			c3.57,0,6.467,2.854,6.467,6.377s-2.896,6.379-6.467,6.379c-3.572,0-6.469-2.855-6.469-6.379S40.443,24.006,44.016,24.006z"/>
	</g>
	<polygon fill="#FFFFFF" points="14.734,25.855 14.734,25.908 29.633,22.676 	"/>
	<path fill="#FFFFFF" d="M14.594,42.531c-0.443,0.854-0.699,1.82-0.699,2.85c0,0.032,0.006,0.064,0.006,0.097"/>
</g>
</svg>
