<?xml version="1.0" encoding="utf-8"?>
<!-- Generator: Adobe Illustrator 16.0.0, SVG Export Plug-In . SVG Version: 6.00 Build 0)  -->
<!DOCTYPE svg PUBLIC "-//W3C//DTD SVG 1.1//EN" "http://www.w3.org/Graphics/SVG/1.1/DTD/svg11.dtd">
<svg version="1.1" id="Layer_1" xmlns="http://www.w3.org/2000/svg" xmlns:xlink="http://www.w3.org/1999/xlink" x="0px" y="0px"
	 width="37.2px" height="25.678px" viewBox="0 0 37.2 25.678" enable-background="new 0 0 37.2 25.678" xml:space="preserve">
<path fill="#FFFFFF" d="M35.094,3.495c0.119-0.965,1.009-0.989,1.354-1.956c-0.065,0.015-0.124,0.022-0.177,0.022
	c-0.733,0-0.258-1.402-0.425-1.528c-0.24,0.82-1.363,1.281-2.354,1.281c-0.23,0-0.454-0.025-0.657-0.076
	c-0.156-1.01,1.065-0.641,1.355-1.204C34.021,0.011,33.864,0,33.719,0c-1.508,0-1.852,1.167-2.688,1.84
	c-0.632-0.109-1.004-0.48-1.652-0.572l-0.282,0.282c-0.141,0.613,0.43,1.15,0.431,1.795c-0.147-0.039-0.289-0.056-0.426-0.056
	c-0.826,0-1.484,0.621-2.282,0.809c-0.101,0.023-0.224,0.042-0.333,0.062c-1.667,0.325-4.327,0.389-6.944,0.482
	c-0.488,0.017-0.974,0.036-1.45,0.057c-0.642,0.029-1.279,0.042-1.914,0.042c-3.44,0-6.764-0.361-9.804-0.361
	c-2.119,0-4.101,0.175-5.888,0.771c-1.005,1.878-0.162,5.195,0,8.427c0.11,2.196,0.15,4.052,0.15,6.169
	c0,0.975-0.451,2.585,0.752,3.01c0.582-3.877-0.625-8.343-0.301-12.941c0.807,0.641,1.038,1.817,1.354,2.86
	c0.316,1.042,0.967,2.281,0.903,3.311c-0.056,0.916-0.971,1.748-1.053,2.707c-0.062,0.73,0.251,1.753,0.449,2.751
	c0.09,0.453,0.158,0.9,0.152,1.312c-0.015,1.169,0.038,1.563,0.302,2.408c0.552,0,1.103,0,1.655,0
	c-0.417-1.259-1.288-2.093-1.204-3.461c0.033-0.544,0.201-1.076,0.426-1.591c0.523-1.201,1.39-2.308,1.831-3.224
	c0.029,0.536-0.01,1.005-0.065,1.458c-0.075,0.621-0.186,1.208-0.237,1.853c0.895,0.647,1.186,2.022,1.612,3.234
	c0.425,1.204,0.984,2.246,2.405,2.246c0.198,0,0.414-0.02,0.647-0.063c-0.332-0.938-1.631-1.841-2.114-3.122
	c-0.059-0.158-0.112-0.319-0.143-0.49c-0.296-1.623-0.056-3.386,0.602-4.665c1.301,0.138,2.705,0.359,4.152,0.543
	c1.377,0.175,2.793,0.318,4.204,0.318c0.679,0,1.357-0.033,2.027-0.11c1.123-0.129,2.166-0.644,3.241-0.644
	c0.173,0,0.346,0.013,0.521,0.043c-0.177,1.831,0.732,2.579,1.354,3.611c-0.514,1.737-0.035,4.045,1.555,4.045
	c0.214,0,0.448-0.042,0.702-0.132c-1.186-0.954-2.146-3.65-0.902-5.268c0.324,0.729,0.068,2.039,0.149,3.011
	c0.51,0.542,0.916,1.19,1.204,1.956c0.099-0.021,0.194-0.03,0.287-0.03c0.331,0,0.621,0.106,0.836,0.106
	c0.092,0,0.17-0.02,0.231-0.077c0.069-1.093-1.112-1.629-1.354-2.707c-0.226-1.008,0.143-2.166-0.15-3.463
	c0.473-1.4,1.866-1.799,2.558-3.913c0.758-2.312-0.048-5.811,1.806-6.771c0.368-0.191,0.776-0.217,1.212-0.217
	c0.162,0,0.328,0.004,0.497,0.004c0.322,0,0.656-0.013,0.998-0.089c0.434,0.439,1.052,0.666,1.65,0.666
	c0.806,0,1.576-0.411,1.812-1.267C36.464,6.035,34.915,4.942,35.094,3.495z"/>
</svg>
