<?xml version="1.0" encoding="utf-8"?>
<!-- Generator: Adobe Illustrator 16.0.0, SVG Export Plug-In . SVG Version: 6.00 Build 0)  -->
<!DOCTYPE svg PUBLIC "-//W3C//DTD SVG 1.1//EN" "http://www.w3.org/Graphics/SVG/1.1/DTD/svg11.dtd">
<svg version="1.1" id="Layer_1" xmlns="http://www.w3.org/2000/svg" xmlns:xlink="http://www.w3.org/1999/xlink" x="0px" y="0px"
	 width="92.307px" height="70.541px" viewBox="0 0 92.307 70.541" enable-background="new 0 0 92.307 70.541" xml:space="preserve">
<g>
	<polygon fill="#FFFFFF" points="7.958,62.274 7.959,62.275 7.96,62.275 	"/>
	<path fill="#FFFFFF" d="M33.516,34.887c-0.618-4.381-1.389-9.832,1.058-15.044c0.434-0.926,1.186-2.021,2.44-3.55
		c1.992-2.425,4.354-4.111,7.104-5.13c-0.029-0.04-0.059-0.08-0.088-0.12c-0.021-0.027-0.041-0.057-0.062-0.084
		c-0.141-0.188-0.279-0.375-0.421-0.56c-0.155-0.203-0.315-0.41-0.478-0.62c-0.012-0.015-0.022-0.029-0.035-0.044
		c-0.328-0.424-0.672-0.858-1.026-1.298c-0.011-0.014-0.021-0.027-0.032-0.041c-0.181-0.223-0.361-0.443-0.548-0.665
		C37.939,3.473,33.443-0.652,25.9,0.086c-1.312,0.129-2.903,0.33-3.896,0.688c-4.889,1.767-8.073,5.813-11.115,9.854
		c-4.355,5.787-7.197,11.344-9.281,19.365c-1.125,4.33-1.525,8.433-1.604,12.834c-0.145,8.109,3.337,14.938,7.954,19.446
		c0,0,0.001,0.001,0.002,0.001c-0.001,0-0.001,0-0.001,0c0.005,0.004,0.009,0.01,0.014,0.014c0.122,0.129,0.245,0.258,0.37,0.385
		c0.024,0.025,0.052,0.05,0.076,0.074c0.104,0.106,0.211,0.213,0.317,0.316c0.033,0.031,0.066,0.062,0.1,0.094
		c0.104,0.098,0.204,0.195,0.309,0.291c0.035,0.033,0.072,0.066,0.108,0.101c0.103,0.094,0.205,0.187,0.31,0.276
		c0.037,0.033,0.074,0.066,0.112,0.1c0.104,0.092,0.209,0.183,0.315,0.271c0.037,0.032,0.074,0.062,0.111,0.095
		c0.108,0.09,0.217,0.181,0.327,0.27c0.036,0.027,0.073,0.059,0.11,0.087c0.111,0.09,0.227,0.179,0.34,0.267
		c0.035,0.027,0.07,0.055,0.105,0.082c0.119,0.088,0.236,0.178,0.355,0.266c0.033,0.023,0.066,0.048,0.102,0.072
		c0.123,0.09,0.246,0.178,0.371,0.265c0.031,0.021,0.062,0.043,0.094,0.063c0.13,0.09,0.26,0.178,0.392,0.267
		c0.028,0.018,0.056,0.036,0.084,0.055c0.136,0.091,0.272,0.179,0.412,0.267c0.024,0.015,0.048,0.029,0.071,0.045
		c0.145,0.091,0.289,0.179,0.436,0.267c0.02,0.013,0.04,0.024,0.061,0.036c0.151,0.09,0.305,0.179,0.457,0.266
		c0.018,0.01,0.033,0.02,0.049,0.027c0.158,0.09,0.32,0.179,0.482,0.268c0.01,0.004,0.021,0.01,0.03,0.016
		c0.17,0.092,0.341,0.181,0.513,0.269c0.004,0.002,0.008,0.004,0.012,0.006c0.18,0.091,0.359,0.181,0.541,0.267
		c3.885,1.982,8.576,3.179,14.353,2.732c6.854-0.528,12.729-3.846,16.799-7.853c-2.6-2.836-4.573-5.472-6.275-8.369
		C36.511,47.742,34.539,42.14,33.516,34.887z"/>
	<polygon fill="#FFFFFF" points="7.958,62.274 7.959,62.275 7.958,62.274 	"/>
	<path fill="#FFFFFF" d="M92.081,41.326c-0.554-3.924-2.164-8.372-5.325-12.184c-2.713-3.267-6.312-5.978-9.778-8.316
		c-5.697-3.842-11.601-5.843-17.243-6.868c-0.223-0.042-0.441-0.084-0.661-0.124h-0.002c-0.207-0.036-0.415-0.072-0.618-0.106
		c-0.017-0.003-0.031-0.005-0.046-0.009c-0.187-0.031-0.372-0.059-0.558-0.088c-0.031-0.004-0.062-0.01-0.094-0.014
		c-0.209-0.029-0.417-0.062-0.624-0.089c-0.229-0.03-0.462-0.06-0.699-0.09c-0.017-0.002-0.032-0.005-0.05-0.006
		c-0.479-0.062-0.975-0.118-1.479-0.173c-0.016-0.001-0.031-0.005-0.047-0.005c-0.257-0.027-0.512-0.053-0.772-0.075
		c-1.028-0.103-2.083-0.173-3.145-0.173c-1.69,0-3.401,0.184-5.073,0.7c-2.311,0.714-4.544,2.068-6.534,4.49
		c-0.753,0.918-1.64,2.059-2.043,2.919c-1.988,4.237-1.439,8.842-0.803,13.351c0.911,6.458,2.64,11.805,6.421,18.238
		c1.675,2.852,3.568,5.293,5.715,7.655c0.467,0.514,0.942,1.026,1.435,1.536c4.993,5.175,11.432,7.319,17.175,7.319
		c0.09,0,0.181-0.001,0.271-0.002c0-0.001,0-0.001-0.001-0.001c0,0,0,0,0.001,0c0,0,0.001,0,0.002-0.001
		c-0.002,0.002-0.002,0.002-0.002,0.002c0.002-0.001,0.005-0.001,0.007-0.001c0.004,0,0.008,0.001,0.011,0.001
		c0.16,0.004,0.32,0.007,0.481,0.009c0.032,0,0.063-0.002,0.096-0.002c0.066,0.001,0.135,0.001,0.201,0.001
		c0.068,0,0.135,0,0.202-0.001c0.041-0.001,0.082-0.002,0.122-0.003c0.129-0.004,0.255-0.006,0.383-0.012
		c0.043-0.001,0.089-0.004,0.133-0.005c0.125-0.007,0.249-0.012,0.373-0.021c0.045-0.003,0.089-0.004,0.135-0.008
		c0.125-0.009,0.25-0.018,0.373-0.028c0.044-0.003,0.088-0.009,0.132-0.011c0.126-0.012,0.252-0.023,0.38-0.036
		c0.04-0.006,0.083-0.01,0.125-0.017c0.128-0.013,0.258-0.029,0.387-0.045c0.039-0.006,0.079-0.011,0.119-0.017
		c0.132-0.019,0.264-0.036,0.396-0.056c0.035-0.007,0.071-0.013,0.109-0.02c0.136-0.021,0.27-0.043,0.404-0.067
		c0.033-0.007,0.068-0.012,0.101-0.02c0.14-0.025,0.278-0.052,0.419-0.08c0.029-0.006,0.059-0.012,0.088-0.018
		c0.145-0.029,0.287-0.06,0.433-0.094c0.025-0.006,0.05-0.012,0.074-0.017c0.149-0.034,0.297-0.069,0.446-0.107
		c0.021-0.004,0.041-0.009,0.062-0.016c0.152-0.039,0.308-0.08,0.46-0.122c0.017-0.004,0.034-0.009,0.048-0.013
		c0.158-0.044,0.318-0.091,0.479-0.137c0.009-0.004,0.02-0.008,0.028-0.01c0.167-0.05,0.332-0.103,0.497-0.155
		c0.004-0.002,0.008-0.003,0.012-0.004c0.173-0.057,0.344-0.114,0.515-0.175c3.734-1.211,7.483-3.437,10.877-7.398
		C91.585,54.706,92.9,47.138,92.081,41.326z"/>
	<rect x="67.501" y="69.213" fill="#FFFFFF" width="0.001" height="0.001"/>
</g>
</svg>
