<?xml version="1.0" encoding="utf-8"?>
<!-- Generator: Adobe Illustrator 16.0.0, SVG Export Plug-In . SVG Version: 6.00 Build 0)  -->
<!DOCTYPE svg PUBLIC "-//W3C//DTD SVG 1.1//EN" "http://www.w3.org/Graphics/SVG/1.1/DTD/svg11.dtd">
<svg version="1.1" id="Layer_1" xmlns="http://www.w3.org/2000/svg" xmlns:xlink="http://www.w3.org/1999/xlink" x="0px" y="0px"
	 width="111.216px" height="121.047px" viewBox="0 0 111.216 121.047" enable-background="new 0 0 111.216 121.047"
	 xml:space="preserve">
<g>
	<path fill="#FFFFFF" d="M34.115,94.555c-0.187-0.443-0.031-0.957,0.37-1.223l15.286-10.107V51.164
		c0.001-0.26,0.01-3.631-0.826-8.118c-1.153-6.194-3.28-11.349-6.319-15.32c-5.041-6.585-5.817-16.43-5.921-20.229
		c0.469-0.682,0.727-1.456,0.729-2.216c-0.002-1.659-1.248-3.339-2.9-3.911l-0.048-0.018l-0.05-0.014
		C31.329,0.449,28.116,0,24.886,0s-6.443,0.449-9.55,1.338l-0.05,0.016l-0.05,0.016c-1.652,0.572-2.898,2.252-2.898,3.91
		c0,0.761,0.258,1.535,0.729,2.217c-0.104,3.8-0.88,13.645-5.92,20.229c-3.041,3.972-5.167,9.126-6.32,15.32
		C-0.01,47.533-0.001,50.904,0,51.164v54.123c0,2.909,0.577,5.264,1.761,7.194c1.098,1.786,2.729,3.17,4.848,4.111
		c3.8,1.688,8.831,1.829,13.658,1.829c0.757,0,1.535-0.003,2.289-0.006c0.763-0.006,1.552-0.011,2.33-0.011s1.566,0.005,2.33,0.011
		c0.754,0.003,1.532,0.006,2.289,0.006c1.507,0,3.03-0.02,4.532-0.09v-5.49c0-0.373,0.207-0.715,0.538-0.887
		c0.146-0.076,0.304-0.113,0.462-0.113c0.201,0,0.401,0.061,0.573,0.18c0.896,0.628,1.941,0.959,3.02,0.959
		c3.003,0,5.445-2.561,5.445-5.708s-2.442-5.708-5.445-5.708c-1.08,0-2.124,0.332-3.019,0.959c-0.172,0.119-0.372,0.181-0.574,0.181
		c-0.158,0-0.316-0.037-0.462-0.112c-0.33-0.173-0.538-0.515-0.538-0.888v-6.62 M31.229,84.477c-0.716-1.189-1.763-2.05-1.56-4.158
		c-1.455-0.252-2.831,0.52-4.331,0.691c-4.06,0.467-8.349-0.482-11.956-0.865c-0.757,1.472-1.033,3.502-0.692,5.371
		c0.326,1.786,2.169,2.944,2.599,4.158c-4.139,0.76-3.175-4.648-5.371-6.237c0.102-1.284,0.426-2.347,0.347-3.812
		c-0.726,1.508-2.471,3.458-2.599,5.544c-0.097,1.575,0.906,2.536,1.386,3.985c-0.636,0-1.271,0-1.906,0
		c-0.304-0.973-0.365-1.426-0.347-2.772c0.02-1.521-0.797-3.456-0.692-4.679c0.095-1.104,1.148-2.062,1.212-3.117
		c0.073-1.186-0.675-2.612-1.04-3.812c-0.364-1.201-0.631-2.555-1.559-3.293c-0.373,5.295,1.016,10.438,0.347,14.901
		c-1.386-0.488-0.866-2.343-0.866-3.466c0-2.438-0.046-4.575-0.173-7.104c-0.186-3.721-1.158-7.541,0-9.703
		c5.557-1.852,12.738-0.178,20.272-0.52c3.686-0.167,7.844-0.174,10.049-0.693c1.071-0.252,1.925-1.182,3.119-0.866
		c-0.001-0.865-0.901-1.561-0.348-2.425c0.872,0.051,1.292,0.557,2.079,0.692c1.057-0.849,1.43-2.384,3.639-2.079
		c-0.334,0.648-1.74,0.224-1.561,1.387c1.242,0.312,3.127-0.224,3.468-1.388c0.206,0.155-0.438,1.997,0.692,1.733
		c-0.397,1.113-1.422,1.141-1.56,2.252c-0.206,1.667,1.578,2.926,2.426,3.985c-0.475,1.718-2.815,1.878-3.987,0.692
		c-1.155,0.256-2.234-0.11-3.117,0.348c-2.135,1.105-1.207,5.135-2.079,7.797c-0.796,2.434-2.401,2.893-2.945,4.505
		c0.338,1.493-0.087,2.827,0.173,3.987c0.279,1.241,1.64,1.858,1.561,3.117c-0.279,0.259-0.869-0.15-1.561,0
		c-0.331-0.881-0.799-1.627-1.386-2.252c-0.094-1.119,0.201-2.628-0.173-3.467c-1.432,1.862-0.325,4.967,1.04,6.065
		C31.358,89.861,30.558,86.746,31.229,84.477z"/>
	<g>
		<path fill="#FFFFFF" d="M64.669,87.736l27.52-5.971c-0.439-0.273-0.78-0.639-0.979-1.092c-0.786-1.791,0.907-4.264,3.781-5.524
			c1.114-0.489,2.242-0.724,3.252-0.724c1.594,0,2.892,0.586,3.373,1.683c0.52,1.185-0.05,2.665-1.321,3.899l10.921-2.371
			c0,0-9.072-11.857-32.159-12.576L49.771,84.424l-14.501,9.588l14.501-3.096L64.669,87.736z M80.596,69.879
			c0.682-0.467,1.422-0.703,2.057-0.703c0.582,0,1.075,0.199,1.351,0.602c0.574,0.839-0.019,2.244-1.323,3.14
			c-0.682,0.468-1.423,0.704-2.058,0.704c-0.582,0-1.075-0.199-1.351-0.6C78.697,72.182,79.289,70.775,80.596,69.879z
			 M61.984,77.935c1.321-0.747,2.689-1.12,3.835-1.12c1.156,0,2.085,0.379,2.513,1.137c0.853,1.508-0.607,3.947-3.261,5.445
			c-1.32,0.747-2.688,1.121-3.835,1.121c-1.155,0-2.085-0.38-2.513-1.138C57.872,81.873,59.331,79.434,61.984,77.935z"/>
		<path fill="#FFFFFF" d="M49.771,91.992l-14.522,3.15c-0.071,0.016-0.142,0.023-0.212,0.023v6.538
			c1.027-0.72,2.263-1.14,3.593-1.14c3.561,0,6.445,3.004,6.445,6.708c0,3.705-2.885,6.708-6.445,6.708
			c-1.33,0-2.565-0.42-3.593-1.139v5.439v2.766l31.235-2.247c-0.027-0.128-0.048-0.255-0.057-0.386
			c-0.172-2.477,3.142-4.721,7.398-5.016c0.31-0.021,0.616-0.031,0.918-0.031c3.843,0,6.94,1.687,7.099,3.982
			c0.008,0.115,0.006,0.23-0.001,0.346l29.586-2.129v-7.463c-0.088,0.004-0.179,0.006-0.269,0.006c-4.466,0-8.085-3.84-8.085-8.578
			s3.619-8.579,8.085-8.579c0.09,0,0.181,0.003,0.269,0.007V78.824l-46.435,9.911L49.771,91.992z M55.107,116.617
			c-3.377,0-6.118-2.713-6.171-6.079c0-0.032-0.005-0.064-0.005-0.097c0-1.029,0.255-1.996,0.699-2.85
			c1.03-1.977,3.095-3.328,5.477-3.328c3.412,0,6.179,2.766,6.179,6.178C61.286,113.852,58.52,116.617,55.107,116.617z
			 M79.052,89.066c3.571,0,6.468,2.854,6.468,6.377s-2.896,6.379-6.468,6.379c-3.572,0-6.469-2.855-6.469-6.379
			S75.479,89.066,79.052,89.066z"/>
	</g>
	<polygon fill="#FFFFFF" points="49.771,90.916 49.771,90.969 64.669,87.736 	"/>
	<path fill="#FFFFFF" d="M49.631,107.592c-0.444,0.854-0.699,1.82-0.699,2.85c0,0.032,0.005,0.064,0.005,0.097"/>
</g>
</svg>
