<?xml version="1.0" encoding="utf-8"?>
<!-- Generator: Adobe Illustrator 16.0.0, SVG Export Plug-In . SVG Version: 6.00 Build 0)  -->
<!DOCTYPE svg PUBLIC "-//W3C//DTD SVG 1.1//EN" "http://www.w3.org/Graphics/SVG/1.1/DTD/svg11.dtd">
<svg version="1.1" id="Layer_1" xmlns="http://www.w3.org/2000/svg" xmlns:xlink="http://www.w3.org/1999/xlink" x="0px" y="0px"
	 width="86.667px" height="39.958px" viewBox="0 0 86.667 39.958" enable-background="new 0 0 86.667 39.958" xml:space="preserve">
<g>
	<path fill="#FFFFFF" d="M77.707,18.51c1.446-1.211,2.237-2.52,2.237-3.885c0-4.104-7.139-7.696-17.804-9.665
		c1.619,2.209,2.526,4.771,2.526,7.549c0,3.278-1.309,7.561-7.544,9.346c-3.577,1.024-7.972,1.104-13.789,1.104
		c-5.818,0-10.213-0.079-13.79-1.104C23.309,20.069,22,15.787,22,12.508c0-2.778,0.907-5.34,2.526-7.549
		C13.862,6.929,6.723,10.52,6.723,14.625c0,1.366,0.791,2.674,2.237,3.885C3.346,20.758,0,23.57,0,26.625
		c0,7.364,19.401,13.333,43.333,13.333c23.933,0,43.334-5.97,43.334-13.333C86.667,23.57,83.321,20.758,77.707,18.51z"/>
	<path fill="#FFFFFF" d="M57.227,4.202C53.864,1.577,48.894,0,43.334,0S32.803,1.577,29.441,4.202C26.68,6.357,25,9.217,25,12.508
		c0,7.3,8.208,7.45,18.334,7.45c10.125,0,18.333-0.15,18.333-7.45C61.667,9.217,59.987,6.357,57.227,4.202z"/>
</g>
</svg>
