<?xml version="1.0" encoding="utf-8"?>
<!-- Generator: Adobe Illustrator 16.0.0, SVG Export Plug-In . SVG Version: 6.00 Build 0)  -->
<!DOCTYPE svg PUBLIC "-//W3C//DTD SVG 1.1//EN" "http://www.w3.org/Graphics/SVG/1.1/DTD/svg11.dtd">
<svg version="1.1" id="Layer_1" xmlns="http://www.w3.org/2000/svg" xmlns:xlink="http://www.w3.org/1999/xlink" x="0px" y="0px"
	 width="132.332px" height="132.333px" viewBox="0 0 132.332 132.333" enable-background="new 0 0 132.332 132.333"
	 xml:space="preserve">
<g>
	<path fill="#FFFFFF" d="M66.165,0C29.682,0,0,29.683,0,66.167s29.682,66.166,66.165,66.166c36.484,0,66.167-29.682,66.167-66.166
		S102.649,0,66.165,0z M66.165,127.095c-33.596,0-60.928-27.332-60.928-60.928c0-33.597,27.332-60.93,60.928-60.93
		c33.597,0,60.93,27.333,60.93,60.93C127.095,99.763,99.762,127.095,66.165,127.095z"/>
	<path fill="#FFFFFF" d="M66.165,8.443c-31.828,0-57.723,25.895-57.723,57.724c0,31.828,25.895,57.723,57.723,57.723
		s57.723-25.895,57.723-57.723C123.888,34.338,97.993,8.443,66.165,8.443z M64.17,61.603L49.155,45.967
		c-4.048-3.599-14.824-13.604-16.054-16.647c-1.134-2.807,6.061-7.666,13.689-10.749c3.906-1.578,9.482-3.266,13.416-3.266
		c1.495,0,3.383,0.26,3.882,1.494c1.229,3.041,0.43,17.726,0.017,23.186L64.17,61.603z M45.822,49.179l15.74,14.822l-21.68,0.146
		c-0.092,0.008-9.315,0.793-16.249,0.793c-4.445,0-6.192-0.319-6.875-0.588c-1.348-0.528-1.829-2.832-1.356-6.484
		c0.398-3.079,1.504-7.127,2.966-10.847c2.646-6.733,7.049-13.891,9.996-13.891c0.215,0,0.415,0.038,0.613,0.116
		C32.031,34.445,42.142,45.123,45.822,49.179z M16.759,67.976c0.683-0.269,2.43-0.589,6.875-0.589
		c6.934,0,16.157,0.786,16.309,0.797l21.619,0.143L45.78,83.19c-3.639,4.014-13.749,14.691-16.803,15.891
		c-2.932,1.155-7.771-6.551-10.616-13.794c-1.455-3.701-2.561-7.749-2.959-10.827C14.93,70.807,15.411,68.504,16.759,67.976z
		 M33.102,103.007c1.229-3.042,12.006-13.049,16.097-16.688l14.973-15.596L64.107,92.4c0.411,5.401,1.21,20.085-0.019,23.127
		c-0.499,1.234-2.388,1.494-3.883,1.494c-3.934,0-9.51-1.687-13.433-3.271C39.162,110.674,31.968,105.814,33.102,103.007z
		 M99.998,29.167c-1.274,3.022-12.206,12.859-16.354,16.436L68.43,60.962l0.403-21.675c-0.327-5.407-0.896-20.102,0.379-23.124
		c0.402-0.952,1.648-1.435,3.702-1.435c3.934,0,9.586,1.796,13.583,3.482c3.664,1.549,7.332,3.587,9.812,5.454
		C99.251,25.88,100.562,27.834,99.998,29.167z M68.43,71.363l15.258,15.403c4.104,3.535,15.035,13.37,16.312,16.394
		c1.178,2.789-5.939,7.76-13.521,10.963c-3.978,1.68-9.63,3.475-13.563,3.475c-2.055,0-3.301-0.482-3.702-1.435
		c-1.276-3.021-0.707-17.717-0.379-23.183L68.43,71.363z M115.795,64.45c-0.598,0.224-2.057,0.491-5.612,0.491
		c-7.026,0-17.405-1.047-17.568-1.062l-21.612-0.482l16.012-14.613c3.7-3.956,13.976-14.477,17.048-15.628
		c2.928-1.092,7.66,6.655,10.4,13.958C117.343,54.8,118.63,63.387,115.795,64.45z M86.972,83.503L71.001,68.929l21.673-0.485
		c0.104-0.011,10.482-1.058,17.509-1.058c3.556,0,5.015,0.268,5.612,0.491c2.835,1.063,1.549,9.649-1.341,17.354
		c-2.73,7.281-7.451,15.041-10.393,13.939C100.989,98.02,90.714,87.5,86.972,83.503z"/>
</g>
</svg>
