<?xml version="1.0" encoding="utf-8"?>
<!-- Generator: Adobe Illustrator 16.0.0, SVG Export Plug-In . SVG Version: 6.00 Build 0)  -->
<!DOCTYPE svg PUBLIC "-//W3C//DTD SVG 1.1//EN" "http://www.w3.org/Graphics/SVG/1.1/DTD/svg11.dtd">
<svg version="1.1" id="Layer_1" xmlns="http://www.w3.org/2000/svg" xmlns:xlink="http://www.w3.org/1999/xlink" x="0px" y="0px"
	 width="82.355px" height="109.179px" viewBox="0 0 82.355 109.179" enable-background="new 0 0 82.355 109.179"
	 xml:space="preserve">
<g>
	<path fill="#FFFFFF" d="M78.647,38.079c0.16-0.497-0.088-1.032-0.569-1.232L35.021,19.025c-0.482-0.199-1.037,0.004-1.274,0.47
		L0.108,85.411c-0.126,0.249-0.144,0.538-0.047,0.8s0.298,0.471,0.556,0.577l53.91,22.313c0.259,0.107,0.549,0.103,0.802-0.016
		c0.254-0.116,0.446-0.335,0.533-0.6L78.647,38.079z M33.532,83.291c-3.911-1.619-6.543-3.771-7.896-6.459
		c-1.344-2.679-1.515-5.842-0.489-9.476l6.347,1.928c-0.488,2.202-0.362,4.009,0.361,5.429c0.723,1.419,2.04,2.527,3.94,3.314
		c2.022,0.836,3.714,1.037,5.088,0.611c1.377-0.432,2.296-1.221,2.768-2.362c0.302-0.728,0.348-1.45,0.136-2.13
		c-0.221-0.695-0.779-1.455-1.706-2.281c-0.628-0.559-2.102-1.697-4.444-3.427c-3.014-2.22-4.947-4.219-5.792-5.989
		c-1.196-2.492-1.287-4.961-0.272-7.414c0.656-1.582,1.713-2.877,3.174-3.887c1.47-0.998,3.188-1.506,5.173-1.536
		c1.979-0.014,4.163,0.462,6.547,1.448c3.884,1.608,6.452,3.679,7.724,6.193c1.264,2.529,1.359,5.227,0.272,8.122l-6.382-2.323
		c0.397-1.705,0.293-3.086-0.298-4.146c-0.585-1.068-1.767-1.959-3.535-2.691c-1.817-0.752-3.392-0.965-4.725-0.637
		c-0.858,0.201-1.46,0.699-1.793,1.505c-0.307,0.741-0.25,1.49,0.149,2.261c0.521,0.988,2.144,2.48,4.902,4.467
		c2.738,1.965,4.676,3.646,5.827,5.018c1.138,1.374,1.849,2.895,2.111,4.573c0.278,1.673,0.01,3.479-0.8,5.438
		c-0.738,1.781-1.923,3.244-3.536,4.387c-1.629,1.146-3.513,1.711-5.63,1.721C38.637,84.951,36.228,84.406,33.532,83.291z
		 M33.659,86.711l-2.327,5.621c-0.316,0.765-1.193,1.128-1.96,0.812c-0.765-0.316-1.128-1.195-0.812-1.961l2.326-5.619
		c0.316-0.765,1.195-1.13,1.96-0.813C33.612,85.068,33.976,85.947,33.659,86.711z M13.874,85.136
		c-0.353,0.712-1.194,1.022-1.917,0.723c-0.032-0.013-0.062-0.026-0.093-0.042c-0.742-0.367-1.047-1.267-0.68-2.009l28.309-57.259
		c0.369-0.744,1.296-1.03,2.011-0.681c0.742,0.368,1.047,1.269,0.681,2.009L13.874,85.136z M46.503,47.834l6.485-15.669
		c0.316-0.765,1.194-1.129,1.96-0.813c0.765,0.317,1.128,1.195,0.812,1.961l-6.484,15.669c-0.318,0.765-1.195,1.128-1.961,0.812
		C46.551,49.477,46.187,48.598,46.503,47.834z M65.627,37.58c0.264-0.783,1.115-1.207,1.901-0.94
		c0.751,0.257,1.205,1.115,0.94,1.902L48.032,99.059c-0.266,0.785-1.116,1.206-1.902,0.94c-0.031-0.01-0.062-0.022-0.095-0.036
		c-0.723-0.299-1.099-1.111-0.846-1.865L65.627,37.58z"/>
	<path fill="#FFFFFF" d="M67.341,1.848C54.964-3.275,40.726,2.626,35.603,15.004c-0.211,0.511,0.03,1.094,0.543,1.306l43.059,17.823
		c0.244,0.102,0.521,0.101,0.765-0.001c0.246-0.103,0.439-0.296,0.541-0.542C85.632,21.213,79.725,6.973,67.341,1.848z
		 M72.368,18.811c-0.655,1.58-2.456,2.323-4.031,1.67c-1.588-0.656-2.326-2.45-1.671-4.031c0.649-1.57,2.446-2.336,4.033-1.679
		C72.276,15.424,73.017,17.238,72.368,18.811z M57.414,12.621c-0.654,1.58-2.457,2.322-4.032,1.67s-2.337-2.455-1.684-4.037
		c0.651-1.569,2.473-2.324,4.047-1.674C57.32,9.233,58.065,11.049,57.414,12.621z M65.878,5.418
		c1.586,0.657,2.315,2.469,1.667,4.039c-0.654,1.581-2.447,2.34-4.036,1.684c-1.588-0.658-2.334-2.469-1.679-4.049
		C62.479,5.521,64.288,4.76,65.878,5.418z"/>
</g>
</svg>
