<?xml version="1.0" encoding="utf-8"?>
<!-- Generator: Adobe Illustrator 16.0.0, SVG Export Plug-In . SVG Version: 6.00 Build 0)  -->
<!DOCTYPE svg PUBLIC "-//W3C//DTD SVG 1.1//EN" "http://www.w3.org/Graphics/SVG/1.1/DTD/svg11.dtd">
<svg version="1.1" id="Layer_1" xmlns="http://www.w3.org/2000/svg" xmlns:xlink="http://www.w3.org/1999/xlink" x="0px" y="0px"
	 width="45.376px" height="81.035px" viewBox="0 0 45.376 81.035" enable-background="new 0 0 45.376 81.035" xml:space="preserve">
<g>
	<path fill="#FFFFFF" d="M22.695,77.379L22.695,77.379c-9.115,0-18.666-1.615-22.694-4.676v2.369H0c0,2.426,8.85,5.963,22.695,5.963
		c13.844,0,22.679-3.537,22.679-5.963v-2.368C41.346,75.764,31.809,77.379,22.695,77.379L22.695,77.379z"/>
	<path fill="#FFFFFF" d="M0.001,67.722v3.181c2.412,2.662,11.063,5.152,22.694,5.152c11.63,0,20.28-2.49,22.679-5.152v-3.182
		c-4.373,3.01-13.565,4.559-22.679,4.559S4.387,70.731,0.001,67.722z"/>
	<path fill="#FFFFFF" d="M22.695,11.922c13.846,0,22.679-3.524,22.679-5.963l0.002,0.002C45.376,3.537,36.541,0,22.696,0
		S0.001,3.537,0.001,5.961v0.003C0.012,8.402,8.858,11.922,22.695,11.922z"/>
	<path fill="#FFFFFF" d="M22.695,14.57c-9.114,0-18.308-1.549-22.694-4.543v3.152c2.412,2.65,11.063,5.154,22.695,5.154
		c11.63,0,20.268-2.504,22.68-5.154l-0.002-3.153C41.001,13.021,31.809,14.57,22.695,14.57z"/>
	<path fill="#FFFFFF" d="M0.001,21.607v42.065c0.011,2.425,8.857,5.956,22.694,5.956c13.844,0,22.679-3.535,22.679-5.961V21.606
		c-4.373,3.007-13.565,4.558-22.679,4.558S4.387,24.613,0.001,21.607z M36.527,41.88c1.605,4.817-1.586,7.051-4.792,8.119
		c-3.208,1.069-2.6-0.09-6.094,1.074c-3.494,1.165-5.552,4.083-8.312,5.003c-2.76,0.92-6.494-0.336-8.077-5.09
		c-2.282-6.844,9.253-12.229,11.981-13.138C28.811,35.322,34.921,37.062,36.527,41.88z"/>
	<path fill="#FFFFFF" d="M19.299,52.253l0.779,0.627c2.799-3.479,8.204-3.982,9.483-3.817l0.129-0.992
		C28.062,47.854,22.338,48.476,19.299,52.253z"/>
	<path fill="#FFFFFF" d="M0.001,14.982v2.57v0.004c0.011,2.438,8.857,5.958,22.694,5.958c13.844,0,22.679-3.525,22.679-5.962h0.002
		v-2.57c-4.027,3.061-13.566,4.676-22.68,4.676C13.581,19.658,4.029,18.043,0.001,14.982z"/>
</g>
</svg>
