<?xml version="1.0" encoding="utf-8"?>
<!-- Generator: Adobe Illustrator 16.0.0, SVG Export Plug-In . SVG Version: 6.00 Build 0)  -->
<!DOCTYPE svg PUBLIC "-//W3C//DTD SVG 1.1//EN" "http://www.w3.org/Graphics/SVG/1.1/DTD/svg11.dtd">
<svg version="1.1" id="Layer_1" xmlns="http://www.w3.org/2000/svg" xmlns:xlink="http://www.w3.org/1999/xlink" x="0px" y="0px"
	 width="53.667px" height="53.667px" viewBox="0 0 53.667 53.667" enable-background="new 0 0 53.667 53.667" xml:space="preserve">
<g>
	<path fill="#FFFFFF" d="M17.423,33.533c0.015,0.99,0.832,1.795,1.82,1.795c1.006,0,1.823-0.818,1.823-1.824
		c0-1.006-0.817-1.824-1.823-1.824c-0.023,0-0.045,0.008-0.068,0.009l-1.75,1.75c-0.001,0.012-0.005,0.024-0.005,0.036
		C17.422,33.498,17.423,33.519,17.423,33.533z"/>
	<path fill="#FFFFFF" d="M38.982,18.097c0.361-0.352,0.409-0.625,0.386-0.68c-0.028-0.064-0.244-0.183-0.639-0.183
		c-0.341,0-0.715,0.085-1.081,0.246c-0.694,0.304-1.07,0.746-1.183,1.033c-0.036,0.093-0.041,0.161-0.027,0.192
		c0.002,0.005,0.02,0.028,0.067,0.058c0.334,0.208,0.508,0.598,0.441,0.986c-0.008,0.044-0.028,0.083-0.042,0.125l0.874-0.187
		l0.923-0.922C38.708,18.519,38.797,18.277,38.982,18.097z"/>
	<path fill="#FFFFFF" d="M26.833,0C12.014,0,0,12.014,0,26.833s12.014,26.833,26.833,26.833c14.82,0,26.834-12.014,26.834-26.833
		S41.653,0,26.833,0z M26.833,49c-5.153,0-9.892-1.763-13.655-4.713l5.646-5.645l-7.113,0.512l-1.888,1.888
		c-3.217-3.848-5.155-8.801-5.155-14.209c0-12.243,9.924-22.167,22.166-22.167c5.408,0,10.362,1.939,14.21,5.156l-2.735,2.736
		c1.85,0.669,3.292,1.471,4.383,2.217l1.598-1.598C47.237,16.942,49,21.681,49,26.833C49,39.076,39.076,49,26.833,49z"/>
	<path fill="#FFFFFF" d="M30.061,24.816c-1.078,0-1.955,0.858-1.955,1.914c0,0.707,0.397,1.318,0.98,1.65l2.639-2.639
		C31.382,25.189,30.768,24.816,30.061,24.816z"/>
	<path fill="#FFFFFF" d="M44.59,17.718c0,0-0.805-1.047-2.6-2.243c-1.095-0.73-2.573-1.51-4.453-2.147
		c-2.007-0.681-4.471-1.198-7.476-1.291l-13.229,8.747l-6.55,4.331l6.55-1.398l6.73-1.436l6.414-1.392l6.018-1.306
		c-0.198-0.124-0.354-0.289-0.442-0.494c-0.356-0.809,0.409-1.926,1.708-2.495c0.505-0.221,1.014-0.327,1.47-0.327
		c0.72,0,1.306,0.264,1.523,0.76c0.021,0.049,0.019,0.104,0.031,0.154c0.134,0.507-0.106,1.101-0.628,1.608L44.59,17.718z
		 M23.743,20.32c-0.596,0.337-1.214,0.506-1.731,0.506c-0.521,0-0.941-0.171-1.135-0.514c-0.386-0.681,0.274-1.783,1.473-2.46
		c0.598-0.337,1.215-0.506,1.732-0.506c0.522,0,0.941,0.171,1.135,0.514C25.603,18.542,24.942,19.644,23.743,20.32z M30.757,14.213
		c0.308-0.211,0.642-0.317,0.929-0.317c0.264,0,0.486,0.09,0.61,0.271c0.26,0.379-0.009,1.014-0.598,1.418
		c-0.309,0.211-0.643,0.318-0.93,0.318c-0.263,0-0.485-0.09-0.61-0.271C29.898,15.254,30.167,14.619,30.757,14.213z"/>
	<path fill="#FFFFFF" d="M44.468,24.701c0.041,0,0.081,0.001,0.122,0.002v-5.481l-8.068,1.722l-8.392,1.791L23.612,23.7l-6.78,1.471
		l-6.56,1.423c-0.032,0.007-0.064,0.011-0.097,0.011v2.953c0.465-0.325,1.023-0.515,1.625-0.515c1.606,0,2.91,1.357,2.91,3.03
		c0,1.674-1.304,3.03-2.91,3.03c-0.602,0-1.16-0.19-1.625-0.515v2.457v1.25l2.579-0.186l7.112-0.512l4.419-0.318
		c-0.011-0.058-0.021-0.115-0.025-0.174c-0.077-1.119,1.419-2.132,3.342-2.266c0.141-0.01,0.279-0.014,0.416-0.014
		c1.734,0,3.135,0.762,3.206,1.799c0.003,0.052,0.002,0.105,0,0.156L44.59,35.82v-3.372c-0.041,0.002-0.081,0.003-0.122,0.003
		c-2.018,0-3.652-1.735-3.652-3.875S42.45,24.701,44.468,24.701z M19.243,36.295c-1.268,0-2.325-0.851-2.664-2.009
		c-0.069-0.236-0.119-0.48-0.123-0.738c0-0.015-0.003-0.03-0.003-0.044c0-0.465,0.116-0.901,0.316-1.287
		c0.465-0.893,1.397-1.503,2.474-1.503c0.273,0,0.533,0.052,0.783,0.125c1.157,0.34,2.007,1.398,2.007,2.666
		C22.033,35.045,20.784,36.295,19.243,36.295z M30.061,29.611c-0.626,0-1.202-0.198-1.678-0.528
		c-0.751-0.521-1.244-1.379-1.244-2.354c0-1.592,1.308-2.88,2.922-2.88c0.973,0,1.829,0.474,2.36,1.196
		c0.348,0.475,0.56,1.053,0.56,1.684C32.98,28.321,31.673,29.611,30.061,29.611z"/>
</g>
</svg>
