<?xml version="1.0" encoding="utf-8"?>
<!-- Generator: Adobe Illustrator 16.0.0, SVG Export Plug-In . SVG Version: 6.00 Build 0)  -->
<!DOCTYPE svg PUBLIC "-//W3C//DTD SVG 1.1//EN" "http://www.w3.org/Graphics/SVG/1.1/DTD/svg11.dtd">
<svg version="1.1" id="Layer_1" xmlns="http://www.w3.org/2000/svg" xmlns:xlink="http://www.w3.org/1999/xlink" x="0px" y="0px"
	 width="100px" height="73.518px" viewBox="0 0 100 73.518" enable-background="new 0 0 100 73.518" xml:space="preserve">
<polygon fill="#FFFFFF" points="100,19.748 86.227,19.748 85.645,26.84 99.507,23.933 "/>
<polygon fill="#FFFFFF" points="0,19.748 0.495,23.933 14.332,26.835 13.752,19.748 "/>
<path fill="#FFFFFF" d="M44.409,4.021c0,0.143,0.038,0.279,0.059,0.417C36.455,5.169,30.491,7.333,27.36,8.725
	c-6.318,2.809-8.374,5.582-8.408,6.274c0.355,1.811,10.44,6.623,31.038,6.623c20.597,0,30.682-4.812,31.039-6.642
	c-0.036-0.674-2.092-3.447-8.409-6.255c-3.132-1.392-9.097-3.555-17.108-4.287c0.021-0.139,0.059-0.274,0.059-0.417
	c0-0.935-0.461-1.784-1.204-2.467C53.346,0.615,51.775,0,49.991,0c-1.783,0-3.354,0.614-4.375,1.554
	C44.871,2.238,44.409,3.086,44.409,4.021z"/>
<path fill="#FFFFFF" d="M83.781,16.216l-3.963,47.604c-0.409,4.763-13.354,9.698-29.83,9.698c-16.474,0-29.33-5.028-29.829-9.698
	l-3.961-47.604c0,0,2.752,8.1,33.791,8.196C81.027,24.509,83.781,16.216,83.781,16.216z"/>
</svg>
