<?xml version="1.0" encoding="utf-8"?>
<!-- Generator: Adobe Illustrator 16.0.0, SVG Export Plug-In . SVG Version: 6.00 Build 0)  -->
<!DOCTYPE svg PUBLIC "-//W3C//DTD SVG 1.1//EN" "http://www.w3.org/Graphics/SVG/1.1/DTD/svg11.dtd">
<svg version="1.1" id="Layer_1" xmlns="http://www.w3.org/2000/svg" xmlns:xlink="http://www.w3.org/1999/xlink" x="0px" y="0px"
	 width="93.641px" height="50.844px" viewBox="0 0 93.641 50.844" enable-background="new 0 0 93.641 50.844" xml:space="preserve">
<g>
	<path fill="#FFFFFF" d="M90.131,21.581c-2.791-2.743-7.18-4.637-13.045-5.628c-0.463-0.101-0.947-0.177-1.478-0.229
		c-0.839-0.113-1.72-0.207-2.626-0.283c-6.441-0.836-7.78-2.106-9.188-4.086c-2.27-4.014-6.707-7.037-13.195-8.992
		C45.532,0.839,39.184,0,32.721,0h-0.004C17.624,0,0,4.603,0,17.571v8.152c0,4.354,2.233,12.194,17.178,15.844
		c9.027,2.396,32.494,6.869,33.49,7.06v-0.001l0.098,0.02c0.021,0.004,0.054,0.01,0.072,0.014
		c8.734,1.449,16.092,2.185,21.867,2.185c5.416,0,9.611-0.628,12.825-1.92c5.155-2.075,8.11-6.125,8.11-11.11v-8.152
		C93.643,27.548,93.034,24.435,90.131,21.581z M51.66,33.692c-0.013-0.002-24.277-4.629-33.254-7.02h0.002
		c-7.214-1.746-12.486-4.981-12.486-9.711c0-13.99,46.141-14.923,52.311-2.803l0.004-0.002c2.652,3.833,5.605,6.017,13.977,7.084
		c0.87,0.07,1.726,0.16,2.565,0.277c0.394,0.037,0.722,0.089,0.997,0.156c6.414,1.061,11.469,3.547,11.469,7.462
		C87.244,37.697,68.996,36.577,51.66,33.692z"/>
	<path fill="#FFFFFF" d="M54.03,22.59c-3.638-1.603-6.977-3.026-10.193-4.227c-0.007-0.002-0.011-0.006-0.016-0.009
		c-0.519-0.233-0.998-0.454-1.454-0.666c-0.683-0.395-1.104-0.809-1.168-1.183c-0.126-0.728,0.822-1.974,1.548-2.587
		c0.741-0.612,0.972-1.649,0.559-2.518c-0.412-0.868-1.356-1.348-2.305-1.161L25.61,13.27l-10.765,1.884
		c-1.137,0.197-1.9,1.277-1.71,2.416s1.264,1.912,2.401,1.729c9.082-1.438,16.122-0.532,23.568,1.872l13.3,5.296
		c0.255,0.102,0.518,0.149,0.776,0.149c0.824,0,1.602-0.485,1.94-1.288C55.562,24.271,55.078,23.054,54.03,22.59z"/>
</g>
</svg>
