<?xml version="1.0" encoding="utf-8"?>
<!-- Generator: Adobe Illustrator 16.0.0, SVG Export Plug-In . SVG Version: 6.00 Build 0)  -->
<!DOCTYPE svg PUBLIC "-//W3C//DTD SVG 1.1//EN" "http://www.w3.org/Graphics/SVG/1.1/DTD/svg11.dtd">
<svg version="1.1" id="Layer_1" xmlns="http://www.w3.org/2000/svg" xmlns:xlink="http://www.w3.org/1999/xlink" x="0px" y="0px"
	 width="53.668px" height="53.667px" viewBox="0 0 53.668 53.667" enable-background="new 0 0 53.668 53.667" xml:space="preserve">
<g>
	<path fill="#FFFFFF" d="M39.458,30.402l-0.005-4.228l1.762-0.001l0.004,4.228L39.458,30.402z M40.963,25.056
		c-0.264,0-0.475-0.214-0.476-0.478c0.005-2.031-0.397-2.96-0.823-3.945c-0.467-1.077-0.948-2.192-0.943-4.629
		c0-0.263,0.215-0.476,0.479-0.477c0.264,0,0.476,0.213,0.475,0.477c-0.006,2.238,0.418,3.215,0.867,4.25
		c0.444,1.029,0.907,2.095,0.901,4.325C41.439,24.841,41.227,25.055,40.963,25.056z M41.196,19.263
		c-0.465-1.079-0.948-2.191-0.942-4.631c0.002-0.263,0.215-0.476,0.479-0.477c0.263,0,0.476,0.213,0.476,0.477
		c-0.006,2.239,0.416,3.216,0.864,4.25c0.445,1.03,0.906,2.095,0.9,4.325c0,0.263-0.213,0.476-0.478,0.477
		c-0.263,0-0.476-0.212-0.476-0.475C42.024,21.175,41.623,20.246,41.196,19.263z M42.158,30.398l-0.005-4.226l1.761-0.001
		l0.004,4.226L42.158,30.398z"/>
	<path fill="#FFFFFF" d="M7.515,30.43l-0.003-4.228l9.04-0.008l0.005,4.227L7.515,30.43z"/>
	<polygon fill="#FFFFFF" points="38.631,26.175 31.395,26.182 35.617,30.404 38.636,30.402 	"/>
	<polygon fill="#FFFFFF" points="17.494,26.194 17.496,30.42 26.197,30.413 21.975,26.19 	"/>
	<rect x="39.456" y="26.173" fill="#FFFFFF" width="1.761" height="4.228"/>
	<rect x="42.156" y="26.172" fill="#FFFFFF" width="1.76" height="4.226"/>
	<rect x="7.513" y="26.198" fill="#FFFFFF" width="9.042" height="4.228"/>
	<path fill="#FFFFFF" d="M39.674,16.004c0.001-0.264-0.211-0.477-0.475-0.477c-0.264,0.001-0.479,0.214-0.479,0.477
		c-0.005,2.438,0.477,3.552,0.943,4.629c0.426,0.985,0.828,1.914,0.823,3.945c0.001,0.263,0.212,0.477,0.476,0.478
		c0.264-0.001,0.477-0.214,0.479-0.478c0.006-2.23-0.457-3.295-0.901-4.325C40.092,19.219,39.668,18.242,39.674,16.004z"/>
	<path fill="#FFFFFF" d="M42.495,23.683c0.265,0,0.478-0.214,0.478-0.477c0.006-2.23-0.455-3.295-0.9-4.325
		c-0.448-1.033-0.87-2.01-0.864-4.25c0-0.264-0.213-0.477-0.476-0.477c-0.264,0.001-0.477,0.214-0.479,0.477
		c-0.006,2.439,0.478,3.552,0.942,4.631c0.427,0.983,0.828,1.913,0.823,3.945C42.02,23.471,42.232,23.683,42.495,23.683z"/>
	<path fill="#FFFFFF" d="M26.834,0C12.014,0,0,12.014,0,26.834c0,14.819,12.014,26.833,26.834,26.833s26.834-12.014,26.834-26.833
		C53.668,12.014,41.654,0,26.834,0z M26.834,49C14.592,49,4.667,39.076,4.667,26.834c0-5.408,1.938-10.362,5.156-14.21
		l13.564,13.564l4.223,4.223l13.433,13.433C37.195,47.062,32.242,49,26.834,49z M44.288,40.489L34.205,30.406l-4.223-4.223
		L13.179,9.379c3.765-2.949,8.503-4.712,13.655-4.712c12.242,0,22.167,9.924,22.167,22.167
		C49.001,31.987,47.238,36.726,44.288,40.489z"/>
</g>
</svg>
