<?xml version="1.0" encoding="utf-8"?>
<!-- Generator: Adobe Illustrator 16.0.0, SVG Export Plug-In . SVG Version: 6.00 Build 0)  -->
<!DOCTYPE svg PUBLIC "-//W3C//DTD SVG 1.1//EN" "http://www.w3.org/Graphics/SVG/1.1/DTD/svg11.dtd">
<svg version="1.1" id="Layer_1" xmlns="http://www.w3.org/2000/svg" xmlns:xlink="http://www.w3.org/1999/xlink" x="0px" y="0px"
	 width="36.166px" height="36.167px" viewBox="0 0 36.166 36.167" enable-background="new 0 0 36.166 36.167" xml:space="preserve">
<g>
	<path fill="#FFFFFF" d="M32.249,0H3.917C1.757,0,0,1.757,0,3.917V32.25c0,2.16,1.757,3.917,3.917,3.917h28.332
		c2.16,0,3.917-1.757,3.917-3.917V3.917C36.166,1.757,34.409,0,32.249,0z M34.077,32.25c0,1.009-0.818,1.828-1.828,1.828H3.917
		c-1.01,0-1.828-0.818-1.828-1.828V3.917c0-1.009,0.818-1.828,1.828-1.828h28.332c1.01,0,1.828,0.818,1.828,1.828V32.25z"/>
	<path fill="#FFFFFF" d="M29.846,6.454c-3.837-1.313-7.838-1.979-11.894-1.979c-4.055,0-8.057,0.666-11.894,1.979
		C5.637,6.599,5.353,6.996,5.353,7.442v8.225c0,0.337,0.163,0.654,0.438,0.85c0.18,0.128,0.393,0.195,0.607,0.195
		c0.113,0,0.228-0.019,0.338-0.056c3.619-1.239,7.393-1.867,11.217-1.867c3.825,0,7.599,0.628,11.217,1.867
		c0.11,0.038,0.225,0.056,0.338,0.056c0.216,0,0.429-0.066,0.607-0.195c0.275-0.196,0.438-0.512,0.438-0.85V7.442
		C30.552,6.996,30.269,6.599,29.846,6.454z M29.507,15.667c-3.179-1.088-6.474-1.713-9.786-1.877L18.39,8.271
		c-0.014-0.059-0.066-0.1-0.127-0.1s-0.112,0.042-0.127,0.1l-1.325,5.493c-3.522,0.113-7.033,0.746-10.413,1.903
		c0-2.742,0-5.483,0-8.225c3.745-1.282,7.65-1.923,11.555-1.923c3.905,0,7.811,0.641,11.555,1.923
		C29.507,10.184,29.507,12.925,29.507,15.667z"/>
</g>
</svg>
