<?xml version="1.0" encoding="utf-8"?>
<!-- Generator: Adobe Illustrator 16.0.0, SVG Export Plug-In . SVG Version: 6.00 Build 0)  -->
<!DOCTYPE svg PUBLIC "-//W3C//DTD SVG 1.1//EN" "http://www.w3.org/Graphics/SVG/1.1/DTD/svg11.dtd">
<svg version="1.1" id="Layer_1" xmlns="http://www.w3.org/2000/svg" xmlns:xlink="http://www.w3.org/1999/xlink" x="0px" y="0px"
	 width="88.316px" height="82.006px" viewBox="0 0 88.316 82.006" enable-background="new 0 0 88.316 82.006" xml:space="preserve">
<g>
	<circle fill="#FFFFFF" cx="54.812" cy="5.088" r="5.088"/>
	<path fill="#FFFFFF" d="M72.927,51.233c-2.319,0-4.521,0.52-6.494,1.441l-2.997-5.309c0,0-0.367-0.363,0.444-1.63
		c0.492-0.769,1.229-2.8,1.969-2.862c0.738-0.062,1.943,0.175,2.34,0c0.766-0.339,1.064-1.484,1.107-2.647
		c0.054-1.481-0.123-2.21-0.309-2.339c-0.564-0.392-1.015-0.485-1.415-0.369c-0.935,0.271-3.262,1.258-3.262,1.258
		c-0.983,0.281-3.347,1.275-3.938,1.481c-0.601,0.208-1.416,0.646-1.785,0.954s0.062,1.231,0.308,1.293
		c0.247,0.061,0.187,0.184,0.862-0.062c0.678-0.246,1.322-0.379,1.107,0.308c-0.246,0.784-0.486,1.489-0.842,2.238
		c-0.369,0.778-1.129,0.572-1.129,0.572l-10.216-0.215c-0.119-0.305-0.217-0.554-0.267-0.688c-0.492-1.313,2.215-1.559,4.678-2.544
		c2.461-0.985,7.896-2.684,10.053-3.734c2.095-1.018,3.24-2.256,3.24-4.308c0-0.422-1.066-8.446-1.969-13.459
		c-0.807-4.472-2.216-8.781-5.004-9.117c-3.38-0.408-4.599,1.075-4.599,1.075s-13.54,13.622-15.674,15.428
		c-1.433,1.322-1.964,1.885-2.736,3.037c-0.984,1.64,0.116,3.379,0.116,3.379l0.421,0.264c-2.718,0.04-6.008,0.095-6.415,0.131
		c-0.612,0.055-1.337,0.438-2.01,1.077c-0.632,0.601-0.945,1.549-1.028,2.889c-0.082,1.339,0.791,1.913,0.986,3.035
		c0.154,0.895,0.217,1.383,0.217,1.383s-0.25,0.338-0.703,1.214l-2.387,3.218l-2.791,4.582l-0.399,0.727
		c-2.106-1.086-4.491-1.702-7.02-1.702C6.903,51.232,0,58.133,0,66.619s6.902,15.388,15.388,15.388s15.387-6.902,15.387-15.388
		c0-4.813-2.224-9.118-5.698-11.942l0.028-0.047l2.216-3.242c0,0,12.396,10.719,15.369,13.084c-0.1,0.551-0.046,1.256,0.08,2.147
		c0.738,5.244,2.495,5.668,15.265,4.507c0.061-0.007,0.117-0.011,0.178-0.017c1.926,6.301,7.793,10.897,14.717,10.897
		c8.484,0,15.388-6.903,15.388-15.389C88.316,58.133,81.413,51.233,72.927,51.233z M28.065,66.62c0,6.992-5.688,12.68-12.679,12.68
		c-6.992,0-12.68-5.688-12.68-12.68c0-6.99,5.688-12.679,12.68-12.679c2.055,0,3.994,0.494,5.714,1.366l-0.306,0.554l-3.733,5.858
		l-1.675,2.266c0,0-1.424,0.543-1.854,1.189c-0.489,0.734-1.241,1.653-0.646,2.791c0.449,0.859,0.844,1.567,2.5,1.744
		c1.472,0.154,2.125-0.637,2.617-1.621c0.494-0.984,0.33-1.961,0.33-1.961l0.205-0.871l2.379-3.537l2.763-4.678
		C26.362,59.369,28.065,62.797,28.065,66.62z M30.932,37.975l1.641-0.018c0,0,3.242,0.229,4.227,0.146
		c0.984-0.082,3.014,0.187,3.662-0.061c0.542-0.207,0.306-1.367,0.202-2.605c0.45-0.284,1.103-0.747,2.01-1.521
		c0.984-1.149,3.508-3.652,4.781-4.844c0.318-0.298,2.717-2.708,3.969-2.562c0.419,0.049,1.113,1.923,2.062,3.688
		c0.859,1.933,1.037,3.011,1.037,3.011s-1.025,0.413-1.625,0.815c-0.578,0.388-7.016,3.078-10.726,4.562
		c-3.692,1.477-2.297,4.185-2.297,4.185c0.267,0.829,0.598,1.69,0.892,2.411c-0.003,0-2.736-0.009-3.579-0.049
		c-0.872-0.041-3.941-0.115-4.984-0.041c-1.148,0.082-0.938,0.198-0.586-0.57c0.379-0.824,0.34-1.477,0.258-2.708
		c-0.082-1.23-0.699-2.324-1.108-3.035C30.356,38.064,30.932,37.975,30.932,37.975z M45.947,62.59c0,0-14.689-13.008-14.936-13.09
		H31.01l0.33-0.596l11.058,0.106l5.602,13.455c0,0-0.062,0.042-0.146,0.139c-0.624-0.01-1.182-0.003-1.681,0.03
		C46.264,62.549,45.947,62.59,45.947,62.59z M57.937,63.165c-1.794-0.095-3.348-0.192-4.714-0.279
		c0.538-0.577,1.15-1.21,1.712-1.774c0,0-0.329-1.274-1.066-2.953c-0.485-1.104-2.289-5.553-3.701-9.073l6.686,0.064l0.021-0.036
		c0.197,0.16,0.492,0.317,0.194,0.962c-0.491,1.067-0.771,1.271-1.524,2.512c-0.66,1.086-1.188,1.678-1.267,2.535
		c-0.037,0.411,0.919,1.926,1.371,2.436c0.442,0.496,0.66,0.705,1.399-0.648c0.738-1.354,2.154-3.684,2.707-4.463
		c0.615-0.863,0.861-1.445,1.17-1.2c0.308,0.246,1.17,1.601,1.539,2.216c0.072,0.121,0.332,0.594,0.701,1.273
		C60.587,56.856,58.712,59.801,57.937,63.165z M64.485,57.17c1.609,2.978,3.585,6.647,3.602,6.648c0,0,0,0.001,0.002,0.001
		c-2.197-0.25-4.741-0.383-7.397-0.517C61.343,60.903,62.683,58.783,64.485,57.17z M72.927,79.299
		c-5.483,0-10.164-3.502-11.928-8.386c9.353-0.489,14.597,0.794,14.205-3.771c-0.097-1.126-1.057-1.892-2.601-2.427
		c-0.069-0.149-0.167-0.347-0.292-0.607c-0.862-1.784-3.387-7.016-3.387-7.016l-1.156-2.051c1.576-0.705,3.32-1.102,5.156-1.102
		c6.992,0,12.681,5.688,12.681,12.679C85.606,73.612,79.919,79.299,72.927,79.299z"/>
</g>
</svg>
