<?xml version="1.0" encoding="utf-8"?>
<!-- Generator: Adobe Illustrator 16.0.0, SVG Export Plug-In . SVG Version: 6.00 Build 0)  -->
<!DOCTYPE svg PUBLIC "-//W3C//DTD SVG 1.1//EN" "http://www.w3.org/Graphics/SVG/1.1/DTD/svg11.dtd">
<svg version="1.1" id="Layer_1" xmlns="http://www.w3.org/2000/svg" xmlns:xlink="http://www.w3.org/1999/xlink" x="0px" y="0px"
	 width="37px" height="52.238px" viewBox="0 0 37 52.238" enable-background="new 0 0 37 52.238" xml:space="preserve">
<g>
	<defs>
		<rect id="SVGID_1_" width="37" height="52.238"/>
	</defs>
	<clipPath id="SVGID_2_">
		<use xlink:href="#SVGID_1_"  overflow="visible"/>
	</clipPath>
	<path clip-path="url(#SVGID_2_)" fill="#FFFFFF" d="M19.442,40.864c-0.123,0.094-2.957,2.334-1.602,5.556
		c1.424,3.389,4.967,2.738,5.577,2.482c1.657-0.734,2.482-2.516,2.487-2.526c0.325-0.741,1.181-1.1,1.942-0.822
		c0.018,0.006,1.869,0.664,3.524,0.005c0.639-0.27,3.582-2.345,2.156-5.733c-1.354-3.224-4.938-2.765-5.08-2.745
		c-0.697,0.106-1.377-0.274-1.649-0.923l-9.699-23.068c-0.25-0.596-0.101-1.286,0.375-1.725c0.029-0.028,2.929-2.759,1.694-5.695
		c-1.613-3.836-5.396-2.297-5.557-2.23c-1.538,0.647-2.507,2.441-2.514,2.455C10.755,6.55,9.995,6.87,9.286,6.654
		c-0.5-0.151-2.221-0.462-3.512,0.081C5.614,6.802,1.866,8.428,3.48,12.266c1.22,2.903,5.095,2.778,5.254,2.771
		c0.646-0.031,1.243,0.344,1.495,0.942l9.697,23.065C20.197,39.688,19.993,40.438,19.442,40.864 M0.871,7.173
		c0.812-1.431,2.163-2.627,3.71-3.276c1.615-0.679,3.323-0.606,4.427-0.44c0.654-0.906,1.796-2.177,3.41-2.855
		c1.547-0.649,3.347-0.781,4.938-0.359c1.474,0.392,3.476,1.443,4.649,4.234c1.543,3.669-0.49,6.876-1.687,8.327l8.898,21.162
		c2.285,0.045,5.624,1.036,7.149,4.665c1.989,4.734-1.092,8.626-3.829,9.777c-1.68,0.667-3.367,0.562-4.479,0.361
		c-0.638,0.938-1.752,2.218-3.42,2.959c-2.709,1.138-7.645,0.618-9.635-4.115c-1.527-3.63,0.101-6.708,1.668-8.374L7.773,18.077
		c-1.873-0.16-5.587-0.949-7.131-4.62C-0.53,10.668,0.12,8.5,0.871,7.173"/>
</g>
</svg>
