<?xml version="1.0" encoding="utf-8"?>
<!-- Generator: Adobe Illustrator 16.0.0, SVG Export Plug-In . SVG Version: 6.00 Build 0)  -->
<!DOCTYPE svg PUBLIC "-//W3C//DTD SVG 1.1//EN" "http://www.w3.org/Graphics/SVG/1.1/DTD/svg11.dtd">
<svg version="1.1" id="Layer_1" xmlns="http://www.w3.org/2000/svg" xmlns:xlink="http://www.w3.org/1999/xlink" x="0px" y="0px"
	 width="309.6px" height="73.867px" viewBox="0 0 309.6 73.867" enable-background="new 0 0 309.6 73.867" xml:space="preserve">
<g>
	<path fill="#FFFFFF" d="M26.737,17.616c-2.653-5.155-8.936-6.83-14.167-5.36c1.366,5.221,5.747,9.479,11.413,9.495
		c-1.845,1.805-1.914,3.508-0.211,5.11c1.57-3.766,5.146-7.879,8.628-9.98c-0.72-0.924-1.439-1.845-2.157-2.769
		C28.945,15.172,27.791,16.331,26.737,17.616"/>
	<path fill="#FFFFFF" d="M12.304,31.868c-3.891,1.622-5.735,6.107-4.113,9.998c0.318,0.764-0.044,1.641-0.806,1.958
		C7.196,43.902,7,43.939,6.809,43.939c-0.587,0-1.143-0.347-1.384-0.921c-2.257-5.416,0.312-11.658,5.726-13.916
		c0.765-0.318,1.641,0.042,1.959,0.806C13.428,30.672,13.067,31.548,12.304,31.868 M33.625,23.827c-4.558,0-8.182,2.347-9.853,6.029
		c-1.67-3.682-5.295-6.029-9.854-6.029c-23.266,0-14.677,44.771,6.054,41.917c1.78-0.246,2.991-0.838,3.8-1.682
		c0.81,0.844,2.02,1.436,3.799,1.682C48.303,68.598,56.891,23.827,33.625,23.827"/>
</g>
<polygon fill="#FFFFFF" points="61.855,49.004 61.855,41.627 73.442,41.627 73.442,30.038 80.874,30.038 80.874,41.627 
	92.461,41.627 92.461,49.004 80.874,49.004 80.874,60.649 73.442,60.649 73.442,49.004 "/>
<g>
	<path fill="#FFFFFF" d="M302.426,46.446V46.44c-0.092-0.053-0.196-0.088-0.29-0.139c-0.327-0.173-0.661-0.337-1.005-0.48
		c-0.191-0.081-0.387-0.15-0.58-0.222c-0.273-0.101-0.552-0.193-0.832-0.274c-0.22-0.068-0.443-0.126-0.667-0.181
		c-0.272-0.064-0.548-0.115-0.827-0.16c-0.229-0.041-0.461-0.086-0.694-0.114c-0.326-0.037-0.657-0.05-0.99-0.063
		c-0.174-0.006-0.343-0.034-0.517-0.034c-4.386,0-8.295,2.166-10.776,5.522c-0.12-0.027-0.232-0.037-0.353-0.063
		c-2.65-1.747-6.08-2.809-9.836-2.809c-2.252,0-4.504,0.375-6.608,1.188c-1.539,0.593-3.036,1.347-4.318,2.398
		c-0.362,0.296-0.703,0.624-1.019,0.97c-0.43,0.471-0.746,1.039-1.312,1.367c-0.113,0.066-0.249,0.114-0.391,0.146h-0.482
		c-0.18-0.036-0.348-0.118-0.462-0.287c-0.007-0.01-0.017-0.013-0.021-0.02c-0.342-0.546-0.28-1.363-0.307-1.981
		c-0.035-0.762-0.062-1.521-0.136-2.279c-0.006-0.064-0.005-0.131-0.011-0.199c-0.124-1.11-0.224-2.227-0.309-3.345
		c-0.121-1.453-0.213-2.923-0.286-4.355l-0.01-0.244c-0.152-2.93-0.228-6.065,0.232-9.136c0.429-2.848,1.28-5.716,2.468-8.294
		c0.209-0.454,0.449-0.911,0.679-1.353c0.155-0.291,0.315-0.596,0.466-0.9c0.046-0.089,0.093-0.187,0.142-0.289
		c0.242-0.515,0.544-1.151,0.946-1.388c0.157-0.091,0.36-0.134,0.641-0.134c0.163,0,0.343,0.016,0.515,0.028
		c0.122,0.012,0.252,0.023,0.376,0.026c0.249,0.012,0.504,0.029,0.758,0.042c0.463,0.029,0.943,0.057,1.421,0.057
		c0.431,0,0.806-0.021,1.154-0.072c0.317-0.045,0.605-0.192,0.859-0.321c0.083-0.042,0.161-0.082,0.233-0.114
		c1.044-0.477,2.111-0.947,3.146-1.396c0.399-0.175,0.801-0.35,1.203-0.526c0.762,0.039,1.516,0.045,2.242-0.24
		c1.015-0.398,1.351-1.732,1.286-2.702c-0.018-0.218-0.061-0.403-0.131-0.565c-0.204-0.481-0.638-0.728-1.152-0.829
		c0.217-0.667,0.478-1.259,0.815-1.945l0.029-0.059c0.402-0.816,0.819-1.875,0.465-2.827l-0.004-0.002V7.836
		c-0.537-1.43-6.55-5.598-7.799-6.451c-0.19-0.154-1.741-1.417-3.122-1.384c-0.939,0.021-4.024,2.58-5.781,4.104
		c-2.197,1.908-4.809,4.389-5.352,5.33c-0.419,0.716-0.888,1.627-0.925,2.12l-0.492,1.144c-0.921,2.138-2.149,4.711-3.448,7.436
		c-0.218,0.453-0.429,0.911-0.644,1.364c-0.515,1.084-1.027,2.165-1.534,3.251c-0.136,0.29-0.271,0.57-0.408,0.864
		c-0.606,1.306-1.194,2.62-1.782,3.936c-2.134,4.816-4.149,9.879-5.443,14.671c-0.2,0.732-0.359,1.444-0.5,2.143
		c-0.125,0.661-0.26,1.325-0.347,1.989c-0.022,0.147-0.041,0.293-0.06,0.436c-0.154,1.259-0.267,2.521-0.301,3.781
		c0,0.057,0,0.116-0.002,0.174c-0.03,1.329,0.022,2.663,0.197,3.996c0.19,1.461,0.483,2.922,0.614,4.39v0.005l0.027,0.175
		c-0.025,0.126-0.053,0.288-0.083,0.468c-0.058,0.409-0.126,0.822-0.169,1.216c-0.012,0.096-0.017,0.194-0.026,0.294
		c-0.03,0.524-0.027,1.06,0.111,1.571c0.204,0.752,0.778,1.462,1.44,1.961c0.299,0.181,0.722,0.419,1.283,0.69
		c0.596,0.275,1.201,0.539,1.813,0.789c0.251,0.098,0.482,0.195,0.762,0.297c0.04,0.017,0.086,0.028,0.127,0.049
		c0.764,0.286,1.553,0.515,2.334,0.764c0.424,0.131,0.832,0.258,1.304,0.387c5.563,1.53,12.015,2.368,18.213,2.827
		c1.625,0.118,3.258,0.217,4.885,0.29c0.687,0.032,1.367,0.064,2.036,0.087c1.857,0.059,3.716,0.096,5.574,0.104
		c0.363,0.004,0.753,0.011,1.102,0.013c0.965,0,1.928-0.021,2.889-0.031c2.699-0.032,5.462-0.093,8.317-0.215l0.511-0.021
		c0,0,1.411,0.042,2.321,0.048c1.315-0.096,2.621-0.248,3.876-0.587c0.134-0.034,0.665-0.189,1.219-0.374
		c0.714-0.233,1.468-0.523,1.498-0.699c4.271-2.37,7.187-7.035,7.187-12.398C309.604,53.48,306.693,48.819,302.426,46.446"/>
</g>
<path fill="#FFFFFF" d="M221.983,56.172h-32.133v-7.805h32.133V56.172z M221.983,42.313h-32.133v-7.805h32.133V42.313z"/>
<g>
	<path fill="#FFFFFF" d="M120.56,49.234l-0.955,0.043c-1.859,0.082-3.298,1.654-3.216,3.514l0.185,4.242l-1.138,0.05
		c-1.942,0.086-3.453,1.736-3.368,3.68c0.087,1.942,1.737,3.454,3.678,3.368l1.139-0.049l0.187,4.242
		c0.081,1.859,1.655,3.298,3.511,3.217l0.957-0.042c1.858-0.081,3.299-1.654,3.216-3.514l-0.186-4.243l-0.075-1.665l-0.163-3.716
		l-0.074-1.666l-0.185-4.243C123.99,50.593,122.417,49.153,120.56,49.234"/>
	<path fill="#FFFFFF" d="M154.179,45.043l-0.955,0.041c-1.86,0.082-3.299,1.655-3.217,3.515l0.307,6.95l-13.19,0.58l-4.122,0.183
		l-0.306-6.951c-0.08-1.858-1.655-3.298-3.511-3.217l-0.955,0.043c-1.86,0.081-3.3,1.652-3.218,3.512l0.307,6.95l0.074,1.667
		l0.164,3.715l0.074,1.665l0.304,6.952c0.083,1.857,1.654,3.299,3.512,3.217l0.955-0.043c1.859-0.082,3.298-1.654,3.216-3.513
		l-0.305-6.95l4.122-0.182l13.189-0.58l0.305,6.95c0.081,1.858,1.655,3.298,3.515,3.217l0.952-0.041
		c1.859-0.083,3.3-1.656,3.217-3.515l-0.308-6.951l-0.071-1.664l-0.163-3.717l-0.073-1.666l-0.306-6.949
		C157.61,46.402,156.039,44.961,154.179,45.043"/>
	<path fill="#FFFFFF" d="M167.941,54.773l-1.201,0.053l-0.185-4.243c-0.082-1.859-1.656-3.3-3.514-3.218l-0.954,0.042
		c-1.859,0.082-3.301,1.654-3.218,3.514l0.187,4.243l0.074,1.666l0.162,3.716l0.075,1.665l0.187,4.243
		c0.081,1.859,1.652,3.3,3.511,3.218l0.956-0.042c1.86-0.082,3.297-1.654,3.217-3.514l-0.187-4.242l1.198-0.054
		c1.942-0.086,3.454-1.734,3.368-3.68C171.532,56.198,169.885,54.688,167.941,54.773"/>
	<path fill="#FFFFFF" d="M127.274,18.581l-0.912,0.29c-1.773,0.563-2.753,2.456-2.189,4.23l1.284,4.048l-1.086,0.345
		c-1.852,0.588-2.882,2.575-2.293,4.429s2.576,2.883,4.428,2.294l1.086-0.345l1.286,4.048c0.563,1.773,2.456,2.754,4.228,2.191
		l0.913-0.291c1.772-0.562,2.754-2.456,2.19-4.229l-1.285-4.047l-0.505-1.59l-1.126-3.545l-0.505-1.588l-1.283-4.049
		C130.939,18.999,129.046,18.018,127.274,18.581"/>
	<path fill="#FFFFFF" d="M158.642,5.775l-0.91,0.29c-1.774,0.563-2.755,2.457-2.193,4.23l2.106,6.63l-12.583,3.997l-3.931,1.249
		l-2.107-6.631c-0.562-1.773-2.456-2.753-4.228-2.19l-0.911,0.289c-1.775,0.563-2.754,2.457-2.191,4.23l2.106,6.63l0.504,1.589
		l1.127,3.545l0.504,1.589l2.104,6.631c0.564,1.773,2.457,2.754,4.231,2.191l0.91-0.289c1.772-0.563,2.753-2.457,2.19-4.231
		l-2.104-6.63l3.93-1.249l12.584-3.996l2.104,6.63c0.563,1.773,2.456,2.754,4.23,2.19l0.911-0.288
		c1.772-0.564,2.754-2.457,2.188-4.23l-2.104-6.632l-0.504-1.588l-1.126-3.545l-0.504-1.589l-2.106-6.631
		C162.309,6.193,160.414,5.212,158.642,5.775"/>
	<path fill="#FFFFFF" d="M174.462,11.583l-1.146,0.364l-1.284-4.048c-0.562-1.774-2.456-2.755-4.229-2.191l-0.91,0.289
		c-1.773,0.563-2.755,2.457-2.19,4.23l1.284,4.049l0.505,1.589l1.125,3.544l0.506,1.589l1.284,4.049
		c0.564,1.773,2.458,2.754,4.23,2.191l0.91-0.289c1.774-0.564,2.754-2.457,2.19-4.231l-1.286-4.048l1.146-0.364
		c1.852-0.589,2.882-2.575,2.293-4.429C178.303,12.024,176.314,10.995,174.462,11.583"/>
</g>
</svg>
