<?xml version="1.0" encoding="utf-8"?>
<!-- Generator: Adobe Illustrator 16.0.0, SVG Export Plug-In . SVG Version: 6.00 Build 0)  -->
<!DOCTYPE svg PUBLIC "-//W3C//DTD SVG 1.1//EN" "http://www.w3.org/Graphics/SVG/1.1/DTD/svg11.dtd">
<svg version="1.1" id="Layer_1" xmlns="http://www.w3.org/2000/svg" xmlns:xlink="http://www.w3.org/1999/xlink" x="0px" y="0px"
	 width="215px" height="269.656px" viewBox="0 0 215 269.656" enable-background="new 0 0 215 269.656" xml:space="preserve">
<g>
	<defs>
		<rect id="SVGID_1_" width="215" height="269.656"/>
	</defs>
	<clipPath id="SVGID_2_">
		<use xlink:href="#SVGID_1_"  overflow="visible"/>
	</clipPath>
	<path clip-path="url(#SVGID_2_)" fill="#FFFFFF" d="M26.384,53.096c0,14.731,11.983,26.716,26.71,26.716
		c14.731,0,26.715-11.983,26.715-26.714c0-14.73-11.983-26.714-26.715-26.714C38.367,26.384,26.384,38.367,26.384,53.096
		 M0.556,68.107l12.31-8.018c2.91-1.9,4.513-4.381,4.511-6.992c0-2.607-1.606-5.087-4.517-6.984L0.556,38.09
		c-0.459-0.296-0.663-0.863-0.5-1.386c0.16-0.51,0.632-0.858,1.166-0.858h0.031l14.917,0.393c0.132,0.006,0.267,0.008,0.398,0.008
		c3.52,0,6.3-1.215,7.829-3.421c1.444-2.085,1.62-4.892,0.492-7.907l-5-13.361c-0.191-0.504-0.023-1.076,0.406-1.398
		c0.217-0.168,0.48-0.249,0.738-0.249c0.251,0,0.508,0.078,0.721,0.237l11.829,8.656c2.022,1.478,4.174,2.26,6.232,2.26
		c3.666,0,6.618-2.463,7.901-6.594l4.212-13.606c0.158-0.513,0.633-0.862,1.166-0.862c0.536,0,1.01,0.349,1.169,0.862l4.213,13.604
		c1.282,4.126,4.233,6.592,7.899,6.592c2.055,0,4.21-0.781,6.236-2.258l11.824-8.654c0.216-0.159,0.469-0.237,0.722-0.237
		c0.26,0,0.518,0.081,0.739,0.246c0.427,0.326,0.595,0.898,0.406,1.402l-5,13.361c-1.126,3.01-0.95,5.82,0.494,7.901
		c1.531,2.208,4.312,3.425,7.833,3.425c0.13,0,0.261-0.002,0.394-0.008l14.917-0.391h0.033c0.533,0,1.006,0.346,1.166,0.858
		c0.16,0.523-0.042,1.09-0.499,1.386l-12.307,8.023c-2.913,1.896-4.515,4.376-4.515,6.985s1.602,5.09,4.515,6.99l12.307,8.015
		c0.458,0.301,0.659,0.867,0.499,1.39c-0.16,0.51-0.633,0.858-1.166,0.858h-0.033l-14.917-0.393
		c-0.132-0.002-0.263-0.004-0.394-0.004c-3.521,0-6.302,1.214-7.833,3.417c-1.444,2.085-1.62,4.896-0.494,7.909l5,13.357
		c0.189,0.508,0.021,1.077-0.406,1.402c-0.222,0.168-0.479,0.251-0.739,0.251c-0.253,0-0.506-0.079-0.722-0.238l-11.829-8.658
		c-2.022-1.479-4.176-2.26-6.231-2.26c-3.666,0-6.618,2.463-7.899,6.594l-4.213,13.606c-0.159,0.513-0.633,0.861-1.169,0.861
		c-0.533,0-1.008-0.349-1.166-0.861l-4.21-13.608c-1.281-4.129-4.236-6.592-7.899-6.592c-2.055,0-4.21,0.781-6.232,2.263
		l-11.827,8.655c-0.213,0.159-0.467,0.238-0.721,0.238c-0.259,0-0.521-0.083-0.739-0.249c-0.429-0.327-0.593-0.896-0.406-1.402
		l4.998-13.359c1.128-3.013,0.952-5.823-0.494-7.905c-1.529-2.207-4.31-3.421-7.831-3.421c-0.132,0-0.265,0.002-0.397,0.004
		L1.258,70.352H1.223c-0.531,0-1.006-0.348-1.164-0.858C-0.104,68.971,0.1,68.405,0.556,68.107"/>
	<path clip-path="url(#SVGID_2_)" fill="#FFFFFF" d="M61.327,183.59c6.121-2.227,14.375-3.578,17.593-1.753
		c0.079-0.133,0.205-0.268,0.301-0.407c-6.867-34.543,1.278-51.434,7.878-59.774c-23.106,15.723-34.371,41.568-32.501,65.701
		C55.663,186.082,58.22,184.718,61.327,183.59 M122.995,161.541c7.026-2.554,14.073-3.106,16.398-1.695
		c0.007-0.014,0.021-0.035,0.034-0.058c-5.483-14.338-22.485-46.737-32.901-47.788c-0.485,0.163-0.966,0.325-1.438,0.498
		c-0.613,0.219-1.213,0.463-1.819,0.697c-7.235,7.503,0.421,42.894,5.426,57.53c0.143,0.042,0.282,0.084,0.401,0.137
		C112.311,166.591,117.649,163.482,122.995,161.541 M183.556,139.48c4.736-1.72,8.433-2.086,8.433-2.086
		c-19.181-23.854-45.114-30.686-66.728-29.107c10.471,2.401,27.081,10.526,43.516,40.493c0.263,0.035,0.535,0.048,0.798,0.097
		C173.666,143.959,179.076,141.11,183.556,139.48 M50.863,187.652c-1.233-15.852,2.952-32.219,11.767-46.094
		c8.896-14.003,21.917-24.755,37.799-31.277c-0.003-0.008-0.003-0.008-0.005-0.011c-0.698-1.912,0.292-4.031,2.206-4.729
		c1.913-0.69,4.031,0.296,4.724,2.21c0.009,0.027,0.007,0.046,0.018,0.07c5.438-1.651,11.305-2.79,17.223-3.244
		c8.028-0.626,16.034-0.115,23.815,1.522c8.655,1.83,16.851,5.023,24.349,9.501c8.312,4.964,15.766,11.507,22.147,19.449
		c0.871,1.078,1.071,2.539,0.537,3.807c-0.409,0.968-1.204,1.712-2.169,2.065c-0.299,0.107-0.602,0.178-0.915,0.21
		c-0.026,0.002-3.339,0.354-7.514,1.874c-5.236,1.903-9.406,4.688-12.392,8.268c-0.437,0.514-0.983,0.906-1.598,1.123
		c-0.594,0.217-1.244,0.283-1.889,0.178c-4.295-0.7-9.589-0.021-14.912,1.908c-6.787,2.475-10.712,5.838-11.217,6.838
		c-0.405,0.95-1.187,1.698-2.162,2.052c-0.042,0.016-0.083,0.026-0.132,0.041c-1.019,0.332-2.135,0.209-3.056-0.333
		c-0.964-0.41-5.377-0.491-11.314,1.362l34.91,95.982c0.386,1.07-0.164,2.257-1.235,2.645c-1.074,0.389-2.253-0.16-2.642-1.232
		l-34.914-95.99c-4.504,1.912-8.086,4.455-10.203,7.274c-0.453,0.594-1.047,1.021-1.709,1.263c-0.889,0.329-1.894,0.312-2.802-0.09
		c-1.111-0.403-6.458-0.041-13.841,2.646c-6.64,2.412-10.661,5.21-11.586,6.793c-0.458,0.781-1.157,1.339-1.95,1.624
		c-0.996,0.362-2.138,0.309-3.132-0.255c-0.015-0.009-1.262-0.682-5.411-0.185c-2.861,0.341-6.157,1.139-9.053,2.19
		c-3.446,1.257-4.856,2.325-5.116,2.636c-0.434,0.525-0.995,0.913-1.61,1.135c-0.762,0.274-1.605,0.31-2.411,0.053
		C52.012,190.474,50.982,189.173,50.863,187.652"/>
	<path clip-path="url(#SVGID_2_)" fill="#FFFFFF" d="M91.134,239.321v-6.724c0-2.628,2.127-2.92,4.758-2.92
		c2.625,0,4.754,0.294,4.754,2.92v6.732c-1.242-0.094-2.817-0.155-4.81-0.155C93.901,239.175,92.361,239.234,91.134,239.321"/>
	<path clip-path="url(#SVGID_2_)" fill="#FFFFFF" d="M95.852,251.628c-1.379,0-2.502-1.121-2.502-2.502
		c0-1.38,1.123-2.504,2.502-2.504c1.381,0,2.503,1.124,2.503,2.504C98.354,250.507,97.232,251.628,95.852,251.628"/>
	<path clip-path="url(#SVGID_2_)" fill="#FFFFFF" d="M99.622,248.472l1.152-0.753c0.045-0.028,0.065-0.081,0.048-0.129
		c-0.014-0.049-0.061-0.081-0.11-0.081h-0.004l-1.396,0.035h-0.04c-0.327,0-0.588-0.112-0.729-0.318
		c-0.136-0.195-0.151-0.459-0.049-0.741l0.469-1.251c0.016-0.05,0.003-0.103-0.04-0.131c-0.017-0.018-0.043-0.022-0.066-0.022
		c-0.024,0-0.047,0.005-0.069,0.02l-1.108,0.812c-0.188,0.139-0.39,0.213-0.584,0.213c-0.342,0-0.62-0.232-0.737-0.618l-0.398-1.276
		c-0.015-0.047-0.06-0.08-0.108-0.08c-0.05,0-0.094,0.033-0.108,0.08l-0.397,1.276c-0.119,0.386-0.395,0.618-0.738,0.618
		c-0.195,0-0.397-0.074-0.584-0.213l-1.108-0.812c-0.022-0.015-0.043-0.02-0.069-0.02c-0.023,0-0.048,0.005-0.068,0.022
		c-0.04,0.028-0.054,0.081-0.038,0.131l0.469,1.251c0.104,0.283,0.09,0.546-0.048,0.741c-0.144,0.206-0.405,0.318-0.731,0.318
		h-0.038l-1.398-0.035h-0.001c-0.049,0-0.096,0.032-0.11,0.081c-0.017,0.048,0.004,0.101,0.047,0.129l1.152,0.753
		c0.272,0.178,0.423,0.41,0.423,0.654c0.002,0.245-0.151,0.476-0.423,0.653l-1.152,0.754c-0.043,0.027-0.063,0.08-0.047,0.128
		c0.014,0.05,0.061,0.081,0.11,0.081h0.001l1.398-0.037h0.038c0.326,0,0.587,0.114,0.731,0.32c0.138,0.195,0.151,0.458,0.048,0.739
		l-0.469,1.252c-0.016,0.049-0.001,0.102,0.038,0.134c0.02,0.014,0.046,0.022,0.07,0.022c0.023,0,0.045-0.007,0.067-0.022
		l1.108-0.81c0.188-0.142,0.39-0.215,0.584-0.215c0.344,0,0.62,0.233,0.738,0.621l0.397,1.274c0.014,0.047,0.058,0.079,0.108,0.079
		c0.049,0,0.093-0.032,0.108-0.079l0.398-1.274c0.118-0.388,0.395-0.621,0.737-0.621c0.194,0,0.397,0.073,0.584,0.215l1.108,0.81
		c0.022,0.016,0.045,0.022,0.069,0.022c0.023,0,0.05-0.009,0.066-0.022c0.043-0.032,0.056-0.085,0.04-0.134l-0.469-1.252
		c-0.102-0.281-0.086-0.544,0.049-0.739c0.142-0.206,0.403-0.32,0.729-0.32h0.04l1.396,0.037h0.002c0.051,0,0.098-0.031,0.112-0.081
		c0.017-0.048-0.003-0.099-0.048-0.128l-1.152-0.754c-0.272-0.178-0.422-0.408-0.422-0.653
		C99.2,248.882,99.35,248.649,99.622,248.472 M95.836,241.261c7.476,0,9.115,0.896,9.115,0.896l-3.498,23.541
		c0.015,0.177,0.025,0.353,0.025,0.528c0,3.089-2.503,3.431-5.587,3.431c-3.089,0-5.591-0.342-5.591-3.431l-3.577-24.071
		C86.723,242.154,88.363,241.261,95.836,241.261"/>
	<path clip-path="url(#SVGID_2_)" fill="#FFFFFF" d="M213.136,260.101l-25.623-21.885c-0.98-0.836-2.177-1.229-3.372-1.246
		c-0.081-0.006-0.158-0.024-0.239-0.024h-48.568l-3.506-5.317h24.331c2.935,0,5.311-2.376,5.311-5.311
		c0-2.933-2.376-5.311-5.311-5.311H126.1c-0.41,0-0.802,0.057-1.188,0.145l-16.027-24.294c-1.618-2.447-4.91-3.123-7.359-1.509
		c-2.449,1.619-3.125,4.912-1.508,7.36l28.008,42.446c0.114,0.175,0.255,0.319,0.385,0.474l-14.938,14.938
		c-2.075,2.073-2.075,5.437,0,7.512c2.075,2.073,5.439,2.073,7.511,0l20.512-20.512h40.608l24.135,20.61
		c2.231,1.904,5.583,1.642,7.489-0.59C215.632,265.358,215.368,262.005,213.136,260.101"/>
</g>
</svg>
