<?xml version="1.0" encoding="utf-8"?>
<!-- Generator: Adobe Illustrator 16.0.0, SVG Export Plug-In . SVG Version: 6.00 Build 0)  -->
<!DOCTYPE svg PUBLIC "-//W3C//DTD SVG 1.1//EN" "http://www.w3.org/Graphics/SVG/1.1/DTD/svg11.dtd">
<svg version="1.1" id="Layer_1" xmlns="http://www.w3.org/2000/svg" xmlns:xlink="http://www.w3.org/1999/xlink" x="0px" y="0px"
	 width="216px" height="270.656px" viewBox="0 0 216 270.656" enable-background="new 0 0 216 270.656" xml:space="preserve">
<g>
	<defs>
		<rect id="SVGID_1_" x="0.5" y="0.5" width="215" height="269.656"/>
	</defs>
	<use xlink:href="#SVGID_1_"  overflow="visible" fill="#FFFFFF"/>
	<clipPath id="SVGID_2_">
		<use xlink:href="#SVGID_1_"  overflow="visible"/>
	</clipPath>
	<path clip-path="url(#SVGID_2_)" fill="#FFFFFF" stroke="#000000" stroke-miterlimit="10" d="M26.884,53.596
		c0,14.731,11.983,26.716,26.71,26.716c14.731,0,26.715-11.983,26.715-26.714c0-14.73-11.983-26.714-26.715-26.714
		C38.867,26.884,26.884,38.867,26.884,53.596 M1.056,68.607l12.31-8.018c2.91-1.9,4.513-4.381,4.511-6.992
		c0-2.607-1.606-5.087-4.517-6.984L1.056,38.59c-0.459-0.296-0.663-0.863-0.5-1.386c0.16-0.51,0.632-0.858,1.166-0.858h0.031
		l14.917,0.393c0.132,0.006,0.267,0.008,0.398,0.008c3.52,0,6.3-1.215,7.829-3.421c1.444-2.085,1.62-4.892,0.492-7.907l-5-13.361
		c-0.191-0.504-0.023-1.076,0.406-1.398c0.217-0.168,0.48-0.249,0.738-0.249c0.251,0,0.508,0.078,0.721,0.237l11.829,8.656
		c2.022,1.478,4.174,2.26,6.232,2.26c3.666,0,6.618-2.463,7.901-6.594l4.212-13.606c0.158-0.513,0.633-0.862,1.166-0.862
		c0.536,0,1.01,0.349,1.169,0.862l4.213,13.604c1.282,4.126,4.233,6.592,7.899,6.592c2.055,0,4.21-0.781,6.236-2.258l11.824-8.654
		c0.216-0.159,0.469-0.237,0.722-0.237c0.26,0,0.518,0.081,0.739,0.246c0.427,0.326,0.595,0.898,0.406,1.402l-5,13.361
		c-1.126,3.01-0.95,5.82,0.494,7.901c1.531,2.208,4.312,3.425,7.833,3.425c0.13,0,0.261-0.002,0.394-0.008l14.917-0.391h0.033
		c0.533,0,1.006,0.346,1.166,0.858c0.16,0.523-0.042,1.09-0.499,1.386l-12.307,8.023c-2.913,1.896-4.515,4.376-4.515,6.985
		s1.602,5.09,4.515,6.99l12.307,8.015c0.458,0.301,0.659,0.867,0.499,1.39c-0.16,0.51-0.633,0.858-1.166,0.858h-0.033l-14.917-0.393
		c-0.132-0.002-0.263-0.004-0.394-0.004c-3.521,0-6.302,1.214-7.833,3.417c-1.444,2.085-1.62,4.896-0.494,7.909l5,13.357
		c0.189,0.508,0.021,1.077-0.406,1.402c-0.222,0.168-0.479,0.251-0.739,0.251c-0.253,0-0.506-0.079-0.722-0.238l-11.829-8.658
		c-2.022-1.479-4.176-2.26-6.231-2.26c-3.666,0-6.618,2.463-7.899,6.594l-4.213,13.606c-0.159,0.513-0.633,0.861-1.169,0.861
		c-0.533,0-1.008-0.349-1.166-0.861l-4.21-13.608c-1.281-4.129-4.236-6.592-7.899-6.592c-2.055,0-4.21,0.781-6.232,2.263
		l-11.827,8.655c-0.213,0.159-0.467,0.238-0.721,0.238c-0.259,0-0.521-0.083-0.739-0.249c-0.429-0.327-0.593-0.896-0.406-1.402
		l4.998-13.359c1.128-3.013,0.952-5.823-0.494-7.905c-1.529-2.207-4.31-3.421-7.831-3.421c-0.132,0-0.265,0.002-0.397,0.004
		L1.758,70.852H1.723c-0.531,0-1.006-0.348-1.164-0.858C0.396,69.471,0.6,68.905,1.056,68.607"/>
	<path clip-path="url(#SVGID_2_)" fill="#FFFFFF" stroke="#000000" stroke-miterlimit="10" d="M61.827,184.09
		c6.121-2.227,14.375-3.578,17.593-1.753c0.079-0.133,0.205-0.268,0.301-0.407c-6.867-34.543,1.278-51.434,7.878-59.774
		c-23.106,15.723-34.371,41.568-32.501,65.701C56.163,186.582,58.72,185.218,61.827,184.09 M123.495,162.041
		c7.026-2.554,14.073-3.106,16.398-1.695c0.007-0.014,0.021-0.035,0.034-0.058c-5.483-14.338-22.485-46.737-32.901-47.788
		c-0.485,0.163-0.966,0.325-1.438,0.498c-0.613,0.219-1.213,0.463-1.819,0.697c-7.235,7.503,0.421,42.894,5.426,57.53
		c0.143,0.042,0.282,0.084,0.401,0.137C112.811,167.091,118.149,163.982,123.495,162.041 M184.056,139.98
		c4.736-1.72,8.433-2.086,8.433-2.086c-19.181-23.854-45.114-30.686-66.728-29.107c10.471,2.401,27.081,10.526,43.516,40.493
		c0.263,0.035,0.535,0.048,0.798,0.097C174.166,144.459,179.576,141.61,184.056,139.98 M51.363,188.152
		c-1.233-15.852,2.952-32.219,11.767-46.094c8.896-14.003,21.917-24.755,37.799-31.277c-0.003-0.008-0.003-0.008-0.005-0.011
		c-0.698-1.912,0.292-4.031,2.206-4.729c1.913-0.69,4.031,0.296,4.724,2.21c0.009,0.027,0.007,0.046,0.018,0.07
		c5.438-1.651,11.305-2.79,17.223-3.244c8.028-0.626,16.034-0.115,23.815,1.522c8.655,1.83,16.851,5.023,24.349,9.501
		c8.312,4.964,15.766,11.507,22.147,19.449c0.871,1.078,1.071,2.539,0.537,3.807c-0.409,0.968-1.204,1.712-2.169,2.065
		c-0.299,0.107-0.602,0.178-0.915,0.21c-0.026,0.002-3.339,0.354-7.514,1.874c-5.236,1.903-9.406,4.688-12.392,8.268
		c-0.437,0.514-0.983,0.906-1.598,1.123c-0.594,0.217-1.244,0.283-1.889,0.178c-4.295-0.7-9.589-0.021-14.912,1.908
		c-6.787,2.475-10.712,5.838-11.217,6.838c-0.405,0.95-1.187,1.698-2.162,2.052c-0.042,0.016-0.083,0.026-0.132,0.041
		c-1.019,0.332-2.135,0.209-3.056-0.333c-0.964-0.41-5.377-0.491-11.314,1.362l34.91,95.982c0.386,1.07-0.164,2.257-1.235,2.645
		c-1.074,0.389-2.253-0.16-2.642-1.232l-34.914-95.99c-4.504,1.912-8.086,4.455-10.203,7.274c-0.453,0.594-1.047,1.021-1.709,1.263
		c-0.889,0.329-1.894,0.312-2.802-0.09c-1.111-0.403-6.458-0.041-13.841,2.646c-6.64,2.412-10.661,5.21-11.586,6.793
		c-0.458,0.781-1.157,1.339-1.95,1.624c-0.996,0.362-2.138,0.309-3.132-0.255c-0.015-0.009-1.262-0.682-5.411-0.185
		c-2.861,0.341-6.157,1.139-9.053,2.19c-3.446,1.257-4.856,2.325-5.116,2.636c-0.434,0.525-0.995,0.913-1.61,1.135
		c-0.762,0.274-1.605,0.31-2.411,0.053C52.512,190.974,51.482,189.673,51.363,188.152"/>
	<path clip-path="url(#SVGID_2_)" fill="#FFFFFF" stroke="#000000" stroke-miterlimit="10" d="M91.634,239.821v-6.724
		c0-2.628,2.127-2.92,4.758-2.92c2.625,0,4.754,0.294,4.754,2.92v6.732c-1.242-0.094-2.817-0.155-4.81-0.155
		C94.401,239.675,92.861,239.734,91.634,239.821"/>
	<path clip-path="url(#SVGID_2_)" fill="#FFFFFF" stroke="#000000" stroke-miterlimit="10" d="M96.352,252.128
		c-1.379,0-2.502-1.121-2.502-2.502c0-1.38,1.123-2.504,2.502-2.504c1.381,0,2.503,1.124,2.503,2.504
		C98.854,251.007,97.732,252.128,96.352,252.128"/>
	<path clip-path="url(#SVGID_2_)" fill="#FFFFFF" stroke="#000000" stroke-miterlimit="10" d="M100.122,248.972l1.152-0.753
		c0.045-0.028,0.065-0.081,0.048-0.129c-0.014-0.049-0.061-0.081-0.11-0.081h-0.004l-1.396,0.035h-0.04
		c-0.327,0-0.588-0.112-0.729-0.318c-0.136-0.195-0.151-0.459-0.049-0.741l0.469-1.251c0.016-0.05,0.003-0.103-0.04-0.131
		c-0.017-0.018-0.043-0.022-0.066-0.022c-0.024,0-0.047,0.005-0.069,0.02l-1.108,0.812c-0.188,0.139-0.39,0.213-0.584,0.213
		c-0.342,0-0.62-0.232-0.737-0.618l-0.398-1.276c-0.015-0.047-0.06-0.08-0.108-0.08c-0.05,0-0.094,0.033-0.108,0.08l-0.397,1.276
		c-0.119,0.386-0.395,0.618-0.738,0.618c-0.195,0-0.397-0.074-0.584-0.213l-1.108-0.812c-0.022-0.015-0.043-0.02-0.069-0.02
		c-0.023,0-0.048,0.005-0.068,0.022c-0.04,0.028-0.054,0.081-0.038,0.131l0.469,1.251c0.104,0.283,0.09,0.546-0.048,0.741
		c-0.144,0.206-0.405,0.318-0.731,0.318h-0.038l-1.398-0.035h-0.001c-0.049,0-0.096,0.032-0.11,0.081
		c-0.017,0.048,0.004,0.101,0.047,0.129l1.152,0.753c0.272,0.178,0.423,0.41,0.423,0.654c0.002,0.245-0.151,0.476-0.423,0.653
		l-1.152,0.754c-0.043,0.027-0.063,0.08-0.047,0.128c0.014,0.05,0.061,0.081,0.11,0.081h0.001l1.398-0.037h0.038
		c0.326,0,0.587,0.114,0.731,0.32c0.138,0.195,0.151,0.458,0.048,0.739l-0.469,1.252c-0.016,0.049-0.001,0.102,0.038,0.134
		c0.02,0.014,0.046,0.022,0.07,0.022c0.023,0,0.045-0.007,0.067-0.022l1.108-0.81c0.188-0.142,0.39-0.215,0.584-0.215
		c0.344,0,0.62,0.233,0.738,0.621l0.397,1.274c0.014,0.047,0.058,0.079,0.108,0.079c0.049,0,0.093-0.032,0.108-0.079l0.398-1.274
		c0.118-0.388,0.395-0.621,0.737-0.621c0.194,0,0.397,0.073,0.584,0.215l1.108,0.81c0.022,0.016,0.045,0.022,0.069,0.022
		c0.023,0,0.05-0.009,0.066-0.022c0.043-0.032,0.056-0.085,0.04-0.134l-0.469-1.252c-0.102-0.281-0.086-0.544,0.049-0.739
		c0.142-0.206,0.403-0.32,0.729-0.32h0.04l1.396,0.037h0.002c0.051,0,0.098-0.031,0.112-0.081c0.017-0.048-0.003-0.099-0.048-0.128
		l-1.152-0.754c-0.272-0.178-0.422-0.408-0.422-0.653C99.7,249.382,99.85,249.149,100.122,248.972 M96.336,241.761
		c7.476,0,9.115,0.896,9.115,0.896l-3.498,23.541c0.015,0.177,0.025,0.353,0.025,0.528c0,3.089-2.503,3.431-5.587,3.431
		c-3.089,0-5.591-0.342-5.591-3.431l-3.577-24.071C87.223,242.654,88.863,241.761,96.336,241.761"/>
	<path clip-path="url(#SVGID_2_)" fill="#FFFFFF" stroke="#000000" stroke-miterlimit="10" d="M213.636,260.601l-25.623-21.885
		c-0.98-0.836-2.177-1.229-3.372-1.246c-0.081-0.006-0.158-0.024-0.239-0.024h-48.568l-3.506-5.317h24.331
		c2.935,0,5.311-2.376,5.311-5.311c0-2.933-2.376-5.311-5.311-5.311H126.6c-0.41,0-0.802,0.057-1.188,0.145l-16.027-24.294
		c-1.618-2.447-4.91-3.123-7.359-1.509c-2.449,1.619-3.125,4.912-1.508,7.36l28.008,42.446c0.114,0.175,0.255,0.319,0.385,0.474
		l-14.938,14.938c-2.075,2.073-2.075,5.437,0,7.512c2.075,2.073,5.439,2.073,7.511,0l20.512-20.512h40.608l24.135,20.61
		c2.231,1.904,5.583,1.642,7.489-0.59C216.132,265.858,215.868,262.505,213.636,260.601"/>
	<use xlink:href="#SVGID_1_"  overflow="visible" fill="none" stroke="#000000" stroke-miterlimit="10"/>
</g>
</svg>
