<?xml version="1.0" encoding="utf-8"?>
<!-- Generator: Adobe Illustrator 16.0.0, SVG Export Plug-In . SVG Version: 6.00 Build 0)  -->
<!DOCTYPE svg PUBLIC "-//W3C//DTD SVG 1.1//EN" "http://www.w3.org/Graphics/SVG/1.1/DTD/svg11.dtd">
<svg version="1.1" id="Layer_1" xmlns="http://www.w3.org/2000/svg" xmlns:xlink="http://www.w3.org/1999/xlink" x="0px" y="0px"
	 width="57px" height="46.617px" viewBox="0 0 57 46.617" enable-background="new 0 0 57 46.617" xml:space="preserve">
<g>
	<defs>
		<rect id="SVGID_1_" width="57" height="46.617"/>
	</defs>
	<clipPath id="SVGID_2_">
		<use xlink:href="#SVGID_1_"  overflow="visible"/>
	</clipPath>
	<path clip-path="url(#SVGID_2_)" fill="#FFFFFF" d="M56.765,29.238l-5.283-3.442c-1.252-0.817-1.942-1.886-1.942-3.009
		c0-1.124,0.691-2.191,1.943-3.008l5.283-3.444c0.194-0.125,0.279-0.364,0.211-0.583c-0.067-0.216-0.267-0.362-0.491-0.362h-0.014
		l-6.404,0.168c-0.057,0.002-0.115,0.003-0.173,0.003c-1.513,0-2.71-0.524-3.367-1.473c-0.622-0.898-0.698-2.106-0.212-3.404
		l2.146-5.736c0.081-0.213,0.011-0.453-0.17-0.591C48.2,4.289,48.09,4.254,47.98,4.254c-0.106,0-0.214,0.033-0.304,0.1l-5.078,3.717
		c-0.871,0.635-1.797,0.973-2.682,0.973c-1.578,0-2.851-1.062-3.402-2.839l-1.81-5.842C34.64,0.147,34.439,0,34.214,0
		s-0.423,0.147-0.491,0.362l-1.809,5.842c-0.552,1.776-1.823,2.838-3.402,2.838c-0.884,0-1.812-0.337-2.682-0.973l-5.078-3.716
		c-0.09-0.066-0.197-0.1-0.304-0.1c-0.109,0-0.219,0.034-0.311,0.104c-0.18,0.138-0.25,0.377-0.17,0.591l2.146,5.735
		c0.485,1.297,0.41,2.505-0.212,3.403c-0.659,0.95-1.856,1.473-3.371,1.473c-0.057,0-0.113-0.001-0.17-0.002l-6.404-0.168h-0.013
		c-0.224,0-0.423,0.146-0.491,0.362c-0.068,0.219,0.017,0.458,0.21,0.583l5.284,3.444c0.397,0.259,0.731,0.546,1.012,0.849
		c1.718,0.096,3.357,0.601,4.802,1.458c0.363-6.004,5.361-10.779,11.454-10.779c6.329,0,11.479,5.149,11.479,11.479
		c0,5.11-3.355,9.45-7.979,10.933c0.554,0.91,0.946,1.919,1.158,2.985c0.328-0.111,0.676-0.174,1.042-0.174
		c0.885,0,1.812,0.337,2.684,0.974l5.076,3.717c0.091,0.065,0.196,0.099,0.304,0.099c0.109,0,0.219-0.035,0.312-0.105
		c0.181-0.137,0.249-0.377,0.17-0.59l-2.146-5.735c-0.485-1.296-0.409-2.505,0.213-3.402c0.658-0.95,1.855-1.473,3.368-1.473
		c0.058,0,0.115,0.002,0.173,0.003l6.404,0.167h0.013c0.225,0,0.424-0.146,0.491-0.362C57.043,29.602,56.959,29.364,56.765,29.238"
		/>
	<path clip-path="url(#SVGID_2_)" fill="#FFFFFF" d="M33.069,43.097c-0.904,0.625-2,0.993-3.181,0.993H10.275
		c-4.273,0-7.75-3.478-7.75-7.75c0-4.224,3.306-7.626,7.527-7.746l0.737-0.021l0.005-0.013c2.922,0.383,5.5,2.408,6.428,5.406
		l0.002-0.001c0.168,0.54,0.742,0.843,1.282,0.676c0.541-0.167,0.842-0.741,0.676-1.28l0.005-0.002
		c-1.075-3.473-3.912-5.916-7.225-6.672c1.322-1.582,3.283-2.522,5.396-2.522c0.375,0,0.744,0.04,1.108,0.099
		c1.902,0.303,3.615,1.368,4.718,2.992l0.397,0.587l0.33-0.017l0.378-0.019c0.074-0.003,0.147-0.005,0.222-0.005
		c2.557,0,4.766,1.731,5.371,4.212l0.196,0.799l0.807,0.145c1.02,0.184,1.931,0.636,2.67,1.275c1.198,1.035,1.942,2.564,1.942,4.244
		C35.5,40.392,34.535,42.083,33.069,43.097 M36.68,33.997c-1.053-1.594-2.652-2.806-4.568-3.346
		c-1.084-3.091-3.936-5.224-7.242-5.367c-0.604-0.767-1.318-1.426-2.107-1.967c-1.215-0.833-2.611-1.378-4.088-1.583
		c-0.433-0.06-0.872-0.095-1.315-0.095c-3.312,0-6.352,1.697-8.096,4.475C4.014,26.621,0,30.983,0,36.34
		c0,5.666,4.61,10.276,10.276,10.276h0.001l19.612-0.001c1.49,0,2.884-0.408,4.086-1.111c0.28-0.163,0.549-0.344,0.808-0.538
		c1.965-1.488,3.243-3.839,3.243-6.488c0-0.429-0.036-0.85-0.101-1.262C37.742,36.045,37.311,34.953,36.68,33.997"/>
</g>
</svg>
