<?xml version="1.0" encoding="utf-8"?>
<!-- Generator: Adobe Illustrator 16.0.0, SVG Export Plug-In . SVG Version: 6.00 Build 0)  -->
<!DOCTYPE svg PUBLIC "-//W3C//DTD SVG 1.1//EN" "http://www.w3.org/Graphics/SVG/1.1/DTD/svg11.dtd">
<svg version="1.1" id="Layer_1" xmlns="http://www.w3.org/2000/svg" xmlns:xlink="http://www.w3.org/1999/xlink" x="0px" y="0px"
	 width="672.827px" height="269.201px" viewBox="0 0 672.827 269.201" enable-background="new 0 0 672.827 269.201"
	 xml:space="preserve">
<g>
	<rect x="0.894" y="0.894" fill="#FFFFFF" width="213.213" height="267.414"/>
	<g>
		<defs>
			<rect id="SVGID_1_" x="459.614" y="1.787" width="213.213" height="267.414"/>
		</defs>
		<clipPath id="SVGID_2_">
			<use xlink:href="#SVGID_1_"  overflow="visible"/>
		</clipPath>
		<path clip-path="url(#SVGID_2_)" fill="#FFFFFF" d="M485.778,54.441c0,14.608,11.885,26.494,26.488,26.494
			c14.609,0,26.492-11.884,26.492-26.493c0-14.607-11.883-26.491-26.492-26.491C497.663,27.951,485.778,39.835,485.778,54.441
			 M460.166,69.328l12.208-7.951c2.885-1.884,4.475-4.345,4.473-6.935c0-2.586-1.592-5.045-4.479-6.926l-12.202-7.956
			c-0.456-0.294-0.657-0.856-0.497-1.374c0.159-0.507,0.628-0.852,1.156-0.852h0.031l14.793,0.389l0.396,0.008
			c3.489,0,6.247-1.205,7.764-3.392c1.432-2.068,1.605-4.852,0.487-7.842l-4.958-13.25c-0.189-0.5-0.023-1.067,0.402-1.387
			c0.215-0.167,0.476-0.247,0.731-0.247c0.249,0,0.503,0.077,0.715,0.235l11.729,8.584c2.006,1.466,4.141,2.241,6.182,2.241
			c3.635,0,6.562-2.443,7.835-6.539l4.177-13.494c0.156-0.509,0.628-0.854,1.156-0.854c0.531,0,1.002,0.345,1.159,0.854
			l4.179,13.492c1.271,4.092,4.197,6.537,7.834,6.537c2.037,0,4.175-0.773,6.184-2.238l11.725-8.583
			c0.215-0.158,0.466-0.235,0.717-0.235c0.258,0,0.514,0.08,0.733,0.244c0.423,0.323,0.59,0.89,0.402,1.39l-4.958,13.25
			c-1.117,2.985-0.942,5.771,0.49,7.835c1.518,2.19,4.275,3.397,7.767,3.397l0.39-0.008l14.795-0.388h0.031
			c0.529,0,0.998,0.343,1.156,0.852c0.159,0.518-0.041,1.08-0.494,1.374l-12.205,7.956c-2.889,1.881-4.477,4.34-4.477,6.928
			s1.588,5.049,4.477,6.933l12.205,7.948c0.453,0.298,0.653,0.859,0.494,1.377c-0.158,0.507-0.627,0.852-1.156,0.852h-0.031
			l-14.795-0.391l-0.39-0.003c-3.491,0-6.249,1.204-7.767,3.389c-1.433,2.068-1.607,4.854-0.49,7.843l4.958,13.246
			c0.188,0.504,0.021,1.068-0.402,1.391c-0.22,0.167-0.476,0.249-0.733,0.249c-0.251,0-0.502-0.079-0.717-0.236l-11.729-8.586
			c-2.006-1.466-4.142-2.241-6.179-2.241c-3.637,0-6.563,2.443-7.834,6.539l-4.179,13.494c-0.157,0.508-0.628,0.854-1.159,0.854
			c-0.528,0-1-0.346-1.156-0.854l-4.175-13.496c-1.271-4.094-4.2-6.537-7.833-6.537c-2.039,0-4.176,0.775-6.182,2.244l-11.729,8.583
			c-0.211,0.157-0.463,0.236-0.715,0.236c-0.258,0-0.517-0.082-0.732-0.247c-0.426-0.324-0.588-0.889-0.402-1.391l4.956-13.248
			c1.118-2.988,0.944-5.774-0.489-7.84c-1.517-2.188-4.274-3.392-7.766-3.392l-0.395,0.003l-14.788,0.391h-0.034
			c-0.527,0-0.997-0.345-1.154-0.852C459.511,70.185,459.714,69.623,460.166,69.328"/>
		<path clip-path="url(#SVGID_2_)" d="M484.886,54.441c0.001,15.104,12.281,27.386,27.381,27.388
			c15.104-0.002,27.385-12.283,27.387-27.387c-0.002-15.104-12.283-27.383-27.387-27.385
			C497.167,27.06,484.887,39.339,484.886,54.441h1.787c0-7.058,2.869-13.452,7.505-18.09c4.639-4.638,11.032-7.507,18.089-7.507
			c7.061,0,13.454,2.869,18.093,7.507c4.637,4.638,7.507,11.032,7.507,18.091c0,7.061-2.87,13.455-7.507,18.094
			c-4.639,4.637-11.032,7.506-18.093,7.506c-7.057,0-13.45-2.869-18.089-7.508c-4.636-4.639-7.505-11.033-7.505-18.093H484.886z
			 M460.653,70.077l12.208-7.951l0.001-0.001c3.047-1.982,4.877-4.702,4.879-7.678v-0.003v-0.002l0,0
			c-0.002-2.975-1.836-5.695-4.885-7.674L460.65,38.81h-0.001l-0.142-0.264l0.015-0.096v0.004l0.303-0.226h0.02l14.786,0.39
			l0.397,0.008h0.01h0.008c3.682,0.005,6.768-1.285,8.498-3.777l0,0c0.92-1.328,1.377-2.917,1.375-4.606
			c0-1.304-0.266-2.669-0.785-4.058l-4.959-13.251v-0.002l-0.02-0.107l0.121-0.248l0.007-0.004l0.006-0.004l0.184-0.06l0.18,0.057
			l0.003,0.003l11.734,8.587h0.001c2.126,1.554,4.437,2.412,6.708,2.413c2.019,0.003,3.88-0.688,5.375-1.94
			c1.499-1.251,2.635-3.042,3.313-5.227V16.4l4.178-13.496v0l0.302-0.223l0.306,0.226l4.179,13.491
			c0.678,2.183,1.812,3.974,3.311,5.225c1.496,1.253,3.357,1.944,5.377,1.942c2.268-0.002,4.58-0.858,6.71-2.412l11.728-8.583
			l0.001-0.001l0.187-0.061l0.201,0.067l0.532-0.717l-0.542,0.71l0.127,0.258l-0.02,0.108l-4.958,13.25
			c-0.519,1.385-0.784,2.75-0.784,4.053c-0.001,1.69,0.455,3.279,1.377,4.605c1.729,2.494,4.816,3.787,8.501,3.781h0.009l0.4-0.008
			l14.787-0.388h0.02l0.305,0.225l-0.002-0.005l0.015,0.098l-0.141,0.264l-0.003,0.002l-12.223,7.969l0.019-0.012
			c-3.052,1.979-4.881,4.701-4.883,7.676c0.002,2.975,1.83,5.697,4.883,7.682l0,0l12.204,7.947l-0.004-0.002l0.147,0.271
			l-0.015,0.098l0.002-0.006l-0.305,0.226h-0.02l-14.791-0.39l-0.397-0.004h-0.004h-0.004c-3.684-0.006-6.771,1.283-8.501,3.772
			l-0.001,0.001c-0.921,1.328-1.377,2.918-1.376,4.609c0,1.303,0.266,2.67,0.784,4.057l4.958,13.246l-0.001-0.002l0.021,0.111
			l-0.126,0.256l0.001-0.001l-0.193,0.067l-0.187-0.062l-11.751-8.602l0.018,0.014c-2.125-1.555-4.438-2.412-6.705-2.413
			c-2.02-0.003-3.881,0.688-5.377,1.94c-1.498,1.252-2.633,3.043-3.311,5.229l-4.179,13.492l-0.306,0.226l-0.302-0.224
			l-4.178-13.504l0.002,0.007c-0.677-2.184-1.813-3.975-3.312-5.226c-1.496-1.252-3.357-1.943-5.375-1.94
			c-2.268,0.001-4.582,0.858-6.709,2.417l-0.018,0.012l-11.714,8.572l-0.005,0.004l-0.18,0.059l-0.191-0.064l0,0l-0.126-0.256
			l0.021-0.113l-0.002,0.004l4.957-13.248c0.52-1.387,0.785-2.754,0.785-4.057c0.002-1.691-0.455-3.28-1.378-4.606l0.001,0.001
			c-1.73-2.494-4.816-3.783-8.5-3.777h-0.004l-0.398,0.004h-0.008l-14.783,0.39h-0.023l-0.301-0.223l-0.001-0.002l0,0l-0.014-0.095
			l0.144-0.264l-0.979-1.498c-0.604,0.396-0.953,1.064-0.953,1.762c0,0.21,0.032,0.422,0.097,0.629l-0.001-0.002
			c0.275,0.882,1.088,1.479,2.008,1.479h0.034h0.013l14.791-0.39l0.387-0.004h-0.008c3.299,0.006,5.729,1.124,7.03,3.008h0.001
			c0.697,1.008,1.057,2.211,1.059,3.588c0,1.059-0.217,2.217-0.672,3.43l-4.957,13.25l0,0c-0.09,0.239-0.133,0.488-0.133,0.734
			c0,0.645,0.297,1.27,0.83,1.678l0,0c0.379,0.287,0.828,0.43,1.275,0.43c0.437,0,0.879-0.137,1.25-0.414l-0.535-0.716l0.528,0.721
			l11.729-8.583l0,0c1.884-1.38,3.845-2.072,5.653-2.071c1.615,0.003,3.035,0.532,4.229,1.525c1.192,0.995,2.156,2.473,2.75,4.383
			l4.175,13.495v-0.002c0.272,0.887,1.088,1.484,2.01,1.486c0.923,0,1.738-0.602,2.013-1.483l4.179-13.494
			c0.594-1.912,1.557-3.39,2.749-4.385c1.194-0.993,2.614-1.522,4.231-1.525c1.809-0.001,3.766,0.691,5.651,2.069l-0.001-0.001
			l11.73,8.586l-0.002-0.001c0.369,0.271,0.809,0.411,1.246,0.41c0.447,0.001,0.9-0.146,1.273-0.43l0.001-0.002
			c0.533-0.406,0.832-1.031,0.832-1.678c0-0.246-0.044-0.496-0.133-0.735l-0.003-0.009l-4.956-13.238
			c-0.454-1.213-0.671-2.371-0.67-3.43c0.001-1.377,0.36-2.583,1.058-3.592l-0.001,0.001c1.305-1.881,3.733-2.999,7.033-3.005
			h-0.008l0.382,0.004l14.798,0.39h0.044c0.922-0.001,1.734-0.599,2.01-1.477v-0.005l0.002-0.001
			c0.062-0.204,0.093-0.414,0.093-0.622c0-0.695-0.346-1.365-0.951-1.766l-12.208-7.949l0,0c-2.725-1.785-4.072-3.984-4.071-6.184
			c-0.001-2.199,1.347-4.396,4.071-6.179l0.019-0.011l12.187-7.945l-0.004,0.002c0.614-0.397,0.958-1.07,0.958-1.766
			c0-0.207-0.031-0.418-0.093-0.622l-0.002-0.005c-0.275-0.881-1.09-1.478-2.01-1.478h-0.031h-0.012l-14.807,0.388h0.006
			l-0.391,0.008l0.019,0.894v-0.894c-3.299-0.006-5.728-1.127-7.032-3.012c-0.697-1.008-1.057-2.212-1.058-3.588
			c-0.001-1.059,0.216-2.215,0.67-3.426l4.958-13.25c0.09-0.239,0.134-0.49,0.134-0.735c-0.001-0.647-0.297-1.271-0.831-1.679
			l-0.006-0.003l-0.004-0.003c-0.373-0.279-0.822-0.421-1.266-0.42c-0.433-0.001-0.875,0.134-1.246,0.408l0.002,0l-11.725,8.582
			l0.002-0.001c-1.889,1.377-3.85,2.068-5.658,2.068c-1.617-0.004-3.037-0.533-4.231-1.527c-1.192-0.995-2.155-2.473-2.749-4.383
			l-4.179-13.491c-0.274-0.882-1.09-1.484-2.013-1.484c-0.922,0.001-1.737,0.6-2.01,1.485l-4.177,13.492V15.87
			c-0.595,1.912-1.559,3.391-2.751,4.386c-1.194,0.993-2.614,1.522-4.23,1.525c-1.812,0.001-3.769-0.692-5.654-2.069l-0.014-0.01
			l-11.715-8.573l-0.528,0.721l0.534-0.716c-0.375-0.281-0.816-0.413-1.249-0.413c-0.44,0-0.896,0.138-1.279,0.435l0.548,0.706
			l-0.535-0.715c-0.54,0.405-0.838,1.032-0.838,1.677c0,0.248,0.044,0.5,0.135,0.741l-0.001-0.003l4.958,13.25
			c0.455,1.215,0.672,2.372,0.672,3.431c-0.002,1.376-0.36,2.58-1.058,3.589l0,0c-1.302,1.881-3.731,3.002-7.028,3.008v0.893
			l0.017-0.893l-0.396-0.008h0.006l-14.805-0.39h-0.043c-0.921,0.001-1.732,0.599-2.008,1.477l-0.002,0.003
			c-0.063,0.205-0.095,0.417-0.095,0.625c0,0.697,0.349,1.371,0.962,1.766l-0.004-0.002l12.201,7.956l0,0
			c2.724,1.782,4.076,3.981,4.074,6.177l0,0v0.005c0.002,2.198-1.349,4.397-4.069,6.182l-12.206,7.95L460.653,70.077z"/>
		<path clip-path="url(#SVGID_2_)" fill="#FFFFFF" d="M520.431,183.851c6.07-2.208,14.257-3.549,17.447-1.739l0.299-0.402
			c-6.811-34.257,1.268-51.007,7.812-59.278c-22.914,15.593-34.086,41.223-32.232,65.155
			C514.814,186.322,517.351,184.969,520.431,183.851 M581.587,161.985c6.968-2.533,13.957-3.081,16.262-1.682l0.033-0.058
			c-5.437-14.218-22.298-46.348-32.627-47.39c-0.48,0.162-0.959,0.322-1.426,0.494c-0.607,0.217-1.203,0.459-1.805,0.691
			c-7.176,7.44,0.418,42.537,5.381,57.051l0.397,0.136C570.991,166.992,576.286,163.91,581.587,161.985 M641.645,140.107
			c4.697-1.705,8.362-2.068,8.362-2.068c-19.021-23.656-44.739-30.431-66.174-28.864c10.384,2.381,26.855,10.438,43.155,40.155
			c0.26,0.035,0.53,0.048,0.79,0.097C631.837,144.55,637.202,141.724,641.645,140.107 M510.055,187.879
			c-1.223-15.72,2.927-31.951,11.669-45.71c8.822-13.887,21.734-24.549,37.484-31.018l-0.005-0.011
			c-0.692-1.896,0.289-3.998,2.187-4.69c1.896-0.684,3.998,0.293,4.686,2.191l0.018,0.07c5.393-1.637,11.211-2.767,17.079-3.217
			c7.961-0.621,15.901-0.114,23.618,1.51c8.582,1.814,16.71,4.981,24.146,9.423c8.243,4.922,15.634,11.411,21.963,19.287
			c0.863,1.069,1.062,2.518,0.532,3.774c-0.405,0.96-1.194,1.698-2.15,2.05c-0.297,0.106-0.597,0.176-0.908,0.207
			c-0.025,0.002-3.311,0.352-7.451,1.859c-5.192,1.887-9.327,4.647-12.288,8.198c-0.433,0.51-0.976,0.898-1.585,1.113
			c-0.588,0.215-1.233,0.281-1.872,0.177c-4.26-0.695-9.51-0.021-14.788,1.892c-6.73,2.454-10.622,5.79-11.124,6.781
			c-0.4,0.942-1.176,1.685-2.143,2.035l-0.131,0.04c-1.012,0.33-2.117,0.208-3.031-0.329c-0.956-0.407-5.332-0.487-11.219,1.351
			l34.619,95.185c0.382,1.062-0.162,2.238-1.226,2.622c-1.064,0.386-2.234-0.159-2.62-1.222l-34.623-95.192
			c-4.467,1.896-8.018,4.418-10.117,7.214c-0.449,0.589-1.039,1.013-1.695,1.252c-0.882,0.326-1.879,0.311-2.779-0.089
			c-1.102-0.4-6.404-0.04-13.727,2.625c-6.584,2.392-10.572,5.166-11.488,6.735c-0.455,0.775-1.148,1.328-1.935,1.611
			c-0.987,0.359-2.12,0.306-3.106-0.253c-0.014-0.009-1.251-0.676-5.365-0.184c-2.837,0.339-6.105,1.13-8.978,2.173
			c-3.417,1.247-4.815,2.306-5.073,2.613c-0.43,0.521-0.986,0.906-1.596,1.126c-0.756,0.272-1.592,0.307-2.392,0.052
			C511.194,190.677,510.173,189.387,510.055,187.879"/>
		<path clip-path="url(#SVGID_2_)" d="M520.737,184.689c4-1.459,9.005-2.534,12.68-2.528c1.771-0.008,3.224,0.265,4.021,0.728
			l0.688,0.391l0.77-1.038l0.235-0.319l-0.077-0.388c-1.817-9.146-2.565-17.023-2.565-23.805
			c0.008-18.482,5.527-28.824,10.203-34.744l3.621-4.576l-4.825,3.283c-21.526,14.65-32.821,38.059-32.821,60.744
			c0,1.745,0.066,3.485,0.201,5.219l0.17,2.186l1.406-1.683c0.402-0.487,1.229-1.11,2.325-1.713
			C517.864,185.84,519.231,185.236,520.737,184.689l-0.611-1.679c-1.575,0.572-3.018,1.204-4.223,1.871
			c-1.206,0.67-2.176,1.354-2.832,2.131l0.686,0.573l0.892-0.07c-0.131-1.685-0.195-3.379-0.195-5.079
			c-0.001-22.1,11.009-44.96,32.038-59.266l-0.502-0.74l-0.701-0.554c-4.9,6.181-10.596,17.016-10.588,35.853
			c0,6.914,0.762,14.906,2.6,24.153l0.877-0.174l-0.719-0.533l-0.299,0.403l0.719,0.532l0.441-0.776
			c-1.281-0.716-2.967-0.955-4.902-0.962c-4,0.006-9.105,1.119-13.291,2.638L520.737,184.689z M581.892,162.824
			c4.38-1.594,8.793-2.382,11.895-2.379c1.725-0.011,3.051,0.271,3.599,0.623l0.782,0.475l0.49-0.852l0.211-0.368l-0.151-0.396
			c-2.747-7.181-8.331-18.786-14.556-28.789c-3.111-5-6.379-9.596-9.559-13.043c-1.592-1.723-3.158-3.162-4.696-4.222
			c-1.538-1.058-3.053-1.751-4.562-1.905l-0.19-0.02l-0.184,0.061c-0.48,0.162-0.966,0.324-1.449,0.503l0.007-0.003
			c-0.631,0.227-1.233,0.471-1.825,0.699l-0.184,0.07l-0.137,0.143c-1.229,1.282-1.996,3.12-2.491,5.344
			c-0.491,2.228-0.7,4.86-0.7,7.771c0.008,13.983,4.836,34.492,8.369,44.847l0.143,0.413l0.811,0.277l0.615,0.212l0.389-0.519
			C571.538,167.739,576.694,164.706,581.892,162.824l-0.61-1.679c-5.403,1.969-10.835,5.1-14.192,9.546l0.714,0.537l0.29-0.845
			l-0.398-0.136l-0.289,0.845l0.845-0.29c-3.476-10.146-8.282-30.667-8.272-44.267c-0.001-2.824,0.207-5.346,0.658-7.386
			c0.448-2.043,1.151-3.584,2.032-4.488l-0.644-0.62l0.322,0.833c0.611-0.235,1.199-0.475,1.783-0.683l0.004-0.002l0.003-0.002
			c0.452-0.165,0.921-0.323,1.402-0.484l-0.284-0.848l-0.09,0.889c1.072,0.105,2.345,0.645,3.727,1.6
			c4.872,3.333,10.822,11.586,16.027,20.51c5.221,8.926,9.774,18.554,12.129,24.711l0.834-0.319l-0.774-0.444l-0.033,0.058
			l0.774,0.444l0.465-0.765c-1.104-0.648-2.631-0.87-4.527-0.881c-3.389,0.002-7.938,0.829-12.505,2.487L581.892,162.824z
			 M641.95,140.947c2.297-0.835,4.346-1.341,5.813-1.638c0.735-0.148,1.323-0.244,1.727-0.304c0.201-0.027,0.354-0.049,0.457-0.061
			l0.146-0.018l1.645-0.163l-1.035-1.286c-17.494-21.765-40.658-29.419-61.003-29.411c-2.008,0-3.987,0.074-5.932,0.216
			l-5.932,0.433l5.797,1.33c10.135,2.338,26.342,10.157,42.57,39.714l0.217,0.396l0.448,0.059c0.312,0.042,0.567,0.055,0.743,0.09
			l0.518,0.098l0.336-0.405C632.38,145.29,637.602,142.528,641.95,140.947l-0.611-1.68c-4.536,1.651-10.045,4.542-14.248,9.588
			l0.688,0.571l0.166-0.878c-0.344-0.063-0.63-0.075-0.838-0.104l-0.118,0.885l0.783-0.429
			c-16.368-29.879-33.106-38.174-43.739-40.598l-0.199,0.871l0.064,0.891c1.902-0.139,3.838-0.211,5.803-0.211
			c19.915,0.008,42.476,7.443,59.61,28.745l0.696-0.561l-0.087-0.891c-0.051,0.008-3.781,0.377-8.581,2.119L641.95,140.947z
			 M510.946,187.809c-0.14-1.78-0.207-3.567-0.207-5.356c-0.002-13.809,4.09-27.767,11.738-39.804
			c8.723-13.728,21.48-24.267,37.07-30.67l0.863-0.354l-0.396-0.857l-0.812,0.374l0.839-0.306c-0.113-0.314-0.167-0.632-0.167-0.943
			c0-1.129,0.698-2.193,1.821-2.602l-0.002,0.001c0.311-0.112,0.627-0.165,0.938-0.165c1.132,0.001,2.196,0.697,2.603,1.82
			l0.84-0.305l-0.867,0.217l0.018,0.07l0.229,0.91l0.898-0.271c5.33-1.619,11.089-2.736,16.887-3.182h0.002
			c2.172-0.169,4.342-0.254,6.506-0.254c5.685,0,11.33,0.584,16.859,1.748h-0.002c8.488,1.794,16.522,4.926,23.872,9.314
			c8.15,4.865,15.46,11.282,21.727,19.08l0.001,0.002c0.414,0.513,0.625,1.138,0.627,1.77c0,0.37-0.073,0.742-0.224,1.097
			c-0.306,0.728-0.909,1.291-1.634,1.557l0.006-0.002c-0.234,0.084-0.459,0.136-0.696,0.161l0.09,0.888l-0.059-0.892l-0.048,0.005
			c-0.275,0.03-3.539,0.41-7.65,1.906c-5.311,1.929-9.591,4.773-12.668,8.466l0.005-0.006c-0.34,0.4-0.756,0.691-1.2,0.849
			l-0.006,0.002l-0.005,0.002c-0.306,0.111-0.634,0.171-0.967,0.171l-0.454-0.037h-0.002c-1.146-0.188-2.354-0.279-3.605-0.279
			c-3.622,0.002-7.621,0.762-11.629,2.214h-0.002l0,0c-3.437,1.253-6.152,2.731-8.092,4.037c-0.971,0.654-1.744,1.264-2.322,1.789
			c-0.584,0.539-0.959,0.938-1.201,1.391l-0.014,0.026l-0.012,0.026c-0.305,0.717-0.895,1.281-1.626,1.546l0.306,0.84l-0.262-0.854
			l-0.131,0.039l-0.008,0.003l-0.008,0.002c-0.283,0.093-0.578,0.138-0.871,0.138c-0.498,0-0.994-0.131-1.428-0.388l-0.051-0.029
			l-0.055-0.022c-0.304-0.126-0.616-0.186-1.018-0.237c-0.398-0.048-0.871-0.073-1.422-0.073c-2.129,0.001-5.426,0.393-9.396,1.63
			l-0.892,0.279l34.938,96.064l-0.002-0.002l0.07,0.393c-0.002,0.474-0.29,0.919-0.758,1.084v0.002l-0.397,0.07
			c-0.47-0.002-0.908-0.286-1.079-0.758l-0.005-0.016l-34.938-96.062l-0.868,0.368c-4.571,1.943-8.245,4.526-10.483,7.501
			l0.004-0.006c-0.346,0.45-0.791,0.771-1.29,0.953l-0.003,0.002h-0.002c-0.309,0.113-0.637,0.173-0.969,0.173
			c-0.385,0-0.77-0.079-1.137-0.241l-0.029-0.012l-0.028-0.011c-0.444-0.153-0.918-0.185-1.583-0.192
			c-2.367,0.006-6.921,0.698-12.754,2.817l0,0c-3.343,1.213-6.035,2.527-8.033,3.755c-2,1.242-3.294,2.328-3.922,3.37v-0.002
			c-0.348,0.592-0.871,1.008-1.466,1.222l-0.001,0.002h-0.002c-0.314,0.113-0.646,0.173-0.98,0.173c-0.47,0-0.939-0.115-1.379-0.364
			l-0.441,0.778l0.453-0.77l-0.062-0.035c-0.25-0.124-1.086-0.452-3.027-0.454c-0.762,0-1.695,0.053-2.835,0.188h0.001
			c-2.92,0.35-6.236,1.152-9.178,2.221l0,0c-1.75,0.637-2.996,1.231-3.857,1.721c-0.43,0.244-0.764,0.461-1.019,0.649
			c-0.257,0.191-0.424,0.331-0.577,0.508l-0.002,0.004l-0.002,0.001c-0.326,0.396-0.749,0.688-1.209,0.854
			c-0.314,0.114-0.646,0.173-0.977,0.173c-0.281,0-0.563-0.042-0.841-0.131l-0.004-0.002l0.001,0.002
			C511.812,189.935,511.034,188.954,510.946,187.809l-1.783,0.14c0.146,1.871,1.414,3.471,3.209,4.036h-0.003
			c0.456,0.145,0.923,0.215,1.384,0.215c0.543,0,1.078-0.097,1.582-0.278c0.759-0.273,1.448-0.75,1.982-1.397l-0.004,0.005
			l-0.082-0.068l0.078,0.072l0.004-0.004l-0.082-0.068l0.078,0.072c0.032-0.042,0.432-0.381,1.184-0.796
			c0.758-0.425,1.896-0.966,3.514-1.556l0,0c2.803-1.02,6.022-1.798,8.777-2.126h0.001c1.076-0.127,1.939-0.175,2.622-0.175
			c0.928,0,1.52,0.086,1.859,0.159c0.17,0.038,0.277,0.071,0.331,0.093l0.042,0.018l0.071-0.157l-0.077,0.153l0.006,0.004
			l0.071-0.157l-0.077,0.153l0.326-0.652l-0.369,0.628l0.043,0.024l0.326-0.652l-0.369,0.628l0.008,0.005l0.005,0.004
			c0.714,0.403,1.495,0.597,2.261,0.595c0.546,0,1.084-0.096,1.592-0.28l-0.003,0.001c0.978-0.351,1.842-1.042,2.403-2v-0.002
			c0.288-0.526,1.446-1.614,3.314-2.749c1.873-1.15,4.467-2.419,7.709-3.597l0,0c5.65-2.062,10.097-2.713,12.143-2.709
			c0.548-0.006,0.942,0.064,0.973,0.083l0.305-0.839l-0.363,0.816c0.6,0.266,1.234,0.395,1.863,0.395
			c0.543,0,1.082-0.096,1.59-0.284l-0.006,0.002c0.814-0.297,1.549-0.824,2.101-1.551l0.001-0.001l0.002-0.004
			c1.963-2.618,5.393-5.079,9.754-6.928l-0.35-0.822l-0.839,0.306l34.623,95.192l0,0c0.433,1.191,1.557,1.936,2.758,1.934
			c0.335,0,0.675-0.058,1.005-0.178v0.001c1.199-0.435,1.939-1.565,1.938-2.767c0-0.333-0.058-0.672-0.175-1l-0.001-0.003
			l-34.619-95.184l-0.84,0.306l0.267,0.854c3.796-1.187,6.948-1.552,8.862-1.55c0.494,0,0.902,0.024,1.207,0.061
			c0.303,0.033,0.514,0.095,0.534,0.106l0.349-0.821l-0.453,0.77c0.714,0.42,1.521,0.635,2.336,0.635
			c0.479,0,0.959-0.073,1.426-0.225l-0.277-0.851l0.262,0.854l0.131-0.04l0.022-0.005l0.021-0.009
			c1.203-0.437,2.163-1.356,2.66-2.524l-0.822-0.351l0.799,0.403c0.008-0.042,0.307-0.433,0.806-0.874
			c1.51-1.374,4.888-3.673,9.825-5.471h-0.002c3.837-1.391,7.65-2.105,11.021-2.105c1.165,0,2.277,0.086,3.319,0.255h-0.002
			c0.248,0.042,0.498,0.062,0.744,0.062c0.544,0,1.078-0.096,1.581-0.279l-0.308-0.84l0.297,0.844
			c0.773-0.272,1.443-0.76,1.969-1.379l0.002-0.002l0.004-0.004c2.843-3.408,6.833-6.086,11.907-7.931
			c2.02-0.735,3.835-1.19,5.144-1.46c0.653-0.134,1.181-0.222,1.542-0.275c0.181-0.028,0.32-0.047,0.415-0.058l0.104-0.014l0,0
			l0.016-0.002l0.016-0.002c0.385-0.038,0.76-0.126,1.119-0.255h0.002l0.003-0.002c1.189-0.437,2.163-1.349,2.668-2.541
			c0.242-0.576,0.362-1.186,0.362-1.791c0-1.033-0.349-2.058-1.024-2.893l0.002,0.002c-6.392-7.955-13.862-14.516-22.202-19.494
			c-7.52-4.493-15.742-7.696-24.419-9.531h-0.002c-5.649-1.189-11.419-1.785-17.226-1.785c-2.212,0-4.427,0.086-6.645,0.26h0.001
			c-5.938,0.455-11.815,1.597-17.271,3.252l0.26,0.855l0.867-0.217l-0.018-0.069l-0.012-0.045l-0.016-0.044
			c-0.672-1.852-2.42-2.999-4.282-2.998c-0.515,0-1.038,0.088-1.546,0.271h-0.003c-1.848,0.676-2.997,2.42-2.996,4.281
			c0,0.517,0.089,1.044,0.276,1.555l0.012,0.035l0.021,0.045l0.812-0.375l-0.34-0.826c-15.91,6.533-28.976,17.318-37.898,31.363
			c-7.829,12.323-12.018,26.601-12.018,40.764c0,1.834,0.069,3.669,0.211,5.496L510.946,187.809z"/>
		<path clip-path="url(#SVGID_2_)" fill="#FFFFFF" d="M549.991,239.118v-6.667c0-2.606,2.109-2.896,4.719-2.896
			c2.602,0,4.714,0.292,4.714,2.896v6.676c-1.231-0.093-2.794-0.153-4.771-0.153C552.734,238.974,551.208,239.033,549.991,239.118"
			/>
		<path clip-path="url(#SVGID_2_)" d="M550.884,239.118v-6.667c0.002-0.534,0.105-0.864,0.241-1.09
			c0.2-0.324,0.532-0.548,1.161-0.71c0.619-0.157,1.471-0.204,2.424-0.203c1.267-0.007,2.354,0.095,2.955,0.388
			c0.305,0.146,0.485,0.304,0.625,0.527c0.135,0.226,0.239,0.554,0.24,1.088v6.676h0.894l0.067-0.892
			c-1.259-0.095-2.843-0.155-4.838-0.155c-1.938,0-3.484,0.06-4.726,0.146l0.126,1.784c1.193-0.084,2.699-0.144,4.6-0.144
			c1.959,0,3.499,0.062,4.703,0.151l0.961,0.072v-7.64c0.001-0.769-0.158-1.453-0.5-2.015c-0.517-0.855-1.38-1.306-2.255-1.519
			c-0.887-0.22-1.851-0.255-2.853-0.257c-1.34,0.007-2.609,0.051-3.717,0.556c-0.549,0.253-1.058,0.656-1.396,1.22
			c-0.342,0.562-0.5,1.246-0.5,2.015v6.667H550.884z"/>
		<path clip-path="url(#SVGID_2_)" fill="#FFFFFF" d="M554.669,251.322c-1.367,0-2.48-1.111-2.48-2.479
			c0-1.369,1.113-2.484,2.48-2.484c1.369,0,2.482,1.115,2.482,2.484C557.151,250.211,556.038,251.322,554.669,251.322"/>
		<path clip-path="url(#SVGID_2_)" d="M554.669,250.429c-0.873-0.002-1.586-0.714-1.587-1.586c0.001-0.873,0.716-1.589,1.587-1.591
			c0.873,0.002,1.587,0.716,1.589,1.591C556.256,249.715,555.544,250.427,554.669,250.429v1.787c1.863-0.001,3.375-1.51,3.376-3.373
			c-0.001-1.863-1.51-3.376-3.376-3.378c-1.863,0.002-3.373,1.514-3.375,3.378c0.002,1.863,1.513,3.372,3.375,3.373V250.429z"/>
		<path clip-path="url(#SVGID_2_)" fill="#FFFFFF" d="M558.408,248.193l1.142-0.747l0.049-0.128l-0.109-0.08h-0.004l-1.385,0.035
			h-0.039c-0.324,0-0.583-0.112-0.724-0.316c-0.134-0.193-0.149-0.455-0.049-0.734l0.466-1.241l-0.039-0.129l-0.066-0.023
			l-0.068,0.02l-1.1,0.805c-0.186,0.138-0.387,0.211-0.579,0.211c-0.339,0-0.614-0.23-0.731-0.612l-0.395-1.266l-0.107-0.08
			l-0.107,0.08l-0.393,1.266c-0.119,0.382-0.392,0.612-0.732,0.612c-0.193,0-0.395-0.073-0.58-0.211l-1.099-0.805l-0.067-0.02
			l-0.068,0.023l-0.038,0.129l0.466,1.241c0.103,0.28,0.088,0.541-0.047,0.734c-0.145,0.204-0.402,0.316-0.727,0.316h-0.037
			l-1.387-0.035h-0.002l-0.109,0.08l0.047,0.128l1.143,0.747c0.27,0.176,0.42,0.406,0.42,0.649c0.002,0.242-0.15,0.471-0.42,0.647
			l-1.143,0.747l-0.047,0.127l0.109,0.08h0.002l1.387-0.036h0.037c0.324,0,0.582,0.113,0.727,0.317
			c0.135,0.193,0.149,0.454,0.047,0.733l-0.466,1.241l0.038,0.132l0.069,0.023l0.066-0.023l1.099-0.803
			c0.186-0.14,0.387-0.213,0.58-0.213c0.341,0,0.613,0.232,0.732,0.616l0.393,1.264l0.107,0.079l0.107-0.079l0.395-1.264
			c0.117-0.384,0.393-0.616,0.731-0.616c0.192,0,0.394,0.073,0.579,0.213l1.1,0.803l0.068,0.023l0.066-0.023l0.039-0.132
			l-0.466-1.241c-0.101-0.279-0.085-0.54,0.049-0.733c0.141-0.204,0.399-0.317,0.724-0.317h0.039l1.385,0.036h0.002l0.111-0.08
			l-0.049-0.127l-1.142-0.747c-0.271-0.177-0.418-0.405-0.418-0.647C557.99,248.6,558.138,248.369,558.408,248.193 M554.653,241.042
			c7.414,0,9.04,0.889,9.04,0.889l-3.47,23.345c0.016,0.175,0.025,0.35,0.025,0.524c0,3.062-2.482,3.401-5.541,3.401
			c-3.062,0-5.544-0.339-5.544-3.401l-3.548-23.871C545.616,241.929,547.243,241.042,554.653,241.042"/>
		<path clip-path="url(#SVGID_2_)" d="M558.897,248.941l1.142-0.747l0.245-0.16l0.15-0.401l0.239-0.632l-0.655-0.481l-0.236-0.175
			h-0.297h-0.011l-1.386,0.035h-0.027l-0.063-0.006l-0.013-0.003l-0.068,0.188l0.158-0.108l-0.09-0.08l-0.068,0.188l0.158-0.108
			l-0.002-0.002l-0.001-0.002l-0.177,0.122h0.222l-0.045-0.122l-0.177,0.122h0.222l0.013-0.041l-0.841-0.306l0.837,0.313l0.465-1.24
			l0.107-0.285l-0.128-0.419l-0.134-0.438l-0.499-0.17l-0.263-0.091l-0.337,0.095l-0.155,0.044l-1.229,0.9l-0.002,0.002
			l-0.002,0.001l-0.062,0.035l-0.003,0.002l0.017,0.089v-0.091l-0.017,0.002l0.017,0.089v-0.091v0.194l0.125-0.148l-0.125-0.046
			v0.194l0.125-0.148l-0.046,0.054l0.062-0.038l-0.016-0.016l-0.046,0.054l0.062-0.038l-0.018-0.042l-0.001-0.002l-0.395-1.268
			l-0.086-0.277l-0.34-0.253l-0.535-0.399l-0.643,0.479l-0.231,0.173l-0.479,1.543l-0.002,0.002l-0.018,0.044l0.096,0.061
			l-0.055-0.094l-0.041,0.033l0.096,0.061l-0.055-0.094l0.1,0.171v-0.199l-0.1,0.028l0.1,0.171v-0.199v0.091l0.016-0.089
			l-0.016-0.002v0.091l0.016-0.089l-0.062-0.037l-0.004-0.001l-1.1-0.807l-0.131-0.096l-0.223-0.063l-0.265-0.075l-0.329,0.11
			l-0.444,0.148l-0.169,0.579l-0.082,0.285l0.568,1.52l-0.002-0.007l0.012,0.042l0.001,0.004h0.233l-0.186-0.131l-0.048,0.131h0.233
			l-0.186-0.131l-0.003,0.003l0.003-0.003l0.161,0.113l-0.081-0.186l-0.08,0.072l0.161,0.113l-0.081-0.186l-0.011,0.002
			l-0.063,0.006h-0.025l-1.375-0.035h-0.012h-0.014h-0.293l-0.346,0.255l-0.538,0.396l0.274,0.756l0.102,0.279l1.393,0.911
			l0.047,0.037l0.005,0.003l0.19-0.139h-0.229l0.038,0.139l0.19-0.139h-0.229v0.003v0.002l0.059-0.002h-0.059v0.002l0.059-0.002
			h-0.059h0.258l-0.22-0.143l-0.038,0.143h0.258l-0.22-0.143l-0.003,0.001l-0.049,0.037l-1.143,0.747l-0.25,0.164l-0.148,0.406
			l-0.228,0.629l0.647,0.477l0.236,0.174h0.295h0.012l1.387-0.036h0.025l0.062,0.005l0.013,0.004l0.063-0.173l-0.144,0.102
			l0.08,0.071l0.063-0.173l-0.144,0.102l0,0l0.188-0.131h-0.235l0.048,0.131l0.188-0.131h-0.235l-0.001,0.001l-0.012,0.04
			l0.002-0.005l-0.465,1.241l-0.104,0.275l0.119,0.414l0.129,0.459l0.523,0.171l0.283,0.093l0.349-0.121l0.129-0.043l1.208-0.884
			l0.006-0.003l0.004-0.004l0.059-0.033l0.002-0.002l-0.018-0.092v0.094l0.018-0.002l-0.018-0.092v0.094v-0.197l-0.127,0.15
			l0.127,0.047v-0.197l-0.127,0.15l0.043-0.049l-0.058,0.035l0.015,0.014l0.043-0.049l-0.058,0.035l0.019,0.045l0.002,0.004
			l0.393,1.264l0.088,0.281l0.346,0.253l0.527,0.386l0.636-0.465l0.237-0.173l0.482-1.544l0.001-0.006l0.001-0.002l0.018-0.043
			l-0.093-0.058l0.054,0.089l0.039-0.031l-0.093-0.058l0.054,0.089l-0.103-0.173v0.202l0.103-0.029l-0.103-0.173v0.202v-0.042
			l-0.016,0.042h0.016v-0.042l-0.016,0.042l0.059,0.033l0.005,0.006l1.104,0.805l0.112,0.082l0.2,0.067l0.286,0.095l0.352-0.121
			l0.438-0.147l0.17-0.576l0.085-0.286l-0.57-1.522l-0.837,0.314l0.841-0.306l-0.012-0.038l-0.001-0.004h-0.222l0.177,0.124
			l0.045-0.124h-0.222l0.177,0.124l0.003-0.004l-0.17-0.115l0.085,0.192l0.085-0.077l-0.17-0.115l0.085,0.192l0.011-0.002
			l0.061-0.005h0.027l1.373,0.036h0.012h0.014h0.29l0.346-0.249l0.552-0.401l-0.288-0.765l-0.103-0.274l-1.387-0.907l-0.048-0.035
			l-0.005-0.005l-0.19,0.142h0.229l-0.039-0.142l-0.19,0.142h0.229h-0.242l0.208,0.134l0.034-0.134h-0.242l0.208,0.134h0.001
			L558.897,248.941l-0.979-1.497c-0.434,0.275-0.822,0.77-0.822,1.398c0,0.63,0.392,1.122,0.822,1.396l1.143,0.747l0.488-0.748
			l-0.836,0.313l0.049,0.128l0.836-0.314l-0.525-0.725l-0.11,0.081l0.524,0.724v-0.894h-0.002v0.894l0.023-0.894l-1.385-0.036
			h-0.011h-0.052c-0.52-0.004-1.104,0.191-1.46,0.705l0.003-0.004c-0.19,0.271-0.276,0.596-0.274,0.896
			c0,0.229,0.046,0.447,0.118,0.653l0.002,0.003l0.467,1.246l0.838-0.313l-0.857-0.254l-0.039,0.133l0.857,0.253l-0.289-0.845
			l-0.066,0.023l0.289,0.845l0.282-0.849l-0.068-0.022l-0.282,0.848l0.527-0.721l-1.1-0.803l-0.527,0.721l0.537-0.714
			c-0.311-0.233-0.693-0.393-1.116-0.393c-0.374-0.004-0.751,0.138-1.025,0.375c-0.277,0.234-0.461,0.545-0.562,0.875l0.003-0.007
			l-0.395,1.264l0.853,0.267l-0.527-0.721l-0.107,0.078l0.527,0.722l0.528-0.722l-0.107-0.078l-0.528,0.721l0.854-0.266
			l-0.393-1.264v0.004c-0.1-0.328-0.281-0.639-0.561-0.873c-0.274-0.237-0.651-0.379-1.025-0.375c-0.423,0-0.807,0.159-1.117,0.393
			l0.537,0.714l-0.527-0.721l-1.098,0.803l0.526,0.721l-0.289-0.845l-0.065,0.023l0.288,0.845l0.276-0.851l-0.069-0.022l-0.276,0.85
			l0.859-0.242l-0.037-0.133l-0.86,0.243l0.837,0.313l0.465-1.241l0.002-0.003v-0.002c0.076-0.206,0.123-0.426,0.123-0.659
			c0.002-0.299-0.085-0.625-0.277-0.896h0.001c-0.354-0.503-0.937-0.704-1.458-0.698h-0.037h-0.012l-1.398,0.036l0.023,0.894v-0.894
			h-0.002v0.894l0.53-0.719l-0.109-0.08l-0.53,0.719l0.842,0.306l0.045-0.128l-0.84-0.305l0.488,0.748l1.143-0.747
			c0.424-0.271,0.821-0.752,0.825-1.393v-0.009v0.006c-0.003-0.634-0.394-1.123-0.825-1.398l-1.143-0.747l-0.488,0.749l0.84-0.306
			l-0.045-0.128l-0.842,0.306l0.53,0.72l0.109-0.081l-0.53-0.719v0.894h0.002v-0.894l-0.022,0.894l1.387,0.035h0.011h0.049
			c0.518,0.005,1.1-0.19,1.458-0.696h-0.001c0.192-0.271,0.279-0.598,0.277-0.896c0-0.234-0.047-0.454-0.123-0.66v-0.003
			l-0.467-1.245l-0.837,0.314l0.858,0.25l0.037-0.13l-0.857-0.249l0.282,0.848l0.068-0.022l-0.282-0.849l-0.243,0.861l0.067,0.019
			l0.243-0.86l-0.528,0.721l1.1,0.805l-0.005-0.003c0.31,0.23,0.689,0.386,1.112,0.387c0.372,0.004,0.748-0.136,1.023-0.371
			c0.279-0.234,0.461-0.545,0.562-0.871v0.002l0.393-1.266l-0.854-0.266l0.535,0.716l0.107-0.08l-0.535-0.716l-0.535,0.716
			l0.107,0.08l0.535-0.716l-0.854,0.266l0.395,1.266v-0.004c0.1,0.328,0.283,0.639,0.562,0.873c0.274,0.235,0.65,0.375,1.022,0.371
			c0.423-0.001,0.802-0.156,1.112-0.387l-0.005,0.003l1.099-0.805l-0.527-0.721l0.242,0.86l0.068-0.019l-0.242-0.861l-0.289,0.845
			l0.066,0.023l0.289-0.845l-0.855,0.26l0.039,0.129l0.855-0.26l-0.838-0.314l-0.465,1.241l-0.002,0.005l-0.002,0.004
			c-0.074,0.206-0.118,0.424-0.118,0.652c-0.002,0.301,0.084,0.625,0.274,0.897l-0.003-0.003c0.358,0.517,0.944,0.706,1.46,0.703
			h0.039h0.012l1.396-0.035l-0.023-0.894v0.894h0.004v-0.894l-0.529,0.719l0.109,0.081l0.529-0.72l-0.836-0.314l-0.049,0.128
			l0.836,0.314l-0.488-0.749l-1.143,0.747L558.897,248.941z M554.653,241.936c3.671,0,5.886,0.22,7.153,0.433
			c0.634,0.104,1.03,0.208,1.252,0.276l0.21,0.073l0.021,0.01l0.216-0.453l-0.241,0.439l0.025,0.014l0.216-0.453l-0.241,0.439
			l0.429-0.783l-0.884-0.131l-3.484,23.448l0.009,0.103l0.022,0.449c-0.002,0.647-0.129,1.066-0.307,1.359
			c-0.262,0.43-0.699,0.71-1.461,0.906c-0.75,0.189-1.759,0.244-2.881,0.242c-1.498,0.007-2.792-0.106-3.543-0.468
			c-0.379-0.18-0.621-0.388-0.801-0.681c-0.178-0.293-0.306-0.712-0.307-1.359v-0.066l-3.557-23.936l-0.885,0.131l0.428,0.785
			l-0.24-0.439l0.215,0.452l0.025-0.013l-0.24-0.439l0.215,0.452c0,0,0.104-0.049,0.377-0.124
			C547.21,242.374,549.494,241.934,554.653,241.936v-1.787c-7.482,0.009-9.213,0.871-9.465,0.995l-0.548,0.3l3.64,24.487
			l0.884-0.131h-0.894c-0.001,0.883,0.182,1.656,0.564,2.286c0.58,0.96,1.549,1.468,2.557,1.714c1.02,0.252,2.143,0.293,3.316,0.295
			c1.562-0.007,3.039-0.062,4.295-0.635c0.625-0.288,1.193-0.74,1.574-1.374c0.385-0.63,0.566-1.403,0.566-2.286
			c0-0.21-0.013-0.41-0.029-0.599l-0.891,0.074l0.885,0.131l3.561-23.961l-0.547-0.299c-0.254-0.126-1.981-0.989-9.469-0.998
			V241.936z"/>
		<path clip-path="url(#SVGID_2_)" fill="#FFFFFF" d="M670.979,259.726l-25.41-21.703c-0.973-0.829-2.159-1.219-3.345-1.236
			l-0.237-0.024h-48.164l-3.477-5.272h24.129c2.91,0,5.267-2.356,5.267-5.267c0-2.907-2.356-5.266-5.267-5.266h-29.809
			c-0.407,0-0.796,0.056-1.179,0.143l-15.894-24.092c-1.604-2.427-4.869-3.097-7.298-1.496c-2.429,1.605-3.1,4.871-1.496,7.3
			l27.775,42.093c0.113,0.173,0.254,0.316,0.383,0.47l-14.814,14.813c-2.058,2.057-2.058,5.392,0,7.45
			c2.059,2.056,5.395,2.056,7.448,0l20.341-20.342h40.271l23.934,20.439c2.214,1.889,5.537,1.628,7.428-0.585
			C673.454,264.938,673.191,261.614,670.979,259.726"/>
		<path clip-path="url(#SVGID_2_)" d="M671.56,259.046l-25.41-21.703l-0.002-0.001c-1.142-0.975-2.541-1.43-3.909-1.449
			l-0.015,0.894l0.091-0.888l-0.237-0.024l-0.045-0.006h-47.729l-2.299-3.485h22.47c3.403,0,6.16-2.756,6.16-6.16
			c0-3.401-2.757-6.159-6.16-6.159h-29.809c-0.489,0-0.948,0.067-1.378,0.166l0.199,0.87l0.746-0.492l-15.895-24.092l0,0
			c-1.186-1.793-3.15-2.769-5.148-2.769c-1.163,0-2.345,0.332-3.387,1.018l-0.001,0.002c-1.794,1.185-2.771,3.15-2.769,5.148
			c0,1.165,0.332,2.347,1.02,3.389l27.776,42.093l-0.002-0.001c0.177,0.265,0.348,0.433,0.445,0.555l0.685-0.576l-0.633-0.632
			l-14.812,14.813l0,0c-1.203,1.199-1.807,2.782-1.806,4.356c-0.001,1.573,0.603,3.156,1.806,4.357l0,0
			c1.2,1.2,2.783,1.805,4.355,1.805c1.575,0,3.156-0.604,4.355-1.805l20.08-20.08h39.571l23.682,20.225h0.002
			c1.157,0.989,2.585,1.479,3.999,1.477c1.736,0.002,3.47-0.734,4.687-2.159l0.117-0.136l-0.117,0.134
			c0.989-1.157,1.477-2.583,1.477-3.997c0-1.736-0.736-3.47-2.163-4.687l-1.158,1.358c1.014,0.867,1.532,2.091,1.534,3.328
			c-0.002,1.008-0.344,2.011-1.048,2.839l-0.116,0.134l0.116-0.136c-0.867,1.016-2.091,1.532-3.328,1.534
			c-1.007,0-2.013-0.342-2.84-1.048l-0.026-0.022l-24.157-20.631h-40.971l-20.614,20.613l0.011-0.01
			c-0.855,0.854-1.969,1.279-3.092,1.279c-1.121,0-2.235-0.425-3.092-1.279l0,0c-0.855-0.857-1.281-1.971-1.281-3.094
			c0-1.122,0.424-2.235,1.281-3.093l0,0l15.393-15.393l-0.527-0.629c-0.16-0.185-0.269-0.304-0.319-0.384l-27.776-42.095
			c-0.491-0.746-0.725-1.576-0.725-2.404c0.002-1.422,0.689-2.813,1.968-3.658l-0.002,0.002c0.745-0.49,1.576-0.723,2.403-0.725
			c1.424,0.002,2.814,0.691,3.658,1.966l16.234,24.609l0.604-0.139c0.336-0.076,0.654-0.12,0.979-0.12h29.809
			c2.416,0.005,4.367,1.958,4.372,4.372c-0.005,2.416-1.956,4.367-4.372,4.373h-25.789l4.655,7.06h48.601l0.191,0.02l0.039,0.005
			h0.038c1.002,0.017,1.976,0.339,2.779,1.023l0.014,0.011l25.395,21.69L671.56,259.046z"/>
	</g>
	<polygon points="0.894,268.308 0.894,269.201 215,269.201 215,0 0,0 0,269.201 0.894,269.201 0.894,268.308 1.787,268.308 
		1.787,1.787 213.213,1.787 213.213,267.414 0.894,267.414 0.894,268.308 1.787,268.308 	"/>
</g>
</svg>
