<?xml version="1.0" encoding="utf-8"?>
<!-- Generator: Adobe Illustrator 16.0.0, SVG Export Plug-In . SVG Version: 6.00 Build 0)  -->
<!DOCTYPE svg PUBLIC "-//W3C//DTD SVG 1.1//EN" "http://www.w3.org/Graphics/SVG/1.1/DTD/svg11.dtd">
<svg version="1.1" id="Layer_1" xmlns="http://www.w3.org/2000/svg" xmlns:xlink="http://www.w3.org/1999/xlink" x="0px" y="0px"
	 width="55.021px" height="73.279px" viewBox="0 0 55.021 73.279" enable-background="new 0 0 55.021 73.279" xml:space="preserve">
<g>
	<polygon fill="#FFFFFF" points="54.551,15.796 54.546,15.791 50.44,11.674 43.363,4.58 40.578,1.788 40.578,8.272 40.556,13.137 
		40.578,15.791 40.578,15.796 	"/>
	<path fill="#FFFFFF" d="M50.44,20.375h-9.862h-4.579V20.37v-4.574v-0.005V4.58V0H0.06v3.228H0V69.22h0.06v4.06h54.961v-4.06v-0.521
		V20.375H50.44z M45.681,31.512c0.76,0,1.375,0.615,1.375,1.375s-0.615,1.375-1.375,1.375H9.556c-0.76,0-1.375-0.615-1.375-1.375
		s0.615-1.375,1.375-1.375H45.681z M9.556,44.846h36.125c0.76,0,1.375,0.615,1.375,1.375s-0.615,1.375-1.375,1.375H9.556
		c-0.76,0-1.375-0.615-1.375-1.375S8.796,44.846,9.556,44.846z M8.181,39.554c0-0.76,0.615-1.375,1.375-1.375h36.125
		c0.76,0,1.375,0.615,1.375,1.375s-0.615,1.375-1.375,1.375H9.556C8.796,40.929,8.181,40.313,8.181,39.554z M9.556,51.513h36.125
		c0.76,0,1.375,0.615,1.375,1.375s-0.615,1.375-1.375,1.375H9.556c-0.76,0-1.375-0.615-1.375-1.375S8.796,51.513,9.556,51.513z
		 M9.556,58.18h36.125c0.76,0,1.375,0.615,1.375,1.375s-0.615,1.375-1.375,1.375H9.556c-0.76,0-1.375-0.615-1.375-1.375
		S8.796,58.18,9.556,58.18z"/>
</g>
</svg>
