<?xml version="1.0" encoding="utf-8"?>
<!-- Generator: Adobe Illustrator 16.0.0, SVG Export Plug-In . SVG Version: 6.00 Build 0)  -->
<!DOCTYPE svg PUBLIC "-//W3C//DTD SVG 1.1//EN" "http://www.w3.org/Graphics/SVG/1.1/DTD/svg11.dtd">
<svg version="1.1" id="Layer_1" xmlns="http://www.w3.org/2000/svg" xmlns:xlink="http://www.w3.org/1999/xlink" x="0px" y="0px"
	 width="60.587px" height="31.831px" viewBox="0 0 60.587 31.831" enable-background="new 0 0 60.587 31.831" xml:space="preserve">
<g>
	<path fill="#FFFFFF" d="M29.279,12.851c-0.215,0-0.375-0.086-0.642-0.229c-0.677-0.364-2.476-1.332-6.095-1.332
		c-2.852,0-4.484,0.347-6.212,0.716c-1.082,0.23-2.202,0.47-3.673,0.642c-0.364,0.041-0.728,0.062-1.083,0.062
		c-3.177,0-5.489-1.591-5.756-3.96L5.815,0.646c0-0.343,0.269-0.626,0.61-0.645c0.393-0.03,0.642,0.233,0.68,0.573
		c0.217,1.942,2.4,2.812,4.47,2.812c0.307,0,0.62-0.019,0.935-0.056c1.409-0.164,2.498-0.396,3.551-0.62
		c1.798-0.384,3.495-0.745,6.482-0.745c3.945,0,5.952,1.079,6.707,1.486c0.072,0.039,0.128,0.07,0.172,0.092
		c0.288,0.064,0.504,0.322,0.504,0.631v8.029C29.926,12.562,29.637,12.851,29.279,12.851z M7.109,3.195v5.481
		c0.213,1.87,2.396,2.739,4.466,2.739c0.307,0,0.62-0.018,0.935-0.056c1.409-0.164,2.498-0.396,3.551-0.62
		c1.798-0.384,3.495-0.745,6.482-0.745c3.146,0,5.061,0.688,6.09,1.172V4.589c-0.682-0.366-2.479-1.33-6.09-1.33
		c-2.852,0-4.484,0.348-6.212,0.716c-1.082,0.231-2.202,0.47-3.673,0.642C10.388,4.878,8.334,4.309,7.109,3.195z"/>
</g>
<g>
	<g>
		<path fill="#FFFFFF" d="M59.128,24.207c-7.784,3.693-18.612,3.918-28.512,2.961V15.48c0-0.399-0.354-0.723-0.79-0.723
			c-0.438,0-0.791,0.323-0.791,0.723v11.525c-0.702-0.078-1.401-0.159-2.092-0.247c0.089-0.266,0.141-0.559,0.141-0.869v-9.346
			c0-1.2-0.748-2.175-1.67-2.175c-0.92,0-1.669,0.975-1.669,2.175v9.346c0,0.146,0.011,0.291,0.034,0.43
			c-0.683-0.102-1.354-0.21-2.014-0.318c0.003-0.038,0.01-0.073,0.01-0.111v-9.346c0-1.2-0.747-2.175-1.669-2.175
			s-1.67,0.975-1.458,2.175v8.906c-0.617-0.116-1.219-0.232-1.806-0.349v-8.677c0-1.199-0.748-2.172-1.669-2.172
			c-0.922,0-1.67,0.973-1.67,2.172v7.978c-0.701-0.157-1.372-0.309-1.996-0.458v-7.653c0-1.199-0.748-2.17-1.671-2.17
			c-0.921,0-1.668,0.971-1.668,2.17v6.83c-0.685-0.179-1.255-0.333-1.69-0.452v-7.684c0-0.409-0.354-0.75-0.79-0.75
			c-0.438,0-0.791,0.341-0.791,0.75v7.438C2.149,22.669,0,24.657,0,27.103c0,2.616,2.438,4.729,5.448,4.729h55.139v-8.137
			C60.051,23.832,59.561,24.002,59.128,24.207z"/>
	</g>
</g>
</svg>
