<?xml version="1.0" encoding="utf-8"?>
<!-- Generator: Adobe Illustrator 16.0.0, SVG Export Plug-In . SVG Version: 6.00 Build 0)  -->
<!DOCTYPE svg PUBLIC "-//W3C//DTD SVG 1.1//EN" "http://www.w3.org/Graphics/SVG/1.1/DTD/svg11.dtd">
<svg version="1.1" id="Layer_1" xmlns="http://www.w3.org/2000/svg" xmlns:xlink="http://www.w3.org/1999/xlink" x="0px" y="0px"
	 width="77.353px" height="100.808px" viewBox="0 0 77.353 100.808" enable-background="new 0 0 77.353 100.808"
	 xml:space="preserve">
<g>
	<path fill="#FFFFFF" d="M33.4,12.87h-6.652V8.93c0-1.835,1.491-3.326,3.326-3.326S33.4,7.095,33.4,8.93V12.87z"/>
	<path fill="#FFFFFF" d="M68.894,38.075c-1.638,0-3.164,0.476-4.461,1.285v-0.597c0-4.666-3.797-8.461-8.463-8.461
		c-1.723,0-3.324,0.52-4.662,1.407c-0.836-3.792-4.219-6.641-8.26-6.641c-1.639,0-3.165,0.476-4.462,1.285V8.461
		C38.586,3.795,34.791,0,30.125,0s-8.461,3.795-8.461,8.461v40.692l-5.924-9.922c-2.379-4.013-7.578-5.345-11.593-2.97
		C0.133,38.639-1.198,43.84,1.18,47.855l24.432,41.246c0.055,0.093,0.127,0.165,0.193,0.245h-0.031v10.047v0.001
		c0,0.015-0.008,0.026-0.008,0.04c0,0.041,0.02,0.076,0.023,0.116c0.007,0.079,0.026,0.153,0.046,0.228c0.156,0.571,0.658,1,1.282,1
		H68.84c0.089,0.019,0.182,0.029,0.277,0.029c0.742,0,1.344-0.605,1.344-1.352V89.281l-3.613,0.005v8.805H29.452v-8.749v-0.594
		v-0.637c0-0.304-0.117-0.568-0.284-0.794c-0.035-0.086-0.065-0.173-0.114-0.255L4.621,45.816c-1.254-2.118-0.552-4.861,1.564-6.113
		c2.117-1.255,4.859-0.551,6.116,1.572l9.646,16.154c0.009,0.015,0.021,0.026,0.031,0.041c0.039,0.062,0.084,0.119,0.13,0.177
		c0.038,0.047,0.073,0.095,0.114,0.138c0.045,0.047,0.096,0.088,0.145,0.13c0.05,0.043,0.097,0.087,0.149,0.123
		c0.052,0.036,0.107,0.065,0.163,0.097c0.057,0.032,0.111,0.066,0.17,0.093c0.058,0.025,0.117,0.043,0.178,0.063
		c0.063,0.021,0.126,0.044,0.191,0.06c0.056,0.013,0.113,0.018,0.17,0.026c0.075,0.01,0.15,0.021,0.227,0.022
		c0.017,0,0.032,0.005,0.049,0.005c0.04,0,0.076-0.01,0.115-0.012c0.077-0.004,0.152-0.01,0.229-0.023
		c0.062-0.011,0.121-0.027,0.181-0.043c0.064-0.018,0.128-0.035,0.192-0.06c0.066-0.026,0.13-0.059,0.193-0.092
		c0.038-0.02,0.078-0.031,0.115-0.054c0.016-0.01,0.027-0.022,0.043-0.031c0.06-0.039,0.114-0.083,0.17-0.127
		c0.049-0.039,0.1-0.076,0.145-0.119s0.084-0.092,0.125-0.14c0.043-0.051,0.089-0.1,0.127-0.153
		c0.036-0.052,0.064-0.107,0.096-0.163c0.032-0.056,0.066-0.11,0.092-0.169c0.027-0.06,0.046-0.123,0.067-0.187
		c0.02-0.06,0.041-0.118,0.056-0.18c0.014-0.061,0.02-0.122,0.028-0.185c0.009-0.07,0.019-0.14,0.021-0.211
		c0.001-0.018,0.006-0.034,0.006-0.053V8.461C25.664,6,27.664,4,30.125,4s4.461,2,4.461,4.461V33.53v17.358v5.516
		c0,1.104,0.896,2,2,2c1.105,0,2-0.896,2-2v-5.516V33.53c0-2.46,2.002-4.461,4.462-4.461c2.459,0,4.462,2.001,4.462,4.461v5.233
		v12.125v4.133c0,1.104,0.896,2,2,2s2-0.896,2-2v-4.133V38.764c0-2.461,2.001-4.461,4.46-4.461c2.461,0,4.463,2,4.463,4.461v7.771
		v11.91v4.137c0,1.105,0.896,2,2,2s2-0.895,2-2v-4.137v-11.91c0-2.459,2.001-4.46,4.461-4.46c2.459,0,4.459,2.001,4.459,4.46v28.756
		l-6.23,11.861c-0.1,0.189-0.154,0.388-0.188,0.588c-0.047,0.138-0.087,0.279-0.087,0.434v0.574v0.538l2.688-0.005l0.937-0.001
		c0.066-0.087,6.652-12.565,6.652-12.565c0.149-0.287,0.229-0.605,0.229-0.93v-29.25C77.353,41.871,73.558,38.075,68.894,38.075z"/>
</g>
</svg>
