<?xml version="1.0" encoding="utf-8"?>
<!-- Generator: Adobe Illustrator 16.0.0, SVG Export Plug-In . SVG Version: 6.00 Build 0)  -->
<!DOCTYPE svg PUBLIC "-//W3C//DTD SVG 1.1//EN" "http://www.w3.org/Graphics/SVG/1.1/DTD/svg11.dtd">
<svg version="1.1" id="Layer_1" xmlns="http://www.w3.org/2000/svg" xmlns:xlink="http://www.w3.org/1999/xlink" x="0px" y="0px"
	 width="73.657px" height="88.408px" viewBox="0 0 73.657 88.408" enable-background="new 0 0 73.657 88.408" xml:space="preserve">
<g>
	<path fill="#FFFFFF" d="M48.367,63.909c-7.489,0-13.67-5.707-14.423-13H20.85l0.001,0.025C8.585,49.56,3.301,44.896,3.301,35.49
		c0-14.956,11.853-17.882,32.324-17.882c8.592,0,15.979-1.57,21.363-4.541C62.283,10.145,65.2,6.09,65.2,1.651
		C65.2,0.74,64.461,0,63.549,0c-0.911,0-1.65,0.74-1.65,1.651c0,8.22-13.536,12.655-26.273,12.655C22.301,14.306,0,14.306,0,35.49
		c0,14.674,11.691,17.848,20.999,18.792l0.034,0.782l5.006,33.344h19.66h2.292h19.66l5.006-33.344l0.184-4.155H62.79
		C62.037,58.202,55.856,63.909,48.367,63.909z"/>
	<path fill="#FFFFFF" d="M47.991,32.408h-2.292H20.033l0.685,15.501h14.649c0.828,0,1.5,0.672,1.5,1.5c0,6.341,5.159,11.5,11.5,11.5
		s11.5-5.159,11.5-11.5c0-0.828,0.672-1.5,1.5-1.5h11.605l0.685-15.501H47.991z"/>
</g>
</svg>
