<?xml version="1.0" encoding="utf-8"?>
<!-- Generator: Adobe Illustrator 16.0.0, SVG Export Plug-In . SVG Version: 6.00 Build 0)  -->
<!DOCTYPE svg PUBLIC "-//W3C//DTD SVG 1.1//EN" "http://www.w3.org/Graphics/SVG/1.1/DTD/svg11.dtd">
<svg version="1.1" id="Layer_1" xmlns="http://www.w3.org/2000/svg" xmlns:xlink="http://www.w3.org/1999/xlink" x="0px" y="0px"
	 width="33.557px" height="48.419px" viewBox="0 0 33.557 48.419" enable-background="new 0 0 33.557 48.419" xml:space="preserve">
<g>
	<path fill="#FFFFFF" d="M28.616,2.147c2.826,1.286,4.096,4.612,2.838,7.47c-1.264,2.871-4.625,4.173-7.501,2.907
		c-0.021-0.01-0.043-0.019-0.064-0.028c-2.832-1.29-4.104-4.621-2.847-7.469c1.269-2.882,4.624-4.187,7.499-2.913
		C28.565,2.126,28.591,2.137,28.616,2.147 M29.288,0.67l-0.096-0.043c-1.779-0.788-3.765-0.835-5.584-0.13
		c-1.823,0.707-3.263,2.082-4.052,3.876c-1.608,3.642,0.032,7.949,3.659,9.601l0.083,0.037c3.693,1.625,8.019-0.053,9.641-3.739
		C34.546,6.625,32.906,2.317,29.288,0.67L29.288,0.67z"/>
	<g>
		<path fill="#FFFFFF" d="M23.553,13.233"/>
		<path fill="#FFFFFF" d="M25.363,17.647c0.966,0.44,1.471,1.077,1.798,1.896l3.934,10.172c0.767,1.963-1.162,3.183-2.556,2.548
			c-0.455-0.207-0.854-0.612-1.082-1.256l-2.425-6.237l-1.768,4.018l-5.463-2.404l-5.519-2.434l1.76-3.994l-6.07,2.387
			c-0.715,0.278-1.345,0.242-1.838,0.019c-1.401-0.639-1.692-2.802,0.347-3.594l10.037-3.913c0.812-0.31,1.585-0.394,2.58,0.033
			l3.156,1.393l3.097,1.363C25.355,17.644,25.36,17.646,25.363,17.647 M26.036,16.171l-0.002-0.001l-0.016-0.008l-3.11-1.369
			l-3.154-1.392c-1.683-0.721-2.98-0.382-3.812-0.065L5.891,17.255c-1.521,0.591-2.453,1.819-2.494,3.287
			c-0.04,1.411,0.771,2.706,2.066,3.295c0.936,0.426,2.035,0.432,3.099,0.018l2.407-0.947l-0.172,0.387l-0.653,1.485l1.484,0.654
			l5.519,2.435l5.465,2.405l1.485,0.653l0.654-1.485l0.188-0.43l0.997,2.563c0.359,0.993,1.043,1.763,1.931,2.165
			c1.312,0.598,2.903,0.326,3.96-0.673c1.061-1.004,1.352-2.479,0.78-3.943l-3.932-10.168
			C28.152,17.647,27.292,16.742,26.036,16.171L26.036,16.171z"/>
		<path fill="#FFFFFF" d="M22.471,34.459c0,0,1.973,5.078,1.979,5.093c0.626,1.623-0.541,3.486-2.083,4.102l-7.173,2.956
			c-0.678,0.261-1.272,0.227-1.743,0.013c-1.429-0.65-1.711-2.96,0.283-3.728l4.491-1.742l-1.719-4.38L22.471,34.459 M23.396,32.359
			l-1.513,0.587l-5.963,2.312l-1.52,0.588l0.595,1.518l1.123,2.863l-2.971,1.153c-1.473,0.567-2.417,1.837-2.461,3.314
			c-0.042,1.448,0.798,2.815,2.091,3.404c0.64,0.29,1.681,0.532,2.999,0.024l7.209-2.971c2.235-0.891,3.978-3.595,2.979-6.186
			c-0.051-0.127-1.98-5.097-1.98-5.097L23.396,32.359L23.396,32.359z"/>
		<path fill="#FFFFFF" d="M8.553,28.282l2.316,5.961l-4.36,1.7l1.741,4.492c0.772,2.005-1.168,3.356-2.608,2.7
			c-0.458-0.208-0.865-0.618-1.119-1.273l-2.682-7.299c-0.577-1.549,0.01-3.67,1.643-4.297C3.489,30.257,8.553,28.282,8.553,28.282
			 M9.477,26.179l-1.514,0.592L5.43,27.759c-1.333,0.521-2.078,0.812-2.521,1.014l-0.008-0.021c-2.595,0.995-3.43,4.101-2.582,6.377
			l2.68,7.293c0.401,1.038,1.079,1.785,1.969,2.191c1.305,0.594,2.896,0.317,3.964-0.688c1.087-1.024,1.406-2.586,0.832-4.074
			l-1.155-2.983l2.852-1.113l1.51-0.589l-0.587-1.512l-2.317-5.96L9.477,26.179L9.477,26.179z"/>
	</g>
</g>
</svg>
