<?xml version="1.0" encoding="utf-8"?>
<!-- Generator: Adobe Illustrator 16.0.0, SVG Export Plug-In . SVG Version: 6.00 Build 0)  -->
<!DOCTYPE svg PUBLIC "-//W3C//DTD SVG 1.1//EN" "http://www.w3.org/Graphics/SVG/1.1/DTD/svg11.dtd">
<svg version="1.1" id="Layer_1" xmlns="http://www.w3.org/2000/svg" xmlns:xlink="http://www.w3.org/1999/xlink" x="0px" y="0px"
	 width="85.131px" height="85.169px" viewBox="0 0 85.131 85.169" enable-background="new 0 0 85.131 85.169" xml:space="preserve">
<path fill="#FFFFFF" d="M72.378,18.463l3.501-1.197l9.252-1.24l-8.72-7.305L69.106,0l-1.24,9.254l-1.197,3.502
	c-8.863-6.803-21.609-6.154-29.725,1.961L7.361,44.3l-0.029,0.029c-4.193,4.006-6.899,9.549-7.264,15.749
	c-0.017,0.273-0.054,0.541-0.062,0.816c-0.166,6.896,2.647,13.154,7.242,17.598c4.127,3.99,9.688,6.521,15.879,6.673
	c0.645,0.016,1.278-0.015,1.91-0.05c5.641-0.314,10.77-2.602,14.69-6.205l1.228-1.229L62.549,56.09l7.885-7.885
	C78.555,40.084,79.198,27.326,72.378,18.463z M41.188,18.959c6.475-6.475,17.008-6.475,23.482,0l1.521,1.521
	c6.475,6.475,6.475,17.009,0,23.483l-0.856,0.856c-0.522-1.692-1.446-3.286-2.786-4.624l-0.756-0.756
	c-4.389-4.391-11.506-4.39-15.895-0.001l-5.365,5.366c-4.16-4.203-9.877-6.877-16.256-7.03c-0.659-0.016-1.309,0.015-1.955,0.052
	L41.188,18.959z M33.96,76.193c-3.027,2.113-6.719,3.33-10.69,3.233c-4.761-0.114-9.032-2.085-12.173-5.187
	c-3.402-3.36-5.477-8.051-5.351-13.208c0.089-3.688,1.286-7.087,3.261-9.894c1.176-1.67,2.637-3.113,4.297-4.297
	c3.053-2.174,6.797-3.431,10.834-3.332c4.845,0.117,9.187,2.15,12.341,5.348c3.304,3.348,5.306,7.973,5.181,13.047
	c-0.087,3.639-1.26,6.993-3.188,9.777C37.25,73.445,35.716,74.968,33.96,76.193z"/>
</svg>
