<?xml version="1.0" encoding="utf-8"?>
<!-- Generator: Adobe Illustrator 16.0.0, SVG Export Plug-In . SVG Version: 6.00 Build 0)  -->
<!DOCTYPE svg PUBLIC "-//W3C//DTD SVG 1.1//EN" "http://www.w3.org/Graphics/SVG/1.1/DTD/svg11.dtd">
<svg version="1.1" id="Layer_1" xmlns="http://www.w3.org/2000/svg" xmlns:xlink="http://www.w3.org/1999/xlink" x="0px" y="0px"
	 width="123.3px" height="123.968px" viewBox="0 0 123.3 123.968" enable-background="new 0 0 123.3 123.968" xml:space="preserve">
<path fill="#FFFFFF" d="M121.417,108.172l-6.887-16.479c-1.323,1.089-2.48,2.303-3.41,3.672c-0.601,0.881-1.794,1.111-2.669,0.515
	c-0.216-0.145-0.391-0.326-0.526-0.532c-0.418-0.635-0.438-1.473,0.013-2.134c1.347-1.992,3.049-3.732,5.049-5.216l-2.326-5.564
	l-1.106-2.641l-2.717-6.505l-1.963,1.106c-2.624,1.478-4.746,3.383-6.29,5.674c-0.597,0.88-1.792,1.107-2.668,0.514
	c-0.217-0.146-0.391-0.331-0.526-0.531c-0.416-0.635-0.435-1.473,0.011-2.138c1.889-2.788,4.444-5.097,7.589-6.871l2.355-1.326
	l-0.018-0.045l-1.143-2.726l-3.49-8.352l-1.211-2.907c-1.32,0.397-2.629,0.917-3.91,1.637l-3.744,2.111
	c-2.623,1.475-4.743,3.381-6.296,5.672c-0.598,0.878-1.797,1.103-2.674,0.508c-0.214-0.145-0.386-0.326-0.522-0.531
	c-0.413-0.628-0.436-1.475,0.013-2.138c1.896-2.784,4.451-5.094,7.595-6.862l3.742-2.11c1.4-0.791,2.84-1.417,4.289-1.891
	l-1.771-4.237c-0.465-1.117-1.033-2.181-1.678-3.158c-4.161-6.304-11.425-8.697-18.299-6.608c-0.729-0.758-1.639-1.271-2.618-1.533
	c0.017-1.43-0.381-2.878-1.229-4.163c-1.203-1.819-3.066-2.912-5.059-3.226c0.445-2.758-0.069-5.676-1.727-8.192
	c-0.548-0.829-1.188-1.555-1.891-2.189c0.071-0.472,0.119-0.951,0.119-1.443c0-5.339-4.328-9.667-9.667-9.667
	c-0.574,0-1.134,0.06-1.681,0.155C51.615,3.366,47.698,0,42.99,0c-5.339,0-9.667,4.328-9.667,9.667c0,0.873,0.126,1.713,0.343,2.518
	c-1.947,1.768-3.176,4.312-3.176,7.149c0,4.99,3.781,9.095,8.635,9.61c-0.152,1.615,0.208,3.288,1.172,4.749
	c0.961,1.458,2.347,2.458,3.885,2.957c1.542,2.807,4.439,4.754,7.81,4.984c1.304,0.656,2.772,1.034,4.332,1.034
	c1.617,0,3.138-0.402,4.478-1.104c1.509,1.587,3.611,2.379,5.729,2.279c-2.085,1.88-3.614,4.119-4.548,6.532
	c-0.334,3.157,0.432,6.441,2.408,9.438c0.612,0.918,1.325,1.803,2.126,2.629l55.024,56.628
	C124.594,116.999,123.084,112.165,121.417,108.172z"/>
<g>
	<path fill="#FFFFFF" d="M90.131,94.705c-2.791-2.743-7.18-4.637-13.045-5.628c-0.463-0.101-0.947-0.177-1.478-0.229
		c-0.839-0.113-1.72-0.207-2.626-0.283c-6.441-0.836-7.78-2.106-9.188-4.086c-2.27-4.014-6.707-7.037-13.195-8.992
		c-5.067-1.523-11.416-2.362-17.879-2.362h-0.004C17.624,73.124,0,77.727,0,90.695v8.152c0,4.354,2.233,12.194,17.178,15.844
		c9.027,2.396,32.494,6.869,33.49,7.06v-0.001l0.098,0.02c0.021,0.004,0.054,0.01,0.072,0.014
		c8.734,1.449,16.092,2.185,21.867,2.185c5.416,0,9.611-0.628,12.825-1.92c5.155-2.075,8.11-6.125,8.11-11.11v-8.152
		C93.643,100.672,93.034,97.559,90.131,94.705z M51.66,106.816c-0.013-0.002-24.277-4.629-33.254-7.02h0.002
		c-7.214-1.746-12.486-4.981-12.486-9.711c0-13.99,46.141-14.923,52.311-2.803l0.004-0.002c2.652,3.833,5.605,6.017,13.977,7.084
		c0.87,0.07,1.726,0.16,2.565,0.277c0.394,0.037,0.722,0.089,0.997,0.156c6.414,1.061,11.469,3.547,11.469,7.462
		C87.244,110.821,68.996,109.701,51.66,106.816z"/>
	<path fill="#FFFFFF" d="M54.03,95.714c-3.638-1.603-6.977-3.026-10.193-4.227c-0.007-0.002-0.011-0.006-0.016-0.009
		c-0.519-0.233-0.998-0.454-1.454-0.666c-0.683-0.395-1.104-0.809-1.168-1.183c-0.126-0.728,0.822-1.974,1.548-2.587
		c0.741-0.612,0.972-1.649,0.559-2.518c-0.412-0.868-1.356-1.348-2.305-1.161L25.61,86.394l-10.765,1.884
		c-1.137,0.197-1.9,1.277-1.71,2.416s1.264,1.912,2.401,1.729c9.082-1.438,16.122-0.532,23.568,1.872l13.3,5.296
		c0.255,0.102,0.518,0.149,0.776,0.149c0.824,0,1.602-0.485,1.94-1.288C55.562,97.395,55.078,96.178,54.03,95.714z"/>
</g>
</svg>
