<?xml version="1.0" encoding="utf-8"?>
<!-- Generator: Adobe Illustrator 16.0.0, SVG Export Plug-In . SVG Version: 6.00 Build 0)  -->
<!DOCTYPE svg PUBLIC "-//W3C//DTD SVG 1.1//EN" "http://www.w3.org/Graphics/SVG/1.1/DTD/svg11.dtd">
<svg version="1.1" id="Layer_1" xmlns="http://www.w3.org/2000/svg" xmlns:xlink="http://www.w3.org/1999/xlink" x="0px" y="0px"
	 width="51.877px" height="85.935px" viewBox="0 0 51.877 85.935" enable-background="new 0 0 51.877 85.935" xml:space="preserve">
<g>
	<path fill="#FFFFFF" d="M33.466,44.683c0-1.15,0.933-2.082,2.083-2.082s2.083,0.932,2.083,2.082v28.668
		c0,1.15-0.933,2.083-2.083,2.083s-2.083-0.933-2.083-2.083V44.683z M23.966,44.683c0-1.15,0.933-2.082,2.083-2.082
		s2.083,0.932,2.083,2.082v28.668c0,1.15-0.933,2.083-2.083,2.083s-2.083-0.933-2.083-2.083V44.683z"/>
	<path fill="#FFFFFF" d="M50.063,28.618H34.698H17.152h-2.921c-0.654-1.836-1.236-3.701-1.75-5.547l8.716-3.351
		c0.299-0.115,0.438-0.472,0.312-0.797c-0.125-0.327-0.469-0.498-0.766-0.384l-8.595,3.307c-0.144-0.546-0.286-1.091-0.418-1.632
		c0.225-0.01,0.457-0.055,0.689-0.144l6.97-2.682c0.894-0.344,1.405-1.181,1.141-1.868c-0.263-0.686-1.205-0.966-2.101-0.62
		l-6.969,2.681c-0.109,0.041-0.215,0.091-0.312,0.147c-0.119-0.538-0.23-1.069-0.34-1.593c0.028-0.009,0.057-0.014,0.085-0.024
		l6.971-2.68c0.894-0.346,1.406-1.182,1.142-1.868c-0.267-0.688-1.206-0.968-2.041-0.466l-6.641,2.555
		c-0.092-0.493-0.179-0.975-0.261-1.446l6.472-2.487c0.894-0.344,1.405-1.182,1.14-1.868c-0.265-0.688-1.205-0.966-2.101-0.622
		L9.626,9.517C9.542,8.949,9.463,8.404,9.395,7.897l5.706-2.195c0.896-0.346,1.404-1.181,1.139-1.868
		c-0.264-0.688-1.201-0.966-2.097-0.622L9.05,5.17C8.985,4.608,8.936,4.141,8.9,3.781l5.729-2.203
		c0.305-0.118,0.458-0.48,0.332-0.806c-0.126-0.326-0.481-0.491-0.787-0.375L8.628,2.531c-0.973-1.98-3.072-3.013-4.896-2.311
		C1.779,0.971,0.905,3.396,1.771,5.64l8.854,22.979H1.813C0.812,28.618,0,29.431,0,30.432v2.687c0,1.002,0.812,1.814,1.813,1.814
		h2.916c-0.136,0.418-0.228,0.854-0.228,1.316V81.62c0,2.379,1.935,4.314,4.313,4.314h34.236c2.379,0,4.313-1.936,4.313-4.314
		V36.249c0-0.463-0.092-0.898-0.228-1.316h2.926c1.002,0,1.813-0.812,1.813-1.814v-2.687C51.877,29.431,51.065,28.618,50.063,28.618
		z M42.365,80.935H9.502V36.937h4.329h4.115h24.419V80.935z"/>
	<path fill="#FFFFFF" d="M16.549,42.601c-0.177,0-0.345,0.028-0.509,0.069c-0.903,0.229-1.574,1.039-1.574,2.013v28.668
		c0,1.15,0.933,2.083,2.083,2.083s2.083-0.933,2.083-2.083V46.369v-1.687C18.632,43.532,17.699,42.601,16.549,42.601z"/>
	<path fill="#FFFFFF" d="M35.549,75.434c1.15,0,2.083-0.933,2.083-2.083V44.683c0-1.15-0.933-2.082-2.083-2.082
		s-2.083,0.932-2.083,2.082v28.668C33.466,74.501,34.398,75.434,35.549,75.434z"/>
	<path fill="#FFFFFF" d="M26.049,75.434c1.15,0,2.083-0.933,2.083-2.083V44.683c0-1.15-0.933-2.082-2.083-2.082
		s-2.083,0.932-2.083,2.082v28.668C23.966,74.501,24.898,75.434,26.049,75.434z"/>
</g>
</svg>
