<?xml version="1.0" encoding="utf-8"?>
<!-- Generator: Adobe Illustrator 16.0.0, SVG Export Plug-In . SVG Version: 6.00 Build 0)  -->
<!DOCTYPE svg PUBLIC "-//W3C//DTD SVG 1.1//EN" "http://www.w3.org/Graphics/SVG/1.1/DTD/svg11.dtd">
<svg version="1.1" id="Layer_1" xmlns="http://www.w3.org/2000/svg" xmlns:xlink="http://www.w3.org/1999/xlink" x="0px" y="0px"
	 width="80.216px" height="69.911px" viewBox="0 0 80.216 69.911" enable-background="new 0 0 80.216 69.911" xml:space="preserve">
<g>
	<path fill="#FFFFFF" d="M80.15,51.329C77.301,36.962,65.6,24.226,50.965,23.526c-0.199-0.033-0.404-0.053-0.622-0.053h-0.124
		c-0.374-0.007-1.872-0.139-3.104-1.648c-0.002,0-0.004,0.014-0.006,0.033c-1.508-1.578-3.396-2.785-5.519-3.475
		c-0.216-1.206-0.949-2.23-1.963-2.839c0.009-0.076,0.023-0.15,0.023-0.229V9.449c0-0.035-0.009-0.068-0.011-0.104
		c1.26-0.615,2.223-1.741,2.6-3.117c5.199,1.459,13.221,3.625,15.025,3.625c2.721,0,4.926-2.205,4.926-4.927
		C62.191,2.206,59.988,0,57.266,0c-1.804,0-9.826,2.166-15.025,3.625C41.669,1.537,39.763,0,37.491,0
		c-2.237,0-4.123,1.492-4.723,3.535C27.563,2.078,19.829,0,18.062,0c-2.723,0-4.928,2.206-4.928,4.927
		c0,2.722,2.205,4.927,4.928,4.927c1.768,0,9.502-2.08,14.707-3.535c0.393,1.338,1.342,2.429,2.574,3.03
		c-0.001,0.034-0.01,0.066-0.01,0.101v5.867c0,0.077,0.015,0.15,0.022,0.226c-1.015,0.607-1.751,1.634-1.968,2.841
		c-2.113,0.687-3.996,1.888-5.5,3.453c-0.002-0.006-0.003-0.011-0.004-0.011c-0.079,0.097-0.159,0.187-0.24,0.271
		c-0.016,0.019-0.033,0.036-0.05,0.054c-1.167,1.203-2.467,1.318-2.813,1.326H14.7c-0.359-0.009-1.76-0.134-2.963-1.492
		c-0.006-0.008-0.015-0.018-0.022-0.026c-0.039-0.044-0.078-0.084-0.116-0.132c-0.001,0-0.003,0.009-0.003,0.012
		c-0.39-0.409-0.896-0.727-1.467-0.861l-6.716-1.578C1.585,18.967,0,19.843,0,21.383v19.011c0,1.541,1.585,2.416,3.413,1.986
		l6.716-1.576c0.567-0.133,1.069-0.449,1.46-0.855c0.003,0.037,0.007,0.064,0.01,0.064c1.084-1.33,2.371-1.59,2.92-1.641h10.2
		c0.548,0.051,1.836,0.311,2.92,1.641c0,0,0.002-0.006,0.005-0.01c1.559,1.717,3.562,3.021,5.826,3.74
		c0.482,1.768,2.098,3.07,4.018,3.07c1.922,0,3.538-1.301,4.021-3.072c2.273-0.721,4.281-2.033,5.844-3.762
		c0.002,0.02,0.006,0.033,0.008,0.033c0.983-1.207,2.137-1.535,2.75-1.621c7.655,0.221,12.848,6.582,15.105,13.363
		c0.333,1.055,0.775,1.783,3.128,1.783c2.945,0,7.649,0,10.263,0C79.729,53.538,80.443,52.862,80.15,51.329z"/>
	<path fill="#FFFFFF" d="M77.123,63.302l-0.138-0.237l-1.551-2.687l-2.309-3.999l-2.309,3.999l-1.551,2.687l-0.138,0.237
		c-0.177,0.336-0.31,0.697-0.397,1.076c-0.076,0.328-0.12,0.668-0.12,1.019c0,2.493,2.021,4.515,4.515,4.515
		s4.515-2.021,4.515-4.515c0-0.351-0.044-0.69-0.12-1.019C77.433,63.999,77.3,63.638,77.123,63.302z"/>
</g>
</svg>
