<?xml version="1.0" encoding="utf-8"?>
<!-- Generator: Adobe Illustrator 16.0.0, SVG Export Plug-In . SVG Version: 6.00 Build 0)  -->
<!DOCTYPE svg PUBLIC "-//W3C//DTD SVG 1.1//EN" "http://www.w3.org/Graphics/SVG/1.1/DTD/svg11.dtd">
<svg version="1.1" id="Layer_1" xmlns="http://www.w3.org/2000/svg" xmlns:xlink="http://www.w3.org/1999/xlink" x="0px" y="0px"
	 width="68.173px" height="71.828px" viewBox="0 0 68.173 71.828" enable-background="new 0 0 68.173 71.828" xml:space="preserve">
<path fill="#FFFFFF" d="M54.389,3.415c0.78-0.78,0.78-2.048-0.001-2.829c-0.78-0.78-2.047-0.78-2.828,0L19.033,33.113
	c-0.487,0.488-0.69,1.193-0.534,1.865c0.074,0.322,0.774,2.956,4.479,7.153L1.591,63.52L0,71.828l26.317-26.317
	c4.344,3.948,6.953,4.573,7.472,4.661c0.638,0.105,1.287-0.103,1.743-0.559l6.055-6.055c0.035-0.031,0.078-0.055,0.111-0.088
	c0.026-0.026,0.041-0.062,0.066-0.09l5.95-5.95c0.036-0.032,0.078-0.055,0.112-0.089c0.025-0.025,0.041-0.062,0.065-0.089
	l5.952-5.952c0.035-0.031,0.076-0.053,0.11-0.087c0.026-0.026,0.041-0.062,0.065-0.089l5.951-5.951
	c0.036-0.032,0.078-0.055,0.112-0.089c0.026-0.026,0.042-0.062,0.065-0.089l7.438-7.438c0.78-0.78,0.78-2.048,0-2.828
	c-0.781-0.781-2.048-0.78-2.828,0l-6.633,6.633c-1.083-0.526-3.118-1.772-5.977-4.631c-0.78-0.78-2.048-0.78-2.829,0.001
	c-0.78,0.78-0.78,2.047,0,2.828c2.412,2.412,4.375,3.867,5.855,4.752l-3.178,3.178c-1.083-0.525-3.119-1.771-5.978-4.63
	c-0.78-0.78-2.047-0.781-2.828,0c-0.78,0.78-0.78,2.048,0,2.828c2.412,2.412,4.375,3.867,5.854,4.753l-3.178,3.178
	c-1.082-0.525-3.118-1.771-5.977-4.631c-0.781-0.78-2.048-0.78-2.828,0c-0.781,0.781-0.781,2.048,0,2.828
	c2.412,2.412,4.374,3.868,5.854,4.754l-3.178,3.178c-1.082-0.526-3.117-1.771-5.977-4.631c-0.781-0.781-2.047-0.781-2.828,0
	s-0.781,2.048,0,2.828c2.412,2.412,4.375,3.867,5.854,4.753l-3.179,3.179c-1.084-0.527-3.125-1.779-5.977-4.631
	c-2.918-2.918-4.26-5.088-4.84-6.238L54.389,3.415z"/>
</svg>
