<?xml version="1.0" encoding="utf-8"?>
<!-- Generator: Adobe Illustrator 16.0.0, SVG Export Plug-In . SVG Version: 6.00 Build 0)  -->
<!DOCTYPE svg PUBLIC "-//W3C//DTD SVG 1.1//EN" "http://www.w3.org/Graphics/SVG/1.1/DTD/svg11.dtd">
<svg version="1.1" id="Layer_1" xmlns="http://www.w3.org/2000/svg" xmlns:xlink="http://www.w3.org/1999/xlink" x="0px" y="0px"
	 width="36.693px" height="50.431px" viewBox="0 0 36.693 50.431" enable-background="new 0 0 36.693 50.431" xml:space="preserve">
<g>
	<path fill="#FFFFFF" d="M5.895,45.72c-2.855-6.019-3.029-14.392-2.289-22.046h9.037c0.309,0,0.559-0.273,0.559-0.611
		s-0.25-0.611-0.559-0.611H3.73c0.061-0.543,0.123-1.084,0.191-1.617c0.205,0.068,0.432,0.108,0.672,0.108h7.227
		c0.928,0,1.682-0.578,1.682-1.291c0-0.712-0.754-1.291-1.682-1.291H4.594c-0.113,0-0.225,0.009-0.332,0.026
		c0.078-0.527,0.162-1.047,0.246-1.557c0.029,0.002,0.057,0.008,0.086,0.008h7.227c0.928,0,1.682-0.578,1.682-1.291
		s-0.754-1.291-1.682-1.127H4.934c0.09-0.478,0.18-0.942,0.27-1.396h6.709c0.928,0,1.68-0.578,1.68-1.29
		c0-0.713-0.752-1.292-1.68-1.292H5.744c0.121-0.542,0.238-1.061,0.354-1.543h5.918c0.928,0,1.678-0.578,1.678-1.292
		c0-0.712-0.75-1.29-1.678-1.29H6.734c0.139-0.529,0.258-0.97,0.35-1.307h5.941c0.316,0,0.58-0.274,0.58-0.611
		c0-0.338-0.264-0.611-0.58-0.611H7.273C7.084,1.662,5.547,0,3.656,0C1.633,0,0,1.886,0,4.213v46.218h6.671
		C6.658,48.518,6.439,46.868,5.895,45.72z"/>
</g>
<g>
	<path fill="#FFFFFF" d="M28.895,45.72c-2.855-6.019-3.029-14.392-2.289-22.046h9.037c0.309,0,0.559-0.273,0.559-0.611
		s-0.25-0.611-0.559-0.611H26.73c0.061-0.543,0.123-1.084,0.191-1.617c0.205,0.068,0.432,0.108,0.672,0.108h7.227
		c0.928,0,1.682-0.578,1.682-1.291c0-0.712-0.754-1.291-1.682-1.291h-7.227c-0.113,0-0.225,0.009-0.332,0.026
		c0.078-0.527,0.162-1.047,0.246-1.557c0.029,0.002,0.057,0.008,0.086,0.008h7.227c0.928,0,1.682-0.578,1.682-1.291
		s-0.754-1.291-1.682-1.127h-6.887c0.09-0.478,0.18-0.942,0.27-1.396h6.709c0.928,0,1.68-0.578,1.68-1.29
		c0-0.713-0.752-1.292-1.68-1.292h-6.168c0.121-0.542,0.238-1.061,0.354-1.543h5.918c0.928,0,1.678-0.578,1.678-1.292
		c0-0.712-0.75-1.29-1.678-1.29h-5.281c0.139-0.529,0.258-0.97,0.35-1.307h5.941c0.316,0,0.58-0.274,0.58-0.611
		c0-0.338-0.264-0.611-0.58-0.611h-5.752C30.084,1.662,28.547,0,26.656,0C24.633,0,23,1.886,23,4.213v46.218h6.671
		C29.658,48.518,29.439,46.868,28.895,45.72z"/>
</g>
</svg>
