<?xml version="1.0" encoding="utf-8"?>
<!-- Generator: Adobe Illustrator 16.0.0, SVG Export Plug-In . SVG Version: 6.00 Build 0)  -->
<!DOCTYPE svg PUBLIC "-//W3C//DTD SVG 1.1//EN" "http://www.w3.org/Graphics/SVG/1.1/DTD/svg11.dtd">
<svg version="1.1" id="Layer_1" xmlns="http://www.w3.org/2000/svg" xmlns:xlink="http://www.w3.org/1999/xlink" x="0px" y="0px"
	 width="65.71px" height="54.776px" viewBox="0 0 65.71 54.776" enable-background="new 0 0 65.71 54.776" xml:space="preserve">
<g>
	<path fill="#FFFFFF" d="M32.275,51.601l0.312-0.335c0.005-0.006,0.013-0.011,0.018-0.017c-0.116-0.118-0.232-0.235-0.355-0.351
		c-0.009,0.009-0.019,0.017-0.027,0.025l-0.626,0.67l0.612,0.682c0.032,0.035,0.058,0.073,0.088,0.108
		c0.102-0.133,0.218-0.26,0.327-0.39c-0.016-0.018-0.027-0.035-0.043-0.053L32.275,51.601z"/>
	<path fill="#FFFFFF" d="M32.605,51.249c-0.005,0.006-0.013,0.011-0.018,0.017l-0.312,0.335l0.306,0.341
		c0.016,0.018,0.027,0.035,0.043,0.053c0.109-0.129,0.211-0.261,0.329-0.387C32.844,51.485,32.723,51.368,32.605,51.249z"/>
	<g>
		<path fill="#FFFFFF" d="M56.239,1.874c-0.021-0.481-0.348-0.891-0.805-1.014c-0.407-0.109-10.02-2.625-14.585,1.491
			c-2.068,1.867-3.269,4.4-3.378,7.136c-0.049,1.196,0.129,2.378,0.471,3.434c-1.405,2.687-2.641,5.416-3.73,8.162
			c-1.425-1.195-2.749-2.256-3.94-3.18l0.021-0.016c-0.001-0.003-0.004-0.006-0.005-0.008c-0.957-0.92-1.892-1.878-2.803-2.873
			c-1.344-1.469-2.638-3.016-3.853-4.651c-0.365-0.491-0.261-1.176,0.229-1.531c0.491-0.357,1.185-0.248,1.548,0.243
			c1.857,2.497,3.897,4.789,6.039,6.887c1.174-2.897,1.119-7.2-1.648-10.575c-3.633-4.427-12.396-4.512-12.768-4.516
			c-0.481,0-0.905,0.306-1.049,0.757c-0.129,0.402-3.092,9.886,0.805,14.64c1.77,2.153,4.243,3.471,6.971,3.708
			c1.264,0.111,2.53-0.021,3.647-0.354c1.606,1.216,3.521,2.73,5.647,4.542c-1.588,4.462-2.793,8.931-3.71,13.29
			c1.064,0.006,2.104,0.072,3.114,0.187c0.798-3.707,1.811-7.492,3.104-11.278c0.357-1.046,0.737-2.091,1.138-3.135
			c0.958-2.498,2.054-4.982,3.277-7.437c0.84-0.952,1.713-1.89,2.624-2.806c1.402-1.411,2.889-2.775,4.466-4.066
			c0.473-0.388,1.162-0.316,1.54,0.157c0.379,0.475,0.303,1.173-0.17,1.559c-2.408,1.973-4.602,4.117-6.598,6.354
			c2.95,1.038,7.246,0.78,10.486-2.143C56.579,11.002,56.254,2.244,56.239,1.874z"/>
		<path fill="#FFFFFF" d="M48.362,46.177c-0.911,0-1.799,0.055-2.672,0.134c-5.476,0.501-10.124,2.503-12.737,5.297
			c-0.118,0.126-0.22,0.258-0.329,0.387c-0.109,0.13-0.226,0.257-0.327,0.39c-0.03-0.035-0.056-0.073-0.088-0.108l-0.612-0.682
			l0.626-0.67c0.009-0.009,0.019-0.017,0.027-0.025c2.753-2.926,7.382-4.908,12.764-5.51c-2.415-2.949-7.026-5.126-12.555-5.755
			c-1.011-0.114-2.05-0.181-3.114-0.187c-0.058,0-0.113-0.004-0.171-0.004c-7.627,0-14.106,2.91-16.586,6.981
			C6.138,47.519,1.192,50.753,0,54.776h13.333h13.816h3.096h0.77h2.699h0.531h0.531h10.238H65.71
			C64.13,49.877,56.969,46.177,48.362,46.177z"/>
	</g>
</g>
</svg>
