<?xml version="1.0" encoding="utf-8"?>
<!-- Generator: Adobe Illustrator 16.0.0, SVG Export Plug-In . SVG Version: 6.00 Build 0)  -->
<!DOCTYPE svg PUBLIC "-//W3C//DTD SVG 1.1//EN" "http://www.w3.org/Graphics/SVG/1.1/DTD/svg11.dtd">
<svg version="1.1" id="Layer_1" xmlns="http://www.w3.org/2000/svg" xmlns:xlink="http://www.w3.org/1999/xlink" x="0px" y="0px"
	 width="60.969px" height="46.502px" viewBox="0 0 60.969 46.502" enable-background="new 0 0 60.969 46.502" xml:space="preserve">
<g>
	<path fill="#FFFFFF" d="M35.56,32.031c0.151-0.151,0.326-0.203,0.615-0.291c0.736-0.221,2.693-0.809,5.252-3.367
		c2.016-2.016,2.926-3.416,3.887-4.898c0.602-0.929,1.225-1.89,2.143-3.051c0.229-0.287,0.471-0.559,0.722-0.811
		c2.246-2.246,5.007-2.756,6.87-1.27l5.732,5.727c0.242,0.242,0.252,0.633,0.023,0.887c-0.256,0.299-0.618,0.289-0.885,0.076
		c-1.527-1.221-3.686-0.291-5.148,1.172c-0.217,0.217-0.426,0.451-0.622,0.7c-0.88,1.112-1.486,2.047-2.072,2.949
		c-1,1.543-1.944,2.999-4.058,5.11c-2.789,2.79-4.971,3.447-5.793,3.692c-0.078,0.022-0.141,0.04-0.187,0.057
		c-0.249,0.158-0.584,0.128-0.802-0.091l-5.678-5.677C35.307,32.693,35.306,32.285,35.56,32.031z M58.063,23.184l-3.877-3.877
		c-1.473-1.172-3.631-0.242-5.094,1.221c-0.217,0.217-0.427,0.451-0.621,0.701c-0.881,1.111-1.486,2.047-2.072,2.949
		c-1.001,1.542-1.945,2.998-4.058,5.11c-2.226,2.226-4.064,3.092-5.135,3.478l4.651,4.651c0.74-0.224,2.693-0.813,5.246-3.366
		c2.017-2.016,2.926-3.416,3.887-4.898c0.602-0.929,1.225-1.889,2.144-3.051C54.556,24.311,56.41,23.262,58.063,23.184z"/>
</g>
<g>
	<g>
		<path fill="#FFFFFF" d="M6.423,45.108c2.893-8.116,10.391-15.932,18.067-22.255l8.265,8.264c0.281,0.283,0.76,0.262,1.068-0.047
			c0.31-0.31,0.331-0.788,0.049-1.07l-8.15-8.15c0.553-0.44,1.104-0.878,1.654-1.305c0.125,0.252,0.296,0.495,0.516,0.715
			l6.608,6.608c0.849,0.849,2.066,1.009,2.718,0.356c0.65-0.65,0.492-1.869-0.357-2.717l-6.607-6.609
			c-0.104-0.104-0.214-0.198-0.328-0.279c0.555-0.41,1.105-0.809,1.648-1.199c0.025,0.029,0.045,0.059,0.072,0.086l6.608,6.608
			c0.849,0.849,2.065,1.01,2.718,0.358c0.651-0.652,0.492-1.871-0.507-2.569l-6.298-6.298c0.52-0.354,1.026-0.697,1.523-1.03
			l6.135,6.136c0.849,0.848,2.065,1.007,2.717,0.355c0.652-0.652,0.492-1.869-0.355-2.717l-5.641-5.641
			c0.606-0.385,1.188-0.752,1.735-1.088l5.411,5.412c0.849,0.848,2.064,1.006,2.717,0.354c0.65-0.652,0.492-1.867-0.355-2.715
			l-4.83-4.83c0.611-0.357,1.123-0.651,1.516-0.875l5.434,5.434c0.289,0.289,0.78,0.279,1.088-0.029
			c0.31-0.309,0.318-0.799,0.029-1.089l-5.26-5.26c1.77-2.116,1.885-5.042,0.154-6.772c-1.85-1.85-5.067-1.618-7.195,0.51L0,40.749
			l5.753,5.753C6.036,46.025,6.263,45.559,6.423,45.108z"/>
	</g>
</g>
</svg>
