<?xml version="1.0" encoding="utf-8"?>
<!-- Generator: Adobe Illustrator 16.0.0, SVG Export Plug-In . SVG Version: 6.00 Build 0)  -->
<!DOCTYPE svg PUBLIC "-//W3C//DTD SVG 1.1//EN" "http://www.w3.org/Graphics/SVG/1.1/DTD/svg11.dtd">
<svg version="1.1" id="Layer_1" xmlns="http://www.w3.org/2000/svg" xmlns:xlink="http://www.w3.org/1999/xlink" x="0px" y="0px"
	 width="30px" height="17.19px" viewBox="0 0 30 17.19" enable-background="new 0 0 30 17.19" xml:space="preserve">
<g>
	<defs>
		<rect id="SVGID_1_" width="30" height="17.19"/>
	</defs>
	<clipPath id="SVGID_2_">
		<use xlink:href="#SVGID_1_"  overflow="visible"/>
	</clipPath>
	<path clip-path="url(#SVGID_2_)" fill="#FFFFFF" d="M13.02,2.836c0.001-0.001,0.001-0.003,0.002-0.005
		c0.177-0.624,0.565-1.12,1.123-1.434c0.438-0.247,0.98-0.38,1.526-0.376c0.953,0.007,4.42,1.442,5.589,2.09
		c1.243,0.69,1.444,1.36,1.511,1.581l0.001,0.004c0.031,0.104-0.028,0.213-0.132,0.245c-0.104,0.031-0.213-0.028-0.244-0.132
		l-0.001-0.005c-0.055-0.182-0.222-0.738-1.325-1.35c-1.239-0.688-4.598-2.036-5.401-2.042c-0.887-0.006-1.948,0.392-2.269,1.525
		c-0.03,0.104-0.139,0.165-0.243,0.136C13.055,3.044,12.994,2.938,13.02,2.836 M14.374,5.66c0.137,0.178,0.244,0.322,0.335,0.443
		c0.122,0.163,0.211,0.281,0.288,0.375c0.017,0.02,0.033,0.037,0.047,0.052c0.229,0.245,0.235,0.464,0.155,0.649
		c0.705,0.155,1.56,0.28,2.531,0.377c0.073-0.048,0.157-0.103,0.259-0.17c0.125-0.083,0.275-0.183,0.464-0.304
		c0.117-0.089,0.713-0.514,1.752-0.818c0.434-0.127,0.947-0.188,1.572-0.188c0.674,0,1.345,0.074,1.834,0.128l0.096,0.01
		c0.108-0.067,0.221-0.136,0.348-0.217c0.337-0.214,0.224-0.255,0.115-0.455c-0.108-0.2-0.226-0.462-0.469-0.953
		c0,0-0.248-0.665-1.009-1.483s-2.142-1.415-2.921-1.772c-0.78-0.358-2.284-0.949-3.103-1.157c-0.817-0.208-3.916-0.799-4.748,2.471
		c-0.093,0.367-0.137,0.703-0.146,1.014c0.441,0.17,0.869,0.376,1.227,0.636C13.876,4.935,14.294,5.537,14.374,5.66"/>
	<path clip-path="url(#SVGID_2_)" fill="#FFFFFF" d="M3.403,6.443c-0.006,0-0.011,0-0.017,0c-0.105-0.009-0.186-0.101-0.18-0.207
		c0-0.001,0-0.003,0.001-0.005c0.054-0.646,0.339-1.208,0.826-1.623C4.417,4.281,4.923,4.046,5.46,3.945
		c0.097-0.018,0.223-0.027,0.373-0.027c1.299,0,4.372,0.635,5.513,1.004c0.32,0.104,0.581,0.217,0.797,0.333
		c0.696,0.375,0.907,0.772,0.989,0.927l0.002,0.004c0.026,0.049,0.028,0.104,0.013,0.153c-0.016,0.047-0.048,0.087-0.095,0.112
		c-0.028,0.015-0.061,0.022-0.091,0.022c-0.07,0-0.139-0.038-0.174-0.104l-0.002-0.004c-0.089-0.169-0.359-0.682-1.561-1.071
		C10.006,4.9,6.984,4.309,5.832,4.309c-0.123,0-0.225,0.007-0.3,0.021C4.661,4.494,3.695,5.088,3.599,6.263
		C3.591,6.365,3.504,6.443,3.403,6.443 M4.733,8.06c0.745,0,1.665,0.038,2.288,0.094l0.173,0.015
		c0.928,0.082,2.33,0.205,3.331,0.729c0.396,0.207,0.711,0.419,0.954,0.605c0.313-0.094,0.604-0.204,0.866-0.336
		c0.809-0.407,1.354-1.008,1.568-1.246c0.216-0.238,0.44-0.428,0.729-0.704c0.061-0.057,0.1-0.102,0.128-0.14
		c0.107-0.147,0.013-0.19-0.102-0.328c-0.146-0.175-0.311-0.41-0.644-0.845c0,0-0.371-0.604-1.274-1.261
		c-0.277-0.202-0.609-0.372-0.958-0.516c-0.789-0.326-1.672-0.522-2.25-0.662C8.71,3.264,7.12,2.973,6.277,2.927
		C6.191,2.921,6.081,2.917,5.953,2.917c-1.13,0-3.692,0.32-3.859,3.347C2.045,7.129,2.209,7.796,2.492,8.312
		c0.454-0.13,0.865-0.188,1.143-0.214C3.915,8.072,4.285,8.06,4.733,8.06"/>
	<path clip-path="url(#SVGID_2_)" fill="#FFFFFF" d="M28.772,11.386c-0.001,0.003-0.001,0.005-0.002,0.006
		c-0.024,0.085-0.103,0.14-0.188,0.14c-0.017,0-0.034-0.002-0.051-0.007c-0.104-0.027-0.167-0.135-0.139-0.24
		c0.305-1.138-0.403-2.023-1.168-2.472c-0.693-0.406-4.268-0.968-5.685-1.012c-0.06-0.002-0.117-0.003-0.173-0.003
		c-1.129,0-1.523,0.361-1.657,0.484l-0.003,0.003c-0.038,0.035-0.086,0.051-0.133,0.051c-0.053,0-0.105-0.021-0.145-0.063
		c-0.073-0.08-0.067-0.205,0.012-0.277l0.004-0.003c0.076-0.069,0.223-0.203,0.487-0.325c0.301-0.139,0.754-0.263,1.436-0.263
		c0.06,0,0.12,0.001,0.184,0.003c0.016,0,0.033,0.001,0.05,0.002c1.376,0.052,5.009,0.587,5.821,1.064
		c0.472,0.276,0.868,0.668,1.118,1.104C28.86,10.135,28.94,10.76,28.772,11.386 M26.998,7.24c-0.81-0.24-2.404-0.503-3.257-0.595
		c-0.172-0.019-0.37-0.041-0.585-0.063C22.74,6.54,22.26,6.5,21.777,6.5c-0.507,0-1.015,0.043-1.453,0.171
		c-1.072,0.313-1.626,0.757-1.626,0.757c-0.107,0.069-0.201,0.131-0.287,0.187c-0.279,0.184-0.454,0.303-0.604,0.391
		c-0.195,0.116-0.312,0.093-0.134,0.45c0.18,0.356,0.327,0.612,0.45,0.908c0.057,0.139,0.156,0.377,0.308,0.655
		c0.721-0.246,1.524-0.492,2.069-0.603c0.282-0.057,0.726-0.126,1.234-0.126c2.095,0,3.477,1.121,3.891,3.154
		c0.144,0.708,0.131,1.31,0.023,1.82c0.265,0.047,0.571,0.083,0.901,0.083c1.184,0,2.64-0.466,3.26-2.555
		C30.771,8.559,27.806,7.48,26.998,7.24"/>
	<path clip-path="url(#SVGID_2_)" fill="#FFFFFF" d="M10.89,11.02c-0.034,0.025-0.075,0.037-0.115,0.037
		c-0.061,0-0.12-0.027-0.158-0.08l-0.003-0.004c-0.112-0.153-0.454-0.622-1.7-0.831C8.662,10.1,8.337,10.06,7.97,10.025
		C7.062,9.938,5.895,9.88,4.918,9.88c-0.088,0-0.173,0-0.257,0.001c-0.698,0.009-1.268,0.05-1.521,0.138
		c-0.838,0.289-1.706,1.018-1.631,2.194c0.008,0.108-0.074,0.201-0.183,0.208c-0.004,0-0.009,0-0.013,0
		c-0.102,0-0.187-0.076-0.195-0.178c0-0.002,0-0.004,0-0.006c-0.042-0.646,0.159-1.244,0.58-1.726
		c0.331-0.379,0.797-0.687,1.313-0.864c0.163-0.057,0.421-0.096,0.739-0.121c0.336-0.028,0.74-0.041,1.179-0.041
		c1.437,0,3.221,0.13,4.048,0.27c0.204,0.034,0.386,0.076,0.55,0.122c0.965,0.271,1.285,0.706,1.401,0.865l0.003,0.003
		C10.996,10.833,10.978,10.956,10.89,11.02 M12.533,11.077c-0.168-0.151-0.367-0.36-0.76-0.742c0,0-0.263-0.313-0.823-0.691
		c-0.178-0.119-0.384-0.245-0.622-0.37c-0.989-0.518-2.49-0.62-3.345-0.697C6.418,8.525,5.52,8.484,4.733,8.484
		c-0.402,0-0.776,0.011-1.061,0.037C3.469,8.54,3.129,8.583,2.737,8.684c-1.22,0.317-2.948,1.207-2.716,3.75
		c0.261,2.859,2.498,3.241,3.707,3.241c0.212,0,0.392-0.012,0.523-0.024c0.889-0.081,2.014-0.303,3.308-0.636
		s2.288-0.687,3.027-1.207c0.74-0.521,1.192-1.195,1.37-1.462c0.179-0.267,0.373-0.487,0.619-0.802S12.702,11.229,12.533,11.077"/>
	<path clip-path="url(#SVGID_2_)" fill="#FFFFFF" d="M16.034,12.894c-1.133,0.559-1.326,1.105-1.389,1.286l-0.002,0.003
		c-0.028,0.081-0.104,0.132-0.186,0.132c-0.021,0-0.043-0.004-0.064-0.012c-0.103-0.036-0.156-0.148-0.12-0.25l0.002-0.004
		c0.076-0.218,0.31-0.878,1.584-1.507c0.695-0.343,2.172-0.912,3.478-1.323c0.913-0.287,1.743-0.497,2.161-0.497
		c0.015,0,0.03,0,0.045,0c0.545,0.023,1.08,0.183,1.506,0.45c0.542,0.34,0.906,0.854,1.053,1.485
		c0.001,0.003,0.001,0.004,0.002,0.006c0.021,0.104-0.045,0.206-0.148,0.229c-0.015,0.004-0.03,0.006-0.045,0.006
		c-0.089,0-0.169-0.062-0.19-0.152c-0.267-1.147-1.307-1.596-2.193-1.633c-0.011,0-0.022,0-0.034,0c-0.328,0-1.016,0.168-1.81,0.41
		C18.389,11.919,16.811,12.511,16.034,12.894 M25.21,12.53c-0.482-2.368-2.223-2.813-3.475-2.813c-0.496,0-0.915,0.069-1.149,0.117
		c-0.494,0.101-1.241,0.326-1.932,0.561c-0.464,0.157-0.902,0.317-1.223,0.445c-0.796,0.319-2.204,0.849-3.003,1.63
		s-1.079,1.433-1.079,1.433c-0.266,0.479-0.396,0.735-0.514,0.929c-0.118,0.194-0.232,0.23,0.093,0.461
		c0.327,0.23,0.576,0.386,0.824,0.59s0.874,0.72,1.732,1.006c0.668,0.222,1.453,0.303,2.396,0.303c0.271,0,0.554-0.007,0.852-0.019
		c1.334-0.054,2.477-0.165,3.35-0.343c0.705-0.144,2.748-0.703,3.154-2.654C25.334,13.71,25.339,13.167,25.21,12.53"/>
</g>
</svg>
