<?xml version="1.0" encoding="utf-8"?>
<!-- Generator: Adobe Illustrator 16.0.0, SVG Export Plug-In . SVG Version: 6.00 Build 0)  -->
<!DOCTYPE svg PUBLIC "-//W3C//DTD SVG 1.1//EN" "http://www.w3.org/Graphics/SVG/1.1/DTD/svg11.dtd">
<svg version="1.1" id="Layer_1" xmlns="http://www.w3.org/2000/svg" xmlns:xlink="http://www.w3.org/1999/xlink" x="0px" y="0px"
	 width="29px" height="20.871px" viewBox="0 0 29 20.871" enable-background="new 0 0 29 20.871" xml:space="preserve">
<g>
	<defs>
		<rect id="SVGID_1_" width="29" height="20.871"/>
	</defs>
	<clipPath id="SVGID_2_">
		<use xlink:href="#SVGID_1_"  overflow="visible"/>
	</clipPath>
	<path clip-path="url(#SVGID_2_)" fill="#FFFFFF" d="M15.208,14.565c-0.123-0.205-0.304-0.354-0.269-0.717
		c-0.251-0.044-0.488,0.09-0.747,0.119c-0.699,0.08-1.438-0.083-2.062-0.149c-0.13,0.254-0.178,0.604-0.119,0.927
		c0.057,0.308,0.374,0.507,0.448,0.717c-0.714,0.131-0.547-0.802-0.926-1.076c0.018-0.221,0.073-0.404,0.06-0.656
		c-0.125,0.26-0.426,0.596-0.448,0.955c-0.017,0.272,0.156,0.438,0.239,0.688h-0.329c-0.052-0.168-0.062-0.246-0.06-0.479
		c0.004-0.262-0.137-0.596-0.119-0.807c0.016-0.19,0.198-0.355,0.209-0.537c0.013-0.204-0.116-0.45-0.18-0.657
		c-0.062-0.207-0.108-0.44-0.269-0.568c-0.064,0.913,0.176,1.8,0.06,2.569c-0.239-0.084-0.149-0.403-0.149-0.597
		c0-0.421-0.008-0.789-0.029-1.226c-0.032-0.642-0.199-1.3,0-1.673c0.958-0.319,2.196-0.03,3.495-0.09
		c0.636-0.028,1.353-0.029,1.733-0.119c0.185-0.043,0.331-0.203,0.537-0.149c0-0.149-0.155-0.27-0.06-0.418
		c0.15,0.009,0.223,0.096,0.358,0.119c0.182-0.146,0.246-0.411,0.627-0.358c-0.058,0.111-0.3,0.038-0.27,0.239
		c0.215,0.054,0.54-0.039,0.599-0.239c0.035,0.027-0.075,0.344,0.119,0.299c-0.068,0.192-0.245,0.197-0.269,0.388
		c-0.036,0.288,0.271,0.505,0.418,0.688c-0.082,0.297-0.485,0.324-0.688,0.119c-0.199,0.045-0.386-0.019-0.537,0.061
		c-0.368,0.19-0.208,0.886-0.358,1.345c-0.138,0.419-0.414,0.498-0.508,0.776c0.058,0.257-0.016,0.487,0.029,0.688
		c0.048,0.214,0.283,0.32,0.27,0.537c-0.049,0.045-0.15-0.025-0.27,0c-0.057-0.152-0.138-0.28-0.239-0.388
		c-0.016-0.193,0.035-0.453-0.029-0.598c-0.247,0.32-0.056,0.856,0.18,1.046C15.231,15.494,15.093,14.957,15.208,14.565
		 M15.706,16.303c-0.031-0.076-0.005-0.165,0.063-0.21l2.636-1.743V8.822c0.001-0.044,0.002-0.626-0.142-1.4
		c-0.199-1.068-0.566-1.957-1.09-2.642c-0.869-1.135-1.003-2.833-1.021-3.488c0.08-0.118,0.125-0.251,0.125-0.382
		c0-0.286-0.215-0.576-0.5-0.675L15.77,0.233L15.762,0.23C15.226,0.078,14.672,0,14.115,0c-0.558,0-1.111,0.078-1.647,0.23
		L12.46,0.233l-0.009,0.002c-0.285,0.099-0.5,0.389-0.5,0.674c0,0.131,0.045,0.265,0.126,0.382
		c-0.018,0.655-0.151,2.353-1.021,3.488c-0.523,0.685-0.891,1.574-1.089,2.642c-0.145,0.774-0.143,1.355-0.143,1.4v9.332
		c0,0.502,0.1,0.908,0.304,1.24c0.189,0.309,0.471,0.547,0.836,0.71c0.655,0.29,1.522,0.314,2.354,0.314
		c0.131,0,0.265,0,0.395-0.001c0.132,0,0.268-0.002,0.402-0.002c0.134,0,0.27,0.002,0.401,0.002c0.13,0.001,0.264,0.001,0.395,0.001
		c0.26,0,0.522-0.003,0.781-0.015v-0.947c0-0.064,0.036-0.123,0.093-0.152c0.025-0.014,0.053-0.02,0.08-0.02
		c0.034,0,0.069,0.01,0.099,0.031c0.155,0.107,0.335,0.165,0.521,0.165c0.518,0,0.939-0.442,0.939-0.984
		c0-0.543-0.422-0.984-0.939-0.984c-0.186,0-0.365,0.058-0.521,0.165c-0.029,0.021-0.063,0.031-0.099,0.031
		c-0.027,0-0.055-0.006-0.08-0.019c-0.057-0.03-0.093-0.09-0.093-0.153v-1.142"/>
	<path clip-path="url(#SVGID_2_)" fill="#FFFFFF" d="M20.512,13.438c0.228-0.129,0.464-0.193,0.661-0.193
		c0.199,0,0.359,0.065,0.433,0.196c0.147,0.26-0.104,0.681-0.562,0.939c-0.228,0.128-0.464,0.192-0.661,0.192
		c-0.199,0-0.359-0.065-0.434-0.196C19.803,14.117,20.054,13.695,20.512,13.438 M23.721,12.049c0.117-0.081,0.245-0.122,0.354-0.122
		c0.101,0,0.186,0.035,0.232,0.104c0.1,0.145-0.003,0.387-0.228,0.541c-0.118,0.081-0.245,0.122-0.355,0.122
		c-0.1,0-0.185-0.035-0.232-0.104C23.394,12.445,23.495,12.203,23.721,12.049 M20.975,15.128l4.745-1.029
		c-0.076-0.048-0.135-0.11-0.169-0.188c-0.136-0.309,0.156-0.735,0.651-0.953c0.192-0.084,0.388-0.124,0.561-0.124
		c0.275,0,0.499,0.101,0.582,0.29c0.09,0.204-0.009,0.459-0.228,0.672L29,13.387c0,0-1.563-2.045-5.545-2.169l-5.049,3.339
		l-2.501,1.653l2.501-0.534L20.975,15.128z"/>
	<path clip-path="url(#SVGID_2_)" fill="#FFFFFF" d="M23.454,15.356c0.616,0,1.115,0.492,1.115,1.1s-0.499,1.101-1.115,1.101
		s-1.115-0.493-1.115-1.101S22.838,15.356,23.454,15.356 M19.326,20.107c-0.583,0-1.056-0.468-1.064-1.048
		c0-0.006-0.001-0.012-0.001-0.018c0-0.177,0.044-0.344,0.121-0.491c0.178-0.341,0.533-0.573,0.944-0.573
		c0.588,0,1.064,0.477,1.064,1.064S19.914,20.107,19.326,20.107 M18.405,15.861l-2.504,0.544c-0.012,0.002-0.023,0.003-0.036,0.003
		v1.128c0.177-0.124,0.39-0.196,0.62-0.196c0.613,0,1.11,0.518,1.11,1.156s-0.497,1.157-1.11,1.157c-0.23,0-0.443-0.073-0.62-0.197
		v0.938v0.477l5.386-0.388c-0.005-0.022-0.008-0.044-0.01-0.066c-0.029-0.427,0.542-0.813,1.275-0.864
		c0.054-0.004,0.106-0.006,0.158-0.006c0.663,0,1.197,0.291,1.225,0.687c0.001,0.02,0.001,0.04,0,0.06L29,19.926V18.64
		c-0.015,0-0.03,0.001-0.046,0.001c-0.771,0-1.395-0.662-1.395-1.479s0.624-1.479,1.395-1.479c0.016,0,0.031,0.001,0.046,0.002
		v-2.093L20.994,15.3L18.405,15.861z"/>
</g>
<polygon fill="#FFFFFF" points="18.405,15.676 18.405,15.685 20.975,15.128 "/>
<g>
	<defs>
		<rect id="SVGID_3_" width="29" height="20.871"/>
	</defs>
	<clipPath id="SVGID_4_">
		<use xlink:href="#SVGID_3_"  overflow="visible"/>
	</clipPath>
	<path clip-path="url(#SVGID_4_)" fill="#FFFFFF" d="M18.382,18.551c-0.077,0.147-0.121,0.314-0.121,0.491
		c0,0.006,0.001,0.012,0.001,0.017"/>
	<path clip-path="url(#SVGID_4_)" fill="#FFFFFF" d="M1.361,15.045c0-0.084-0.047-0.168,0.214-0.112
		c0.262,0.056,2.667,0.634,3.067,0.718c0.401,0.084,0.634,0.131,0.886,0.131s0.438-0.047,0.765-0.112s1.296-0.389,1.463-0.45
		c0.168-0.062,0.225-0.043,0.225,0.129v4.209c0,0.224,0.046,0.513-0.327,0.718s-1.379,0.597-2.969,0.597
		c-1.589,0-2.745-0.336-3.137-0.689c-0.121-0.131-0.19-0.225-0.19-0.476C1.357,19.454,1.361,15.045,1.361,15.045"/>
	<path clip-path="url(#SVGID_4_)" fill="#FFFFFF" d="M8.949,13.694l-1.7-0.395l-0.008,0.02l-0.055,0.142l-0.139,0.361l-0.01,0.025
		c0.055,0.043,0.084,0.089,0.084,0.136c0,0.288-1.089,0.521-2.433,0.521s-2.434-0.233-2.434-0.521c0-0.289,1.09-0.522,2.434-0.522
		c0.312,0,0.608,0.013,0.883,0.036l0.015-0.039l0.119-0.314l0.07-0.186l-0.808-0.187c0,0-0.541-0.177-1.137-0.177
		c-0.24,0-0.551,0.009-0.84,0.102c-0.288,0.094-2.479,0.867-2.722,0.942C0.028,13.713,0,13.834,0,13.94s0.056,0.146,0.299,0.22
		c0.242,0.074,3.412,0.849,4.288,1.025c0.876,0.178,1.548,0.084,1.846,0s2.358-0.811,2.535-0.857
		c0.178-0.047,0.401-0.103,0.401-0.345S8.949,13.694,8.949,13.694"/>
	<path clip-path="url(#SVGID_4_)" fill="#FFFFFF" d="M7.102,13.266l1.103-2.872c0,0,0.232-0.562,0.232-0.708
		c0-0.363-0.335-0.597-0.615-0.597c-0.597,0-0.699,0.746-0.699,0.746l-1.199,3.157l-0.077,0.204l-0.119,0.314l-0.261,0.686
		c0.529-0.022,0.997-0.081,1.343-0.165l0.1-0.263l0.14-0.361L7.102,13.266z"/>
</g>
</svg>
