<?xml version="1.0" encoding="utf-8"?>
<!-- Generator: Adobe Illustrator 16.0.0, SVG Export Plug-In . SVG Version: 6.00 Build 0)  -->
<!DOCTYPE svg PUBLIC "-//W3C//DTD SVG 1.1//EN" "http://www.w3.org/Graphics/SVG/1.1/DTD/svg11.dtd">
<svg version="1.1" id="Layer_1" xmlns="http://www.w3.org/2000/svg" xmlns:xlink="http://www.w3.org/1999/xlink" x="0px" y="0px"
	 width="66px" height="46px" viewBox="0 0 66 46" enable-background="new 0 0 66 46" xml:space="preserve">
<path fill="#004C6C" d="M25.69,27.243l2.953-0.917l-0.002-0.002l5.222-1.618c0.949-0.958,1.933-1.952,2.907-2.937
	c1.586-1.598,3.147-3.175,4.482-4.524c0.84-0.846,1.505-1.764,2.009-2.723c2.094-3.985,1.332-8.657-1.955-11.737
	C37.229-1.034,30.749-0.91,26.831,3.064c-4.057-3.845-10.539-3.75-14.479,0.203c-3.178,3.189-3.776,7.883-1.546,11.795
	c0.542,0.94,1.235,1.837,2.104,2.655c1.382,1.306,2.998,2.827,4.637,4.37c2.287,2.154,4.618,4.354,6.456,6.087
	C24.479,27.74,25.047,27.408,25.69,27.243z"/>
<path fill="#004C6C" d="M54.258,23.235c-2.243-1.246-4.98-1.522-7.436-0.763l-12.19,3.777l-5.219,1.617l0.001,0.002l-2.953,0.918
	c-0.643,0.165-1.211,0.497-1.688,0.932c-0.372,0.341-0.691,0.742-0.915,1.209c-0.414,0.859-0.502,1.783-0.256,2.668
	c0.559,2.05,2.702,3.37,4.952,2.777l15.341-4.77c0.317-0.102,0.66,0.078,0.76,0.376c0.099,0.309-0.077,0.643-0.395,0.74
	l-14.885,4.638c-1.479,0.615-3.219,0.519-4.611-0.269c-2.348-1.327-3.234-4.218-2.02-6.579l0.244-0.476L6.052,22.95
	c-0.614-0.348-1.312-0.529-2.018-0.529c-1.436,0-2.774,0.752-3.493,1.96c-1.112,1.873-0.454,4.283,1.468,5.371L29.82,45.47
	c0.615,0.348,1.313,0.53,2.021,0.53c0.56,0,1.103-0.109,1.567-0.312l16.385-5.188c1.457-0.425,3.066-0.238,4.388,0.509l3.895,2.2
	l7.678-12.898L66,29.872L54.258,23.235z"/>
</svg>
