<?xml version="1.0" encoding="utf-8"?>
<!-- Generator: Adobe Illustrator 16.0.0, SVG Export Plug-In . SVG Version: 6.00 Build 0)  -->
<!DOCTYPE svg PUBLIC "-//W3C//DTD SVG 1.1//EN" "http://www.w3.org/Graphics/SVG/1.1/DTD/svg11.dtd">
<svg version="1.1" id="Layer_1" xmlns="http://www.w3.org/2000/svg" xmlns:xlink="http://www.w3.org/1999/xlink" x="0px" y="0px"
	 width="53.847px" height="50px" viewBox="0 0 53.847 50" enable-background="new 0 0 53.847 50" xml:space="preserve">
<g>
	<circle fill="#004C6C" cx="33.419" cy="3.102" r="3.102"/>
	<path fill="#004C6C" d="M44.464,31.237c-1.414,0-2.757,0.317-3.959,0.879l-1.828-3.237c0,0-0.224-0.221,0.271-0.994
		c0.3-0.469,0.749-1.707,1.199-1.745c0.451-0.038,1.185,0.106,1.427,0c0.468-0.207,0.649-0.905,0.675-1.614
		c0.034-0.904-0.074-1.348-0.188-1.427c-0.344-0.239-0.618-0.295-0.863-0.225c-0.569,0.165-1.988,0.767-1.988,0.767
		c-0.6,0.171-2.04,0.777-2.4,0.903c-0.366,0.126-0.863,0.394-1.089,0.582c-0.226,0.188,0.038,0.75,0.187,0.789
		c0.151,0.037,0.114,0.112,0.526-0.038c0.414-0.15,0.807-0.231,0.676,0.188c-0.15,0.478-0.297,0.907-0.514,1.364
		c-0.226,0.475-0.688,0.349-0.688,0.349l-6.229-0.131c-0.072-0.187-0.132-0.338-0.162-0.42c-0.301-0.801,1.351-0.95,2.852-1.551
		c1.501-0.6,4.813-1.636,6.13-2.276c1.277-0.621,1.975-1.375,1.975-2.627c0-0.257-0.649-5.149-1.199-8.206
		c-0.493-2.726-1.352-5.354-3.051-5.559c-2.062-0.249-2.805,0.655-2.805,0.655s-8.255,8.306-9.556,9.407
		c-0.874,0.806-1.198,1.149-1.669,1.852c-0.601,1,0.071,2.06,0.071,2.06l0.256,0.161c-1.657,0.024-3.663,0.058-3.911,0.081
		c-0.373,0.033-0.814,0.267-1.225,0.656c-0.386,0.367-0.577,0.944-0.628,1.762c-0.05,0.816,0.482,1.166,0.602,1.85
		c0.094,0.545,0.132,0.843,0.132,0.843s-0.151,0.206-0.428,0.74l-1.455,1.962l-1.702,2.793l-0.244,0.443
		c-1.284-0.662-2.738-1.038-4.279-1.038C4.209,31.236,0,35.444,0,40.618C0,45.792,4.209,50,9.382,50
		c5.174,0,9.381-4.208,9.381-9.382c0-2.935-1.355-5.56-3.474-7.282l0.017-0.028l1.352-1.978c0,0,7.559,6.536,9.37,7.978
		c-0.061,0.336-0.027,0.766,0.049,1.31c0.45,3.197,1.522,3.456,9.308,2.748c0.036-0.004,0.071-0.006,0.108-0.01
		C36.666,47.197,40.243,50,44.465,50c5.173,0,9.382-4.209,9.382-9.382S49.638,31.237,44.464,31.237z M17.112,40.619
		c0,4.263-3.469,7.731-7.731,7.731s-7.73-3.468-7.73-7.731c0-4.262,3.468-7.73,7.73-7.73c1.254,0,2.436,0.302,3.484,0.833
		l-0.187,0.338l-2.276,3.572l-1.021,1.381c0,0-0.868,0.331-1.13,0.726c-0.299,0.447-0.757,1.007-0.394,1.701
		c0.273,0.524,0.514,0.956,1.523,1.063c0.897,0.094,1.296-0.388,1.596-0.988c0.302-0.6,0.202-1.196,0.202-1.196l0.124-0.531
		l1.451-2.156l1.684-2.852C16.072,36.198,17.112,38.288,17.112,40.619z M18.858,23.154l1.001-0.011c0,0,1.977,0.14,2.577,0.09
		c0.601-0.05,1.838,0.114,2.232-0.038c0.331-0.126,0.187-0.833,0.123-1.588c0.274-0.173,0.672-0.456,1.226-0.928
		c0.601-0.701,2.139-2.227,2.915-2.954c0.194-0.182,1.656-1.651,2.42-1.562c0.256,0.03,0.679,1.172,1.258,2.248
		c0.523,1.178,0.632,1.835,0.632,1.835s-0.625,0.251-0.99,0.498c-0.354,0.236-4.278,1.876-6.54,2.781
		c-2.251,0.9-1.399,2.552-1.399,2.552c0.162,0.505,0.364,1.031,0.543,1.469c-0.002,0-1.669-0.005-2.182-0.029
		c-0.532-0.025-2.404-0.07-3.04-0.025c-0.699,0.05-0.571,0.12-0.356-0.348c0.23-0.502,0.207-0.901,0.157-1.651
		c-0.05-0.75-0.427-1.417-0.677-1.85C18.509,23.208,18.858,23.154,18.858,23.154z M28.015,38.162c0,0-8.957-7.931-9.107-7.981
		h-0.001l0.202-0.363l6.741,0.064l3.415,8.204c0,0-0.038,0.026-0.088,0.084c-0.381-0.006-0.721-0.001-1.025,0.019
		C28.207,38.137,28.015,38.162,28.015,38.162z M35.324,38.512c-1.094-0.057-2.041-0.117-2.875-0.17
		c0.329-0.352,0.702-0.738,1.044-1.082c0,0-0.2-0.777-0.649-1.8c-0.296-0.673-1.396-3.385-2.257-5.532l4.076,0.039l0.013-0.022
		c0.121,0.098,0.301,0.193,0.119,0.586c-0.3,0.651-0.47,0.775-0.93,1.532c-0.402,0.662-0.725,1.023-0.772,1.545
		c-0.022,0.251,0.561,1.174,0.836,1.485c0.271,0.302,0.402,0.43,0.854-0.395c0.45-0.826,1.313-2.247,1.65-2.721
		c0.375-0.526,0.524-0.881,0.713-0.732c0.188,0.15,0.714,0.976,0.939,1.351c0.044,0.074,0.201,0.362,0.427,0.776
		C36.94,34.666,35.797,36.461,35.324,38.512z M39.317,34.857c0.98,1.815,2.186,4.053,2.195,4.054c0,0,0,0,0.001,0
		c-1.339-0.152-2.891-0.233-4.511-0.315C37.401,37.133,38.218,35.841,39.317,34.857z M44.464,48.35
		c-3.344,0-6.197-2.135-7.272-5.113c5.702-0.298,8.899,0.484,8.66-2.3c-0.058-0.687-0.645-1.153-1.585-1.479
		c-0.042-0.091-0.103-0.211-0.178-0.37C43.563,38,42.023,34.81,42.023,34.81l-0.705-1.25c0.962-0.43,2.024-0.672,3.145-0.672
		c4.263,0,7.73,3.468,7.73,7.73C52.194,44.882,48.727,48.35,44.464,48.35z"/>
</g>
</svg>
