<?xml version="1.0" encoding="utf-8"?>
<!-- Generator: Adobe Illustrator 16.0.0, SVG Export Plug-In . SVG Version: 6.00 Build 0)  -->
<!DOCTYPE svg PUBLIC "-//W3C//DTD SVG 1.1//EN" "http://www.w3.org/Graphics/SVG/1.1/DTD/svg11.dtd">
<svg version="1.1" id="Layer_1" xmlns="http://www.w3.org/2000/svg" xmlns:xlink="http://www.w3.org/1999/xlink" x="0px" y="0px"
	 width="28px" height="35.643px" viewBox="0 0 28 35.643" enable-background="new 0 0 28 35.643" xml:space="preserve">
<g>
	<defs>
		<rect id="SVGID_1_" width="28" height="35.643"/>
	</defs>
	<clipPath id="SVGID_2_">
		<use xlink:href="#SVGID_1_"  overflow="visible"/>
	</clipPath>
	<path clip-path="url(#SVGID_2_)" fill="#FFFFFF" d="M14.339,21.51l-0.678,5.496l-0.83-5.059c0.525-0.036,1.033-0.189,1.484-0.449
		C14.323,21.502,14.331,21.506,14.339,21.51 M27.991,22.835c-0.102-1.185-1.118-2.078-2.365-2.078c-0.072,0-0.146,0.003-0.219,0.01
		c-0.237,0.02-0.472,0.075-0.697,0.164c-0.462-0.225-0.979-0.344-1.5-0.344c-0.102,0-0.203,0.005-0.305,0.014
		c-1.671,0.144-2.981,1.469-3.049,3.048c-0.778,0.328-1.479,0.811-2.095,1.438c-0.008-1.148,0.007-2.155,0.045-3.001
		c1.932-0.245,3.621-1.406,4.475-3.077c0.062,0.004,0.124,0.006,0.186,0.006c1.696,0,3.075-1.313,3.075-2.927
		c0-0.277-0.04-0.55-0.121-0.815c1.529-1.041,2.437-2.712,2.437-4.505c0-3.049-2.606-5.531-5.814-5.541
		c-0.512-0.949-1.531-1.563-2.654-1.593C18.855,1.518,16.843,0,14.533,0c-1.851,0-3.564,0.992-4.422,2.542
		C9.819,2.456,9.516,2.413,9.208,2.413c-1.201,0-2.271,0.65-2.778,1.671C5.963,3.951,5.48,3.884,4.992,3.884
		C2.239,3.884,0,6.011,0,8.626c0,1.334,0.586,2.595,1.616,3.492c-0.541,0.579-0.836,1.314-0.836,2.096
		c0,1.536,1.168,2.849,2.743,3.114c0.603,2.499,2.965,4.297,5.681,4.3c0.345,2.922,0.894,7.906,0.894,10.02v2.357
		c0,0.067,0.031,0.131,0.084,0.173c0.075,0.06,1.861,1.464,4.132,1.464c2.288,0,3.681-1.423,3.738-1.483
		c0.044-0.045,0.065-0.105,0.062-0.169c-0.001-0.013-0.09-1.328-0.178-3.156c0.039-0.721,0.283-2.475,1.713-3.425
		c0.434-0.289,0.976-0.645,1.611-1.06c0.556,0.372,1.204,0.567,1.888,0.567c0.09,0,0.181-0.003,0.27-0.011
		c0.452,0.503,1.102,0.79,1.802,0.79c0.072,0,0.146-0.004,0.218-0.01c1.317-0.114,2.301-1.228,2.192-2.481
		c-0.021-0.248-0.084-0.488-0.187-0.714C27.844,24.028,28.044,23.433,27.991,22.835"/>
</g>
</svg>
