<?xml version="1.0" encoding="utf-8"?>
<!-- Generator: Adobe Illustrator 16.0.0, SVG Export Plug-In . SVG Version: 6.00 Build 0)  -->
<!DOCTYPE svg PUBLIC "-//W3C//DTD SVG 1.1//EN" "http://www.w3.org/Graphics/SVG/1.1/DTD/svg11.dtd">
<svg version="1.1" id="Layer_1" xmlns="http://www.w3.org/2000/svg" xmlns:xlink="http://www.w3.org/1999/xlink" x="0px" y="0px"
	 width="74.001px" height="51.564px" viewBox="0 0 74.001 51.564" enable-background="new 0 0 74.001 51.564" xml:space="preserve">
<g>
	<path fill="#004C6C" d="M1.686,20.597c1.282-1.921,3.228-3.443,5.828-4.567c3.414-1.481,6.608-1.894,9.571-1.24
		c2.969,0.653,5.145,2.586,6.534,5.788c0.848,1.964,1.074,3.834,0.676,5.601c-0.216,1.065-0.866,2.585-1.942,4.56l-1.064,1.938
		c-0.584,1.062-0.817,2.105-0.709,3.136c0.063,0.652,0.354,1.586,0.861,2.804l-6.146,2.66c-1.014-2.593-1.535-4.464-1.567-5.606
		c-0.026-1.146,0.492-2.703,1.574-4.68l1.09-2.007c0.361-0.642,0.605-1.276,0.73-1.904c0.237-1.092,0.146-2.137-0.284-3.136
		c-0.494-1.148-1.286-2.049-2.363-2.703c-1.083-0.656-2.516-0.597-4.292,0.174c-1.749,0.758-2.736,1.877-2.966,3.358
		c-0.225,1.478-0.065,2.847,0.476,4.1l-6.552,2.837C-0.544,27.324-0.361,23.62,1.686,20.597z M16.483,44.45l6.775-2.937l2.839,6.554
		l-6.78,2.936L16.483,44.45z"/>
</g>
<g>
	<path fill="#004C6C" d="M28.81,1.831c1.951-1.238,4.346-1.849,7.178-1.83c3.722,0.024,6.809,0.934,9.257,2.73
		c2.455,1.794,3.667,4.437,3.639,7.932c-0.011,2.139-0.561,3.939-1.635,5.398c-0.633,0.884-1.836,2.013-3.617,3.383l-1.76,1.346
		c-0.959,0.737-1.596,1.598-1.912,2.584c-0.204,0.624-0.315,1.596-0.342,2.913l-6.693-0.043c0.115-2.783,0.391-4.705,0.824-5.766
		c0.436-1.058,1.544-2.275,3.325-3.643l1.807-1.397c0.594-0.442,1.073-0.925,1.441-1.449c0.66-0.902,0.996-1.896,1.005-2.984
		c0.007-1.251-0.353-2.394-1.074-3.427c-0.725-1.037-2.059-1.558-3.994-1.571c-1.91-0.013-3.265,0.61-4.071,1.875
		c-0.804,1.262-1.212,2.576-1.221,3.942l-7.14-0.046C24.057,7.085,25.714,3.771,28.81,1.831z M32.728,29.627l7.385,0.049
		l-0.051,7.139l-7.382-0.048L32.728,29.627z"/>
</g>
<g>
	<path fill="#004C6C" d="M57.379,14.842c2.259-0.503,4.716-0.262,7.369,0.723c3.493,1.293,6.085,3.203,7.772,5.724
		c1.689,2.521,1.937,5.423,0.722,8.696c-0.741,2.01-1.87,3.517-3.379,4.517c-0.898,0.618-2.416,1.268-4.562,1.948l-2.108,0.668
		c-1.15,0.363-2.045,0.958-2.677,1.775c-0.401,0.517-0.844,1.393-1.319,2.622l-6.276-2.323c1.062-2.577,1.979-4.291,2.738-5.14
		c0.773-0.846,2.228-1.611,4.371-2.292l2.174-0.696c0.711-0.213,1.33-0.501,1.851-0.869c0.929-0.625,1.585-1.444,1.96-2.464
		c0.437-1.172,0.486-2.373,0.162-3.589c-0.334-1.221-1.404-2.164-3.221-2.838c-1.79-0.666-3.276-0.537-4.47,0.375
		c-1.179,0.916-2.01,2.01-2.485,3.295l-6.697-2.481C51.117,18.159,53.808,15.609,57.379,14.842z M51.58,42.304l6.931,2.566
		l-2.477,6.694l-6.931-2.563L51.58,42.304z"/>
</g>
</svg>
