<?xml version="1.0" encoding="utf-8"?>
<!-- Generator: Adobe Illustrator 16.0.0, SVG Export Plug-In . SVG Version: 6.00 Build 0)  -->
<!DOCTYPE svg PUBLIC "-//W3C//DTD SVG 1.1//EN" "http://www.w3.org/Graphics/SVG/1.1/DTD/svg11.dtd">
<svg version="1.1" id="Layer_1" xmlns="http://www.w3.org/2000/svg" xmlns:xlink="http://www.w3.org/1999/xlink" x="0px" y="0px"
	 width="71.024px" height="45px" viewBox="0 0 71.024 45" enable-background="new 0 0 71.024 45" xml:space="preserve">
<path fill="#004C6C" d="M29.445,3.027l-5.702,2.579l2.021,1.45l-3.146,4.397c-1.995-0.884-4.195-1.383-6.517-1.383
	C7.209,10.071,0,17.279,0,26.172c0,8.894,7.209,16.103,16.102,16.103c8.895,0,16.105-7.207,16.105-16.103
	c0-3.952-1.43-7.567-3.795-10.371l3.246-4.521l2.252,1.616l0.616-6.229l0.61-6.221L29.445,3.027z M16.102,38.37
	c-6.734,0-12.195-5.463-12.195-12.198c0-6.733,5.461-12.194,12.195-12.194s12.195,5.461,12.195,12.194
	C28.297,32.907,22.836,38.37,16.102,38.37z"/>
<path fill="#004C6C" d="M71.024,16.102C71.024,7.209,63.815,0,54.921,0c-8.893,0-16.102,7.209-16.102,16.102
	c0,8.119,6.015,14.816,13.829,15.923v4.018h-4.45v4.514h4.45V45h4.512v-4.444h4.444v-4.514H57.16v-4.013
	C64.991,30.938,71.024,24.235,71.024,16.102z M42.726,16.102c0-6.733,5.461-12.194,12.195-12.194
	c6.733,0,12.194,5.461,12.194,12.194s-5.461,12.197-12.194,12.197C48.187,28.299,42.726,22.835,42.726,16.102z"/>
</svg>
