<?xml version="1.0" encoding="utf-8"?>
<!-- Generator: Adobe Illustrator 16.0.0, SVG Export Plug-In . SVG Version: 6.00 Build 0)  -->
<!DOCTYPE svg PUBLIC "-//W3C//DTD SVG 1.1//EN" "http://www.w3.org/Graphics/SVG/1.1/DTD/svg11.dtd">
<svg version="1.1" id="Layer_1" xmlns="http://www.w3.org/2000/svg" xmlns:xlink="http://www.w3.org/1999/xlink" x="0px" y="0px"
	 width="58px" height="50px" viewBox="0 0 58 50" enable-background="new 0 0 58 50" xml:space="preserve">
<path fill="#004C6C" d="M35.96,21.268c-0.183-0.262-0.469-0.434-0.79-0.475c-1.615-0.203-2.832-1.547-2.832-3.125
	c0-1.58,1.217-2.924,2.832-3.126c0.321-0.041,0.607-0.214,0.79-0.475c0.183-0.262,0.241-0.586,0.161-0.894
	c-0.438-1.687-1.123-3.301-2.033-4.796c-0.166-0.272-0.441-0.462-0.759-0.521c-0.321-0.059-0.648,0.017-0.905,0.211
	c-1.245,0.94-3.147,0.835-4.262-0.254c-1.145-1.117-1.255-2.908-0.261-4.168c0.197-0.248,0.276-0.57,0.217-0.881
	c-0.062-0.309-0.256-0.581-0.533-0.744c-1.527-0.887-3.178-1.555-4.908-1.986c-0.316-0.078-0.646-0.02-0.914,0.156
	c-0.269,0.179-0.444,0.46-0.486,0.773c-0.208,1.577-1.584,2.767-3.198,2.767c-1.618,0-2.991-1.189-3.198-2.767
	c-0.043-0.313-0.22-0.594-0.485-0.773c-0.269-0.176-0.6-0.232-0.915-0.156c-1.731,0.431-3.384,1.099-4.91,1.986
	C8.29,2.183,8.097,2.454,8.038,2.763C7.977,3.074,8.056,3.396,8.254,3.644c0.995,1.26,0.883,3.051-0.259,4.169
	C6.881,8.9,4.979,9.009,3.729,8.066C3.474,7.873,3.146,7.799,2.828,7.855c-0.32,0.058-0.595,0.248-0.762,0.521
	c-0.912,1.497-1.596,3.112-2.031,4.798c-0.081,0.307-0.021,0.631,0.16,0.892c0.182,0.261,0.47,0.435,0.79,0.475
	c1.615,0.202,2.832,1.547,2.832,3.126c0,1.579-1.217,2.923-2.832,3.125c-0.32,0.041-0.608,0.212-0.79,0.473
	c-0.182,0.262-0.241,0.588-0.16,0.894c0.436,1.688,1.121,3.302,2.031,4.798c0.167,0.272,0.441,0.462,0.762,0.522
	c0.314,0.055,0.646-0.02,0.9-0.211c1.253-0.941,3.154-0.834,4.265,0.252c1.144,1.118,1.256,2.909,0.261,4.169
	c-0.198,0.25-0.276,0.572-0.216,0.882s0.255,0.58,0.532,0.742c1.528,0.888,3.18,1.556,4.909,1.987
	c0.091,0.021,0.186,0.033,0.279,0.033c0.224,0,0.445-0.065,0.636-0.191c0.266-0.178,0.442-0.46,0.485-0.773
	c0.207-1.577,1.58-2.768,3.198-2.768c1.614,0,2.99,1.19,3.198,2.768c0.042,0.314,0.218,0.596,0.486,0.773
	c0.268,0.178,0.598,0.234,0.914,0.158c1.729-0.432,3.379-1.1,4.907-1.987c0.277-0.163,0.472-0.432,0.531-0.742
	c0.062-0.311-0.017-0.631-0.214-0.881c-0.994-1.262-0.882-3.053,0.261-4.168c1.115-1.089,3.014-1.195,4.264-0.254
	c0.255,0.194,0.585,0.27,0.903,0.211c0.317-0.06,0.593-0.25,0.759-0.522c0.91-1.496,1.595-3.109,2.033-4.798
	C36.201,21.854,36.143,21.528,35.96,21.268z M18.078,25.99c-4.696,0-8.518-3.732-8.518-8.322c0-4.589,3.821-8.325,8.518-8.325
	s8.518,3.735,8.518,8.325C26.596,22.257,22.774,25.99,18.078,25.99z M18.078,20.653c-1.686,0-3.057-1.339-3.057-2.987
	c0-1.647,1.371-2.987,3.057-2.987c1.685,0,3.056,1.34,3.056,2.987C21.134,19.314,19.763,20.653,18.078,20.653z"/>
<path fill="#004C6C" d="M57.848,39.111c-0.142-0.204-0.363-0.337-0.611-0.368c-1.25-0.157-2.192-1.198-2.192-2.419
	c0-1.223,0.942-2.264,2.192-2.42c0.248-0.031,0.47-0.166,0.611-0.368c0.142-0.203,0.188-0.454,0.125-0.691
	c-0.34-1.306-0.87-2.556-1.574-3.713c-0.128-0.211-0.342-0.358-0.587-0.403c-0.249-0.045-0.502,0.013-0.701,0.164
	c-0.964,0.727-2.438,0.646-3.299-0.197c-0.887-0.864-0.972-2.25-0.201-3.226c0.151-0.192,0.214-0.441,0.167-0.682
	c-0.047-0.239-0.197-0.449-0.413-0.576c-1.183-0.687-2.459-1.204-3.799-1.537c-0.245-0.06-0.501-0.016-0.708,0.121
	c-0.207,0.139-0.344,0.356-0.376,0.599c-0.161,1.221-1.227,2.142-2.476,2.142c-1.253,0-2.315-0.921-2.476-2.142
	c-0.033-0.243-0.171-0.46-0.377-0.599c-0.208-0.137-0.464-0.18-0.708-0.121c-1.341,0.333-2.619,0.85-3.801,1.537
	c-0.216,0.126-0.365,0.336-0.411,0.576c-0.048,0.241,0.014,0.49,0.167,0.682c0.771,0.976,0.684,2.362-0.2,3.228
	c-0.862,0.841-2.334,0.925-3.302,0.196c-0.198-0.15-0.453-0.207-0.698-0.164c-0.247,0.045-0.46,0.192-0.589,0.403
	c-0.706,1.159-1.235,2.41-1.573,3.714c-0.062,0.237-0.016,0.488,0.125,0.69c0.14,0.202,0.363,0.336,0.611,0.368
	c1.25,0.157,2.192,1.197,2.192,2.42c0,1.222-0.942,2.263-2.192,2.419c-0.248,0.031-0.472,0.164-0.611,0.366
	c-0.141,0.203-0.188,0.455-0.125,0.692c0.338,1.307,0.868,2.556,1.573,3.714c0.129,0.211,0.342,0.358,0.589,0.404
	c0.243,0.042,0.5-0.015,0.697-0.164c0.97-0.729,2.442-0.646,3.301,0.195c0.886,0.865,0.973,2.252,0.202,3.228
	c-0.153,0.193-0.214,0.442-0.167,0.683c0.047,0.24,0.197,0.448,0.412,0.574c1.183,0.687,2.462,1.204,3.8,1.538
	C40.516,49.991,40.59,50,40.661,50c0.174,0,0.346-0.051,0.492-0.148c0.206-0.139,0.344-0.356,0.377-0.599
	c0.16-1.221,1.223-2.142,2.476-2.142c1.249,0,2.314,0.921,2.476,2.142c0.032,0.244,0.169,0.462,0.376,0.599
	c0.207,0.138,0.463,0.181,0.708,0.122c1.338-0.334,2.615-0.851,3.799-1.538c0.214-0.126,0.364-0.334,0.411-0.574
	c0.047-0.241-0.014-0.489-0.165-0.682c-0.771-0.977-0.684-2.363,0.201-3.227c0.863-0.843,2.333-0.925,3.3-0.197
	c0.198,0.15,0.453,0.209,0.7,0.164c0.245-0.046,0.459-0.193,0.587-0.404c0.704-1.158,1.234-2.406,1.574-3.714
	C58.035,39.564,57.989,39.312,57.848,39.111z M44.006,42.766c-3.636,0-6.594-2.889-6.594-6.442c0-3.553,2.958-6.444,6.594-6.444
	c3.635,0,6.593,2.892,6.593,6.444C50.599,39.877,47.641,42.766,44.006,42.766z M44.006,38.635c-1.306,0-2.366-1.037-2.366-2.312
	c0-1.275,1.061-2.312,2.366-2.312c1.304,0,2.365,1.038,2.365,2.312C46.371,37.598,45.31,38.635,44.006,38.635z"/>
</svg>
