<?xml version="1.0" encoding="utf-8"?>
<!-- Generator: Adobe Illustrator 16.0.0, SVG Export Plug-In . SVG Version: 6.00 Build 0)  -->
<!DOCTYPE svg PUBLIC "-//W3C//DTD SVG 1.1//EN" "http://www.w3.org/Graphics/SVG/1.1/DTD/svg11.dtd">
<svg version="1.1" id="Layer_1" xmlns="http://www.w3.org/2000/svg" xmlns:xlink="http://www.w3.org/1999/xlink" x="0px" y="0px"
	 width="70px" height="65px" viewBox="60.575 51.828 70 65" enable-background="new 60.575 51.828 70 65" xml:space="preserve">
<path fill="#DB1F33" d="M93.18,55.898c0,0,0.506,8.547-1.687,13.215s-4.4,6.388-4.4,6.388s-3.606-4.744-5.862-5.693
	c2.172,0.717,4.576,2.235,5.736,3.248c0.822-0.696,3.037-3.725,4.048-7.355C92.028,62.068,93.18,55.898,93.18,55.898z"/>
<path fill="#DB1F33" d="M76.907,68.037c0,0,5.167,3.142,7.549,7.464c2.383,4.323,2.488,6.326,2.488,7.802s-0.569,4.09-1.413,5.419
	c-0.379-0.97-4.175-6.411-7.085-8.055c-0.021,0.316,1.476,2.572,1.476,6.094c-0.801-0.485-6.516-2.636-7.486-2.763
	c0.548,0.506,2.341,3.458,2.341,4.723c-0.527-0.99-3.5-4.639-5.862-5.608c0.485-0.148,5.061-0.506,9.911,1.96
	c0.084-0.716-0.548-4.28-2.741-6.494c1.097,0.295,6.115,3.922,7.823,6.137c0.169-0.886-0.422-5.925-1.708-8.92
	C80.914,72.801,79.396,70.419,76.907,68.037z"/>
<path fill="#DB1F33" d="M68.789,92.497c0,0,2.995-1.645,6.664-2.34c-1.181,0.526-2.351,1.254-2.878,1.939
	c0.2-0.031,8.045,0.738,8.045,4.702c0,1.667-1.993,2.299-1.993,2.299s0.496-0.538,0.496-1.455s-0.464-2.667-2.204-3.543
	c-1.74-0.875-2.952-1.286-4.555-1.466C70.761,92.455,68.789,92.497,68.789,92.497z"/>
<path fill="#DB1F33" d="M93.961,55.898c0,0-0.505,8.547,1.688,13.215s4.4,6.389,4.4,6.389s3.606-4.744,5.862-5.693
	c-2.172,0.717-4.576,2.235-5.736,3.247c-0.822-0.695-3.036-3.724-4.049-7.355C95.115,62.069,93.961,55.898,93.961,55.898z"/>
<path fill="#DB1F33" d="M110.234,68.037c0,0-5.166,3.142-7.549,7.464c-2.383,4.323-2.488,6.326-2.488,7.802s0.57,4.09,1.413,5.419
	c0.38-0.97,4.175-6.411,7.085-8.055c0.021,0.316-1.476,2.572-1.476,6.094c0.802-0.485,6.516-2.636,7.485-2.763
	c-0.548,0.506-2.34,3.458-2.34,4.723c0.526-0.99,3.5-4.639,5.861-5.608c-0.484-0.148-5.061-0.506-9.91,1.96
	c-0.084-0.716,0.548-4.28,2.741-6.494c-1.097,0.295-6.115,3.922-7.823,6.137c-0.17-0.886,0.422-5.925,1.707-8.92
	C106.228,72.801,107.745,70.419,110.234,68.037z"/>
<path fill="#DB1F33" d="M118.353,92.497c0,0-2.994-1.645-6.664-2.34c1.182,0.526,2.352,1.254,2.879,1.939
	c-0.201-0.031-8.045,0.738-8.045,4.702c0,1.667,1.992,2.299,1.992,2.299s-0.495-0.538-0.495-1.455s0.464-2.667,2.203-3.542
	c1.739-0.876,2.952-1.287,4.555-1.467C116.38,92.455,118.353,92.497,118.353,92.497z"/>
<path fill="#0D553D" d="M91.24,97.2c0,0,0.577,1.939,0.801,3.191c0.225,1.251,0.661,3.064,0.661,4.582c0,1.52,0,2.123,0,2.123
	s-1.012-2.516-1.827-3.135c0.325,0.08,0.768,0.123,0.914,0.112c0.155-0.011-1.221-0.563-1.314-1.589
	C90.385,101.501,90.312,99.772,91.24,97.2z"/>
<path fill="#0D553D" d="M94.698,111.989c0,0,0.88-5.426,0.96-7.577s0.192-5.919-0.116-7.212c-0.31-1.293-1.49-3.88-2.461-5.37
	c-0.97-1.49-3.584-5.497-3.908-7.535c-0.323-2.039-0.464-2.362-0.464-2.362s0.057,4.077,0.801,6.847
	c0.746,2.77,1.547,5.243,2.334,7.281c0.787,2.038,1.518,4.639,1.855,6.776C94.038,104.975,94.698,108.053,94.698,111.989z"/>
<path fill="#0D553D" d="M95.471,95.386c0,0-0.661-2.207-0.661-3.106s0.085-1.532,0.577-2.446s1.969-3.689,2.165-4.418
	c0.197-0.728,0.479-1.557,0.479-1.557s-0.154,1.841-0.83,4.288c-0.674,2.445-1.012,3.443-1.265,4.652S95.471,95.147,95.471,95.386z"
	/>
<path fill="#0D553D" d="M94.923,87.724c0,0.535-0.407,1.898-1.363,1.898s-1.251-1.012-1.251-1.533c0-0.504,0.239-1.953,1.505-1.953
	C95.078,86.136,94.923,87.724,94.923,87.724z"/>
<polygon fill="#0D553D" points="98.142,83.043 98.1,83.124 97.96,83.156 98.073,83.187 98.031,83.254 98.138,83.182 98.227,83.219 
	98.205,83.149 98.255,83.119 98.179,83.092 "/>
<polygon fill="#0D553D" points="98.171,81.539 98.031,81.778 97.72,81.778 97.89,81.933 97.72,82.158 98.107,82.074 98.339,82.158 
	98.255,81.933 98.48,81.849 98.255,81.792 "/>
<polygon fill="#0D553D" points="97.313,79.346 97.313,79.81 96.75,79.866 97.313,80.176 97.313,80.696 97.72,80.288 98.339,80.373 
	98.031,79.951 98.255,79.684 97.622,79.698 "/>
<polygon fill="#0D553D" points="96.863,76.914 96.581,77.533 95.823,77.688 96.174,78.011 96.146,78.713 96.863,78.208 
	97.425,78.379 97.298,77.814 97.72,77.392 97.102,77.406 "/>
<polygon fill="#0D553D" points="95.345,76.914 95.161,75.986 95.823,75.283 94.642,75.283 94.29,74.468 93.738,75.467 
	92.674,75.818 93.231,76.169 93.231,77.294 94.332,76.562 "/>
<polygon fill="#0D553D" points="91.338,75.804 91.423,76.295 92.041,76.478 91.437,76.746 91.423,77.378 90.86,76.914 
	90.059,77.055 90.382,76.408 90.143,76.057 90.874,76.071 "/>
<polygon fill="#0D553D" points="89.427,77.561 89.244,77.919 88.709,78.081 89.124,78.278 89.068,78.713 89.482,78.379 
	89.904,78.517 89.75,78.137 89.989,77.898 89.602,77.891 "/>
<polygon fill="#0D553D" points="88.709,79.515 88.745,79.796 88.512,80.021 88.752,80.021 88.871,80.246 89.033,79.916 
	89.349,79.916 89.132,79.726 89.159,79.458 88.931,79.627 "/>
<g>
	<path fill="#131313" stroke="#131313" stroke-width="0.25" stroke-miterlimit="10" d="M66.116,103.364
		c-0.134,0.181-0.29,0.311-0.466,0.39c-0.176,0.079-0.367,0.119-0.572,0.119c-0.213,0-0.409-0.036-0.586-0.108
		c-0.177-0.072-0.329-0.174-0.456-0.305c-0.126-0.129-0.225-0.285-0.296-0.465c-0.071-0.18-0.106-0.377-0.106-0.59
		s0.036-0.41,0.106-0.588c0.071-0.18,0.17-0.334,0.296-0.465c0.126-0.129,0.278-0.231,0.456-0.305
		c0.178-0.074,0.373-0.111,0.586-0.111c0.189,0,0.366,0.034,0.53,0.102c0.165,0.066,0.309,0.18,0.432,0.337l-0.213,0.178
		c-0.087-0.132-0.198-0.228-0.333-0.288s-0.274-0.091-0.416-0.091c-0.182,0-0.345,0.032-0.492,0.095
		c-0.146,0.062-0.27,0.15-0.373,0.26c-0.103,0.111-0.181,0.241-0.237,0.391c-0.055,0.15-0.083,0.312-0.083,0.485
		c0,0.174,0.027,0.335,0.083,0.485c0.055,0.15,0.134,0.28,0.236,0.391c0.104,0.11,0.228,0.197,0.373,0.26
		c0.146,0.064,0.31,0.096,0.492,0.096c0.071,0,0.145-0.009,0.221-0.025c0.076-0.018,0.15-0.044,0.223-0.08
		c0.072-0.035,0.141-0.08,0.207-0.133c0.066-0.055,0.124-0.119,0.174-0.195L66.116,103.364z"/>
	<path fill="#131313" stroke="#131313" stroke-width="0.25" stroke-miterlimit="10" d="M67.45,101.008h0.268l1.176,2.794h-0.292
		l-0.304-0.742h-1.479l-0.316,0.742h-0.272L67.45,101.008z M67.573,101.292l-0.651,1.531h1.283L67.573,101.292z"/>
	<path fill="#131313" stroke="#131313" stroke-width="0.25" stroke-miterlimit="10" d="M69.298,101.008h0.335l1.701,2.446h0.007
		v-2.446h0.26v2.794h-0.335l-1.701-2.447h-0.008v2.447h-0.26V101.008L69.298,101.008z"/>
	<path fill="#131313" stroke="#131313" stroke-width="0.25" stroke-miterlimit="10" d="M73.223,101.008h0.269l1.176,2.794h-0.292
		l-0.303-0.742h-1.48l-0.316,0.742h-0.272L73.223,101.008z M73.346,101.292l-0.651,1.531h1.282L73.346,101.292z"/>
	<path fill="#131313" stroke="#131313" stroke-width="0.25" stroke-miterlimit="10" d="M74.937,101.008h0.864
		c0.242,0,0.448,0.03,0.616,0.089c0.168,0.06,0.308,0.135,0.42,0.227c0.112,0.092,0.201,0.194,0.265,0.307
		c0.064,0.111,0.112,0.219,0.142,0.321s0.049,0.194,0.057,0.278c0.008,0.082,0.012,0.141,0.012,0.176
		c0,0.033-0.004,0.092-0.012,0.176c-0.007,0.082-0.027,0.176-0.057,0.277c-0.03,0.104-0.077,0.21-0.142,0.322
		c-0.064,0.111-0.152,0.213-0.265,0.306c-0.112,0.091-0.251,0.167-0.42,0.228c-0.168,0.059-0.374,0.088-0.616,0.088h-0.864V101.008z
		 M75.197,103.564h0.537c0.184,0,0.356-0.022,0.517-0.068s0.3-0.116,0.418-0.212c0.119-0.094,0.212-0.215,0.28-0.36
		c0.069-0.146,0.103-0.319,0.103-0.519c0-0.201-0.034-0.373-0.103-0.52c-0.068-0.146-0.161-0.267-0.28-0.361
		c-0.119-0.094-0.258-0.164-0.418-0.211c-0.161-0.045-0.333-0.068-0.517-0.068h-0.537V103.564z"/>
	<path fill="#131313" stroke="#131313" stroke-width="0.25" stroke-miterlimit="10" d="M77.798,101.008h0.26v2.794h-0.26V101.008z"
		/>
	<path fill="#131313" stroke="#131313" stroke-width="0.25" stroke-miterlimit="10" d="M79.582,101.008h0.269l1.175,2.794h-0.292
		l-0.304-0.742h-1.48l-0.316,0.742h-0.272L79.582,101.008z M79.703,101.292l-0.651,1.531h1.282L79.703,101.292z"/>
	<path fill="#131313" stroke="#131313" stroke-width="0.25" stroke-miterlimit="10" d="M81.33,101.008h0.335l1.701,2.446h0.008
		v-2.446h0.261v2.794h-0.335l-1.701-2.447h-0.007v2.447H81.33V101.008z"/>
	<path fill="#131313" stroke="#131313" stroke-width="0.25" stroke-miterlimit="10" d="M64.436,105.688H63.48v-0.238h2.171v0.238
		h-0.955v2.557h-0.26V105.688z"/>
	<path fill="#131313" stroke="#131313" stroke-width="0.25" stroke-miterlimit="10" d="M66.14,105.45h0.734
		c0.036,0,0.086,0.002,0.149,0.005c0.063,0.003,0.132,0.011,0.205,0.023c0.073,0.013,0.149,0.034,0.225,0.063
		c0.077,0.028,0.145,0.07,0.205,0.126c0.061,0.056,0.11,0.125,0.15,0.209c0.04,0.085,0.059,0.187,0.059,0.308
		c0,0.135-0.022,0.245-0.069,0.332c-0.046,0.086-0.104,0.157-0.174,0.211c-0.07,0.054-0.146,0.094-0.231,0.12
		s-0.165,0.045-0.241,0.056l0.812,1.342H67.67l-0.785-1.326h-0.484v1.326H66.14V105.45z M66.401,106.683h0.552
		c0.137,0,0.248-0.018,0.333-0.052s0.152-0.077,0.2-0.126c0.048-0.05,0.079-0.104,0.096-0.162c0.018-0.058,0.026-0.111,0.026-0.158
		s-0.008-0.1-0.026-0.157c-0.017-0.058-0.049-0.112-0.096-0.161c-0.047-0.051-0.114-0.093-0.2-0.127s-0.196-0.051-0.333-0.051
		h-0.552V106.683z"/>
	<path fill="#131313" stroke="#131313" stroke-width="0.25" stroke-miterlimit="10" d="M69.396,105.45h0.269l1.176,2.795h-0.292
		l-0.304-0.742h-1.48l-0.316,0.742h-0.272L69.396,105.45z M69.518,105.735l-0.651,1.531h1.283L69.518,105.735z"/>
	<path fill="#131313" stroke="#131313" stroke-width="0.25" stroke-miterlimit="10" d="M71.302,105.45h0.335l1.701,2.447h0.008
		v-2.447h0.26v2.795h-0.335l-1.701-2.447h-0.008v2.447h-0.26V105.45z"/>
	<path fill="#131313" stroke="#131313" stroke-width="0.25" stroke-miterlimit="10" d="M74.507,107.728
		c0.068,0.119,0.157,0.207,0.266,0.265c0.109,0.058,0.233,0.087,0.373,0.087c0.087,0,0.168-0.014,0.245-0.039
		c0.077-0.027,0.144-0.063,0.2-0.111c0.057-0.047,0.101-0.104,0.134-0.171c0.033-0.067,0.049-0.144,0.049-0.228
		c0-0.097-0.021-0.178-0.062-0.24c-0.041-0.063-0.095-0.115-0.163-0.156s-0.146-0.076-0.231-0.104
		c-0.085-0.029-0.173-0.058-0.265-0.087c-0.09-0.029-0.178-0.062-0.264-0.099c-0.086-0.037-0.163-0.085-0.231-0.145
		c-0.068-0.06-0.123-0.134-0.163-0.223c-0.041-0.089-0.062-0.2-0.062-0.331c0-0.123,0.024-0.234,0.073-0.33
		c0.049-0.096,0.115-0.176,0.197-0.24c0.083-0.064,0.178-0.113,0.287-0.146c0.107-0.033,0.221-0.049,0.34-0.049
		c0.152,0,0.293,0.026,0.424,0.08c0.13,0.055,0.243,0.145,0.337,0.271l-0.225,0.161c-0.066-0.092-0.143-0.16-0.23-0.207
		c-0.089-0.045-0.193-0.068-0.314-0.068c-0.084,0-0.165,0.012-0.241,0.033c-0.076,0.022-0.143,0.056-0.199,0.1
		c-0.057,0.043-0.102,0.098-0.136,0.162c-0.034,0.066-0.051,0.145-0.051,0.234c0,0.139,0.035,0.246,0.106,0.32
		c0.071,0.076,0.161,0.135,0.267,0.178c0.106,0.044,0.222,0.082,0.347,0.115s0.241,0.077,0.348,0.133
		c0.106,0.055,0.195,0.132,0.266,0.23s0.106,0.234,0.106,0.408c0,0.127-0.023,0.238-0.071,0.336
		c-0.047,0.098-0.111,0.179-0.191,0.246c-0.081,0.066-0.173,0.117-0.278,0.152c-0.105,0.034-0.215,0.051-0.328,0.051
		c-0.185,0-0.354-0.033-0.51-0.097c-0.155-0.064-0.288-0.173-0.398-0.326L74.507,107.728z"/>
	<path fill="#131313" stroke="#131313" stroke-width="0.25" stroke-miterlimit="10" d="M76.685,105.45h0.805
		c0.097,0,0.2,0.012,0.306,0.035c0.106,0.021,0.204,0.061,0.292,0.115c0.088,0.056,0.161,0.131,0.217,0.228
		c0.057,0.096,0.085,0.216,0.085,0.361c0,0.126-0.023,0.235-0.069,0.327c-0.046,0.092-0.108,0.168-0.186,0.227
		c-0.077,0.06-0.167,0.104-0.269,0.133c-0.101,0.029-0.207,0.043-0.317,0.043h-0.604v1.326h-0.26V105.45z M76.946,106.683h0.592
		c0.074,0,0.146-0.009,0.217-0.025c0.071-0.018,0.134-0.045,0.189-0.084c0.055-0.037,0.1-0.089,0.134-0.152
		c0.034-0.062,0.051-0.141,0.051-0.231s-0.018-0.166-0.053-0.229c-0.035-0.062-0.082-0.115-0.138-0.156s-0.122-0.07-0.195-0.089
		c-0.074-0.018-0.148-0.026-0.222-0.026h-0.576V106.683L76.946,106.683z"/>
	<path fill="#131313" stroke="#131313" stroke-width="0.25" stroke-miterlimit="10" d="M79.01,105.45h0.26v2.559h1.302v0.236h-1.562
		L79.01,105.45L79.01,105.45z"/>
	<path fill="#131313" stroke="#131313" stroke-width="0.25" stroke-miterlimit="10" d="M81.898,105.45h0.269l1.176,2.795H83.05
		l-0.304-0.742h-1.48l-0.316,0.742h-0.272L81.898,105.45z M82.02,105.735l-0.651,1.531h1.282L82.02,105.735z"/>
	<path fill="#131313" stroke="#131313" stroke-width="0.25" stroke-miterlimit="10" d="M83.804,105.45h0.335l1.701,2.447h0.008
		v-2.447h0.261v2.795h-0.335l-1.701-2.447h-0.007v2.447h-0.261V105.45z"/>
	<path fill="#131313" stroke="#131313" stroke-width="0.25" stroke-miterlimit="10" d="M87.553,105.688h-0.956v-0.238h2.171v0.238
		h-0.955v2.557h-0.26L87.553,105.688L87.553,105.688z"/>
	<path fill="#131313" stroke="#131313" stroke-width="0.25" stroke-miterlimit="10" d="M64.672,109.894h0.268l1.176,2.795h-0.292
		l-0.304-0.742h-1.48l-0.315,0.742h-0.273L64.672,109.894z M64.794,110.178l-0.651,1.531h1.283L64.794,110.178z"/>
	<path fill="#131313" stroke="#131313" stroke-width="0.25" stroke-miterlimit="10" d="M66.594,112.171
		c0.068,0.119,0.157,0.207,0.267,0.264c0.108,0.059,0.233,0.088,0.372,0.088c0.087,0,0.168-0.014,0.245-0.039
		c0.077-0.027,0.143-0.063,0.199-0.111c0.057-0.047,0.102-0.104,0.134-0.172c0.033-0.066,0.049-0.143,0.049-0.227
		c0-0.098-0.021-0.178-0.062-0.241s-0.095-0.114-0.164-0.155s-0.145-0.076-0.231-0.105c-0.085-0.028-0.173-0.058-0.264-0.086
		c-0.091-0.029-0.179-0.062-0.264-0.1c-0.086-0.036-0.163-0.084-0.232-0.144c-0.068-0.06-0.123-0.134-0.163-0.223
		s-0.062-0.2-0.062-0.331c0-0.124,0.024-0.234,0.074-0.33c0.048-0.096,0.114-0.176,0.197-0.24c0.083-0.064,0.178-0.113,0.286-0.146
		s0.221-0.049,0.339-0.049c0.153,0,0.294,0.026,0.424,0.08c0.131,0.055,0.243,0.145,0.337,0.271l-0.225,0.161
		c-0.066-0.092-0.143-0.16-0.231-0.207c-0.088-0.045-0.193-0.068-0.314-0.068c-0.084,0-0.164,0.012-0.241,0.033
		c-0.076,0.022-0.143,0.055-0.199,0.099c-0.057,0.044-0.102,0.099-0.136,0.164c-0.035,0.065-0.051,0.144-0.051,0.232
		c0,0.14,0.035,0.247,0.106,0.321c0.071,0.076,0.16,0.135,0.266,0.178c0.107,0.043,0.223,0.082,0.347,0.115
		c0.125,0.032,0.241,0.076,0.347,0.132s0.196,0.132,0.267,0.231c0.071,0.098,0.106,0.234,0.106,0.408
		c0,0.126-0.023,0.238-0.071,0.335c-0.047,0.098-0.111,0.18-0.191,0.247c-0.08,0.066-0.173,0.117-0.278,0.151
		c-0.105,0.034-0.215,0.052-0.328,0.052c-0.185,0-0.354-0.033-0.509-0.098c-0.155-0.063-0.288-0.173-0.398-0.324L66.594,112.171z"/>
	<path fill="#131313" stroke="#131313" stroke-width="0.25" stroke-miterlimit="10" d="M68.788,112.171
		c0.069,0.119,0.158,0.207,0.267,0.264c0.109,0.059,0.233,0.088,0.373,0.088c0.087,0,0.168-0.014,0.246-0.039
		c0.076-0.027,0.142-0.063,0.199-0.111c0.057-0.047,0.102-0.104,0.134-0.172c0.033-0.066,0.049-0.143,0.049-0.227
		c0-0.098-0.021-0.178-0.061-0.241s-0.095-0.114-0.164-0.155c-0.068-0.041-0.145-0.076-0.23-0.105
		c-0.086-0.028-0.174-0.058-0.264-0.086c-0.091-0.029-0.18-0.062-0.265-0.1c-0.086-0.036-0.163-0.084-0.231-0.144
		c-0.068-0.06-0.123-0.134-0.164-0.223s-0.061-0.2-0.061-0.331c0-0.124,0.024-0.234,0.073-0.33c0.048-0.096,0.114-0.176,0.197-0.24
		s0.178-0.113,0.286-0.146s0.221-0.049,0.339-0.049c0.153,0,0.293,0.026,0.424,0.08c0.13,0.055,0.243,0.145,0.337,0.271
		l-0.225,0.161c-0.065-0.092-0.143-0.16-0.231-0.207c-0.088-0.045-0.192-0.068-0.314-0.068c-0.084,0-0.164,0.012-0.24,0.033
		c-0.077,0.022-0.144,0.055-0.2,0.099c-0.057,0.044-0.102,0.099-0.136,0.164c-0.035,0.065-0.051,0.144-0.051,0.232
		c0,0.14,0.035,0.247,0.106,0.321c0.071,0.076,0.16,0.135,0.266,0.178s0.222,0.082,0.347,0.115c0.125,0.032,0.241,0.076,0.347,0.132
		s0.195,0.132,0.266,0.231c0.071,0.098,0.106,0.234,0.106,0.408c0,0.126-0.023,0.238-0.071,0.335
		c-0.047,0.098-0.111,0.18-0.191,0.247c-0.08,0.066-0.173,0.117-0.278,0.151c-0.105,0.034-0.215,0.052-0.328,0.052
		c-0.184,0-0.354-0.033-0.509-0.098c-0.156-0.063-0.288-0.173-0.399-0.324L68.788,112.171z"/>
	<path fill="#131313" stroke="#131313" stroke-width="0.25" stroke-miterlimit="10" d="M70.726,111.291
		c0-0.214,0.035-0.409,0.105-0.589c0.071-0.178,0.17-0.332,0.296-0.463c0.126-0.131,0.278-0.232,0.456-0.306
		c0.177-0.073,0.373-0.11,0.585-0.11c0.214,0,0.409,0.037,0.586,0.11s0.33,0.176,0.456,0.306c0.126,0.13,0.225,0.285,0.296,0.463
		c0.071,0.18,0.106,0.375,0.106,0.589c0,0.213-0.035,0.409-0.106,0.59c-0.071,0.181-0.17,0.335-0.296,0.466
		c-0.126,0.13-0.278,0.232-0.456,0.304c-0.178,0.072-0.373,0.108-0.586,0.108c-0.213,0-0.408-0.036-0.585-0.108
		s-0.33-0.174-0.456-0.304c-0.126-0.13-0.225-0.285-0.296-0.466C70.761,111.7,70.726,111.504,70.726,111.291z M70.987,111.291
		c0,0.173,0.027,0.335,0.083,0.485c0.055,0.149,0.134,0.28,0.236,0.391c0.103,0.109,0.227,0.197,0.373,0.26
		c0.146,0.063,0.31,0.095,0.491,0.095c0.182,0,0.346-0.032,0.492-0.095c0.146-0.062,0.271-0.15,0.373-0.26
		c0.103-0.11,0.182-0.241,0.237-0.391c0.055-0.15,0.083-0.312,0.083-0.485s-0.028-0.335-0.083-0.485
		c-0.056-0.15-0.134-0.28-0.237-0.391c-0.102-0.11-0.227-0.197-0.373-0.261s-0.31-0.095-0.492-0.095
		c-0.181,0-0.345,0.032-0.491,0.095c-0.146,0.063-0.27,0.15-0.373,0.261s-0.182,0.24-0.236,0.391
		C71.014,110.956,70.987,111.118,70.987,111.291z"/>
	<path fill="#131313" stroke="#131313" stroke-width="0.25" stroke-miterlimit="10" d="M76.499,112.25
		c-0.134,0.181-0.289,0.312-0.465,0.391s-0.367,0.118-0.572,0.118c-0.213,0-0.409-0.035-0.586-0.108
		c-0.178-0.071-0.33-0.174-0.457-0.304c-0.126-0.13-0.225-0.285-0.296-0.465c-0.071-0.182-0.106-0.377-0.106-0.591
		s0.035-0.409,0.106-0.588s0.17-0.333,0.296-0.464c0.126-0.13,0.278-0.232,0.457-0.305c0.177-0.074,0.373-0.111,0.586-0.111
		c0.189,0,0.366,0.033,0.531,0.101c0.164,0.067,0.308,0.18,0.432,0.337l-0.213,0.178c-0.087-0.131-0.198-0.228-0.333-0.287
		c-0.135-0.061-0.274-0.092-0.416-0.092c-0.182,0-0.346,0.032-0.491,0.095c-0.146,0.063-0.271,0.15-0.373,0.261
		c-0.103,0.11-0.182,0.24-0.237,0.391s-0.083,0.312-0.083,0.485s0.027,0.335,0.083,0.485c0.055,0.149,0.134,0.28,0.237,0.391
		c0.103,0.109,0.227,0.197,0.373,0.26c0.146,0.063,0.31,0.095,0.491,0.095c0.071,0,0.145-0.008,0.221-0.025
		c0.077-0.017,0.15-0.044,0.223-0.079c0.072-0.035,0.141-0.08,0.207-0.134c0.065-0.054,0.124-0.119,0.174-0.195L76.499,112.25z"/>
	<path fill="#131313" stroke="#131313" stroke-width="0.25" stroke-miterlimit="10" d="M76.977,109.894h0.26v2.795h-0.26V109.894z"
		/>
	<path fill="#131313" stroke="#131313" stroke-width="0.25" stroke-miterlimit="10" d="M78.859,109.894h0.269l1.176,2.795h-0.292
		l-0.303-0.742h-1.48l-0.315,0.742H77.64L78.859,109.894z M78.982,110.178l-0.651,1.531h1.282L78.982,110.178z"/>
	<path fill="#131313" stroke="#131313" stroke-width="0.25" stroke-miterlimit="10" d="M81.057,110.131h-0.955v-0.237h2.17v0.237
		h-0.955v2.558h-0.26L81.057,110.131L81.057,110.131z"/>
	<path fill="#131313" stroke="#131313" stroke-width="0.25" stroke-miterlimit="10" d="M82.703,109.894h0.26v2.795h-0.26V109.894z"
		/>
	<path fill="#131313" stroke="#131313" stroke-width="0.25" stroke-miterlimit="10" d="M83.548,111.291
		c0-0.214,0.035-0.409,0.106-0.589c0.071-0.178,0.17-0.332,0.296-0.463s0.278-0.232,0.456-0.306c0.177-0.073,0.373-0.11,0.586-0.11
		c0.213,0,0.409,0.037,0.585,0.11c0.178,0.073,0.33,0.176,0.457,0.306c0.126,0.131,0.225,0.285,0.296,0.463
		c0.071,0.18,0.106,0.375,0.106,0.589c0,0.213-0.035,0.409-0.106,0.59s-0.169,0.335-0.296,0.466
		c-0.126,0.13-0.278,0.232-0.457,0.304c-0.177,0.072-0.373,0.108-0.585,0.108c-0.213,0-0.409-0.036-0.586-0.108
		c-0.178-0.072-0.33-0.174-0.456-0.304c-0.126-0.131-0.225-0.285-0.296-0.466C83.583,111.7,83.548,111.504,83.548,111.291z
		 M83.808,111.291c0,0.173,0.027,0.335,0.083,0.485c0.055,0.149,0.134,0.28,0.236,0.391c0.103,0.109,0.228,0.197,0.373,0.26
		c0.146,0.063,0.31,0.095,0.491,0.095c0.181,0,0.345-0.032,0.491-0.095c0.146-0.062,0.271-0.15,0.373-0.26
		c0.103-0.11,0.182-0.241,0.237-0.391c0.055-0.15,0.083-0.312,0.083-0.485s-0.028-0.335-0.083-0.485s-0.134-0.28-0.237-0.391
		c-0.102-0.11-0.227-0.197-0.373-0.261s-0.31-0.095-0.491-0.095c-0.182,0-0.345,0.032-0.491,0.095
		c-0.146,0.063-0.271,0.15-0.373,0.261s-0.181,0.24-0.236,0.391C83.835,110.956,83.808,111.118,83.808,111.291z"/>
	<path fill="#131313" stroke="#131313" stroke-width="0.25" stroke-miterlimit="10" d="M87.02,109.894h0.335l1.701,2.447h0.007
		v-2.447h0.261v2.795H88.99l-1.701-2.447h-0.008v2.447h-0.26L87.02,109.894L87.02,109.894z"/>
</g>
<g>
	<path fill="#131313" stroke="#131313" stroke-width="0.25" stroke-miterlimit="10" d="M99.355,101.008h0.26v2.557h1.303v0.237
		h-1.562V101.008z"/>
	<path fill="#131313" stroke="#131313" stroke-width="0.25" stroke-miterlimit="10" d="M101.683,101.008h0.287l-0.303,0.899h-0.232
		L101.683,101.008z"/>
	<path fill="#131313" stroke="#131313" stroke-width="0.25" stroke-miterlimit="10" d="M103.482,101.008h0.27l1.176,2.794h-0.292
		l-0.304-0.742h-1.48l-0.316,0.742h-0.271L103.482,101.008z M103.605,101.292l-0.651,1.531h1.282L103.605,101.292z"/>
	<path fill="#131313" stroke="#131313" stroke-width="0.25" stroke-miterlimit="10" d="M105.368,103.284
		c0.068,0.119,0.157,0.207,0.267,0.265s0.233,0.087,0.372,0.087c0.088,0,0.168-0.013,0.246-0.039
		c0.076-0.026,0.143-0.062,0.199-0.11s0.101-0.104,0.134-0.172c0.032-0.067,0.049-0.143,0.049-0.228c0-0.097-0.021-0.177-0.062-0.24
		c-0.041-0.062-0.095-0.115-0.163-0.156s-0.146-0.075-0.231-0.104c-0.086-0.028-0.174-0.058-0.264-0.087
		c-0.092-0.029-0.18-0.062-0.265-0.099c-0.086-0.036-0.163-0.085-0.231-0.144c-0.068-0.06-0.123-0.135-0.164-0.223
		c-0.04-0.09-0.061-0.201-0.061-0.332c0-0.123,0.023-0.234,0.073-0.33c0.049-0.096,0.114-0.176,0.197-0.24s0.179-0.113,0.286-0.146
		s0.221-0.049,0.34-0.049c0.152,0,0.293,0.026,0.424,0.08c0.131,0.055,0.243,0.145,0.338,0.271l-0.225,0.162
		c-0.066-0.093-0.144-0.161-0.231-0.206c-0.089-0.047-0.193-0.07-0.313-0.07c-0.085,0-0.165,0.012-0.242,0.034
		c-0.076,0.022-0.143,0.055-0.199,0.099c-0.057,0.043-0.102,0.098-0.136,0.164c-0.034,0.065-0.051,0.143-0.051,0.232
		c0,0.139,0.035,0.246,0.106,0.321c0.07,0.075,0.16,0.134,0.267,0.177c0.106,0.045,0.222,0.082,0.347,0.115s0.24,0.076,0.348,0.133
		c0.105,0.055,0.195,0.132,0.266,0.23c0.071,0.099,0.106,0.234,0.106,0.408c0,0.127-0.022,0.238-0.071,0.336
		c-0.047,0.098-0.11,0.18-0.191,0.246c-0.08,0.066-0.172,0.117-0.277,0.152c-0.105,0.034-0.215,0.051-0.328,0.051
		c-0.184,0-0.354-0.031-0.509-0.097c-0.155-0.063-0.288-0.173-0.399-0.325L105.368,103.284z"/>
	<path fill="#131313" stroke="#131313" stroke-width="0.25" stroke-miterlimit="10" d="M107.527,103.284
		c0.068,0.119,0.158,0.207,0.268,0.265c0.107,0.058,0.232,0.087,0.372,0.087c0.087,0,0.169-0.013,0.245-0.039
		s0.143-0.062,0.199-0.11s0.102-0.104,0.134-0.172c0.033-0.067,0.05-0.143,0.05-0.228c0-0.097-0.021-0.177-0.062-0.24
		c-0.041-0.062-0.096-0.115-0.163-0.156c-0.068-0.041-0.146-0.075-0.231-0.104c-0.086-0.028-0.173-0.058-0.264-0.087
		c-0.092-0.029-0.18-0.062-0.264-0.099c-0.086-0.036-0.163-0.085-0.232-0.144c-0.068-0.06-0.123-0.135-0.163-0.223
		c-0.04-0.09-0.062-0.201-0.062-0.332c0-0.123,0.024-0.234,0.073-0.33s0.114-0.176,0.197-0.24s0.179-0.113,0.286-0.146
		s0.221-0.049,0.34-0.049c0.152,0,0.294,0.026,0.424,0.08c0.131,0.055,0.243,0.145,0.338,0.271l-0.225,0.162
		c-0.066-0.093-0.144-0.161-0.231-0.206c-0.089-0.047-0.192-0.07-0.313-0.07c-0.085,0-0.164,0.012-0.241,0.034
		s-0.143,0.055-0.199,0.099c-0.057,0.043-0.103,0.098-0.136,0.164c-0.035,0.065-0.052,0.143-0.052,0.232
		c0,0.139,0.035,0.246,0.106,0.321s0.16,0.134,0.266,0.177c0.107,0.045,0.223,0.082,0.348,0.115s0.241,0.076,0.348,0.133
		c0.106,0.055,0.195,0.132,0.267,0.23s0.106,0.234,0.106,0.408c0,0.127-0.024,0.238-0.072,0.336c-0.047,0.098-0.11,0.18-0.19,0.246
		s-0.173,0.117-0.278,0.152c-0.105,0.034-0.215,0.051-0.328,0.051c-0.184,0-0.354-0.031-0.509-0.097
		c-0.155-0.063-0.288-0.173-0.398-0.325L107.527,103.284z"/>
	<path fill="#131313" stroke="#131313" stroke-width="0.25" stroke-miterlimit="10" d="M109.429,102.405
		c0-0.214,0.035-0.41,0.107-0.589c0.07-0.179,0.169-0.333,0.295-0.464c0.127-0.13,0.278-0.232,0.457-0.305
		c0.177-0.074,0.373-0.111,0.586-0.111s0.408,0.037,0.586,0.111c0.178,0.072,0.329,0.176,0.455,0.305
		c0.127,0.131,0.226,0.285,0.297,0.464c0.07,0.179,0.105,0.375,0.105,0.589c0,0.213-0.035,0.41-0.105,0.59
		c-0.071,0.18-0.17,0.335-0.297,0.465c-0.126,0.131-0.277,0.232-0.455,0.305s-0.373,0.107-0.586,0.107s-0.409-0.035-0.586-0.107
		c-0.178-0.072-0.33-0.174-0.457-0.305c-0.126-0.13-0.225-0.285-0.295-0.465C109.464,102.815,109.429,102.618,109.429,102.405z
		 M109.69,102.405c0,0.173,0.027,0.334,0.083,0.484c0.055,0.15,0.135,0.28,0.236,0.391c0.103,0.11,0.228,0.197,0.373,0.26
		c0.146,0.064,0.311,0.096,0.492,0.096c0.181,0,0.344-0.032,0.49-0.096c0.146-0.062,0.271-0.149,0.373-0.26s0.182-0.24,0.236-0.391
		c0.056-0.15,0.084-0.312,0.084-0.484c0-0.174-0.028-0.336-0.084-0.486c-0.055-0.149-0.134-0.279-0.236-0.391
		c-0.103-0.109-0.227-0.197-0.373-0.26c-0.146-0.063-0.31-0.095-0.49-0.095c-0.182,0-0.346,0.032-0.492,0.095
		s-0.271,0.15-0.373,0.26c-0.102,0.111-0.182,0.241-0.236,0.391C109.717,102.069,109.69,102.231,109.69,102.405z"/>
	<path fill="#131313" stroke="#131313" stroke-width="0.25" stroke-miterlimit="10" d="M115.167,103.364
		c-0.134,0.181-0.289,0.311-0.465,0.39s-0.367,0.119-0.572,0.119c-0.213,0-0.408-0.036-0.586-0.108s-0.33-0.174-0.456-0.305
		c-0.126-0.129-0.226-0.285-0.296-0.465c-0.071-0.18-0.107-0.377-0.107-0.59s0.036-0.41,0.107-0.588
		c0.07-0.18,0.17-0.334,0.296-0.465c0.126-0.129,0.278-0.231,0.456-0.305c0.178-0.074,0.373-0.111,0.586-0.111
		c0.189,0,0.366,0.034,0.53,0.102c0.165,0.066,0.309,0.18,0.433,0.337l-0.213,0.178c-0.088-0.132-0.199-0.228-0.334-0.288
		c-0.136-0.061-0.274-0.091-0.416-0.091c-0.182,0-0.346,0.032-0.492,0.095c-0.146,0.062-0.27,0.15-0.372,0.26
		c-0.103,0.111-0.182,0.241-0.237,0.391c-0.055,0.15-0.082,0.312-0.082,0.486c0,0.173,0.027,0.334,0.082,0.484
		c0.056,0.15,0.135,0.28,0.237,0.391s0.228,0.197,0.372,0.26c0.146,0.064,0.311,0.096,0.492,0.096c0.07,0,0.145-0.009,0.221-0.025
		c0.076-0.018,0.15-0.044,0.223-0.079c0.072-0.036,0.142-0.081,0.207-0.134c0.066-0.055,0.123-0.119,0.174-0.195L115.167,103.364z"
		/>
	<path fill="#131313" stroke="#131313" stroke-width="0.25" stroke-miterlimit="10" d="M115.609,101.008h0.262v2.794h-0.262V101.008
		z"/>
	<path fill="#131313" stroke="#131313" stroke-width="0.25" stroke-miterlimit="10" d="M117.456,101.008h0.269l1.176,2.794h-0.292
		l-0.304-0.742h-1.479l-0.316,0.742h-0.271L117.456,101.008z M117.579,101.292l-0.652,1.531h1.283L117.579,101.292z"/>
	<path fill="#131313" stroke="#131313" stroke-width="0.25" stroke-miterlimit="10" d="M119.647,101.245h-0.955v-0.237h2.171v0.237
		h-0.955v2.557h-0.26L119.647,101.245L119.647,101.245z"/>
	<path fill="#131313" stroke="#131313" stroke-width="0.25" stroke-miterlimit="10" d="M121.288,101.008h0.26v2.794h-0.26V101.008z"
		/>
	<path fill="#131313" stroke="#131313" stroke-width="0.25" stroke-miterlimit="10" d="M122.097,102.405
		c0-0.214,0.035-0.41,0.107-0.589c0.07-0.179,0.17-0.333,0.296-0.464c0.126-0.13,0.278-0.232,0.456-0.305
		c0.178-0.074,0.373-0.111,0.586-0.111s0.408,0.037,0.585,0.111c0.179,0.072,0.33,0.176,0.456,0.305
		c0.127,0.131,0.225,0.285,0.297,0.464c0.07,0.179,0.105,0.375,0.105,0.589c0,0.213-0.035,0.41-0.105,0.59
		c-0.072,0.18-0.17,0.335-0.297,0.465c-0.126,0.131-0.277,0.232-0.456,0.305c-0.177,0.072-0.372,0.107-0.585,0.107
		s-0.408-0.035-0.586-0.107s-0.33-0.174-0.456-0.305c-0.126-0.13-0.226-0.285-0.296-0.465
		C122.132,102.815,122.097,102.618,122.097,102.405z M122.358,102.405c0,0.173,0.027,0.334,0.083,0.484
		c0.055,0.15,0.134,0.28,0.236,0.391c0.104,0.11,0.228,0.197,0.373,0.26c0.146,0.064,0.31,0.096,0.492,0.096
		c0.181,0,0.344-0.032,0.49-0.096c0.146-0.062,0.271-0.149,0.373-0.26c0.103-0.11,0.182-0.24,0.236-0.391
		c0.056-0.15,0.084-0.312,0.084-0.484c0-0.174-0.028-0.336-0.084-0.486c-0.055-0.149-0.134-0.279-0.236-0.391
		c-0.103-0.109-0.227-0.197-0.373-0.26c-0.146-0.063-0.31-0.095-0.49-0.095c-0.183,0-0.346,0.032-0.492,0.095
		s-0.271,0.15-0.373,0.26c-0.103,0.111-0.182,0.241-0.236,0.391C122.385,102.069,122.358,102.231,122.358,102.405z"/>
	<path fill="#131313" stroke="#131313" stroke-width="0.25" stroke-miterlimit="10" d="M125.534,101.008h0.336l1.7,2.446h0.008
		v-2.446h0.261v2.794h-0.336l-1.7-2.447h-0.008v2.447h-0.261V101.008z"/>
	<path fill="#131313" stroke="#131313" stroke-width="0.25" stroke-miterlimit="10" d="M101.656,107.807
		c-0.135,0.182-0.29,0.312-0.466,0.391c-0.177,0.079-0.367,0.118-0.573,0.118c-0.213,0-0.408-0.035-0.586-0.107
		c-0.177-0.072-0.328-0.174-0.455-0.305c-0.126-0.13-0.225-0.285-0.296-0.465s-0.106-0.377-0.106-0.59
		c0-0.214,0.035-0.41,0.106-0.589s0.17-0.333,0.296-0.464c0.127-0.13,0.278-0.231,0.455-0.305c0.178-0.074,0.373-0.111,0.586-0.111
		c0.189,0,0.367,0.033,0.531,0.102c0.164,0.066,0.309,0.18,0.432,0.337l-0.213,0.177c-0.086-0.131-0.197-0.227-0.333-0.287
		s-0.274-0.092-0.417-0.092c-0.181,0-0.345,0.032-0.49,0.096c-0.146,0.062-0.271,0.149-0.373,0.26
		c-0.104,0.11-0.182,0.241-0.236,0.391c-0.056,0.15-0.083,0.312-0.083,0.485s0.027,0.335,0.083,0.485
		c0.055,0.15,0.133,0.28,0.236,0.391c0.103,0.11,0.227,0.197,0.373,0.26c0.146,0.063,0.31,0.096,0.49,0.096
		c0.072,0,0.146-0.01,0.223-0.026c0.075-0.017,0.149-0.044,0.223-0.078c0.072-0.036,0.141-0.081,0.206-0.135
		s0.124-0.119,0.175-0.195L101.656,107.807z"/>
	<path fill="#131313" stroke="#131313" stroke-width="0.25" stroke-miterlimit="10" d="M102.89,105.45h0.269l1.176,2.795h-0.292
		l-0.304-0.742h-1.479l-0.316,0.742h-0.272L102.89,105.45z M103.012,105.735l-0.651,1.531h1.283L103.012,105.735z"/>
	<path fill="#131313" stroke="#131313" stroke-width="0.25" stroke-miterlimit="10" d="M104.639,105.45h0.335l1.701,2.447h0.008
		v-2.446h0.26v2.794h-0.336l-1.7-2.447H104.9v2.447h-0.261V105.45L104.639,105.45z"/>
	<path fill="#131313" stroke="#131313" stroke-width="0.25" stroke-miterlimit="10" d="M108.466,105.451h0.269l1.177,2.794h-0.293
		l-0.303-0.742h-1.48l-0.316,0.742h-0.271L108.466,105.451z M108.589,105.735l-0.651,1.531h1.282L108.589,105.735z"/>
	<path fill="#131313" stroke="#131313" stroke-width="0.25" stroke-miterlimit="10" d="M110.179,105.451h0.865
		c0.242,0,0.446,0.029,0.615,0.089c0.168,0.059,0.309,0.135,0.42,0.227s0.2,0.193,0.265,0.306s0.112,0.22,0.142,0.321
		c0.03,0.104,0.05,0.195,0.058,0.279c0.008,0.082,0.012,0.141,0.012,0.176c0,0.033-0.004,0.092-0.012,0.176
		c-0.008,0.082-0.027,0.176-0.058,0.277c-0.029,0.104-0.076,0.21-0.142,0.322c-0.064,0.111-0.153,0.213-0.265,0.305
		c-0.111,0.093-0.252,0.168-0.42,0.228c-0.169,0.06-0.373,0.089-0.615,0.089h-0.865V105.451z M110.44,108.009h0.537
		c0.184,0,0.356-0.023,0.517-0.07c0.16-0.046,0.301-0.116,0.418-0.211c0.119-0.094,0.212-0.215,0.28-0.361
		c0.068-0.145,0.103-0.318,0.103-0.518c0-0.201-0.034-0.373-0.103-0.52s-0.161-0.266-0.28-0.361
		c-0.118-0.094-0.258-0.164-0.418-0.211c-0.16-0.046-0.333-0.068-0.517-0.068h-0.537V108.009z"/>
	<path fill="#131313" stroke="#131313" stroke-width="0.25" stroke-miterlimit="10" d="M113.04,105.451h0.26v2.794h-0.26V105.451z"
		/>
	<path fill="#131313" stroke="#131313" stroke-width="0.25" stroke-miterlimit="10" d="M113.968,105.451h1.708v0.237h-1.448v0.994
		h1.357v0.236h-1.357v1.09h1.512v0.236h-1.771V105.451L113.968,105.451z"/>
	<path fill="#131313" stroke="#131313" stroke-width="0.25" stroke-miterlimit="10" d="M116.21,105.451h0.335l1.7,2.446h0.008
		v-2.446h0.261v2.794h-0.335l-1.701-2.447h-0.008v2.447h-0.26V105.451z"/>
	<path fill="#131313" stroke="#131313" stroke-width="0.25" stroke-miterlimit="10" d="M119.181,105.451h0.335l1.7,2.446h0.009
		v-2.446h0.261v2.794h-0.336l-1.7-2.447h-0.008v2.447h-0.261V105.451L119.181,105.451z"/>
	<path fill="#131313" stroke="#131313" stroke-width="0.25" stroke-miterlimit="10" d="M122.153,105.451h1.708v0.237h-1.447v0.994
		h1.357v0.236h-1.357v1.09h1.511v0.236h-1.771V105.451L122.153,105.451z"/>
	<path fill="#131313" stroke="#131313" stroke-width="0.25" stroke-miterlimit="10" d="M99.319,109.894h0.864
		c0.242,0,0.447,0.03,0.616,0.09c0.168,0.059,0.308,0.135,0.42,0.227s0.2,0.193,0.265,0.306s0.111,0.219,0.143,0.321
		c0.029,0.104,0.049,0.195,0.057,0.278s0.012,0.142,0.012,0.176s-0.004,0.093-0.012,0.176s-0.027,0.177-0.057,0.278
		c-0.031,0.104-0.078,0.209-0.143,0.322c-0.064,0.111-0.152,0.213-0.265,0.305s-0.252,0.168-0.42,0.228
		c-0.169,0.06-0.374,0.089-0.616,0.089h-0.864V109.894z M99.579,112.451h0.537c0.184,0,0.356-0.022,0.517-0.069
		c0.161-0.045,0.3-0.116,0.418-0.211s0.212-0.215,0.28-0.361c0.068-0.146,0.104-0.318,0.104-0.519s-0.035-0.372-0.104-0.519
		s-0.162-0.268-0.28-0.361s-0.257-0.165-0.418-0.211c-0.16-0.046-0.333-0.068-0.517-0.068h-0.537V112.451z"/>
	<path fill="#131313" stroke="#131313" stroke-width="0.25" stroke-miterlimit="10" d="M102.24,109.894h1.708v0.237h-1.448v0.994
		h1.357v0.237h-1.357v1.089h1.512v0.237h-1.772L102.24,109.894L102.24,109.894z"/>
	<path fill="#131313" stroke="#131313" stroke-width="0.25" stroke-miterlimit="10" d="M104.695,112.171
		c0.068,0.119,0.156,0.207,0.266,0.264c0.109,0.059,0.233,0.088,0.373,0.088c0.087,0,0.168-0.014,0.244-0.039
		c0.076-0.027,0.144-0.063,0.199-0.111c0.057-0.047,0.102-0.104,0.135-0.172c0.033-0.066,0.049-0.143,0.049-0.227
		c0-0.098-0.021-0.178-0.061-0.241c-0.041-0.063-0.096-0.114-0.164-0.155s-0.146-0.076-0.23-0.105
		c-0.086-0.028-0.174-0.057-0.266-0.086c-0.09-0.029-0.178-0.062-0.264-0.1c-0.086-0.036-0.163-0.084-0.23-0.144
		c-0.068-0.06-0.123-0.134-0.164-0.223s-0.062-0.2-0.062-0.331c0-0.124,0.024-0.234,0.073-0.33s0.115-0.176,0.197-0.24
		s0.178-0.113,0.286-0.146s0.221-0.049,0.339-0.049c0.152,0,0.295,0.026,0.425,0.08c0.13,0.055,0.243,0.145,0.338,0.271
		l-0.226,0.161c-0.065-0.092-0.143-0.16-0.23-0.207c-0.088-0.045-0.193-0.068-0.314-0.068c-0.084,0-0.164,0.012-0.24,0.033
		c-0.076,0.023-0.143,0.055-0.199,0.099s-0.103,0.099-0.137,0.164s-0.051,0.144-0.051,0.232c0,0.14,0.035,0.247,0.106,0.321
		c0.071,0.076,0.16,0.135,0.267,0.178c0.105,0.043,0.222,0.082,0.347,0.115c0.125,0.032,0.241,0.076,0.347,0.132
		c0.107,0.056,0.196,0.132,0.268,0.231c0.07,0.098,0.105,0.234,0.105,0.408c0,0.126-0.023,0.238-0.07,0.335
		c-0.048,0.098-0.111,0.18-0.191,0.247c-0.08,0.066-0.174,0.117-0.278,0.151s-0.214,0.052-0.327,0.052
		c-0.186,0-0.354-0.033-0.51-0.098c-0.154-0.063-0.288-0.173-0.398-0.324L104.695,112.171z"/>
	<path fill="#131313" stroke="#131313" stroke-width="0.25" stroke-miterlimit="10" d="M110.144,112.507
		c-0.163,0.092-0.332,0.156-0.508,0.195c-0.175,0.038-0.354,0.057-0.534,0.057c-0.213,0-0.409-0.035-0.586-0.108
		c-0.178-0.071-0.329-0.174-0.456-0.304s-0.225-0.285-0.296-0.465c-0.071-0.181-0.106-0.377-0.106-0.591
		c0-0.213,0.035-0.409,0.106-0.588s0.169-0.333,0.296-0.464c0.127-0.13,0.277-0.232,0.456-0.305
		c0.177-0.074,0.373-0.111,0.586-0.111c0.415,0,0.751,0.129,1.006,0.387l-0.188,0.197c-0.043-0.05-0.095-0.097-0.157-0.141
		c-0.062-0.043-0.128-0.08-0.2-0.11c-0.073-0.03-0.148-0.054-0.228-0.07s-0.157-0.026-0.233-0.026c-0.181,0-0.345,0.032-0.49,0.095
		c-0.146,0.063-0.271,0.15-0.373,0.261c-0.103,0.11-0.182,0.24-0.237,0.391s-0.083,0.312-0.083,0.485s0.027,0.335,0.083,0.485
		c0.056,0.149,0.135,0.28,0.237,0.391c0.102,0.109,0.227,0.197,0.373,0.26c0.146,0.063,0.31,0.095,0.49,0.095
		c0.15,0,0.291-0.012,0.424-0.035c0.131-0.023,0.25-0.067,0.358-0.13v-0.939h-0.671v-0.236h0.932V112.507L110.144,112.507z"/>
	<path fill="#131313" stroke="#131313" stroke-width="0.25" stroke-miterlimit="10" d="M110.779,109.894h0.734
		c0.037,0,0.087,0.002,0.15,0.004c0.062,0.004,0.131,0.012,0.205,0.024c0.073,0.013,0.148,0.034,0.225,0.063s0.145,0.07,0.205,0.126
		c0.061,0.055,0.11,0.124,0.15,0.208c0.039,0.085,0.059,0.188,0.059,0.309c0,0.134-0.023,0.244-0.068,0.332
		c-0.047,0.086-0.104,0.156-0.174,0.211c-0.07,0.054-0.147,0.094-0.231,0.12s-0.165,0.045-0.241,0.056l0.813,1.342h-0.296
		l-0.785-1.326h-0.484v1.326h-0.261L110.779,109.894L110.779,109.894z M111.039,111.125h0.553c0.137,0,0.247-0.017,0.333-0.052
		c0.086-0.033,0.152-0.075,0.199-0.125c0.048-0.051,0.08-0.104,0.097-0.162c0.018-0.058,0.026-0.11,0.026-0.158
		c0-0.047-0.009-0.1-0.026-0.158c-0.017-0.057-0.049-0.111-0.097-0.161c-0.047-0.05-0.113-0.092-0.199-0.126
		c-0.086-0.035-0.196-0.051-0.333-0.051h-0.553V111.125z"/>
	<path fill="#131313" stroke="#131313" stroke-width="0.25" stroke-miterlimit="10" d="M113.118,109.894h1.709v0.237h-1.447v0.994
		h1.356v0.237h-1.356v1.089h1.511v0.237h-1.772V109.894z"/>
	<path fill="#131313" stroke="#131313" stroke-width="0.25" stroke-miterlimit="10" d="M115.46,109.894h1.673v0.237h-1.413v0.994
		h1.314v0.237h-1.314v1.326h-0.26V109.894z"/>
	<path fill="#131313" stroke="#131313" stroke-width="0.25" stroke-miterlimit="10" d="M117.654,109.894h1.674v0.237h-1.414v0.994
		h1.314v0.237h-1.314v1.326h-0.26V109.894z"/>
	<path fill="#131313" stroke="#131313" stroke-width="0.25" stroke-miterlimit="10" d="M119.848,109.894h1.708v0.237h-1.447v0.994
		h1.357v0.237h-1.357v1.089h1.511v0.237h-1.772L119.848,109.894L119.848,109.894z M120.819,109.151h0.315l-0.528,0.568h-0.197
		L120.819,109.151z"/>
	<path fill="#131313" stroke="#131313" stroke-width="0.25" stroke-miterlimit="10" d="M122.263,112.171
		c0.068,0.119,0.157,0.207,0.267,0.264c0.108,0.059,0.233,0.088,0.372,0.088c0.087,0,0.169-0.014,0.246-0.039
		c0.076-0.027,0.142-0.063,0.199-0.111c0.057-0.047,0.101-0.104,0.133-0.172c0.033-0.066,0.05-0.143,0.05-0.227
		c0-0.098-0.021-0.178-0.062-0.241c-0.04-0.063-0.095-0.114-0.163-0.155c-0.069-0.041-0.146-0.076-0.231-0.105
		c-0.086-0.028-0.174-0.057-0.264-0.086c-0.092-0.029-0.18-0.062-0.265-0.1c-0.085-0.036-0.162-0.084-0.231-0.143
		c-0.068-0.061-0.123-0.135-0.163-0.224c-0.041-0.089-0.062-0.2-0.062-0.331c0-0.124,0.024-0.234,0.073-0.33
		c0.048-0.096,0.114-0.176,0.197-0.24s0.178-0.113,0.286-0.146s0.221-0.049,0.34-0.049c0.152,0,0.293,0.026,0.424,0.08
		c0.131,0.055,0.242,0.145,0.338,0.271l-0.226,0.161c-0.065-0.092-0.143-0.16-0.231-0.207c-0.088-0.045-0.191-0.068-0.312-0.068
		c-0.085,0-0.165,0.012-0.241,0.033c-0.077,0.023-0.144,0.055-0.2,0.099s-0.102,0.099-0.135,0.164
		c-0.035,0.065-0.052,0.144-0.052,0.232c0,0.14,0.035,0.247,0.106,0.321c0.071,0.076,0.16,0.135,0.266,0.178
		c0.107,0.043,0.223,0.082,0.348,0.115c0.125,0.032,0.24,0.076,0.348,0.132c0.105,0.056,0.195,0.132,0.266,0.231
		c0.072,0.098,0.107,0.234,0.107,0.408c0,0.126-0.023,0.238-0.072,0.335c-0.047,0.098-0.111,0.18-0.19,0.247
		c-0.08,0.066-0.173,0.117-0.278,0.151s-0.215,0.052-0.328,0.052c-0.184,0-0.354-0.033-0.509-0.098
		c-0.155-0.063-0.288-0.173-0.398-0.324L122.263,112.171z"/>
</g>
</svg>
