<?xml version="1.0" encoding="utf-8"?>
<!-- Generator: Adobe Illustrator 16.0.0, SVG Export Plug-In . SVG Version: 6.00 Build 0)  -->
<!DOCTYPE svg PUBLIC "-//W3C//DTD SVG 1.1//EN" "http://www.w3.org/Graphics/SVG/1.1/DTD/svg11.dtd">
<svg version="1.1" id="Layer_1" xmlns="http://www.w3.org/2000/svg" xmlns:xlink="http://www.w3.org/1999/xlink" x="0px" y="0px"
	 width="50px" height="50.051px" viewBox="0 0 50 50.051" enable-background="new 0 0 50 50.051" xml:space="preserve">
<g>
	<path fill="#FFFFFF" d="M15.967,38.896c-0.051-0.265-0.122-0.527-0.209-0.784c-0.08-0.24-0.178-0.476-0.288-0.706l0.523-0.524
		l0.518-0.518L36.41,16.466l-2.931-2.932L13.566,33.449l-0.521,0.52l-0.524,0.525c-0.233-0.109-0.472-0.202-0.714-0.28
		c-0.261-0.084-0.525-0.151-0.795-0.2C9.08,33.661,7.01,34.23,5.518,35.723c-2.415,2.414-2.415,6.343,0,8.757
		c2.414,2.414,6.343,2.414,8.757,0C15.789,42.965,16.354,40.854,15.967,38.896z"/>
</g>
<path fill="#FFFFFF" d="M19.714,38.518L48.365,9.866c2.18-2.18,2.18-5.725,0.001-7.903l-0.328-0.328c-2.18-2.18-5.725-2.18-7.904,0
	L11.444,30.323c-3.021-0.465-6.219,0.462-8.541,2.784c-3.871,3.872-3.871,10.17,0,14.041s10.17,3.87,14.04,0
	C19.289,44.804,20.211,41.566,19.714,38.518z M10.549,47.683c-0.182,0.016-0.364,0.023-0.547,0.025
	c-1.968,0.021-3.943-0.718-5.442-2.217c-1.498-1.498-2.236-3.474-2.216-5.442c0.002-0.219,0.013-0.439,0.034-0.658
	c0.164-1.689,0.891-3.335,2.182-4.626c1.292-1.291,2.937-2.019,4.627-2.183c1.007-0.098,2.028,0.007,3.004,0.311l1.812-1.813
	L41.791,3.292c1.268-1.268,3.322-1.268,4.59,0l0.328,0.327c1.268,1.268,1.268,3.323,0,4.591l-2.237,2.236l-1.459-1.46
	c-0.538-0.538-1.409-0.538-1.947,0c-0.537,0.537-0.537,1.408,0,1.947l1.46,1.459l-1.408,1.408l-1.459-1.46
	c-0.538-0.538-1.409-0.537-1.947,0s-0.538,1.409,0,1.946l1.46,1.461L18.94,35.978l-1.807,1.807c0.311,0.962,0.426,1.972,0.344,2.97
	c-0.142,1.729-0.87,3.418-2.189,4.737C13.968,46.811,12.278,47.54,10.549,47.683z"/>
</svg>
