<?xml version="1.0" encoding="utf-8"?>
<!-- Generator: Adobe Illustrator 16.0.0, SVG Export Plug-In . SVG Version: 6.00 Build 0)  -->
<!DOCTYPE svg PUBLIC "-//W3C//DTD SVG 1.1//EN" "http://www.w3.org/Graphics/SVG/1.1/DTD/svg11.dtd">
<svg version="1.1" id="Artwork" xmlns="http://www.w3.org/2000/svg" xmlns:xlink="http://www.w3.org/1999/xlink" x="0px" y="0px"
	 width="377px" height="28.514px" viewBox="0 0 377 28.514" enable-background="new 0 0 377 28.514" xml:space="preserve">
<g>
	<g>
		<g>
			<path fill="#004D6D" d="M332.114,2.591h3.756V8.11v3.233v11.741h-3.756V11.343V8.11V2.591z"/>
			<path fill="#004D6D" d="M319.84,3.318c0.123,0.14,10.831,5.067,20.769,9.65v-2.867C332.273,7.199,322.792,3.981,319.84,3.318z"/>
			<path fill="#004D6D" d="M306.765,2.591h3.758V8.11v3.233v11.741h-3.758V11.343V8.11V2.591z"/>
			<path fill="#004D6D" d="M294.493,3.318c0.12,0.14,10.829,5.067,20.768,9.65v-2.867C306.925,7.199,297.443,3.981,294.493,3.318z"
				/>
		</g>
	</g>
	<path fill="#F7941E" d="M0,2.854h3.816V23.05H0V2.854z"/>
	<path fill="#F7941E" d="M7.729,8.113h3.748v1.53c0.851-0.716,1.621-1.215,2.31-1.494c0.69-0.281,1.397-0.421,2.118-0.421
		c1.48,0,2.737,0.518,3.771,1.551c0.869,0.878,1.303,2.178,1.303,3.899v9.87H17.27v-6.542c0-1.783-0.08-2.966-0.24-3.551
		c-0.16-0.586-0.437-1.031-0.834-1.337c-0.397-0.307-0.888-0.459-1.473-0.459c-0.758,0-1.409,0.254-1.951,0.762
		c-0.543,0.507-0.92,1.209-1.13,2.104c-0.112,0.468-0.165,1.478-0.165,3.03v5.993H7.729V8.113z"/>
	<path fill="#F7941E" d="M22.815,8.113h1.333c0.008-1.959,0.041-3.116,0.096-3.473c0.101-0.824,0.446-1.477,1.036-1.957
		c0.591-0.48,1.425-0.721,2.505-0.721c0.779,0,1.657,0.18,2.636,0.535v2.855c-0.54-0.154-0.984-0.231-1.331-0.231
		c-0.44,0-0.762,0.09-0.961,0.273c-0.148,0.137-0.221,0.421-0.221,0.85l-0.012,1.868h2.373v3.171h-2.373V23.05h-3.749V11.285h-1.333
		V8.113z"/>
	<path fill="#F7941E" d="M39.482,7.729c1.41,0,2.734,0.353,3.974,1.057c1.24,0.705,2.208,1.662,2.904,2.87
		c0.695,1.207,1.043,2.511,1.043,3.913c0,1.408-0.349,2.727-1.05,3.953c-0.7,1.227-1.654,2.185-2.863,2.875
		c-1.207,0.691-2.539,1.039-3.995,1.039c-2.141,0-3.969-0.762-5.484-2.288c-1.514-1.524-2.271-3.374-2.271-5.551
		c0-2.334,0.854-4.279,2.567-5.835C35.807,8.406,37.533,7.729,39.482,7.729z M39.544,11.258c-1.163,0-2.134,0.405-2.908,1.214
		c-0.775,0.809-1.164,1.846-1.164,3.109c0,1.299,0.384,2.352,1.149,3.157c0.767,0.807,1.735,1.208,2.909,1.208
		s2.15-0.406,2.929-1.22c0.779-0.815,1.169-1.864,1.169-3.145c0-1.281-0.384-2.322-1.148-3.124
		C41.714,11.658,40.737,11.258,39.544,11.258z"/>
	<path fill="#F7941E" d="M49.586,8.113H52.8v1.881c0.347-0.741,0.809-1.305,1.386-1.689c0.577-0.383,1.208-0.576,1.895-0.576
		c0.485,0,0.994,0.128,1.524,0.384l-1.167,3.227c-0.439-0.221-0.801-0.33-1.084-0.33c-0.576,0-1.063,0.356-1.462,1.07
		c-0.398,0.714-0.598,2.113-0.598,4.202l0.015,0.726v6.042h-3.721V8.113z"/>
	<path fill="#F7941E" d="M59.431,8.113h3.746v1.716c0.641-0.704,1.354-1.23,2.138-1.579c0.783-0.348,1.637-0.521,2.562-0.521
		c0.934,0,1.776,0.229,2.527,0.687c0.751,0.458,1.355,1.126,1.814,2.004c0.596-0.878,1.327-1.547,2.191-2.004
		c0.866-0.458,1.812-0.687,2.839-0.687c1.061,0,1.994,0.246,2.802,0.741c0.805,0.495,1.383,1.14,1.737,1.936
		c0.352,0.796,0.529,2.092,0.529,3.885v8.759H78.54v-7.578c0-1.693-0.211-2.84-0.632-3.44c-0.421-0.599-1.052-0.899-1.895-0.899
		c-0.64,0-1.214,0.185-1.723,0.55c-0.507,0.366-0.884,0.871-1.132,1.517c-0.248,0.645-0.372,1.681-0.372,3.11v6.74h-3.775v-7.235
		c0-1.336-0.1-2.304-0.296-2.903c-0.197-0.599-0.493-1.045-0.888-1.338c-0.393-0.293-0.871-0.44-1.432-0.44
		c-0.622,0-1.188,0.186-1.698,0.557c-0.508,0.371-0.891,0.89-1.143,1.558c-0.252,0.668-0.379,1.721-0.379,3.158v6.645h-3.746V8.113z
		"/>
	<path fill="#F7941E" d="M100.848,16.666H88.808c0.175,1.062,0.641,1.906,1.394,2.533c0.756,0.626,1.719,0.94,2.891,0.94
		c1.4,0,2.603-0.489,3.609-1.469l3.159,1.482c-0.788,1.118-1.73,1.943-2.828,2.479c-1.099,0.535-2.404,0.805-3.914,0.805
		c-2.344,0-4.25-0.74-5.725-2.218c-1.474-1.478-2.209-3.33-2.209-5.554c0-2.278,0.734-4.171,2.202-5.678
		c1.469-1.504,3.311-2.257,5.527-2.257c2.353,0,4.264,0.753,5.737,2.257c1.475,1.507,2.211,3.495,2.211,5.966L100.848,16.666z
		 M97.101,13.714c-0.247-0.833-0.735-1.51-1.464-2.032c-0.729-0.521-1.575-0.783-2.538-0.783c-1.044,0-1.961,0.292-2.75,0.879
		c-0.495,0.365-0.954,1.011-1.375,1.935H97.101z M93.6,0h4.436L93.01,5.382h-2.691L93.6,0z"/>
	<path fill="#F7941E" d="M119.158,10.2l-2.321,2.319c-0.942-0.933-1.799-1.4-2.567-1.4c-0.421,0-0.751,0.09-0.989,0.268
		s-0.356,0.399-0.356,0.666c0,0.201,0.075,0.386,0.227,0.556c0.149,0.17,0.523,0.4,1.119,0.694l1.372,0.687
		c1.446,0.713,2.441,1.441,2.979,2.181c0.54,0.743,0.811,1.611,0.811,2.609c0,1.327-0.488,2.435-1.462,3.323
		c-0.974,0.887-2.282,1.332-3.919,1.332c-2.179,0-3.916-0.852-5.218-2.555l2.306-2.511c0.441,0.512,0.956,0.927,1.545,1.242
		s1.114,0.473,1.572,0.473c0.493,0,0.892-0.119,1.194-0.356c0.302-0.239,0.454-0.513,0.454-0.825c0-0.575-0.546-1.138-1.634-1.688
		l-1.264-0.632c-2.415-1.217-3.624-2.742-3.624-4.571c0-1.182,0.456-2.19,1.366-3.028c0.911-0.837,2.076-1.255,3.494-1.255
		c0.971,0,1.883,0.213,2.739,0.639C117.837,8.793,118.562,9.404,119.158,10.2z"/>
	<path fill="#F7941E" d="M122.37,8.113h3.79v7.194c0,1.399,0.094,2.373,0.289,2.916c0.191,0.545,0.502,0.968,0.927,1.27
		c0.427,0.302,0.954,0.453,1.577,0.453s1.152-0.148,1.589-0.445c0.437-0.297,0.759-0.734,0.97-1.312
		c0.155-0.429,0.234-1.35,0.234-2.758V8.113h3.747v6.328c0,2.609-0.206,4.394-0.618,5.354c-0.503,1.172-1.244,2.072-2.224,2.698
		c-0.98,0.626-2.225,0.941-3.734,0.941c-1.639,0-2.963-0.367-3.974-1.1c-1.012-0.732-1.723-1.753-2.135-3.062
		c-0.294-0.905-0.439-2.553-0.439-4.942V8.113z"/>
	<path fill="#F7941E" d="M138.376,8.113h3.212v1.881c0.35-0.741,0.811-1.305,1.388-1.689c0.577-0.383,1.208-0.576,1.895-0.576
		c0.485,0,0.992,0.128,1.522,0.384l-1.167,3.227c-0.438-0.221-0.799-0.33-1.083-0.33c-0.578,0-1.065,0.356-1.462,1.07
		c-0.399,0.714-0.598,2.113-0.598,4.202l0.015,0.726v6.042h-3.722V8.113z"/>
	<path fill="#F7941E" d="M153.39,2.346h3.748V23.05h-3.748V2.346z"/>
	<path fill="#F7941E" d="M171.565,8.113h3.749V23.05h-3.749v-1.58c-0.73,0.697-1.464,1.199-2.201,1.504
		c-0.735,0.307-1.534,0.461-2.393,0.461c-1.929,0-3.598-0.75-5.005-2.246c-1.407-1.496-2.112-3.357-2.112-5.581
		c0-2.306,0.682-4.196,2.044-5.67c1.361-1.474,3.016-2.21,4.963-2.21c0.896,0,1.736,0.168,2.524,0.507
		c0.785,0.338,1.512,0.848,2.179,1.524V8.113z M167.625,11.188c-1.157,0-2.119,0.41-2.886,1.23c-0.765,0.818-1.148,1.868-1.148,3.15
		c0,1.289,0.388,2.352,1.169,3.184c0.779,0.833,1.739,1.25,2.88,1.25c1.177,0,2.152-0.41,2.928-1.229
		c0.774-0.819,1.162-1.893,1.162-3.219c0-1.3-0.388-2.354-1.162-3.159C169.791,11.592,168.811,11.188,167.625,11.188z"/>
	<path fill="#004D6D" d="M178.385,2.854h11.163v3.79h-3.679V23.05h-3.899V6.645h-3.585V2.854z"/>
	<path fill="#004D6D" d="M191.254,8.113h3.212v1.881c0.347-0.741,0.811-1.305,1.388-1.689c0.575-0.383,1.208-0.576,1.894-0.576
		c0.485,0,0.994,0.128,1.524,0.384l-1.166,3.227c-0.44-0.221-0.802-0.33-1.086-0.33c-0.576,0-1.063,0.356-1.461,1.07
		c-0.398,0.714-0.597,2.113-0.597,4.202l0.014,0.726v6.042h-3.721V8.113z"/>
	<path fill="#004D6D" d="M211.787,8.113h3.749V23.05h-3.749v-1.58c-0.73,0.697-1.465,1.199-2.201,1.504
		c-0.736,0.307-1.533,0.461-2.392,0.461c-1.929,0-3.598-0.75-5.005-2.246c-1.407-1.496-2.112-3.357-2.112-5.581
		c0-2.306,0.681-4.196,2.044-5.67c1.362-1.474,3.016-2.21,4.963-2.21c0.896,0,1.736,0.168,2.524,0.507
		c0.785,0.338,1.512,0.848,2.179,1.524V8.113z M207.847,11.188c-1.157,0-2.12,0.41-2.887,1.23c-0.764,0.818-1.149,1.868-1.149,3.15
		c0,1.289,0.39,2.352,1.171,3.184c0.779,0.833,1.74,1.25,2.88,1.25c1.177,0,2.152-0.41,2.929-1.229
		c0.774-0.819,1.162-1.893,1.162-3.219c0-1.3-0.388-2.354-1.162-3.159C210.014,11.592,209.033,11.188,207.847,11.188z"/>
	<path fill="#004D6D" d="M219.108,8.113h3.747v1.53c0.849-0.716,1.621-1.215,2.31-1.494c0.69-0.281,1.396-0.421,2.118-0.421
		c1.48,0,2.737,0.518,3.771,1.551c0.869,0.878,1.303,2.178,1.303,3.899v9.87h-3.708v-6.542c0-1.783-0.079-2.966-0.239-3.551
		c-0.159-0.586-0.439-1.031-0.836-1.337c-0.396-0.307-0.888-0.459-1.471-0.459c-0.758,0-1.409,0.254-1.952,0.762
		c-0.543,0.507-0.919,1.209-1.129,2.104c-0.11,0.468-0.165,1.478-0.165,3.03v5.993h-3.747V8.113z"/>
	<path fill="#004D6D" d="M244.835,10.2l-2.322,2.319c-0.941-0.933-1.798-1.4-2.565-1.4c-0.421,0-0.751,0.09-0.988,0.268
		c-0.238,0.178-0.357,0.399-0.357,0.666c0,0.201,0.075,0.386,0.226,0.556c0.152,0.17,0.524,0.4,1.12,0.694l1.373,0.687
		c1.445,0.713,2.438,1.441,2.979,2.181c0.541,0.743,0.811,1.611,0.811,2.609c0,1.327-0.488,2.435-1.462,3.323
		c-0.975,0.887-2.282,1.332-3.92,1.332c-2.179,0-3.918-0.852-5.216-2.555l2.305-2.511c0.438,0.512,0.956,0.927,1.545,1.242
		c0.59,0.315,1.114,0.473,1.572,0.473c0.493,0,0.892-0.119,1.194-0.356c0.301-0.239,0.452-0.513,0.452-0.825
		c0-0.575-0.545-1.138-1.633-1.688l-1.263-0.632c-2.417-1.217-3.625-2.742-3.625-4.571c0-1.182,0.455-2.19,1.366-3.028
		c0.909-0.837,2.075-1.255,3.493-1.255c0.971,0,1.883,0.213,2.739,0.639C243.514,8.793,244.238,9.404,244.835,10.2z"/>
	<path fill="#004D6D" d="M250.985,8.113v1.647c0.677-0.677,1.41-1.187,2.198-1.524c0.786-0.339,1.628-0.507,2.525-0.507
		c1.948,0,3.605,0.736,4.97,2.21c1.363,1.474,2.045,3.364,2.045,5.67c0,2.224-0.705,4.084-2.113,5.581
		c-1.409,1.496-3.081,2.246-5.012,2.246c-0.859,0-1.66-0.154-2.402-0.461c-0.743-0.306-1.479-0.808-2.211-1.504v7.044h-3.719v-20.4
		H250.985z M254.926,11.188c-1.181,0-2.159,0.404-2.937,1.208c-0.778,0.805-1.168,1.858-1.168,3.159c0,1.326,0.39,2.399,1.168,3.219
		c0.777,0.818,1.756,1.229,2.937,1.229c1.146,0,2.107-0.416,2.89-1.25c0.783-0.832,1.174-1.895,1.174-3.184
		c0-1.282-0.383-2.332-1.152-3.15C257.068,11.598,256.098,11.188,254.926,11.188z"/>
	<path fill="#004D6D" d="M264.837,2.346h3.746V23.05h-3.746V2.346z"/>
	<path fill="#004D6D" d="M283.012,8.113h3.749V23.05h-3.749v-1.58c-0.731,0.697-1.465,1.199-2.2,1.504
		c-0.736,0.307-1.533,0.461-2.393,0.461c-1.929,0-3.598-0.75-5.005-2.246c-1.407-1.496-2.111-3.357-2.111-5.581
		c0-2.306,0.68-4.196,2.043-5.67c1.361-1.474,3.016-2.21,4.963-2.21c0.896,0,1.738,0.168,2.524,0.507
		c0.786,0.338,1.512,0.848,2.179,1.524V8.113z M279.071,11.188c-1.158,0-2.12,0.41-2.887,1.23c-0.765,0.818-1.147,1.868-1.147,3.15
		c0,1.289,0.388,2.352,1.169,3.184c0.779,0.833,1.74,1.25,2.88,1.25c1.177,0,2.153-0.41,2.929-1.229
		c0.775-0.819,1.163-1.893,1.163-3.219c0-1.3-0.388-2.354-1.163-3.159C281.239,11.592,280.258,11.188,279.071,11.188z"/>
	<path fill="#004D6D" d="M290.188,8.113h3.748v1.53c0.85-0.716,1.619-1.215,2.311-1.494c0.689-0.281,1.396-0.421,2.118-0.421
		c1.48,0,2.735,0.518,3.768,1.551c0.871,0.878,1.304,2.178,1.304,3.899v9.87h-3.706v-6.542c0-1.783-0.08-2.966-0.242-3.551
		c-0.157-0.586-0.437-1.031-0.834-1.337c-0.397-0.307-0.887-0.459-1.473-0.459c-0.758,0-1.407,0.254-1.951,0.762
		c-0.543,0.507-0.919,1.209-1.129,2.104c-0.11,0.468-0.165,1.478-0.165,3.03v5.993h-3.748V8.113z"/>
	<path fill="#004D6D" d="M324.996,8.113h3.751V23.05h-3.751v-1.58c-0.73,0.697-1.464,1.199-2.201,1.504
		c-0.735,0.307-1.532,0.461-2.392,0.461c-1.93,0-3.596-0.75-5.003-2.246c-1.41-1.496-2.113-3.357-2.113-5.581
		c0-2.306,0.681-4.196,2.042-5.67c1.364-1.474,3.019-2.21,4.965-2.21c0.895,0,1.737,0.168,2.523,0.507
		c0.786,0.338,1.513,0.848,2.179,1.524V8.113z M321.058,11.188c-1.159,0-2.12,0.41-2.887,1.23c-0.767,0.818-1.15,1.868-1.15,3.15
		c0,1.289,0.391,2.352,1.172,3.184c0.779,0.833,1.738,1.25,2.879,1.25c1.176,0,2.152-0.41,2.93-1.229
		c0.774-0.819,1.161-1.893,1.161-3.219c0-1.3-0.387-2.354-1.161-3.159C323.224,11.592,322.243,11.188,321.058,11.188z"/>
	<path fill="#004D6D" d="M341.558,1.963c0.657,0,1.222,0.238,1.69,0.713c0.471,0.477,0.705,1.053,0.705,1.73
		c0,0.668-0.231,1.237-0.697,1.71c-0.466,0.471-1.022,0.706-1.669,0.706c-0.668,0-1.235-0.24-1.706-0.721
		c-0.469-0.48-0.704-1.064-0.704-1.75c0-0.659,0.232-1.222,0.698-1.688C340.341,2.196,340.902,1.963,341.558,1.963z M339.685,8.113
		h3.747V23.05h-3.747V8.113z"/>
	<path fill="#004D6D" d="M353.853,7.729c1.408,0,2.733,0.353,3.974,1.057c1.24,0.705,2.208,1.662,2.903,2.87
		c0.696,1.207,1.043,2.511,1.043,3.913c0,1.408-0.349,2.727-1.049,3.953c-0.7,1.227-1.655,2.185-2.862,2.875
		c-1.208,0.691-2.54,1.039-3.995,1.039c-2.142,0-3.97-0.762-5.485-2.288c-1.515-1.524-2.271-3.374-2.271-5.551
		c0-2.334,0.856-4.279,2.566-5.835C350.178,8.406,351.903,7.729,353.853,7.729z M353.914,11.258c-1.164,0-2.134,0.405-2.909,1.214
		c-0.773,0.809-1.162,1.846-1.162,3.109c0,1.299,0.384,2.352,1.15,3.157c0.764,0.807,1.732,1.208,2.906,1.208
		c1.176,0,2.151-0.406,2.93-1.22c0.78-0.815,1.17-1.864,1.17-3.145c0-1.281-0.385-2.322-1.149-3.124
		C356.085,11.658,355.105,11.258,353.914,11.258z"/>
	<path fill="#004D6D" d="M363.751,8.113h3.75v1.53c0.85-0.716,1.618-1.215,2.308-1.494c0.691-0.281,1.397-0.421,2.119-0.421
		c1.481,0,2.737,0.518,3.77,1.551c0.868,0.878,1.303,2.178,1.303,3.899v9.87h-3.707v-6.542c0-1.783-0.08-2.966-0.24-3.551
		c-0.16-0.586-0.437-1.031-0.835-1.337c-0.397-0.307-0.888-0.459-1.472-0.459c-0.758,0-1.408,0.254-1.952,0.762
		c-0.543,0.507-0.92,1.209-1.13,2.104c-0.109,0.468-0.163,1.478-0.163,3.03v5.993h-3.75V8.113z"/>
</g>
</svg>
