<?xml version="1.0" encoding="utf-8"?>
<!-- Generator: Adobe Illustrator 16.0.0, SVG Export Plug-In . SVG Version: 6.00 Build 0)  -->
<!DOCTYPE svg PUBLIC "-//W3C//DTD SVG 1.1//EN" "http://www.w3.org/Graphics/SVG/1.1/DTD/svg11.dtd">
<svg version="1.1" id="Layer_2" xmlns="http://www.w3.org/2000/svg" xmlns:xlink="http://www.w3.org/1999/xlink" x="0px" y="0px"
	 width="460.363px" height="49.693px" viewBox="0 0 460.363 49.693" enable-background="new 0 0 460.363 49.693"
	 xml:space="preserve">
<g>
	<path fill="#004D6D" d="M0,1.608h20.917v7.096h-6.894v30.748H6.713V8.705H0V1.608z"/>
	<path fill="#004D6D" d="M20.804,11.458h6.021v3.527c0.652-1.387,1.521-2.445,2.602-3.161c1.077-0.727,2.262-1.082,3.545-1.082
		c0.913,0,1.862,0.238,2.861,0.716l-2.191,6.045c-0.822-0.407-1.498-0.612-2.03-0.612c-1.079,0-1.992,0.667-2.74,2.004
		c-0.745,1.338-1.115,3.966-1.115,7.876l0.023,1.361v11.32h-6.975V11.458z"/>
	<path fill="#004D6D" d="M57.328,11.458h7.024v27.994h-7.024v-2.958c-1.371,1.3-2.747,2.241-4.127,2.819
		c-1.379,0.571-2.869,0.861-4.482,0.861c-3.614,0-6.743-1.403-9.38-4.209c-2.639-2.804-3.958-6.29-3.958-10.458
		c0-4.32,1.276-7.865,3.83-10.625c2.552-2.764,5.651-4.14,9.302-4.14c1.68,0,3.255,0.313,4.727,0.949
		c1.478,0.636,2.837,1.586,4.089,2.854V11.458z M49.945,17.222c-2.172,0-3.978,0.77-5.414,2.305c-1.435,1.535-2.152,3.5-2.152,5.906
		c0,2.416,0.731,4.408,2.195,5.966c1.458,1.563,3.258,2.344,5.395,2.344c2.202,0,4.033-0.771,5.486-2.305
		c1.455-1.533,2.18-3.547,2.18-6.03c0-2.441-0.725-4.412-2.18-5.92C54.002,17.979,52.169,17.222,49.945,17.222z"/>
	<path fill="#004D6D" d="M68.82,11.458h7.021v2.872c1.596-1.343,3.038-2.278,4.332-2.804c1.292-0.522,2.614-0.783,3.97-0.783
		c2.773,0,5.129,0.966,7.064,2.904c1.628,1.649,2.44,4.083,2.44,7.308v18.498H86.7V27.196c0-3.343-0.15-5.561-0.449-6.659
		c-0.3-1.096-0.822-1.929-1.566-2.504s-1.661-0.859-2.76-0.859c-1.418,0-2.64,0.474-3.655,1.422
		c-1.019,0.954-1.722,2.271-2.116,3.946c-0.209,0.875-0.312,2.771-0.312,5.682v11.229H68.82V11.458z"/>
	<path fill="#004D6D" d="M114.939,15.371l-4.348,4.349c-1.766-1.748-3.371-2.624-4.812-2.624c-0.791,0-1.406,0.165-1.854,0.5
		c-0.444,0.335-0.67,0.75-0.67,1.246c0,0.381,0.143,0.725,0.427,1.046c0.283,0.319,0.981,0.75,2.097,1.3l2.571,1.283
		c2.711,1.338,4.573,2.701,5.585,4.095c1.013,1.387,1.518,3.012,1.518,4.886c0,2.489-0.913,4.563-2.742,6.225
		c-1.825,1.665-4.276,2.498-7.344,2.498c-4.084,0-7.342-1.595-9.778-4.787l4.322-4.708c0.823,0.961,1.788,1.736,2.896,2.329
		c1.107,0.593,2.086,0.888,2.945,0.888c0.926,0,1.673-0.224,2.239-0.672c0.563-0.445,0.85-0.958,0.85-1.54
		c0-1.084-1.021-2.137-3.062-3.165l-2.37-1.186c-4.527-2.279-6.79-5.137-6.79-8.566c0-2.212,0.853-4.105,2.558-5.675
		c1.709-1.57,3.892-2.35,6.553-2.35c1.815,0,3.527,0.396,5.13,1.191C112.464,12.732,113.824,13.878,114.939,15.371z"/>
	<path fill="#004D6D" d="M125.324,11.458v3.086c1.268-1.267,2.64-2.217,4.116-2.854c1.476-0.635,3.053-0.949,4.736-0.949
		c3.65,0,6.755,1.376,9.312,4.14c2.556,2.76,3.835,6.305,3.835,10.625c0,4.168-1.324,7.654-3.964,10.458
		c-2.641,2.806-5.771,4.209-9.392,4.209c-1.614,0-3.114-0.29-4.503-0.861c-1.387-0.578-2.77-1.519-4.142-2.819v13.198h-6.972V11.458
		H125.324z M132.708,17.222c-2.214,0-4.05,0.757-5.506,2.266c-1.458,1.508-2.187,3.479-2.187,5.92c0,2.483,0.729,4.497,2.187,6.03
		c1.456,1.533,3.292,2.305,5.506,2.305c2.144,0,3.949-0.78,5.416-2.344c1.466-1.559,2.201-3.55,2.201-5.966
		c0-2.406-0.722-4.371-2.161-5.906C136.723,17.992,134.901,17.222,132.708,17.222z"/>
	<path fill="#004D6D" d="M149.73,0.655h7.024v38.797h-7.024V0.655z"/>
	<path fill="#004D6D" d="M181.161,11.458h7.024v27.994h-7.024v-2.958c-1.369,1.3-2.745,2.241-4.122,2.819
		c-1.383,0.571-2.874,0.861-4.485,0.861c-3.616,0-6.742-1.403-9.382-4.209c-2.637-2.804-3.958-6.29-3.958-10.458
		c0-4.32,1.276-7.865,3.835-10.625c2.549-2.764,5.648-4.14,9.301-4.14c1.676,0,3.254,0.313,4.728,0.949
		c1.471,0.636,2.837,1.586,4.084,2.854V11.458z M173.78,17.222c-2.174,0-3.978,0.77-5.412,2.305c-1.434,1.535-2.152,3.5-2.152,5.906
		c0,2.416,0.73,4.408,2.189,5.966c1.462,1.563,3.261,2.344,5.397,2.344c2.207,0,4.036-0.771,5.489-2.305
		c1.454-1.533,2.182-3.547,2.182-6.03c0-2.441-0.728-4.412-2.182-5.92C177.839,17.979,176.001,17.222,173.78,17.222z"/>
	<path fill="#004D6D" d="M192.651,11.458h7.026v2.872c1.591-1.343,3.036-2.278,4.326-2.804c1.294-0.522,2.618-0.783,3.971-0.783
		c2.773,0,5.13,0.966,7.065,2.904c1.63,1.649,2.438,4.083,2.438,7.308v18.498h-6.947V27.196c0-3.343-0.148-5.561-0.448-6.659
		c-0.301-1.096-0.822-1.929-1.567-2.504c-0.742-0.576-1.662-0.859-2.755-0.859c-1.423,0-2.643,0.474-3.656,1.422
		c-1.021,0.954-1.726,2.271-2.119,3.946c-0.209,0.875-0.308,2.771-0.308,5.682v11.229h-7.026V11.458z"/>
	<path fill="#004D6D" d="M222.487,1.143h7.023v10.315v6.045v21.949h-7.023V17.503v-6.045V1.143z"/>
	<g>
		<g>
			<path fill="#004D6D" d="M199.541,2.5c0.23,0.261,20.25,9.474,38.829,18.043v-5.361C222.786,9.753,205.06,3.741,199.541,2.5z"/>
			<polygon fill="#F7941E" points="238.37,1.671 238.37,15.182 238.37,20.543 238.37,39.452 245.51,39.452 245.51,23.839 
				245.51,17.681 245.51,1.671 			"/>
			<path fill="#F7941E" d="M275.179,13.691c-1.933-1.935-4.282-2.903-7.053-2.903c-1.351,0-2.672,0.263-3.963,0.787
				c-1.29,0.524-2.731,1.457-4.322,2.797v-2.863h-7.011v8.752v6.961v12.23h7.011v-8.974v-2.236c0-2.648,0.09-4.44,0.256-5.4
				c0.018-0.095,0.035-0.192,0.052-0.27c0.394-1.675,1.098-2.989,2.113-3.939c1.019-0.947,2.235-1.423,3.653-1.423
				c1.092,0,2.013,0.287,2.754,0.86c0.743,0.573,1.264,1.405,1.563,2.5c0.297,1.095,0.447,3.309,0.447,6.646v12.236h6.936V20.985
				C277.615,17.767,276.804,15.335,275.179,13.691z"/>
		</g>
		<path fill="#F7941E" d="M281.058,11.509h2.491c0.016-3.665,0.076-5.832,0.179-6.499c0.189-1.542,0.835-2.761,1.939-3.661
			C286.771,0.451,288.334,0,290.355,0c1.455,0,3.1,0.334,4.932,1.003v5.343c-1.01-0.292-1.842-0.439-2.492-0.439
			c-0.822,0-1.422,0.172-1.797,0.515c-0.274,0.257-0.411,0.788-0.411,1.592l-0.025,3.495h4.442v5.933h-4.442v22.011h-7.013V17.441
			h-2.491V11.509z"/>
		<path fill="#F7941E" d="M312.239,10.788c2.636,0,5.115,0.66,7.434,1.978c2.321,1.319,4.132,3.108,5.435,5.368
			c1.3,2.262,1.949,4.702,1.949,7.321c0,2.637-0.653,5.104-1.963,7.397c-1.311,2.295-3.096,4.089-5.355,5.38
			c-2.262,1.294-4.75,1.941-7.474,1.941c-4.007,0-7.427-1.425-10.262-4.277c-2.834-2.851-4.251-6.315-4.251-10.389
			c0-4.367,1.602-8.006,4.804-10.918C305.363,12.056,308.592,10.788,312.239,10.788z M312.355,17.39
			c-2.18,0-3.993,0.758-5.442,2.274c-1.45,1.515-2.176,3.454-2.176,5.816c0,2.433,0.716,4.401,2.149,5.908
			c1.431,1.506,3.246,2.26,5.44,2.26c2.196,0,4.023-0.761,5.48-2.287c1.458-1.524,2.186-3.484,2.186-5.881
			c0-2.396-0.714-4.344-2.146-5.843C316.415,18.139,314.584,17.39,312.355,17.39z"/>
		<path fill="#F7941E" d="M331.143,11.509h6.01v3.518c0.651-1.388,1.515-2.44,2.597-3.158c1.077-0.72,2.258-1.08,3.541-1.08
			c0.909,0,1.86,0.24,2.852,0.721l-2.183,6.036c-0.822-0.411-1.498-0.617-2.031-0.617c-1.077,0-1.988,0.667-2.734,2.002
			c-0.744,1.337-1.115,3.956-1.115,7.861l0.026,1.361v11.3h-6.962V11.509z"/>
		<path fill="#F7941E" d="M349.56,11.509h7.01v3.209c1.2-1.319,2.532-2.303,3.997-2.954c1.466-0.65,3.062-0.977,4.793-0.977
			c1.749,0,3.324,0.429,4.729,1.286c1.406,0.856,2.539,2.105,3.394,3.749c1.114-1.644,2.482-2.893,4.1-3.749
			c1.62-0.857,3.389-1.286,5.308-1.286c1.989,0,3.734,0.463,5.244,1.387c1.507,0.924,2.593,2.132,3.251,3.622
			c0.661,1.492,0.989,3.914,0.989,7.269v16.386h-7.064V25.274c0-3.167-0.392-5.31-1.181-6.432c-0.788-1.122-1.969-1.684-3.544-1.684
			c-1.198,0-2.271,0.343-3.225,1.028c-0.948,0.686-1.655,1.631-2.116,2.838c-0.465,1.207-0.695,3.145-0.695,5.816v12.611h-7.063
			V25.917c0-2.499-0.185-4.311-0.554-5.433c-0.37-1.12-0.922-1.956-1.659-2.503s-1.631-0.822-2.679-0.822
			c-1.167,0-2.227,0.348-3.179,1.04c-0.954,0.695-1.666,1.667-2.136,2.915c-0.473,1.25-0.71,3.222-0.71,5.908v12.432h-7.01V11.509z"
			/>
		<path fill="#F7941E" d="M427.049,27.509h-22.524c0.323,1.988,1.194,3.567,2.604,4.74c1.416,1.172,3.215,1.758,5.408,1.758
			c2.618,0,4.87-0.915,6.755-2.748l5.908,2.773c-1.474,2.089-3.237,3.636-5.291,4.637c-2.055,1.001-4.495,1.503-7.32,1.503
			c-4.385,0-7.955-1.383-10.711-4.148c-2.758-2.767-4.136-6.229-4.136-10.39c0-4.265,1.375-7.804,4.122-10.621
			c2.749-2.817,6.196-4.226,10.339-4.226c4.399,0,7.979,1.408,10.736,4.226c2.755,2.817,4.136,6.538,4.136,11.161L427.049,27.509z
			 M420.038,21.987c-0.464-1.559-1.378-2.826-2.74-3.801c-1.365-0.977-2.947-1.464-4.746-1.464c-1.955,0-3.673,0.549-5.148,1.645
			c-0.925,0.684-1.781,1.891-2.572,3.621H420.038z"/>
		<path fill="#F7941E" d="M453.35,0.72h7.014v38.732h-7.014V36.5c-1.368,1.3-2.741,2.237-4.117,2.812
			c-1.378,0.573-2.867,0.861-4.478,0.861c-3.61,0-6.729-1.4-9.362-4.2c-2.635-2.799-3.951-6.28-3.951-10.441
			c0-4.313,1.274-7.851,3.822-10.606c2.548-2.757,5.643-4.137,9.287-4.137c1.676,0,3.249,0.318,4.721,0.95
			c1.471,0.635,2.828,1.585,4.078,2.851V0.72z M445.979,17.261c-2.169,0-3.969,0.767-5.402,2.298
			c-1.433,1.534-2.149,3.498-2.149,5.896c0,2.415,0.728,4.399,2.188,5.96c1.46,1.557,3.256,2.335,5.389,2.335
			c2.202,0,4.027-0.764,5.478-2.298c1.45-1.531,2.177-3.538,2.177-6.022c0-2.433-0.727-4.4-2.177-5.907
			C450.031,18.016,448.197,17.261,445.979,17.261z"/>
	</g>
</g>
</svg>
