<?xml version="1.0" encoding="utf-8"?>
<!-- Generator: Adobe Illustrator 16.0.0, SVG Export Plug-In . SVG Version: 6.00 Build 0)  -->
<!DOCTYPE svg PUBLIC "-//W3C//DTD SVG 1.1//EN" "http://www.w3.org/Graphics/SVG/1.1/DTD/svg11.dtd">
<svg version="1.1" id="Layer_1" xmlns="http://www.w3.org/2000/svg" xmlns:xlink="http://www.w3.org/1999/xlink" x="0px" y="0px"
	 width="46.036px" height="52px" viewBox="0 0 46.036 52" enable-background="new 0 0 46.036 52" xml:space="preserve">
<g id="Your_Icon">
	<g>
		<path fill="#FFFFFF" d="M32.135,48.75c-0.286-0.031-0.556-0.186-0.723-0.448c-0.295-0.458-0.163-1.067,0.294-1.362l0,0
			c0.404-0.261,1.518-1.135,1.851-2.043c0.938-2.58,2.628-8.783,2.646-8.846c0.144-0.526,0.687-0.835,1.212-0.693
			c0.527,0.143,0.836,0.686,0.693,1.211c-0.068,0.259-1.727,6.349-2.696,9.006c-0.617,1.694-2.431,2.894-2.635,3.025
			C32.58,48.725,32.351,48.773,32.135,48.75z"/>
	</g>
	<path fill="#FFFFFF" d="M39.354,9.82c-0.265-0.048-0.521-0.087-0.771-0.114c-5.46-0.599-7.923,3.682-8.449,5.981l-7.218,25.625
		c-0.021,0.074-2.248,7.334,5.665,10.433l0.153,0.045c0.32,0.07,0.643,0.122,0.959,0.157c5.787,0.635,8.383-4.536,8.49-4.757
		l0.037-0.083l7.736-28.283l0.027-0.142C46.3,16.094,45.313,10.915,39.354,9.82z M36.368,46.395
		c-0.308,0.576-2.347,4.04-6.459,3.588c-0.226-0.025-0.454-0.061-0.684-0.106c-6.075-2.427-4.499-7.738-4.42-7.994l3.159-11.214
		c1.375,1.326,3.789,3.092,7.197,3.466c1.39,0.151,2.947,0.071,4.66-0.363L36.368,46.395z M42.601,19.245
		c-0.709,0.738-1.88,0.759-2.621,0.051c-0.734-0.71-0.756-1.882-0.048-2.62c0.71-0.737,1.883-0.76,2.62-0.049
		C43.289,17.334,43.311,18.507,42.601,19.245z"/>
	<path fill="#FFFFFF" d="M22.31,33.915l-0.004-0.093L15.677,5.259l-0.044-0.138c-0.954-2.425-4.28-6.515-10.045-4.647
		C5.333,0.558,5.086,0.647,4.853,0.741c-5.086,2.066-5.22,7.002-4.588,9.277l5.821,25.977c0.016,0.076,1.503,7.523,9.94,6.489
		l0.157-0.032c0.314-0.091,0.623-0.199,0.917-0.319C22.495,39.941,22.321,34.159,22.31,33.915z M4.971,21.998L2.179,9.542
		C2.122,9.329,0.787,4.095,6.195,2.355c5.177-1.678,7.315,2.831,7.576,3.431l3.079,13.273C11.979,24.328,6.58,22.668,4.971,21.998z
		 M18.223,37.723c-0.112,0.206-0.291,0.355-0.492,0.438c-0.268,0.108-0.579,0.099-0.851-0.052c-0.478-0.263-0.651-0.863-0.389-1.34
		c0.232-0.42,0.798-1.72,0.657-2.676c-0.396-2.716-1.857-8.978-1.873-9.041c-0.122-0.531,0.208-1.061,0.736-1.187
		c0.532-0.123,1.062,0.207,1.187,0.737c0.062,0.26,1.495,6.406,1.904,9.206C19.364,35.592,18.339,37.511,18.223,37.723z"/>
	<path fill="#FFFFFF" d="M11.634,4.944c0.986,0.275,1.564,1.295,1.29,2.281c-0.273,0.986-1.297,1.562-2.282,1.291
		C9.656,8.24,9.078,7.219,9.353,6.233C9.628,5.247,10.648,4.67,11.634,4.944z"/>
</g>
</svg>
