<?xml version="1.0" encoding="utf-8"?>
<!-- Generator: Adobe Illustrator 16.0.0, SVG Export Plug-In . SVG Version: 6.00 Build 0)  -->
<!DOCTYPE svg PUBLIC "-//W3C//DTD SVG 1.1//EN" "http://www.w3.org/Graphics/SVG/1.1/DTD/svg11.dtd">
<svg version="1.1" id="Layer_1" xmlns="http://www.w3.org/2000/svg" xmlns:xlink="http://www.w3.org/1999/xlink" x="0px" y="0px"
	 width="48.384px" height="50px" viewBox="0 0 48.384 50" enable-background="new 0 0 48.384 50" xml:space="preserve">
<path fill="#FFFFFF" d="M28.467,22.075c2.54,2.03,5.028,2.085,7.579-0.485c7.176-7.241,12.338-14.932,12.338-14.932l-0.725-0.717
	L36.235,17.467c-0.342,0.343-0.896,0.345-1.238,0.005c-0.343-0.341-0.345-0.894-0.006-1.235L46.416,4.71l-0.822-0.816L34.168,15.422
	c-0.338,0.34-0.893,0.342-1.235,0.004c-0.343-0.341-0.343-0.893-0.005-1.235L44.352,2.664l-0.823-0.816L32.107,13.373
	c-0.342,0.343-0.896,0.346-1.238,0.005c-0.344-0.341-0.347-0.893-0.006-1.235L42.288,0.616L41.668,0c0,0-5.516,3.721-14.692,12.172
	c-2.174,2.004-2.433,5.9,0.283,8.79c-1.018,0.808-2.412,1.917-4.032,3.219c0.708,0.817,1.343,1.549,1.871,2.163
	C26.46,24.623,27.628,23.142,28.467,22.075"/>
<path fill="#FFFFFF" d="M20.205,29.774l-0.256,0.014l-0.194-0.168c-0.09-0.075-0.672-0.579-1.553-1.364
	C10.048,34.938,0.249,43.316,0.031,45.178c-0.375,3.202,2.692,5.616,5.178,4.578c1.514-0.635,10.325-11.422,16.992-19.771
	c-0.085-0.103-0.164-0.199-0.249-0.305L20.205,29.774z"/>
<path fill="#FFFFFF" d="M45.445,45.104c-0.61-1.457-11.372-10.211-19.206-16.457c-0.236-0.275-0.78-0.908-1.543-1.796
	c-0.549-0.638-1.211-1.404-1.965-2.272C16.404,17.297,3.836,3.124,1.633,2.867c-0.053-0.008-0.104-0.01-0.154-0.01
	c-2.648,0,1.744,9.073,5.698,13.761c2.974,3.524,8.8,8.81,11.524,11.23c0.906,0.806,1.47,1.293,1.47,1.293l2.072-0.112
	c0.119,0.146,0.241,0.299,0.363,0.448c6.365,7.891,16.585,20.188,18.599,20.426c0.167,0.019,0.331,0.029,0.492,0.029
	C44.412,49.933,46.354,47.28,45.445,45.104"/>
</svg>
