<?xml version="1.0" encoding="utf-8"?>
<!-- Generator: Adobe Illustrator 16.0.0, SVG Export Plug-In . SVG Version: 6.00 Build 0)  -->
<!DOCTYPE svg PUBLIC "-//W3C//DTD SVG 1.1//EN" "http://www.w3.org/Graphics/SVG/1.1/DTD/svg11.dtd">
<svg version="1.1" id="Layer_1" xmlns="http://www.w3.org/2000/svg" xmlns:xlink="http://www.w3.org/1999/xlink" x="0px" y="0px"
	 width="75px" height="52.261px" viewBox="0 0 75 52.261" enable-background="new 0 0 75 52.261" xml:space="preserve">
<g>
	<path fill="#FFFFFF" d="M1.707,20.875c1.3-1.947,3.271-3.49,5.907-4.629c3.459-1.501,6.697-1.919,9.7-1.256
		c3.009,0.662,5.215,2.621,6.623,5.866c0.858,1.991,1.088,3.886,0.685,5.677c-0.219,1.08-0.878,2.62-1.969,4.622l-1.078,1.964
		c-0.594,1.076-0.829,2.134-0.719,3.179c0.063,0.661,0.358,1.607,0.873,2.842L15.5,41.834c-1.027-2.628-1.556-4.524-1.588-5.682
		c-0.027-1.161,0.499-2.74,1.595-4.743l1.105-2.034c0.366-0.651,0.614-1.294,0.739-1.93c0.241-1.107,0.148-2.166-0.287-3.179
		c-0.501-1.163-1.304-2.078-2.395-2.739c-1.099-0.666-2.55-0.606-4.351,0.176c-1.772,0.768-2.773,1.903-3.006,3.403
		c-0.227,1.499-0.065,2.886,0.481,4.155l-6.64,2.876C-0.552,27.693-0.367,23.939,1.707,20.875z M16.705,45.052l6.867-2.977
		l2.876,6.642l-6.87,2.976L16.705,45.052z"/>
</g>
<g>
	<path fill="#FFFFFF" d="M29.198,1.855C31.176,0.601,33.602-0.018,36.473,0c3.771,0.024,6.9,0.947,9.382,2.768
		c2.488,1.818,3.717,4.497,3.688,8.039c-0.012,2.168-0.568,3.994-1.658,5.472c-0.641,0.896-1.86,2.04-3.665,3.429l-1.783,1.364
		c-0.974,0.747-1.617,1.62-1.938,2.619c-0.207,0.631-0.319,1.617-0.347,2.952l-6.784-0.044c0.118-2.82,0.396-4.769,0.836-5.843
		c0.442-1.072,1.564-2.306,3.369-3.692l1.832-1.417c0.601-0.448,1.087-0.938,1.461-1.469c0.67-0.914,1.01-1.921,1.019-3.023
		c0.007-1.269-0.357-2.426-1.09-3.474c-0.732-1.051-2.086-1.579-4.047-1.592c-1.937-0.013-3.309,0.619-4.125,1.9
		c-0.816,1.28-1.229,2.611-1.239,3.995l-7.236-0.046C24.381,7.181,26.061,3.822,29.198,1.855z M33.169,30.028l7.483,0.049
		l-0.05,7.236l-7.482-0.048L33.169,30.028z"/>
</g>
<g>
	<path fill="#FFFFFF" d="M58.153,15.043c2.29-0.509,4.78-0.265,7.469,0.732c3.54,1.311,6.168,3.247,7.877,5.802
		c1.713,2.555,1.964,5.496,0.731,8.813c-0.751,2.037-1.896,3.564-3.424,4.578c-0.911,0.627-2.449,1.286-4.624,1.975l-2.135,0.677
		c-1.167,0.368-2.073,0.971-2.715,1.798c-0.406,0.524-0.854,1.412-1.336,2.658l-6.362-2.355c1.076-2.611,2.006-4.349,2.775-5.208
		c0.784-0.858,2.259-1.633,4.431-2.323l2.202-0.706c0.721-0.215,1.349-0.508,1.877-0.88c0.94-0.633,1.605-1.464,1.986-2.499
		c0.441-1.188,0.493-2.405,0.163-3.637c-0.338-1.237-1.423-2.193-3.263-2.877c-1.815-0.675-3.322-0.543-4.531,0.38
		c-1.195,0.928-2.037,2.038-2.519,3.34l-6.787-2.514C51.807,18.405,54.534,15.82,58.153,15.043z M52.276,42.875l7.023,2.601
		l-2.51,6.784l-7.024-2.597L52.276,42.875z"/>
</g>
</svg>
