<?xml version="1.0" encoding="utf-8"?>
<!-- Generator: Adobe Illustrator 16.0.0, SVG Export Plug-In . SVG Version: 6.00 Build 0)  -->
<!DOCTYPE svg PUBLIC "-//W3C//DTD SVG 1.1//EN" "http://www.w3.org/Graphics/SVG/1.1/DTD/svg11.dtd">
<svg version="1.1" id="Layer_1" xmlns="http://www.w3.org/2000/svg" xmlns:xlink="http://www.w3.org/1999/xlink" x="0px" y="0px"
	 width="66px" height="40px" viewBox="0 0 66 40" enable-background="new 0 0 66 40" xml:space="preserve">
<g>
	<path fill="#004C6C" d="M60.628,2.542L5.372,2.541c-1.38,0-2.504,0.996-2.504,2.222v30.474c0,1.226,1.124,2.222,2.504,2.222h55.256
		c1.382,0,2.504-0.996,2.504-2.222V4.763C63.132,3.537,62.01,2.542,60.628,2.542z M56.287,19.945l-0.023-0.015L32.66,33.994
		c0,0-0.828,0.622-1.594,0.622s-2.358-0.48-2.358-2.062c0-1.583,1.529-5.118,1.529-5.118H10.341v-7.49v-0.028v-7.491h19.896
		c0,0-1.529-3.533-1.529-5.117c0-1.583,1.593-2.063,2.358-2.063s1.594,0.622,1.594,0.622l23.604,14.063l0.023-0.014V19.945z"/>
	<path fill="#004C6C" d="M60.628,0H5.372C2.406,0,0,2.132,0,4.763v30.474C0,37.867,2.406,40,5.372,40h55.256
		C63.596,40,66,37.867,66,35.236V4.763C66,2.132,63.596,0,60.628,0z M64.28,35.236c0,1.786-1.639,3.238-3.652,3.238H5.372
		c-2.013,0-3.652-1.452-3.652-3.238V4.763c0-1.786,1.64-3.238,3.652-3.238h55.256c2.014,0,3.652,1.452,3.652,3.238V35.236z"/>
	<polygon fill="#004C6C" points="56.287,19.945 56.287,19.917 56.264,19.931 	"/>
</g>
</svg>
