<?xml version="1.0" encoding="utf-8"?>
<!-- Generator: Adobe Illustrator 16.0.0, SVG Export Plug-In . SVG Version: 6.00 Build 0)  -->
<!DOCTYPE svg PUBLIC "-//W3C//DTD SVG 1.1//EN" "http://www.w3.org/Graphics/SVG/1.1/DTD/svg11.dtd">
<svg version="1.1" id="Layer_2" xmlns="http://www.w3.org/2000/svg" xmlns:xlink="http://www.w3.org/1999/xlink" x="0px" y="0px"
	 width="373px" height="40.262px" viewBox="0 0 373 40.262" enable-background="new 0 0 373 40.262" xml:space="preserve">
<g>
	<path fill="#004D6D" d="M0,1.303h16.947v5.75h-5.585v24.913H5.439V7.053H0V1.303z"/>
	<path fill="#004D6D" d="M16.855,9.283h4.878v2.858c0.529-1.124,1.232-1.981,2.108-2.561c0.873-0.589,1.832-0.876,2.872-0.876
		c0.74,0,1.509,0.192,2.318,0.58l-1.775,4.898c-0.666-0.33-1.214-0.496-1.646-0.496c-0.874,0-1.614,0.541-2.22,1.624
		c-0.604,1.084-0.903,3.213-0.903,6.381l0.019,1.103v9.172h-5.651V9.283z"/>
	<path fill="#004D6D" d="M46.449,9.283h5.691v22.682h-5.691v-2.396c-1.111,1.054-2.226,1.816-3.344,2.284
		c-1.117,0.463-2.325,0.698-3.632,0.698c-2.929,0-5.464-1.137-7.601-3.41c-2.138-2.272-3.206-5.097-3.206-8.474
		c0-3.5,1.034-6.373,3.103-8.608c2.068-2.239,4.579-3.354,7.537-3.354c1.36,0,2.637,0.254,3.829,0.769
		c1.197,0.516,2.299,1.285,3.313,2.312V9.283z M40.467,13.954c-1.76,0-3.223,0.624-4.387,1.867
		c-1.162,1.244-1.743,2.836-1.743,4.786c0,1.958,0.593,3.571,1.778,4.834c1.182,1.267,2.64,1.899,4.371,1.899
		c1.784,0,3.268-0.625,4.445-1.867c1.179-1.242,1.766-2.874,1.766-4.886c0-1.978-0.587-3.575-1.766-4.797
		C43.754,14.567,42.269,13.954,40.467,13.954z"/>
	<path fill="#004D6D" d="M55.76,9.283h5.688v2.327c1.293-1.088,2.462-1.846,3.51-2.272c1.047-0.423,2.118-0.634,3.217-0.634
		c2.247,0,4.155,0.783,5.724,2.353c1.319,1.336,1.978,3.309,1.978,5.921v14.988h-5.629v-9.931c0-2.708-0.122-4.506-0.364-5.396
		c-0.242-0.888-0.666-1.562-1.269-2.029c-0.604-0.466-1.347-0.696-2.236-0.696c-1.148,0-2.139,0.384-2.962,1.152
		c-0.825,0.773-1.395,1.84-1.714,3.197c-0.17,0.708-0.254,2.245-0.254,4.604v9.098H55.76V9.283z"/>
	<path fill="#004D6D" d="M93.127,12.454l-3.522,3.523c-1.431-1.416-2.731-2.125-3.898-2.125c-0.641,0-1.139,0.133-1.502,0.405
		c-0.359,0.271-0.542,0.608-0.542,1.009c0,0.309,0.115,0.587,0.346,0.847c0.229,0.258,0.795,0.608,1.698,1.053l2.084,1.04
		c2.196,1.084,3.705,2.189,4.524,3.318c0.82,1.124,1.229,2.44,1.229,3.958c0,2.017-0.739,3.697-2.222,5.044
		c-1.479,1.349-3.465,2.024-5.95,2.024c-3.309,0-5.948-1.292-7.922-3.878l3.502-3.814c0.667,0.778,1.448,1.406,2.347,1.887
		c0.897,0.48,1.689,0.719,2.386,0.719c0.751,0,1.355-0.182,1.814-0.544c0.457-0.36,0.688-0.776,0.688-1.248
		c0-0.879-0.826-1.731-2.481-2.564l-1.92-0.961c-3.668-1.847-5.502-4.162-5.502-6.94c0-1.793,0.691-3.326,2.072-4.599
		c1.385-1.272,3.153-1.904,5.31-1.904c1.471,0,2.857,0.321,4.156,0.965C91.121,10.315,92.224,11.244,93.127,12.454z"/>
	<path fill="#004D6D" d="M101.541,9.283v2.501c1.027-1.027,2.139-1.796,3.336-2.312c1.195-0.515,2.473-0.769,3.837-0.769
		c2.958,0,5.474,1.115,7.546,3.354c2.07,2.236,3.106,5.108,3.106,8.608c0,3.377-1.072,6.202-3.211,8.474
		c-2.14,2.273-4.677,3.41-7.609,3.41c-1.309,0-2.523-0.235-3.648-0.698c-1.124-0.468-2.244-1.23-3.356-2.284v10.693h-5.648V9.283
		H101.541z M107.524,13.954c-1.794,0-3.281,0.613-4.462,1.836c-1.181,1.222-1.771,2.819-1.771,4.797
		c0,2.012,0.591,3.644,1.771,4.886s2.668,1.867,4.462,1.867c1.736,0,3.199-0.632,4.388-1.899c1.188-1.263,1.783-2.876,1.783-4.834
		c0-1.95-0.584-3.542-1.751-4.786C110.776,14.578,109.301,13.954,107.524,13.954z"/>
	<path fill="#004D6D" d="M121.316,0.53h5.691v31.435h-5.691V0.53z"/>
	<path fill="#004D6D" d="M146.782,9.283h5.691v22.682h-5.691v-2.396c-1.109,1.054-2.225,1.816-3.34,2.284
		c-1.12,0.463-2.329,0.698-3.634,0.698c-2.931,0-5.463-1.137-7.602-3.41C130.07,26.868,129,24.043,129,20.667
		c0-3.5,1.034-6.373,3.107-8.608c2.064-2.239,4.576-3.354,7.535-3.354c1.358,0,2.637,0.254,3.831,0.769
		c1.191,0.516,2.298,1.285,3.309,2.312V9.283z M140.802,13.954c-1.761,0-3.223,0.624-4.385,1.867
		c-1.161,1.244-1.744,2.836-1.744,4.786c0,1.958,0.592,3.571,1.774,4.834c1.185,1.267,2.642,1.899,4.373,1.899
		c1.788,0,3.27-0.625,4.447-1.867c1.179-1.242,1.768-2.874,1.768-4.886c0-1.978-0.589-3.575-1.768-4.797
		C144.09,14.567,142.602,13.954,140.802,13.954z"/>
	<path fill="#004D6D" d="M156.092,9.283h5.693v2.327c1.289-1.088,2.46-1.846,3.505-2.272c1.049-0.423,2.121-0.634,3.217-0.634
		c2.247,0,4.157,0.783,5.725,2.353c1.321,1.336,1.977,3.309,1.977,5.921v14.988h-5.629v-9.931c0-2.708-0.121-4.506-0.363-5.396
		c-0.244-0.888-0.667-1.562-1.271-2.029c-0.602-0.466-1.347-0.696-2.231-0.696c-1.153,0-2.142,0.384-2.963,1.152
		c-0.827,0.773-1.398,1.84-1.717,3.197c-0.169,0.708-0.249,2.245-0.249,4.604v9.098h-5.693V9.283z"/>
	<path fill="#004D6D" d="M180.266,0.925h5.69v8.358v4.898v17.784h-5.69V14.181V9.283V0.925z"/>
	<g>
		<g>
			<path fill="#004D6D" d="M161.674,2.025c0.187,0.211,16.407,7.676,31.461,14.62v-4.344C180.508,7.902,166.146,3.031,161.674,2.025
				z"/>
			<polygon fill="#F7941E" points="193.135,1.354 193.135,12.301 193.135,16.645 193.135,31.965 198.919,31.965 198.919,19.315 
				198.919,14.325 198.919,1.354 			"/>
			<path fill="#F7941E" d="M222.958,11.093c-1.565-1.567-3.47-2.352-5.714-2.352c-1.095,0-2.165,0.213-3.211,0.637
				s-2.214,1.181-3.502,2.266V9.325h-5.681v7.091v5.641v9.909h5.681v-7.271v-1.812c0-2.146,0.072-3.597,0.207-4.375
				c0.014-0.077,0.028-0.155,0.042-0.218c0.318-1.357,0.889-2.422,1.712-3.192c0.825-0.767,1.812-1.153,2.96-1.153
				c0.885,0,1.631,0.232,2.231,0.697c0.603,0.464,1.023,1.138,1.267,2.025c0.24,0.887,0.362,2.681,0.362,5.384v9.915h5.619V17.002
				C224.932,14.395,224.274,12.425,222.958,11.093z"/>
		</g>
		<path fill="#F7941E" d="M227.722,9.325h2.018c0.013-2.969,0.062-4.725,0.146-5.266c0.153-1.249,0.676-2.237,1.571-2.967
			C232.351,0.365,233.617,0,235.255,0c1.179,0,2.511,0.271,3.995,0.813v4.329c-0.817-0.237-1.492-0.355-2.019-0.355
			c-0.667,0-1.152,0.14-1.456,0.417c-0.223,0.208-0.333,0.638-0.333,1.29l-0.021,2.832h3.599v4.807h-3.599v17.834h-5.683V14.131
			h-2.018V9.325z"/>
		<path fill="#F7941E" d="M252.985,8.741c2.136,0,4.145,0.535,6.023,1.603c1.88,1.068,3.348,2.519,4.403,4.349
			c1.053,1.833,1.579,3.81,1.579,5.932c0,2.136-0.529,4.135-1.591,5.993c-1.062,1.86-2.508,3.313-4.339,4.359
			c-1.833,1.048-3.849,1.573-6.056,1.573c-3.246,0-6.018-1.155-8.314-3.465c-2.296-2.31-3.444-5.117-3.444-8.417
			c0-3.539,1.298-6.487,3.893-8.846C247.414,9.768,250.03,8.741,252.985,8.741z M253.08,14.089c-1.767,0-3.236,0.614-4.41,1.843
			c-1.175,1.227-1.763,2.798-1.763,4.713c0,1.971,0.58,3.565,1.741,4.787c1.159,1.22,2.631,1.831,4.408,1.831
			c1.779,0,3.26-0.617,4.44-1.853c1.182-1.235,1.771-2.823,1.771-4.765c0-1.941-0.578-3.52-1.738-4.734
			C256.369,14.696,254.885,14.089,253.08,14.089z"/>
		<path fill="#F7941E" d="M268.302,9.325h4.869v2.85c0.527-1.125,1.228-1.977,2.104-2.559c0.873-0.583,1.83-0.875,2.869-0.875
			c0.737,0,1.508,0.194,2.311,0.584l-1.769,4.89c-0.666-0.333-1.214-0.5-1.646-0.5c-0.873,0-1.611,0.541-2.216,1.622
			c-0.603,1.083-0.903,3.205-0.903,6.369l0.021,1.103v9.156h-5.641V9.325z"/>
		<path fill="#F7941E" d="M283.224,9.325h5.68v2.6c0.972-1.069,2.052-1.866,3.238-2.393c1.188-0.527,2.481-0.791,3.884-0.791
			c1.417,0,2.693,0.347,3.832,1.042c1.139,0.693,2.057,1.706,2.749,3.038c0.903-1.332,2.012-2.344,3.321-3.038
			c1.313-0.694,2.746-1.042,4.301-1.042c1.611,0,3.025,0.375,4.249,1.124c1.221,0.749,2.101,1.727,2.634,2.934
			c0.536,1.208,0.802,3.171,0.802,5.89v13.277h-5.724V20.478c0-2.566-0.317-4.302-0.957-5.211c-0.639-0.909-1.595-1.364-2.871-1.364
			c-0.971,0-1.841,0.278-2.613,0.833c-0.768,0.556-1.341,1.322-1.714,2.3c-0.377,0.978-0.563,2.548-0.563,4.713v10.218h-5.723
			V20.999c0-2.024-0.15-3.493-0.449-4.402c-0.3-0.907-0.747-1.584-1.344-2.028c-0.598-0.444-1.322-0.666-2.171-0.666
			c-0.945,0-1.804,0.282-2.575,0.842c-0.773,0.563-1.35,1.35-1.73,2.362c-0.383,1.013-0.575,2.61-0.575,4.787v10.073h-5.68V9.325z"
			/>
		<path fill="#F7941E" d="M346.008,22.288h-18.25c0.262,1.611,0.968,2.89,2.11,3.841c1.147,0.95,2.604,1.425,4.382,1.425
			c2.121,0,3.945-0.741,5.473-2.227l4.787,2.247c-1.193,1.693-2.623,2.946-4.287,3.757c-1.664,0.811-3.642,1.217-5.931,1.217
			c-3.553,0-6.445-1.121-8.679-3.361c-2.234-2.242-3.351-5.047-3.351-8.418c0-3.456,1.114-6.323,3.34-8.605
			c2.228-2.283,5.021-3.424,8.377-3.424c3.564,0,6.464,1.141,8.698,3.424c2.232,2.283,3.352,5.297,3.352,9.043L346.008,22.288z
			 M340.327,17.814c-0.376-1.263-1.116-2.29-2.22-3.08c-1.106-0.791-2.389-1.187-3.846-1.187c-1.584,0-2.976,0.445-4.172,1.333
			c-0.749,0.554-1.443,1.532-2.084,2.934H340.327z"/>
		<path fill="#F7941E" d="M367.317,0.583H373v31.382h-5.683v-2.393c-1.108,1.054-2.221,1.812-3.336,2.278
			c-1.116,0.464-2.323,0.698-3.628,0.698c-2.925,0-5.452-1.134-7.586-3.403c-2.135-2.268-3.201-5.088-3.201-8.46
			c0-3.495,1.033-6.361,3.098-8.594c2.063-2.234,4.571-3.352,7.524-3.352c1.357,0,2.632,0.258,3.825,0.77
			c1.191,0.515,2.291,1.284,3.304,2.31V0.583z M361.346,13.985c-1.757,0-3.216,0.621-4.377,1.862
			c-1.161,1.243-1.741,2.834-1.741,4.777c0,1.956,0.589,3.564,1.772,4.829c1.183,1.262,2.638,1.892,4.365,1.892
			c1.785,0,3.264-0.619,4.438-1.862c1.175-1.24,1.764-2.867,1.764-4.879c0-1.971-0.589-3.565-1.764-4.786
			C364.629,14.597,363.143,13.985,361.346,13.985z"/>
	</g>
</g>
</svg>
