<?xml version="1.0" encoding="utf-8"?>
<!-- Generator: Adobe Illustrator 16.0.0, SVG Export Plug-In . SVG Version: 6.00 Build 0)  -->
<!DOCTYPE svg PUBLIC "-//W3C//DTD SVG 1.1//EN" "http://www.w3.org/Graphics/SVG/1.1/DTD/svg11.dtd">
<svg version="1.1" id="Layer_1" xmlns="http://www.w3.org/2000/svg" xmlns:xlink="http://www.w3.org/1999/xlink" x="0px" y="0px"
	 width="168.561px" height="135.062px" viewBox="0 0 168.561 135.062" enable-background="new 0 0 168.561 135.062"
	 xml:space="preserve">
<g>
	<path fill="#FFFFFF" d="M138.503,91.19c0-3.033-0.989-5.829-2.646-8.108c0.273-0.836,0.476-1.701,0.624-2.586
		c5.403-2.786,9.205-8.219,9.698-14.591c4.013-3.302,6.571-8.304,6.571-13.905c0-5.804-2.758-10.951-7.021-14.242
		c0.338-1.533,0.521-3.123,0.521-4.758c0-12.15-9.85-22-22-22c-4.465,0-8.615,1.334-12.084,3.618C107.017,5.873,97.51,0,86.625,0
		c-3.604,0-7.056,0.645-10.25,1.822C73.181,0.645,69.729,0,66.125,0C55.24,0,45.733,5.873,40.584,14.618
		C37.115,12.334,32.965,11,28.5,11c-12.15,0-22,9.85-22,22c0,1.635,0.184,3.225,0.521,4.758C2.758,41.049,0,46.196,0,52
		c0,5.602,2.559,10.604,6.571,13.905c0.493,6.372,4.295,11.805,9.698,14.591C17.698,89.008,25.082,95.5,34,95.5
		c0.693,0,1.375-0.048,2.048-0.125c5.376,7.491,14.153,12.375,24.077,12.375c6.002,0,11.584-1.79,16.25-4.858
		c4.666,3.068,10.248,4.858,16.25,4.858c8.117,0,15.469-3.267,20.819-8.554c2.505,3.512,6.603,5.809,11.245,5.809
		C132.318,105.005,138.503,98.82,138.503,91.19z M33.167,72.247l-1.331-7.493l16.833-31.321l-21.163,3.76l-1.336-7.521l32.191-5.719
		l1.265,7.119L42.581,62.846l22.052-3.917l1.331,7.493L33.167,72.247z M97.536,44.697L79.852,65.833l17.109,0.488l-0.165,5.814
		l-25.449-0.729l0.166-5.813l17.456-20.829l-16.421-0.469l0.167-5.836l24.979,0.714L97.536,44.697z M125.24,62.206l-15.584,18.626
		l15.077,0.43l-0.146,5.124l-22.427-0.642l0.146-5.123l15.383-18.355l-14.471-0.413l0.147-5.143l22.013,0.629L125.24,62.206z"/>
	<circle fill="#FFFFFF" cx="144.25" cy="110.751" r="11.25"/>
	<circle fill="#FFFFFF" cx="160.311" cy="126.811" r="8.25"/>
</g>
</svg>
