<?xml version="1.0" encoding="utf-8"?>
<!-- Generator: Adobe Illustrator 16.0.0, SVG Export Plug-In . SVG Version: 6.00 Build 0)  -->
<!DOCTYPE svg PUBLIC "-//W3C//DTD SVG 1.1//EN" "http://www.w3.org/Graphics/SVG/1.1/DTD/svg11.dtd">
<svg version="1.1" id="Layer_1" xmlns="http://www.w3.org/2000/svg" xmlns:xlink="http://www.w3.org/1999/xlink" x="0px" y="0px"
	 width="98px" height="89.094px" viewBox="0 0 98 89.094" enable-background="new 0 0 98 89.094" xml:space="preserve">
<path fill="#FFFFFF" d="M98,74C66.152,84.348,31.848,84.348,0,74c0,2.444,0,4.889,0,7.333c31.848,10.348,66.152,10.348,98,0
	C98,78.889,98,76.444,98,74z"/>
<path fill="#FFFFFF" d="M63.992,20.333h-8.686c2.857-2.03,4.728-5.359,4.728-9.131C60.034,5.016,55.019,0,48.832,0
	S37.63,5.016,37.63,11.202c0,3.771,1.87,7.101,4.728,9.131H32.68L17.665,73.667h61.342L63.992,20.333z M48.832,4.518
	c3.691,0,6.685,2.993,6.685,6.685s-2.993,6.685-6.685,6.685s-6.685-2.993-6.685-6.685S45.141,4.518,48.832,4.518z"/>
</svg>
