<?xml version="1.0" encoding="utf-8"?>
<!-- Generator: Adobe Illustrator 16.0.0, SVG Export Plug-In . SVG Version: 6.00 Build 0)  -->
<!DOCTYPE svg PUBLIC "-//W3C//DTD SVG 1.1//EN" "http://www.w3.org/Graphics/SVG/1.1/DTD/svg11.dtd">
<svg version="1.1" id="Layer_1" xmlns="http://www.w3.org/2000/svg" xmlns:xlink="http://www.w3.org/1999/xlink" x="0px" y="0px"
	 width="235.156px" height="146.501px" viewBox="0 0 235.156 146.501" enable-background="new 0 0 235.156 146.501"
	 xml:space="preserve">
<g>
	<path fill="#FFFFFF" d="M180.292,146.501c-0.001,0-0.002,0-0.002,0c-1.473-0.001-2.727-1.07-2.96-2.523l-12.114-75.321
		l-9.288-49.414l-9.3,49.491l-12.512,58.396c-0.297,1.383-1.519,2.371-2.934,2.371c-1.397,0-2.668-0.966-2.981-2.328l-5.701-24.798
		l-3.735-18.276l-6.437-34.249l-6.425,34.188l-9.491,53.818c-0.253,1.434-1.498,2.479-2.954,2.479h-0.246
		c-1.457,0-2.703-1.047-2.955-2.482L78.133,68.697l-9.295-49.454L47.289,133.917c-0.267,1.419-1.505,2.446-2.948,2.446
		s-2.739-1.027-3.006-2.446l-9.867-52.508l-2.521,6.978c-0.43,1.188-1.558,1.98-2.821,1.98c0,0-0.003,0-0.004,0L2.996,90.334
		C1.339,90.332-0.002,88.986,0,87.33c0.002-1.655,1.345-2.996,3-2.996c0,0,0.003,0,0.004,0l21.017,0.03l5.543-15.34
		c0.46-1.272,1.717-2.09,3.062-1.971c1.349,0.108,2.457,1.106,2.707,2.437l8.979,47.782L65.89,2.446C66.156,1.027,67.395,0,68.838,0
		s2.682,1.027,2.948,2.446l12.25,65.18l9.308,53.085l6.657-37.749l9.379-49.909c0.267-1.419,1.505-2.446,2.948-2.446
		s2.682,1.027,2.948,2.446l9.373,49.877l1.328,6.33l2.387,11.851l2.688,11.685l9.694-45.244l12.233-65.104
		C153.246,1.027,154.484,0,155.928,0s2.682,1.027,2.948,2.446l12.25,65.18l9.181,57.077l6.776-41.701l9.387-49.949
		c0.267-1.419,1.505-2.446,2.948-2.446h0.001c1.443,0,2.682,1.028,2.947,2.447l9.612,51.28h20.178c1.657,0,3,1.343,3,3s-1.343,3-3,3
		h-22.668c-1.443,0-2.683-1.028-2.948-2.447l-7.126-38.018l-6.422,34.168l-9.739,59.945
		C183.018,145.435,181.763,146.501,180.292,146.501z"/>
</g>
</svg>
