<?xml version="1.0" encoding="utf-8"?>
<!-- Generator: Adobe Illustrator 16.0.0, SVG Export Plug-In . SVG Version: 6.00 Build 0)  -->
<!DOCTYPE svg PUBLIC "-//W3C//DTD SVG 1.1//EN" "http://www.w3.org/Graphics/SVG/1.1/DTD/svg11.dtd">
<svg version="1.1" id="Layer_1" xmlns="http://www.w3.org/2000/svg" xmlns:xlink="http://www.w3.org/1999/xlink" x="0px" y="0px"
	 width="81.612px" height="89.101px" viewBox="0 0 81.612 89.101" enable-background="new 0 0 81.612 89.101" xml:space="preserve">
<g>
	<path fill="#FFFFFF" d="M17.874,88.784C7.006,84.188-2.07,73.044,3.684,59.438c0.34-0.805,0.714-1.558,1.117-2.263
		c-4.166-5.423-5.66-10.996-4.328-16.337c1.034-4.141,3.373-7.765,6.748-10.551c-5.2-6.923-7.701-14.272-5.216-20.147
		c7.28-16.407,38.958-9.038,49.678-4.505c8.809,3.727,19.099,8.715,28.636,17.475c1.627,1.494,1.734,4.024,0.24,5.652
		c-1.494,1.626-4.025,1.73-5.652,0.24c-8.637-7.935-18.162-12.54-26.34-15.998c-9.55-4.039-35.119-8.93-39.222,0.316
		c-1.141,2.696,0.748,7.695,4.883,12.97c8.217-3.104,18.503-2.612,28.106,1.449c14.012,5.927,18.558,11.704,19.902,15.507
		c0.71,2.012,0.686,3.996-0.064,5.634c-0.679,1.771-2.162,3.251-4.215,4.192c-3.791,1.742-11.4,2.512-26.123-3.716
		c-6.962-2.944-13.84-7.661-19.324-13.062c-1.826,1.446-3.537,3.529-4.273,6.481c-0.716,2.864,0.284,5.771,2.09,8.45
		c6.579-4.304,15.348-3.389,21.119-0.948c12.393,5.242,14.645,12.224,12.621,17.01c-0.935,2.209-2.725,3.861-5.178,4.777
		c-5.721,2.137-13.909-0.212-17.254-1.771c-2.191-0.83-6.652-3.399-10.882-6.98C6.506,74.896,19.467,80.772,20.99,81.416
		c2.034,0.86,2.986,3.208,2.126,5.241C22.256,88.692,19.908,89.645,17.874,88.784z M24.742,62.916
		c0.068,0.029,0.137,0.06,0.202,0.092c2.646,1.293,8.432,2.577,11.146,1.563c0.237-0.089,0.536-0.23,0.606-0.399
		c0.377-0.889-2.821-4.179-8.369-6.525c-0.385-0.163-7.121-2.938-12.412-0.419c3.624,3.054,7.374,5.184,8.561,5.587
		C24.565,62.845,24.656,62.88,24.742,62.916z M20.434,32.814c4.018,3.541,8.941,6.817,14.517,9.175
		c13.374,5.656,18.454,4.324,19.676,3.793c-0.55-1.244-3.252-5.532-15.408-10.674C32.904,32.438,26.131,31.662,20.434,32.814z"/>
</g>
</svg>
