<?xml version="1.0" encoding="utf-8"?>
<!-- Generator: Adobe Illustrator 16.0.0, SVG Export Plug-In . SVG Version: 6.00 Build 0)  -->
<!DOCTYPE svg PUBLIC "-//W3C//DTD SVG 1.1//EN" "http://www.w3.org/Graphics/SVG/1.1/DTD/svg11.dtd">
<svg version="1.1" id="Layer_1" xmlns="http://www.w3.org/2000/svg" xmlns:xlink="http://www.w3.org/1999/xlink" x="0px" y="0px"
	 width="97.665px" height="71.098px" viewBox="0 0 97.665 71.098" enable-background="new 0 0 97.665 71.098" xml:space="preserve">
<g>
	<path fill="#FFFFFF" d="M93.212,39.548c2.817-3.975,4.453-8.674,4.453-13.714C97.665,11.566,84.607,0,68.498,0
		C57.249,0,47.494,5.645,42.629,13.906c11.029,4.576,18.704,14.585,18.704,26.177c0,3.606-0.749,7.058-2.104,10.243
		c2.913,0.865,6.027,1.34,9.27,1.34c3.429,0,6.717-0.528,9.772-1.491l9.173,3.305l9.347,3.367c0,0-2.012-4.664-2.933-9.784
		C93.334,44.152,93.216,41.391,93.212,39.548z"/>
	<path fill="#FFFFFF" d="M41.268,16.58c-3.688-1.492-7.782-2.33-12.101-2.33C13.058,14.25,0,25.816,0,40.083
		c0,5.04,1.636,9.739,4.453,13.714c-0.004,1.843-0.122,4.604-0.646,7.516c-0.921,5.12-2.933,9.784-2.933,9.784l9.347-3.367
		l9.173-3.305c3.056,0.962,6.344,1.491,9.772,1.491c12.425,0,23.028-6.885,27.231-16.579c1.245-2.874,1.935-5.992,1.935-9.254
		C58.333,29.641,51.334,20.652,41.268,16.58z"/>
</g>
</svg>
