<?xml version="1.0" encoding="utf-8"?>
<!-- Generator: Adobe Illustrator 16.0.0, SVG Export Plug-In . SVG Version: 6.00 Build 0)  -->
<!DOCTYPE svg PUBLIC "-//W3C//DTD SVG 1.1//EN" "http://www.w3.org/Graphics/SVG/1.1/DTD/svg11.dtd">
<svg version="1.1" id="Layer_1" xmlns="http://www.w3.org/2000/svg" xmlns:xlink="http://www.w3.org/1999/xlink" x="0px" y="0px"
	 width="64.381px" height="71.992px" viewBox="0 0 64.381 71.992" enable-background="new 0 0 64.381 71.992" xml:space="preserve">
<g>
	<path fill="#FFFFFF" d="M40.915,16.803c-2.402-1.763-5.433-2.656-9.085-2.68c-2.78-0.018-5.13,0.581-7.045,1.796
		c-3.039,1.905-4.665,5.157-4.892,9.763l7.008,0.045c0.009-1.34,0.409-2.63,1.198-3.869c0.792-1.241,2.121-1.853,3.995-1.84
		c1.9,0.013,3.21,0.524,3.921,1.542c0.708,1.015,1.061,2.136,1.055,3.364c-0.009,1.067-0.338,2.043-0.986,2.928
		c-0.362,0.515-0.833,0.989-1.415,1.422l-1.773,1.372c-1.749,1.343-2.835,2.538-3.264,3.576c-0.426,1.041-0.695,2.927-0.809,5.659
		l6.569,0.043c0.025-1.292,0.135-2.247,0.336-2.859c0.311-0.967,0.936-1.812,1.877-2.536l1.727-1.321
		c1.748-1.345,2.93-2.454,3.55-3.321c1.055-1.431,1.595-3.199,1.604-5.298C44.515,21.158,43.325,18.564,40.915,16.803z"/>
	
		<rect x="28.608" y="43.226" transform="matrix(-1 -0.0065 0.0065 -1 64.1558 93.6687)" fill="#FFFFFF" width="7.245" height="7.007"/>
	<path fill="#FFFFFF" d="M32.19,0C14.413,0,0,14.412,0,32.19c0,8.303,3.146,15.871,8.308,21.581l-0.257,6.893l-0.42,11.328
		l10.019-5.298l6.364-3.364c2.611,0.684,5.351,1.051,8.177,1.051c17.777,0,32.19-14.412,32.19-32.19S49.968,0,32.19,0z
		 M32.19,57.942c-14.223,0-25.752-11.529-25.752-25.752S17.968,6.438,32.19,6.438S57.942,17.967,57.942,32.19
		S46.413,57.942,32.19,57.942z"/>
</g>
</svg>
