<?xml version="1.0" encoding="utf-8"?>
<!-- Generator: Adobe Illustrator 16.0.0, SVG Export Plug-In . SVG Version: 6.00 Build 0)  -->
<!DOCTYPE svg PUBLIC "-//W3C//DTD SVG 1.1//EN" "http://www.w3.org/Graphics/SVG/1.1/DTD/svg11.dtd">
<svg version="1.1" id="Layer_1" xmlns="http://www.w3.org/2000/svg" xmlns:xlink="http://www.w3.org/1999/xlink" x="0px" y="0px"
	 width="32.281px" height="29.989px" viewBox="0 0 32.281 29.989" enable-background="new 0 0 32.281 29.989" xml:space="preserve">
<g id="Your_Icon_2_">
	<g>
		<path fill="#FFFFFF" d="M5.771,27.159c-0.193-0.162-0.316-0.406-0.312-0.681c0.008-0.479,0.399-0.862,0.879-0.856l0,0
			c0.422,0.006,1.664-0.096,2.35-0.601c1.941-1.436,6.195-5.167,6.238-5.204c0.36-0.316,0.91-0.279,1.226,0.081
			c0.317,0.36,0.28,0.908-0.079,1.226c-0.176,0.156-4.352,3.818-6.354,5.296c-1.275,0.942-3.189,0.942-3.402,0.938
			C6.109,27.356,5.917,27.28,5.771,27.159z"/>
	</g>
	<path fill="#FFFFFF" d="M29.978,2.106c-0.17-0.164-0.34-0.317-0.51-0.458c-3.714-3.091-7.6-1.147-9.104,0.284L2.621,17.224
		C2.569,17.269-2.591,21.513,1.71,27.63l0.09,0.107c0.201,0.207,0.413,0.401,0.627,0.58c3.938,3.277,8.354,0.744,8.54,0.635
		l0.068-0.043l19.414-16.99l0.089-0.091C32.025,10.083,33.818,5.805,29.978,2.106z M10.021,27.487
		c-0.506,0.273-3.684,1.824-6.48-0.505c-0.153-0.128-0.305-0.266-0.45-0.41c-3.277-4.731,0.458-7.863,0.642-8.012l7.764-6.692
		c0.365,1.641,1.278,4.109,3.598,6.039c0.945,0.787,2.127,1.484,3.595,1.998L10.021,27.487z M27.782,10.599
		c-0.879,0.197-1.748-0.357-1.947-1.236c-0.195-0.879,0.359-1.748,1.236-1.945c0.879-0.196,1.752,0.357,1.947,1.236
		C29.215,9.53,28.661,10.401,27.782,10.599z"/>
</g>
</svg>
