<?xml version="1.0" encoding="utf-8"?>
<!-- Generator: Adobe Illustrator 16.0.0, SVG Export Plug-In . SVG Version: 6.00 Build 0)  -->
<!DOCTYPE svg PUBLIC "-//W3C//DTD SVG 1.1//EN" "http://www.w3.org/Graphics/SVG/1.1/DTD/svg11.dtd">
<svg version="1.1" id="Layer_1" xmlns="http://www.w3.org/2000/svg" xmlns:xlink="http://www.w3.org/1999/xlink" x="0px" y="0px"
	 width="88.133px" height="88.134px" viewBox="0 0 88.133 88.134" enable-background="new 0 0 88.133 88.134" xml:space="preserve">
<path fill="#FFFFFF" d="M44.066,0C19.768,0,0,19.769,0,44.067s19.768,44.067,44.066,44.067s44.066-19.769,44.066-44.067
	S68.365,0,44.066,0z M5,44.067C5,22.491,22.491,5,44.066,5l0.5,0.013v13.906c-0.167-0.003-0.332-0.013-0.5-0.013
	c-13.873,0-25.16,11.287-25.16,25.161H5z M23.906,44.067c0-11.134,9.025-20.161,20.16-20.161c0.169,0,0.332,0.021,0.5,0.025
	c10.901,0.268,19.66,9.17,19.66,20.135s-8.759,19.868-19.66,20.135c-0.168,0.004-0.331,0.025-0.5,0.025
	C32.932,64.228,23.906,55.201,23.906,44.067z M44.066,83.134c0.168,0,0.333-0.011,0.5-0.013V69.215
	c13.643-0.268,24.66-11.442,24.66-25.148h13.906C83.133,65.643,65.642,83.134,44.066,83.134z"/>
</svg>
