<?xml version="1.0" encoding="utf-8"?>
<!-- Generator: Adobe Illustrator 16.0.0, SVG Export Plug-In . SVG Version: 6.00 Build 0)  -->
<!DOCTYPE svg PUBLIC "-//W3C//DTD SVG 1.1//EN" "http://www.w3.org/Graphics/SVG/1.1/DTD/svg11.dtd">
<svg version="1.1" id="Layer_1" xmlns="http://www.w3.org/2000/svg" xmlns:xlink="http://www.w3.org/1999/xlink" x="0px" y="0px"
	 width="81.047px" height="58.923px" viewBox="0 0 81.047 58.923" enable-background="new 0 0 81.047 58.923" xml:space="preserve">
<g>
	<polygon fill="#FFFFFF" points="29.685,8.688 27.106,8.615 29.771,5.43 29.795,4.598 26.03,4.49 26.005,5.369 28.479,5.44 
		25.85,8.579 25.824,9.455 29.659,9.564 	"/>
	<polygon fill="#FFFFFF" points="33.974,1.429 31.438,6.148 31.638,7.278 36.58,6.4 36.38,5.271 33.057,5.861 35.625,1.072 
		35.435,0 30.583,0.861 30.784,1.995 	"/>
	<polygon fill="#FFFFFF" points="25.649,14.424 23.377,14.359 25.726,11.553 25.747,10.818 22.43,10.724 22.407,11.499 
		24.588,11.562 22.27,14.327 22.247,15.1 25.627,15.196 	"/>
	<path fill="#FFFFFF" d="M78.026,24.188h-0.839c-1.668,0-3.021,1.353-3.021,3.021v13.002H6.88v-21.56
		c0-1.668-1.353-3.021-3.021-3.021H3.021C1.353,15.631,0,16.983,0,18.651v37.251c0,1.668,1.353,3.021,3.021,3.021h0.839
		c1.668,0,3.021-1.353,3.021-3.021v-6.124h67.287v6.124c0,1.668,1.353,3.021,3.021,3.021h0.839c1.668,0,3.021-1.353,3.021-3.021
		V27.209C81.047,25.541,79.694,24.188,78.026,24.188z"/>
	<path fill="#FFFFFF" d="M27.435,23.434c0-1.668-1.352-3.021-3.02-3.021H12.837c-1.669,0-3.021,1.353-3.021,3.021v13.843h17.618
		V23.434z"/>
	<path fill="#FFFFFF" d="M71.65,37.276v-6.544c0-2.769-3.356-6.544-6.712-6.544H30.372c0,3.943,0.083,13.088,0.083,13.088H71.65z"/>
</g>
</svg>
